<?xml version="1.0" encoding="UTF-8"?> <svg xmlns="http://www.w3.org/2000/svg" width="602" height="381" viewBox="0 0 602 381" fill="none"><g clip-path="url(#clip0_23_19)"><path d="M203.99 245.42C209.49 245.42 215.6 246.98 219.14 249.42C211.1 252.07 196.49 261.82 190.99 280.73V280.75H181.24L193.96 217.61H202.89C202.95 217.61 203.01 217.61 203.07 217.61C203.69 217.61 204.26 217.69 204.77 217.81C205.31 217.96 205.81 218.24 206.24 218.66C206.68 219.1 207.06 219.73 207.4 220.57C207.73 221.41 208.04 222.54 208.3 223.92L212.5 246.02C209.34 245.14 205.78 244.7 202.54 244.84L200.52 233.47L200.18 231.57C199.52 235.15 198.53 240.49 197.44 246.33C199.33 245.69 201.6 245.39 203.99 245.39V245.42ZM205.15 259.51L208.94 280.77H219.13L213.84 252.97C211.85 254.2 207.35 257.11 205.16 259.51H205.15ZM183.15 227.17V226.19V217.61H151.66L151.63 227.17H162.81V276.33C162.81 277.43 162.88 278.27 163.03 278.89C163.18 279.51 163.42 279.94 163.75 280.19C164.08 280.47 164.5 280.63 165.01 280.68C165.52 280.74 166.14 280.77 166.86 280.75H172V229.88C172 229.73 172.01 229.58 172.03 229.44C172.05 229.29 172.07 229.14 172.1 229.01L172.12 228.95V228.92V228.9V228.89L172.15 228.8V228.77V228.74V228.71L172.19 228.6L172.22 228.52V228.5H172.23V228.47H172.24V228.44H172.25V228.42H172.27L172.29 228.39V228.36L172.3 228.33L172.31 228.3L172.32 228.28L172.35 228.23V228.21H172.36V228.19H172.38L172.4 228.17L172.42 228.15L172.46 228.09C172.54 227.98 172.64 227.88 172.74 227.8C172.83 227.73 172.93 227.67 173.03 227.61L173.06 227.59L173.12 227.56H173.15V227.54H173.18V227.52L173.24 227.49L173.27 227.48L173.3 227.47L173.33 227.46H173.36V227.45H173.39L173.42 227.43H173.45V227.42H173.48V227.41H173.51V227.4H173.54V227.39H173.57V227.38H173.6H173.63V227.37H173.66H173.69H173.72H173.75H173.78H173.81H173.84H173.87H173.9H173.93H173.96H173.99H174.02H174.05H174.08H174.11H174.14H174.17H174.2H174.23H174.26H174.29H174.32H174.35H174.38H174.41H174.45H174.48H174.59H174.63H182.92L183.15 227.17ZM65.61 248.64C67.29 245.28 66.62 237.81 66.76 229.23C66.76 227.1 66.76 224.97 66.76 222.84C66.84 219.42 65.37 217.77 62.14 217.62L48.5 217.6H48.53H36.81V279.93C36.81 280.21 36.83 280.48 36.86 280.75C36.94 280.75 37.01 280.75 37.08 280.74H46.47V272.73C46.46 272.49 46.46 272.24 46.47 271.97V254.91C46.47 245.38 46.47 235.85 46.47 226.34H53.8C55.34 226.31 56.48 226.33 56.91 227.24C56.95 227.55 56.98 227.83 57 228.09C57.05 228.79 57.09 229.5 57.11 230.22C57.11 233.09 57.09 233.42 57.09 236.28H57.11V240.33C57.13 241.32 56.93 242.05 56.52 242.51C55.87 243.31 54.77 243.17 53.84 243.28C50.71 243.65 49.27 244.91 48.69 246.98C48.13 248.97 48.36 252.41 48.36 254.56C52.18 254.52 56.93 255.43 57.06 260.15L57.24 280.73H66.77V258.19C66.82 254.54 65.59 252.07 63.62 250.41C64.51 250.01 65.2 249.45 65.61 248.63V248.64ZM27.33 217.62H4.45001C3.58001 217.62 2.82001 217.74 2.17001 217.95C1.48001 218.2 0.95001 218.62 0.58001 219.22C0.21001 219.81 0.0100098 220.65 0.0100098 221.72V275.94C0.0100098 276.84 0.21001 277.64 0.58001 278.37C0.96001 279.1 1.49001 279.68 2.17001 280.11C2.86001 280.55 3.68001 280.76 4.61001 280.77L27.28 280.78L27.43 280.77V271.48H11.55C10.66 271.48 10.06 271.24 9.75001 270.76C9.69001 270.67 9.63001 270.57 9.59001 270.46C9.45001 269.68 9.35001 268.83 9.31001 267.91V233.25C9.19001 231.42 9.25001 229.9 9.40001 228.51C9.40001 228.52 9.38001 228.53 9.38001 228.54C9.52001 227.63 9.58001 226.99 9.69001 226.37C9.54001 227 9.47001 227.77 9.40001 228.51C9.61001 227.63 10.22 227.11 11.72 227.02H27.44V217.62L26.88 217.7L27.34 217.63L27.33 217.62ZM89.63 238.25L89.3 240.1V240.05C88.36 234.96 86.75 226.32 85.13 217.69H75.75L83.07 254.03H84.64V279.94C84.64 280.23 84.64 280.45 84.64 280.76H84.65C84.87 280.76 85.09 280.76 85.31 280.76H94.3V272.74C94.3 272.5 94.3 272.25 94.3 271.98V253.69C94.68 253.53 95.04 253.29 95.36 252.98C95.8 252.54 96.18 251.91 96.51 251.07C96.84 250.26 97.14 249.16 97.4 247.82H97.42L103.15 217.69H93.3L89.64 238.24L89.63 238.25ZM122.05 217.62H118.44C114.77 217.82 112.51 218.75 112.39 222.14V222.5V237V241.69V241.75C112.39 244.48 112.44 246.52 112.63 248.03C113.2 252.39 115.03 252.47 120.87 252.6H130.71C131.61 252.59 132.26 252.82 132.65 253.3C132.9 253.6 133.04 254.01 133.1 254.52V258.53C133.12 258.14 133.15 257.75 133.16 257.38C133.14 256.42 133.12 255.47 133.11 254.57C133.14 254.85 133.15 255.17 133.14 255.51V256.43H133.18C133.18 256.74 133.18 257.06 133.16 257.39C133.27 261.61 133.44 266.28 133.06 269.92V269.94C132.98 270.24 132.87 270.5 132.73 270.72C132.41 271.2 131.82 271.44 130.93 271.44H122.03V261.88H112.39V280.74H114.98H115.06H137.8C138.73 280.73 139.54 280.52 140.23 280.08C140.93 279.65 141.45 279.07 141.83 278.34C142.2 277.61 142.39 276.82 142.4 275.91V247.02C142.4 245.95 142.2 245.11 141.83 244.52C141.45 243.92 140.93 243.5 140.23 243.26C139.54 243.04 138.68 242.96 137.75 242.97H129.62C125.3 242.95 122.25 242.55 121.64 238.13C121.31 235.79 121.53 230.23 121.72 228.43V228.38C121.8 228.09 121.91 227.84 122.04 227.63C122.36 227.15 122.96 226.91 123.85 226.91H132.76V236.47H142.4V217.61H122.05V217.62ZM344.15 259.51L347.93 280.77H358.12L352.83 252.97C350.84 254.2 346.34 257.11 344.15 259.51ZM483.59 222.85V280.78H456.66C453.71 280.76 452.13 278.29 452.1 275.55V217.63H479.07C482 217.68 483.57 220.13 483.59 222.86V222.85ZM474.03 230.26C474.07 228.53 473.41 227.27 471.51 227.27H461.67V267.01C461.67 269.01 461.49 271.12 464.2 271.12H474.03V230.25V230.26ZM560.82 248.64C562.5 245.28 561.83 237.81 561.97 229.23C561.97 227.1 561.97 224.97 561.97 222.84C562.06 219.42 560.58 217.77 557.35 217.62L543.71 217.6H543.74H532.02V279.93C532.02 280.21 532.04 280.48 532.07 280.75C532.15 280.75 532.22 280.75 532.29 280.74H541.68V272.73C541.67 272.49 541.67 272.24 541.68 271.97V254.91C541.68 245.38 541.68 235.85 541.68 226.34H549.01C550.56 226.31 551.69 226.33 552.12 227.24C552.16 227.55 552.19 227.83 552.21 228.09C552.26 228.79 552.3 229.5 552.32 230.22C552.32 233.09 552.3 233.42 552.3 236.28H552.32V240.33C552.34 241.32 552.14 242.05 551.73 242.51C551.08 243.31 549.98 243.17 549.05 243.28C545.92 243.65 544.48 244.91 543.9 246.98C543.34 248.97 543.57 252.41 543.57 254.56C547.39 254.52 552.14 255.43 552.27 260.15L552.45 280.73H561.98V258.19C562.03 254.54 560.8 252.07 558.83 250.41C559.72 250.01 560.41 249.45 560.82 248.63V248.64ZM513.15 268.15C513.15 269.16 513.05 270.17 512.92 271.13C512.5 272.04 511.36 272.06 509.81 272.02H502.48V217.61H492.82V280.77H504.54H504.51L518.15 280.75C521.38 280.6 522.86 278.95 522.77 275.53C522.77 256.44 522.77 236.71 522.77 217.61H513.13V268.14L513.15 268.15ZM601.36 217.62H577.43C573.76 217.82 571.5 218.75 571.38 222.14V222.5V237V241.69V241.75C571.38 244.48 571.43 246.52 571.62 248.03C572.19 252.39 574.02 252.47 579.86 252.6H589.7C590.6 252.59 591.25 252.82 591.64 253.3C591.89 253.6 592.03 254.01 592.09 254.52V258.53C592.11 258.14 592.14 257.75 592.15 257.38C592.13 256.42 592.11 255.47 592.1 254.57C592.13 254.85 592.14 255.17 592.13 255.51V256.43H592.17C592.17 256.74 592.17 257.06 592.15 257.39C592.26 261.61 592.43 266.28 592.05 269.92V269.94C591.97 270.24 591.86 270.5 591.72 270.72C591.4 271.2 590.81 271.44 589.92 271.44H581.02V261.88H571.38V280.74H573.97H574.05H596.79C597.72 280.73 598.53 280.52 599.22 280.08C599.92 279.65 600.44 279.07 600.82 278.34C601.19 277.61 601.38 276.82 601.39 275.91V247.02C601.39 245.95 601.2 245.11 600.82 244.52C600.44 243.92 599.92 243.5 599.22 243.26C598.53 243.04 597.67 242.96 596.74 242.97H588.61C584.29 242.95 581.24 242.55 580.63 238.13C580.3 235.79 580.52 230.23 580.71 228.43V228.38C580.79 228.09 580.9 227.84 581.03 227.63C581.35 227.15 581.95 226.91 582.84 226.91H591.75V236.47H601.39V217.61H601.36V217.62ZM376.96 217.61L373.3 238.16L372.97 240.01C371.63 232.54 370.2 225.07 368.8 217.61H359.42L366.74 253.95H368.31V280.69H377.96C377.96 272.08 377.96 263.47 377.96 254.85V253.62C378.34 253.46 378.7 253.23 379.02 252.91C379.46 252.47 379.84 251.84 380.18 251C380.52 250.16 380.83 249.09 381.09 247.71L386.82 217.62H376.97L376.96 217.61ZM336.44 246.36C337.53 240.51 338.53 235.18 339.18 231.6L339.52 233.5L341.54 244.87C344.78 244.73 348.33 245.17 351.5 246.05L347.3 223.95C347.04 222.57 346.73 221.44 346.4 220.6C346.06 219.76 345.68 219.13 345.24 218.69C344.81 218.27 344.31 217.98 343.77 217.84C343.26 217.72 342.69 217.64 342.07 217.64C342.01 217.64 341.95 217.64 341.89 217.64H332.96L320.24 280.78H329.98V280.76C335.49 261.85 350.1 252.1 358.14 249.45C354.6 247.01 348.49 245.45 342.99 245.45C340.6 245.45 338.33 245.75 336.44 246.39V246.36ZM442.87 217.61H411.38L411.35 227.17H422.53V276.33C422.53 277.43 422.6 278.27 422.75 278.89C422.9 279.51 423.14 279.94 423.47 280.19C423.8 280.47 424.22 280.63 424.73 280.68C425.24 280.74 425.86 280.77 426.58 280.75H431.72V229.88C431.72 229.73 431.73 229.58 431.75 229.44C431.77 229.29 431.79 229.14 431.82 229.01L431.84 228.95V228.92V228.9V228.89L431.87 228.8V228.77V228.74V228.71L431.91 228.6L431.94 228.52V228.5H431.95V228.47L431.97 228.44L431.98 228.41L432 228.37L432.01 228.34L432.02 228.31L432.03 228.28L432.04 228.26L432.07 228.21V228.19H432.09V228.17H432.11L432.13 228.15L432.15 228.13L432.19 228.07C432.27 227.96 432.37 227.86 432.47 227.78C432.56 227.71 432.66 227.65 432.76 227.59L432.79 227.57L432.85 227.54H432.88V227.52H432.91V227.5L432.97 227.47L433 227.46L433.03 227.45L433.06 227.44H433.09V227.43H433.12V227.42H433.15V227.41H433.18V227.4H433.21V227.39H433.24V227.38H433.27L433.3 227.36L433.33 227.35H433.36V227.34H433.39H433.42H433.45H433.48H433.51H433.54H433.57H433.6H433.63H433.66H433.69H433.72H433.75H433.78H433.81H433.84H433.87H433.9H433.93H433.96H433.99H434.02H434.05H434.08H434.12H434.15H434.19H434.22H434.33H434.36H442.65V226.36V217.78L442.87 217.61ZM310.96 260.03C310.96 261.17 310.97 262.39 311 263.66V269.13V269.22V272.55V272.64V275.52C311.09 278.94 309.61 280.59 306.38 280.73L292.75 280.75H292.78H281.06V217.59H292.78H292.74L306.37 217.61C309.6 217.75 311.08 219.25 310.99 222.35C310.95 226.7 310.95 230.17 310.94 233.72H310.97C311.01 238.8 310.94 242.93 309.81 245.18C309.4 246.01 308.68 246.58 307.77 246.98C309.74 248.65 310.98 251.12 310.92 254.76V260.01H310.95L310.96 260.03ZM301.34 229.09C301.32 228.6 301.3 228.12 301.27 227.64C301 226.34 299.78 226.32 298.04 226.35H290.7V247.47V272.02H298.04C299.58 272.05 300.72 272.04 301.15 271.13C301.19 270.82 301.22 270.54 301.24 270.28C301.29 269.58 301.33 268.87 301.35 268.15V265.83H301.31L301.23 256.76C301.09 252.03 296.35 251.13 292.53 251.17C292.53 250.13 292.49 248.77 292.51 247.43C292.51 246.18 292.56 244.91 292.86 243.58H292.9V243.56C293.48 241.49 294.92 240.23 298.05 239.86C298.98 239.75 300.08 239.89 300.73 239.09C301.14 238.63 301.33 237.9 301.31 236.91V233.75H301.34V229.1V229.09ZM238.4 270.6L238.38 270.58L238.36 270.56L238.35 270.54H238.34V270.52H238.33V270.5L238.31 270.48L238.29 270.46L238.27 270.44L238.26 270.42V270.4H238.25V270.38L238.23 270.36L238.21 270.34L238.19 270.32L238.18 270.3L238.16 270.28V270.26V270.24H238.14L238.12 270.22L238.1 270.2L238.09 270.18L238.08 270.16V270.14V270.12H238.06V270.1H238.05L238.03 270.08V270.06H238.02V270.04H238V270.01V269.98L237.99 269.95V269.92H237.98V269.9H237.97L237.94 269.83L237.93 269.8L237.9 269.71C237.79 269.37 237.73 268.98 237.72 268.54V217.66H232.58C232.45 217.66 232.32 217.66 232.19 217.66C231.63 217.66 231.14 217.69 230.72 217.74C230.21 217.78 229.79 217.95 229.46 218.22C229.13 218.48 228.89 218.91 228.74 219.53C228.6 220.12 228.53 220.91 228.52 221.93V280.81H252.24V271.25H240.61C239.78 271.27 239.09 271.06 238.55 270.65L238.4 270.6Z" fill="url(#paint0_linear_23_19)"></path><path fill-rule="evenodd" clip-rule="evenodd" d="M0 338.63C85.06 328.76 188.77 322.95 300.69 322.95C412.62 322.95 516.32 328.75 601.39 338.63C522.26 324.5 416.67 315.88 300.69 315.88C184.71 315.88 79.13 324.51 0 338.63Z" fill="#213A8F"></path><path fill-rule="evenodd" clip-rule="evenodd" d="M263.97 119.97C262.35 122.83 259.87 126.94 258.94 130.8C259.1 130.44 259.2 130.28 259.41 129.93C261.8 126.06 267.43 123.17 273.89 120.6C275.49 119.97 277.06 119.41 278.65 118.84C285.6 116.37 292.95 113.74 300.85 105.54C301.03 105.35 301.18 105.17 301.34 104.96C301.5 105.16 301.64 105.34 301.82 105.52C309.22 113.22 315.09 115.41 323.27 118.47C325.01 119.12 326.86 119.81 328.84 120.6C335.7 123.33 341.26 126.3 343.5 130.17C343.62 130.37 343.73 130.59 343.83 130.8C342.85 126.95 340.31 122.7 338.76 119.97C327.41 99.95 308.88 85.12 301.34 67.64C292.97 86.42 274.33 101.7 263.97 119.97Z" fill="url(#paint1_linear_23_19)"></path><path fill-rule="evenodd" clip-rule="evenodd" d="M246.9 13.7C249.12 12.04 255.05 11.21 257.81 10.94C260.34 10.69 262.52 10.68 264.69 11.03C266.86 11.38 269 12.09 271.43 13.28C278.84 16.91 284.98 23.86 289.94 31.75C294.8 39.47 298.17 48.09 300.87 55.35C300.94 55.53 301.28 56.44 301.34 56.44C301.4 56.44 301.74 55.54 301.81 55.35C304.5 48.09 307.88 39.47 312.74 31.75C317.71 23.86 323.85 16.91 331.25 13.28C333.68 12.09 335.82 11.38 337.99 11.03C340.15 10.68 342.34 10.69 344.87 10.94C347.64 11.21 353.56 12.04 355.78 13.7C346.39 5.2 313.77 0.07 301.34 0C288.91 0.07 256.29 5.2 246.9 13.7Z" fill="url(#paint2_linear_23_19)"></path><path fill-rule="evenodd" clip-rule="evenodd" d="M284.54 136.36C283.23 138.4 285.23 140.12 286.85 141.7L301.34 155.83L315.87 141.7C317.35 140.26 319.16 138.69 318.45 136.88C317.6 134.68 313.83 133.71 311.81 133.12C308.11 132.04 303.99 130.84 301.34 126.36C299 130.74 294.06 132.37 289.97 133.71C288.46 134.21 285.42 135 284.54 136.37V136.36Z" fill="url(#paint3_linear_23_19)"></path><path fill-rule="evenodd" clip-rule="evenodd" d="M284.48 135.01C285.67 134.05 287.57 133.48 289.77 132.76C293.91 131.4 298.98 129.74 301.07 125.21L301.34 124.61L301.65 125.19C304.15 129.87 308.27 131.08 311.99 132.17C314.39 132.87 316.63 133.53 318.22 135.01L318.12 134.77C316.12 130.04 312.25 125.07 309.03 121.07C306.47 117.9 303.13 114.2 301.34 110.92C299.65 114.3 296.88 117.61 293.97 121.06C290.42 125.28 286.73 129.65 284.6 134.69L284.47 135L284.48 135.01Z" fill="url(#paint4_linear_23_19)"></path><path fill-rule="evenodd" clip-rule="evenodd" d="M265.17 144.57L301.34 179.23L337.56 144.57C343.75 138.64 344.84 134.2 342.76 130.61C340.63 126.94 335.23 124.07 328.52 121.4C326.54 120.61 324.7 119.93 322.97 119.28C318.23 117.51 312.99 115.35 308.41 112.29C305.8 110.54 302.94 107.84 301.33 106.05C306.61 114.74 317.2 123.35 321.61 134.28C323.39 138.7 322.4 139.6 319.07 142.78L301.65 159.47L301.33 159.75L301.06 159.47L283.63 142.78C280.36 139.64 279.25 138.85 281.09 134.28C285.48 123.41 294.85 115.32 301.33 106.05C299.29 107.94 298.02 109.54 295.73 111.29C289.85 115.77 284.26 117.76 278.93 119.65C277.32 120.22 275.72 120.79 274.2 121.4C267.89 123.91 262.4 126.71 260.13 130.38C257.91 133.97 258.82 138.49 265.16 144.57H265.17Z" fill="url(#paint5_linear_23_19)"></path><path fill-rule="evenodd" clip-rule="evenodd" d="M347.79 30.93C335.98 37.86 324.93 45.99 314.81 55.14C306.75 62.84 306.04 63.78 313.47 72.19C314.78 73.71 316.07 75.25 317.33 76.81C317.82 77.46 318.84 78.69 319.78 79.29C319.75 79.17 319.74 79.04 319.74 78.89C319.74 74.17 329.83 59.29 332.66 55.43C340.37 44.91 350.63 33.84 360.81 28.8C364.39 27.02 367.98 25.99 371.44 25.99C373.2 25.99 374.89 26.25 376.5 26.75C377.01 26.91 377.5 27.09 378 27.29C374.71 25.09 371.32 23.37 367.24 23.37C360.88 23.37 353.19 27.77 347.8 30.93H347.79Z" fill="url(#paint6_linear_23_19)"></path><path fill-rule="evenodd" clip-rule="evenodd" d="M320.79 79.1C321.15 78.95 321.63 78.62 322.14 78.22C322.14 78.2 323.62 76.97 323.77 76.84C324.38 76.29 324.85 75.85 325.17 75.54C331.24 69.79 339.93 63.68 346.95 59.1C354.35 54.27 362.09 49.93 370.1 46.11C373.85 44.05 377.58 42.77 380.65 41.72C383.82 40.63 386.28 39.79 387.21 38.62C388.44 37.08 386.92 34.68 380.66 29.7C379.26 28.75 377.79 28.04 376.25 27.56C374.72 27.09 373.11 26.84 371.44 26.84C368.12 26.84 364.66 27.84 361.19 29.56C351.16 34.53 341 45.5 333.35 55.93C325.78 66.25 320.68 75.98 320.6 78.8C320.6 78.91 320.6 79.05 320.63 79.16L320.79 79.1Z" fill="url(#paint7_linear_23_19)"></path><path fill-rule="evenodd" clip-rule="evenodd" d="M380.79 53.69C362.73 60.75 345.71 70.12 330.83 82.19C323.09 88.47 327.23 89.7 332.03 97.3C335 102.25 336.28 104.63 337.81 105.02C337.28 104.08 338.28 101.26 341.65 95.42C347.13 85.84 361.56 72.06 370.32 65.35C379.4 58.39 388.93 53.29 396.66 53.29C399.16 53.29 401.32 53.86 403.14 54.99C403.73 55.36 404.28 55.78 404.79 56.26C402.44 52.44 399.36 50 394.72 50C390.54 50 384.73 52.16 380.8 53.69H380.79Z" fill="url(#paint8_linear_23_19)"></path><path fill-rule="evenodd" clip-rule="evenodd" d="M342.46 95.74C338.94 101.81 337.97 104.23 338.5 104.54C339.17 104.93 342.39 102.42 346.02 99.59L347.64 98.33C355.31 93.05 363.33 88.32 371.64 84.17C379.91 80.04 388.48 76.48 397.28 73.54C397.28 73.39 403.79 71.5 404.53 71.29C406.23 70.82 407.52 70.46 408.4 70.04C410.66 68.97 409.96 67.23 406.8 60.56C405.86 58.56 404.47 56.77 402.56 55.63C400.91 54.64 398.95 54.15 396.67 54.15C389.15 54.15 379.8 59.17 370.85 66.03C358.88 75.2 347.66 87.63 342.47 95.74H342.46Z" fill="url(#paint9_linear_23_19)"></path><path fill-rule="evenodd" clip-rule="evenodd" d="M394.31 85.84C379.93 90.72 366.28 97.2 353.57 105.1C340.79 113.03 341.03 113.06 346.82 124.82C347.7 126.8 348.56 128.8 349.38 130.81C350.33 133.15 350.68 134.38 351.1 134.78C351.12 134.11 351.71 132.79 353.03 130.51C356.99 123.33 361.83 116.59 367.36 110.47C372.93 104.31 379.2 98.78 385.96 94.07C389.57 91.56 394.73 88.5 399.95 86.33C403.93 84.67 407.95 83.53 411.34 83.53C412.92 83.53 414.32 83.77 415.53 84.27C413.6 83 411.33 82.48 408.82 82.48C403.95 82.48 398.89 84.27 394.31 85.82V85.84Z" fill="url(#paint10_linear_23_19)"></path><path fill-rule="evenodd" clip-rule="evenodd" d="M254.88 30.93C266.69 37.86 277.74 45.99 287.86 55.14C295.92 62.84 296.63 63.78 289.2 72.19C287.89 73.71 286.6 75.25 285.34 76.81C284.85 77.46 283.83 78.69 282.89 79.29C282.92 79.13 282.93 78.98 282.93 78.82C282.86 75.88 277.69 65.91 270.01 55.44C262.3 44.92 252.04 33.85 241.86 28.81C238.28 27.03 234.69 26 231.23 26C229.47 26 227.78 26.26 226.17 26.76C225.66 26.92 225.17 27.1 224.67 27.3C227.96 25.1 231.35 23.38 235.43 23.38C241.82 23.38 249.46 27.77 254.87 30.94L254.88 30.93Z" fill="url(#paint11_linear_23_19)"></path><path fill-rule="evenodd" clip-rule="evenodd" d="M281.89 79.1C281.43 78.9 280.91 78.51 280.52 78.2C279.47 77.38 278.47 76.45 277.5 75.53C271.42 69.78 262.75 63.67 255.72 59.09C248.32 54.26 240.58 49.92 232.58 46.1C228.83 44.04 225.1 42.76 222.03 41.71C218.86 40.62 216.4 39.78 215.47 38.61C214.24 37.07 215.76 34.67 222.02 29.69C223.42 28.74 224.89 28.03 226.43 27.55C227.96 27.08 229.57 26.83 231.24 26.83C234.56 26.83 238.02 27.83 241.49 29.55C251.52 34.52 261.68 45.49 269.33 55.92C276.88 66.22 281.98 75.93 282.08 78.77C282.08 78.89 282.08 79.04 282.05 79.15L281.89 79.09V79.1Z" fill="url(#paint12_linear_23_19)"></path><path fill-rule="evenodd" clip-rule="evenodd" d="M221.8 53.66C239.9 60.72 256.95 70.1 271.85 82.19C279.6 88.47 275.45 89.7 270.65 97.3C267.68 102.25 266.4 104.63 264.87 105.02C265.73 103.48 261.74 96.49 260.95 95.3C255.72 87.12 244.41 74.59 232.36 65.36C223.28 58.4 213.75 53.3 206.02 53.3C203.53 53.3 201.36 53.87 199.55 55C198.96 55.37 198.4 55.8 197.89 56.28C200.24 52.46 203.32 50.02 207.96 50.02C212.6 50.02 217.49 52.19 221.8 53.68V53.66Z" fill="url(#paint13_linear_23_19)"></path><path fill-rule="evenodd" clip-rule="evenodd" d="M260.22 95.74C263.74 101.81 264.71 104.23 264.18 104.54C263.51 104.93 260.29 102.42 256.66 99.59L255.04 98.33C247.37 93.05 239.35 88.32 231.04 84.17C222.77 80.04 214.2 76.48 205.4 73.54C205.4 73.39 198.89 71.5 198.15 71.29C196.45 70.82 195.16 70.46 194.28 70.04C192.02 68.97 192.72 67.23 195.88 60.56C196.89 58.42 198.24 56.82 199.93 55.75C201.62 54.68 203.65 54.14 206.02 54.14C213.54 54.14 222.89 59.16 231.84 66.02C243.81 75.19 255.03 87.62 260.22 95.73V95.74Z" fill="url(#paint14_linear_23_19)"></path><path fill-rule="evenodd" clip-rule="evenodd" d="M208.37 85.84C222.75 90.72 236.4 97.2 249.11 105.1C261.89 113.03 261.65 113.06 255.86 124.82C254.98 126.8 254.12 128.8 253.3 130.81C252.35 133.15 252 134.38 251.58 134.78C251.56 134.11 250.97 132.79 249.65 130.51C245.69 123.33 240.85 116.59 235.32 110.47C229.75 104.31 223.48 98.78 216.72 94.07C213.11 91.56 207.95 88.5 202.73 86.33C198.75 84.67 194.73 83.53 191.34 83.53C189.76 83.53 188.36 83.77 187.15 84.27C189.08 83 191.35 82.48 193.86 82.48C198.77 82.48 203.76 84.26 208.37 85.82V85.84Z" fill="url(#paint15_linear_23_19)"></path><path fill-rule="evenodd" clip-rule="evenodd" d="M216.23 94.79C222.95 99.46 229.17 104.95 234.69 111.05C240.17 117.11 244.97 123.8 248.9 130.94C249.03 131.22 250.95 134.41 250.94 134.55C250.93 134.55 250.08 133.91 248.96 133.05C248.09 132.39 247.07 131.61 246.01 130.91C237.61 125.42 228.76 120.54 219.6 116.35C210.52 112.21 201.14 108.75 191.57 106.06C189.6 105.5 187.93 105.09 186.53 104.74C183.2 103.91 181.46 103.48 180.87 102.44C180.22 101.29 180.81 99.14 182.04 94.66C182.36 93.5 182.72 92.2 183.05 90.94C183.45 89.04 184.26 87.25 185.82 86.03C187.21 84.93 189.06 84.4 191.34 84.4C194.61 84.4 198.52 85.51 202.4 87.13C207.55 89.27 212.66 92.3 216.23 94.78V94.79Z" fill="url(#paint16_linear_23_19)"></path><path fill-rule="evenodd" clip-rule="evenodd" d="M270.71 14.05C277.96 17.6 283.99 24.44 288.88 32.21C293.57 39.65 297.21 47.96 299.87 55.05C299.74 54.97 299.61 54.88 299.49 54.79C299.07 54.48 298.67 54.12 298.33 53.79C297.7 53.08 297.06 52.39 296.43 51.72C295.79 51.04 295.14 50.35 294.48 49.67C287.79 42.79 280.66 37.03 273.11 31.88C265.57 26.74 257.61 22.19 249.23 17.72C248.51 17.28 246.6 16.08 246.53 15.22C246.45 14.43 248.25 13.73 248.71 13.56C251.72 12.44 256.61 11.88 257.56 11.79C260.02 11.55 262.13 11.54 264.22 11.87C266.3 12.2 268.36 12.89 270.72 14.04L270.71 14.05Z" fill="url(#paint17_linear_23_19)"></path><path fill-rule="evenodd" clip-rule="evenodd" d="M331.97 14.05C324.72 17.6 318.69 24.44 313.8 32.21C309.11 39.65 305.47 47.96 302.81 55.05C302.94 54.97 303.07 54.88 303.19 54.79C303.61 54.48 304.01 54.12 304.35 53.79C304.98 53.08 305.62 52.39 306.24 51.72C306.88 51.04 307.53 50.35 308.19 49.67C314.88 42.79 322.01 37.03 329.56 31.88C337.1 26.74 345.06 22.19 353.44 17.72C353.84 17.47 354.41 17.12 354.92 16.72C355.3 16.42 356.09 15.75 356.14 15.22C356.22 14.43 354.42 13.73 353.96 13.56C350.95 12.44 346.06 11.88 345.11 11.79C342.65 11.55 340.54 11.54 338.45 11.87C336.37 12.2 334.31 12.89 331.95 14.04L331.97 14.05Z" fill="url(#paint18_linear_23_19)"></path><path fill-rule="evenodd" clip-rule="evenodd" d="M386.45 94.79C379.73 99.46 373.51 104.95 367.99 111.05C362.51 117.11 357.71 123.8 353.78 130.94C353.65 131.2 351.73 134.42 351.74 134.55C351.75 134.55 352.6 133.91 353.72 133.05C362.03 126.7 373.58 120.69 383.08 116.35C392.16 112.21 401.54 108.75 411.1 106.06C413.07 105.5 414.74 105.09 416.14 104.74C419.47 103.91 421.21 103.48 421.8 102.44C422.45 101.29 421.86 99.14 420.63 94.66C420.31 93.5 419.95 92.2 419.62 90.94C419.22 89.04 418.41 87.25 416.85 86.03C415.46 84.93 413.61 84.4 411.33 84.4C408.06 84.4 404.15 85.51 400.27 87.13C395.12 89.27 390.01 92.3 386.44 94.78L386.45 94.79Z" fill="url(#paint19_linear_23_19)"></path><path d="M191.99 362.54L195.75 350.26C195.8 350.1 195.91 350.02 196.07 350.02H199.95C200.32 350.02 200.44 350.17 200.31 350.46L195.83 364.98V365.18L200.31 379.7C200.39 380.02 200.27 380.18 199.95 380.18H196.07C195.91 380.18 195.8 380.1 195.75 379.94L191.99 367.66C191.88 367.5 191.76 367.42 191.63 367.42H191.55C191.31 367.42 191.19 367.54 191.19 367.78V379.82C191.19 380.06 191.07 380.18 190.83 380.18H186.91C186.67 380.18 186.55 380.06 186.55 379.82V350.38C186.55 350.14 186.67 350.02 186.91 350.02H190.83C191.07 350.02 191.19 350.14 191.19 350.38V362.42C191.19 362.66 191.31 362.78 191.55 362.78H191.63C191.76 362.78 191.88 362.7 191.99 362.54Z" fill="#213A8F"></path><path d="M209.51 379.78L214.03 350.3C214.06 350.11 214.18 350.02 214.39 350.02H218.43C218.64 350.02 218.75 350.11 218.75 350.3L223.27 379.78C223.3 380.05 223.19 380.18 222.95 380.18H219.03C218.84 380.18 218.72 380.07 218.67 379.86L218.07 375.86C218.02 375.65 217.9 375.54 217.71 375.54H215.11C214.92 375.54 214.8 375.65 214.75 375.86L214.15 379.86C214.1 380.07 213.98 380.18 213.79 380.18H209.87C209.6 380.18 209.48 380.05 209.51 379.78ZM216.03 367.38L215.55 370.5C215.55 370.77 215.67 370.9 215.91 370.9H216.87C217.14 370.9 217.26 370.77 217.23 370.5L216.75 367.38C216.72 367.17 216.6 367.06 216.39 367.06C216.18 367.06 216.06 367.17 216.03 367.38Z" fill="#213A8F"></path><path d="M246.87 350.38V354.7L237.83 375.06C237.7 375.38 237.82 375.54 238.19 375.54H246.55C246.76 375.54 246.87 375.66 246.87 375.9V379.82C246.87 380.06 246.76 380.18 246.55 380.18H233.35C233.11 380.18 232.99 380.06 232.99 379.82V375.62C232.99 375.54 233 375.49 233.03 375.46L242.03 355.14C242.14 354.82 242.03 354.66 241.71 354.66H233.35C233.11 354.66 232.99 354.54 232.99 354.3V350.38C232.99 350.14 233.11 350.02 233.35 350.02H246.55C246.76 350.02 246.87 350.14 246.87 350.38Z" fill="#213A8F"></path><path d="M256.91 379.78L261.43 350.3C261.46 350.11 261.58 350.02 261.79 350.02H265.83C266.04 350.02 266.15 350.11 266.15 350.3L270.67 379.78C270.7 380.05 270.59 380.18 270.35 380.18H266.43C266.24 380.18 266.12 380.07 266.07 379.86L265.47 375.86C265.42 375.65 265.3 375.54 265.11 375.54H262.51C262.32 375.54 262.2 375.65 262.15 375.86L261.55 379.86C261.5 380.07 261.38 380.18 261.19 380.18H257.27C257 380.18 256.88 380.05 256.91 379.78ZM263.43 367.38L262.95 370.5C262.95 370.77 263.07 370.9 263.31 370.9H264.27C264.54 370.9 264.66 370.77 264.63 370.5L264.15 367.38C264.12 367.17 264 367.06 263.79 367.06C263.58 367.06 263.46 367.17 263.43 367.38Z" fill="#213A8F"></path><path d="M286.35 362.54L290.11 350.26C290.16 350.1 290.27 350.02 290.43 350.02H294.31C294.68 350.02 294.8 350.17 294.67 350.46L290.19 364.98V365.18L294.67 379.7C294.75 380.02 294.63 380.18 294.31 380.18H290.43C290.27 380.18 290.16 380.1 290.11 379.94L286.35 367.66C286.24 367.5 286.12 367.42 285.99 367.42H285.91C285.67 367.42 285.55 367.54 285.55 367.78V379.82C285.55 380.06 285.43 380.18 285.19 380.18H281.27C281.03 380.18 280.91 380.06 280.91 379.82V350.38C280.91 350.14 281.03 350.02 281.27 350.02H285.19C285.43 350.02 285.55 350.14 285.55 350.38V362.42C285.55 362.66 285.67 362.78 285.91 362.78H285.99C286.12 362.78 286.24 362.7 286.35 362.54Z" fill="#213A8F"></path><path d="M310.11 362.78H314.03C314.27 362.78 314.39 362.66 314.39 362.42V350.38C314.39 350.14 314.51 350.02 314.75 350.02H318.67C318.88 350.02 318.99 350.14 318.99 350.38V379.82C318.99 380.06 318.88 380.18 318.67 380.18H314.75C314.51 380.18 314.39 380.06 314.39 379.82V367.78C314.39 367.54 314.27 367.42 314.03 367.42H310.11C309.87 367.42 309.75 367.54 309.75 367.78V379.82C309.75 380.06 309.63 380.18 309.39 380.18H305.47C305.23 380.18 305.11 380.06 305.11 379.82V350.38C305.11 350.14 305.23 350.02 305.47 350.02H309.39C309.63 350.02 309.75 350.14 309.75 350.38V362.42C309.75 362.66 309.87 362.78 310.11 362.78Z" fill="#213A8F"></path><path d="M334.59 350.02H343.87C344.51 350.02 345.05 350.25 345.49 350.7C345.93 351.15 346.15 351.7 346.15 352.34V358.9C346.15 359.14 346.04 359.26 345.83 359.26H341.91C341.67 359.26 341.55 359.14 341.55 358.9V354.98C341.55 354.77 341.43 354.66 341.19 354.66H337.27C337.03 354.66 336.91 354.77 336.91 354.98V362.42C336.91 362.66 337.03 362.78 337.27 362.78H343.87C344.51 362.78 345.05 363.01 345.49 363.46C345.93 363.91 346.15 364.46 346.15 365.1V377.86C346.15 378.5 345.93 379.05 345.49 379.5C345.05 379.95 344.51 380.18 343.87 380.18H334.59C333.95 380.18 333.4 379.95 332.95 379.5C332.5 379.05 332.27 378.5 332.27 377.86V371.26C332.27 371.02 332.39 370.9 332.63 370.9H336.55C336.79 370.9 336.91 371.02 336.91 371.26V375.18C336.91 375.42 337.03 375.54 337.27 375.54H341.19C341.43 375.54 341.55 375.42 341.55 375.18V367.78C341.55 367.54 341.43 367.42 341.19 367.42H334.59C333.95 367.42 333.4 367.19 332.95 366.74C332.5 366.29 332.27 365.74 332.27 365.1V352.34C332.27 351.7 332.5 351.15 332.95 350.7C333.4 350.25 333.95 350.02 334.59 350.02Z" fill="#213A8F"></path><path d="M360.59 354.66H356.67C356.43 354.66 356.31 354.54 356.31 354.3V350.38C356.31 350.14 356.43 350.02 356.67 350.02H369.87C370.08 350.02 370.19 350.14 370.19 350.38V354.3C370.19 354.54 370.08 354.66 369.87 354.66H365.95C365.71 354.66 365.59 354.77 365.59 354.98V379.82C365.59 380.06 365.47 380.18 365.23 380.18H361.31C361.07 380.18 360.95 380.06 360.95 379.82V354.98C360.95 354.77 360.83 354.66 360.59 354.66Z" fill="#213A8F"></path><path d="M376.95 379.78L381.47 350.3C381.5 350.11 381.62 350.02 381.83 350.02H385.87C386.08 350.02 386.19 350.11 386.19 350.3L390.71 379.78C390.74 380.05 390.63 380.18 390.39 380.18H386.47C386.28 380.18 386.16 380.07 386.11 379.86L385.51 375.86C385.46 375.65 385.34 375.54 385.15 375.54H382.55C382.36 375.54 382.24 375.65 382.19 375.86L381.59 379.86C381.54 380.07 381.42 380.18 381.23 380.18H377.31C377.04 380.18 376.92 380.05 376.95 379.78ZM383.47 367.38L382.99 370.5C382.99 370.77 383.11 370.9 383.35 370.9H384.31C384.58 370.9 384.7 370.77 384.67 370.5L384.19 367.38C384.16 367.17 384.04 367.06 383.83 367.06C383.62 367.06 383.5 367.17 383.47 367.38Z" fill="#213A8F"></path><path d="M405.67 350.26L409.51 362.82C409.64 363.22 409.76 363.49 409.87 363.62C409.98 363.75 410.06 363.75 410.13 363.6C410.2 363.45 410.23 363.17 410.23 362.74V350.38C410.23 350.14 410.35 350.02 410.59 350.02H414.51C414.72 350.02 414.83 350.14 414.83 350.38V379.82C414.83 380.06 414.72 380.18 414.51 380.18H410.47C410.31 380.18 410.2 380.1 410.15 379.94L406.27 367.38C406.08 366.74 405.92 366.43 405.79 366.46C405.66 366.49 405.59 366.82 405.59 367.46V379.82C405.59 380.06 405.47 380.18 405.23 380.18H401.31C401.07 380.18 400.95 380.06 400.95 379.82V350.38C400.95 350.14 401.07 350.02 401.31 350.02H405.31C405.5 350.02 405.62 350.1 405.67 350.26Z" fill="#213A8F"></path></g><defs><linearGradient id="paint0_linear_23_19" x1="300.69" y1="582.86" x2="300.69" y2="-419.48" gradientUnits="userSpaceOnUse"><stop offset="0.25" stop-color="#352D81"></stop><stop offset="0.29" stop-color="#353F8F"></stop><stop offset="0.37" stop-color="#356FB4"></stop><stop offset="0.45" stop-color="#35A9E1"></stop></linearGradient><linearGradient id="paint1_linear_23_19" x1="316.38" y1="56.95" x2="304.68" y2="114.55" gradientUnits="userSpaceOnUse"><stop stop-color="#352D81"></stop><stop offset="0.16" stop-color="#363587"></stop><stop offset="0.42" stop-color="#3B4B98"></stop><stop offset="0.74" stop-color="#4270B5"></stop><stop offset="1" stop-color="#4A94D1"></stop></linearGradient><linearGradient id="paint2_linear_23_19" x1="301.34" y1="70.39" x2="301.34" y2="12.42" gradientUnits="userSpaceOnUse"><stop stop-color="#352D81"></stop><stop offset="0.16" stop-color="#363587"></stop><stop offset="0.42" stop-color="#3B4B98"></stop><stop offset="0.74" stop-color="#4270B5"></stop><stop offset="1" stop-color="#4A94D1"></stop></linearGradient><linearGradient id="paint3_linear_23_19" x1="301.58" y1="127.28" x2="300.98" y2="156.44" gradientUnits="userSpaceOnUse"><stop stop-color="#352D81"></stop><stop offset="0.16" stop-color="#363587"></stop><stop offset="0.42" stop-color="#3B4B98"></stop><stop offset="0.74" stop-color="#4270B5"></stop><stop offset="1" stop-color="#4A94D1"></stop></linearGradient><linearGradient id="paint4_linear_23_19" x1="323.42" y1="134.88" x2="299.19" y2="125.42" gradientUnits="userSpaceOnUse"><stop stop-color="#352D81"></stop><stop offset="0.16" stop-color="#363587"></stop><stop offset="0.42" stop-color="#3B4B98"></stop><stop offset="0.74" stop-color="#4270B5"></stop><stop offset="1" stop-color="#4A94D1"></stop></linearGradient><linearGradient id="paint5_linear_23_19" x1="301.78" y1="108.38" x2="300.67" y2="180.87" gradientUnits="userSpaceOnUse"><stop stop-color="#352D81"></stop><stop offset="0.16" stop-color="#363587"></stop><stop offset="0.42" stop-color="#3B4B98"></stop><stop offset="0.74" stop-color="#4270B5"></stop><stop offset="1" stop-color="#4A94D1"></stop></linearGradient><linearGradient id="paint6_linear_23_19" x1="347.55" y1="52.05" x2="337.63" y2="39.79" gradientUnits="userSpaceOnUse"><stop stop-color="#352D81"></stop><stop offset="0.16" stop-color="#363587"></stop><stop offset="0.42" stop-color="#3B4B98"></stop><stop offset="0.74" stop-color="#4270B5"></stop><stop offset="1" stop-color="#4A94D1"></stop></linearGradient><linearGradient id="paint7_linear_23_19" x1="316.07" y1="67.5" x2="369.56" y2="39.23" gradientUnits="userSpaceOnUse"><stop stop-color="#352D81"></stop><stop offset="0.16" stop-color="#363587"></stop><stop offset="0.42" stop-color="#3B4B98"></stop><stop offset="0.74" stop-color="#4270B5"></stop><stop offset="1" stop-color="#4A94D1"></stop></linearGradient><linearGradient id="paint8_linear_23_19" x1="369.74" y1="78.98" x2="360.46" y2="65.19" gradientUnits="userSpaceOnUse"><stop stop-color="#352D81"></stop><stop offset="0.16" stop-color="#363587"></stop><stop offset="0.42" stop-color="#3B4B98"></stop><stop offset="0.74" stop-color="#4270B5"></stop><stop offset="1" stop-color="#4A94D1"></stop></linearGradient><linearGradient id="paint9_linear_23_19" x1="339.96" y1="88.77" x2="402.34" y2="66.12" gradientUnits="userSpaceOnUse"><stop stop-color="#352D81"></stop><stop offset="0.16" stop-color="#363587"></stop><stop offset="0.42" stop-color="#3B4B98"></stop><stop offset="0.74" stop-color="#4270B5"></stop><stop offset="1" stop-color="#4A94D1"></stop></linearGradient><linearGradient id="paint10_linear_23_19" x1="382.36" y1="108.24" x2="372.62" y2="95" gradientUnits="userSpaceOnUse"><stop stop-color="#352D81"></stop><stop offset="0.16" stop-color="#363587"></stop><stop offset="0.42" stop-color="#3B4B98"></stop><stop offset="0.74" stop-color="#4270B5"></stop><stop offset="1" stop-color="#4A94D1"></stop></linearGradient><linearGradient id="paint11_linear_23_19" x1="255.13" y1="52.05" x2="265.05" y2="39.79" gradientUnits="userSpaceOnUse"><stop stop-color="#352D81"></stop><stop offset="0.16" stop-color="#363587"></stop><stop offset="0.42" stop-color="#3B4B98"></stop><stop offset="0.74" stop-color="#4270B5"></stop><stop offset="1" stop-color="#4A94D1"></stop></linearGradient><linearGradient id="paint12_linear_23_19" x1="286.61" y1="67.5" x2="233.12" y2="39.23" gradientUnits="userSpaceOnUse"><stop stop-color="#352D81"></stop><stop offset="0.16" stop-color="#363587"></stop><stop offset="0.42" stop-color="#3B4B98"></stop><stop offset="0.74" stop-color="#4270B5"></stop><stop offset="1" stop-color="#4A94D1"></stop></linearGradient><linearGradient id="paint13_linear_23_19" x1="232.94" y1="78.98" x2="242.21" y2="65.19" gradientUnits="userSpaceOnUse"><stop stop-color="#352D81"></stop><stop offset="0.16" stop-color="#363587"></stop><stop offset="0.42" stop-color="#3B4B98"></stop><stop offset="0.74" stop-color="#4270B5"></stop><stop offset="1" stop-color="#4A94D1"></stop></linearGradient><linearGradient id="paint14_linear_23_19" x1="262.71" y1="88.76" x2="200.33" y2="66.12" gradientUnits="userSpaceOnUse"><stop stop-color="#352D81"></stop><stop offset="0.16" stop-color="#363587"></stop><stop offset="0.42" stop-color="#3B4B98"></stop><stop offset="0.74" stop-color="#4270B5"></stop><stop offset="1" stop-color="#4A94D1"></stop></linearGradient><linearGradient id="paint15_linear_23_19" x1="220.32" y1="108.24" x2="230.05" y2="95" gradientUnits="userSpaceOnUse"><stop stop-color="#352D81"></stop><stop offset="0.16" stop-color="#363587"></stop><stop offset="0.42" stop-color="#3B4B98"></stop><stop offset="0.74" stop-color="#4270B5"></stop><stop offset="1" stop-color="#4A94D1"></stop></linearGradient><linearGradient id="paint16_linear_23_19" x1="252.17" y1="120.1" x2="190.8" y2="97.76" gradientUnits="userSpaceOnUse"><stop stop-color="#352D81"></stop><stop offset="0.16" stop-color="#363587"></stop><stop offset="0.42" stop-color="#3B4B98"></stop><stop offset="0.74" stop-color="#4270B5"></stop><stop offset="1" stop-color="#4A94D1"></stop></linearGradient><linearGradient id="paint17_linear_23_19" x1="271.07" y1="13.91" x2="275.31" y2="56.23" gradientUnits="userSpaceOnUse"><stop stop-color="#352D81"></stop><stop offset="0.16" stop-color="#363587"></stop><stop offset="0.42" stop-color="#3B4B98"></stop><stop offset="0.74" stop-color="#4270B5"></stop><stop offset="1" stop-color="#4A94D1"></stop></linearGradient><linearGradient id="paint18_linear_23_19" x1="331.6" y1="13.92" x2="327.37" y2="56.22" gradientUnits="userSpaceOnUse"><stop stop-color="#352D81"></stop><stop offset="0.16" stop-color="#363587"></stop><stop offset="0.42" stop-color="#3B4B98"></stop><stop offset="0.74" stop-color="#4270B5"></stop><stop offset="1" stop-color="#4A94D1"></stop></linearGradient><linearGradient id="paint19_linear_23_19" x1="350.51" y1="120.1" x2="411.88" y2="97.75" gradientUnits="userSpaceOnUse"><stop stop-color="#352D81"></stop><stop offset="0.16" stop-color="#363587"></stop><stop offset="0.42" stop-color="#3B4B98"></stop><stop offset="0.74" stop-color="#4270B5"></stop><stop offset="1" stop-color="#4A94D1"></stop></linearGradient><clipPath id="clip0_23_19"><rect width="601.39" height="380.18" fill="white"></rect></clipPath></defs></svg> 