<svg width="43" height="43" viewBox="0 0 43 43" fill="none" xmlns="http://www.w3.org/2000/svg">
<circle cx="21.3384" cy="21.3384" r="21.3384" fill="#F76501"/>
<path fill-rule="evenodd" clip-rule="evenodd" d="M9.02722 16.4137C9.02722 12.3343 12.3342 9.02734 16.4136 9.02734H26.2621C30.3414 9.02734 33.6484 12.3343 33.6484 16.4137V26.2622C33.6484 30.3416 30.3414 33.6486 26.2621 33.6486H16.4136C12.3342 33.6486 9.02722 30.3416 9.02722 26.2622V16.4137ZM16.4136 11.4895C13.694 11.4895 11.4893 13.6941 11.4893 16.4137V26.2622C11.4893 28.9818 13.694 31.1864 16.4136 31.1864H26.2621C28.9817 31.1864 31.1863 28.9818 31.1863 26.2622V16.4137C31.1863 13.6941 28.9817 11.4895 26.2621 11.4895H16.4136ZM18.8757 21.338C18.8757 22.6977 19.978 23.8001 21.3378 23.8001C22.6976 23.8001 23.8 22.6977 23.8 21.338C23.8 19.9782 22.6976 18.8758 21.3378 18.8758C19.978 18.8758 18.8757 19.9782 18.8757 21.338ZM21.3378 16.4137C18.6182 16.4137 16.4136 18.6184 16.4136 21.338C16.4136 24.0575 18.6182 26.2622 21.3378 26.2622C24.0574 26.2622 26.2621 24.0575 26.2621 21.338C26.2621 18.6184 24.0574 16.4137 21.3378 16.4137ZM26.8776 13.9516C25.8578 13.9516 25.031 14.7783 25.031 15.7982C25.031 16.818 25.8578 17.6448 26.8776 17.6448C27.8974 17.6448 28.7242 16.818 28.7242 15.7982C28.7242 14.7783 27.8974 13.9516 26.8776 13.9516Z" fill="white"/>
</svg>
