<svg width="1045" height="533" viewBox="0 0 1045 533" fill="none" xmlns="http://www.w3.org/2000/svg">
<path opacity="0.5" fill-rule="evenodd" clip-rule="evenodd" d="M298.683 6.1185H332.685V0C332.888 0.108292 333.107 0.189511 333.372 0.216584V6.10497H356.649C356.431 6.30801 356.196 6.51106 355.978 6.70057H333.372V29.5096C333.138 29.6585 332.904 29.8209 332.685 29.9834V6.71411H298.246C298.293 6.53813 298.386 6.3757 298.527 6.25387L298.699 6.1185H298.683ZM1045 474.685H1039.93C1039.94 474.549 1039.97 474.414 1039.99 474.265C1039.96 474.211 1039.94 474.143 1039.91 474.076H1044.89C1044.94 474.279 1044.97 474.468 1045 474.671V474.685ZM1012.17 503.991V514.59C1011.93 514.902 1011.7 515.199 1011.48 515.511V504.357C1011.65 504.248 1011.84 504.154 1012.03 504.072L1012.18 504.005L1012.17 503.991ZM1014.87 370.697H1012.73C1012.73 370.508 1012.84 370.305 1012.93 370.102H1013.84C1014.18 370.305 1014.54 370.494 1014.89 370.697H1014.87ZM979.478 474.685H950.456V481.06C950.237 480.966 950.003 480.898 949.769 480.817V474.671H944.055C944.149 474.468 944.211 474.265 944.273 474.076H949.769V422.677H888.758V460.322C888.524 460.309 888.29 460.295 888.071 460.268V422.677H867.62C867.636 422.515 867.651 422.339 867.651 422.177V422.082H888.056V413.121L888.743 413.026V422.082H949.753V401.154C949.987 401.249 950.221 401.344 950.44 401.439V422.082H991.436C991.842 422.231 992.233 422.393 992.638 422.556C992.748 422.596 992.857 422.637 992.966 422.691H950.456V474.089H979.665V474.13C979.603 474.319 979.54 474.495 979.478 474.685ZM1002.16 370.697H991.249L991.202 370.67C991.046 370.575 990.984 370.278 991.046 370.102H1003.16C1002.8 370.264 1002.47 370.481 1002.18 370.697H1002.16ZM986.206 370.697H955.826C955.67 370.481 955.498 370.278 955.311 370.102H984.177C984.317 370.142 984.458 370.183 984.614 370.223C985.16 370.345 985.691 370.521 986.222 370.711L986.206 370.697ZM950.456 389.662V390.609C950.237 390.988 950.003 391.354 949.769 391.719V389.256C949.987 389.351 950.206 389.472 950.393 389.594C950.409 389.608 950.44 389.635 950.456 389.648V389.662ZM989.219 370.088H989.36C989.36 370.088 989.454 370.115 989.454 370.129C989.454 370.21 989.391 370.291 989.36 370.372C989.282 370.345 989.141 370.318 989.141 370.291C989.141 370.223 989.173 370.156 989.204 370.088H989.219ZM950.456 360.667V368.017C950.221 367.963 949.987 367.909 949.769 367.841V361.1C949.987 360.951 950.221 360.802 950.456 360.667ZM976.262 162.695H972.015C971.922 162.492 971.828 162.289 971.734 162.1H976.621C976.543 162.235 976.465 162.384 976.371 162.519C976.34 162.573 976.293 162.641 976.262 162.695ZM950.456 201.274V206.527C950.19 206.621 949.956 206.743 949.769 206.892V201.504C950.003 201.464 950.237 201.383 950.456 201.288V201.274ZM975.575 110.688H973.764C973.623 110.485 973.498 110.282 973.358 110.092H975.731C975.684 110.295 975.637 110.499 975.575 110.688ZM971.656 110.688H960.291C960.369 110.471 960.494 110.282 960.65 110.092H971.937C971.812 110.282 971.719 110.485 971.656 110.688ZM1006.45 58.6943H995.308C995.308 58.6943 995.152 58.5725 995.074 58.5183C994.887 58.383 994.699 58.207 994.481 58.0987H1006.44C1006.45 58.2341 1006.49 58.383 1006.5 58.5183C1006.5 58.5725 1006.5 58.6402 1006.45 58.6943ZM991.952 58.6943C992.279 58.4236 992.67 58.2341 993.107 58.0987H950.456V38.4708C950.221 38.4708 949.987 38.4708 949.769 38.4301V58.0987H888.758V46.8363C888.524 46.9311 888.29 47.0123 888.071 47.107V58.0987H841.705C841.58 58.2747 841.502 58.5048 841.314 58.5725C840.705 58.8026 840.05 58.586 839.722 58.0987H832.322C832.322 58.0987 832.306 58.1528 832.291 58.1935C832.228 58.3965 832.15 58.5589 832.041 58.7078H888.071V110.106H827.061V59.2087C826.827 59.141 826.592 59.0462 826.374 58.9515V64.8263C826.389 64.9211 826.405 65.0023 826.421 65.0971C826.436 65.2189 826.421 65.3272 826.374 65.4219V110.119H765.363V58.7214H815.165C815.087 58.5048 814.993 58.3153 814.852 58.1258H788.828C788.25 58.2611 787.672 58.2747 787.126 58.1258H783.036C782.802 58.1528 782.599 58.1528 782.396 58.1258H765.379V56.9887H765.348C765.254 56.9346 765.129 56.9616 765.02 56.9616C764.973 57.1511 764.926 57.3542 764.848 57.5437C764.801 57.6385 764.754 57.7332 764.708 57.8144V58.1393H764.458C764.13 58.4642 763.693 58.6808 763.24 58.7349H764.708V110.133H703.697V58.7214H730.206C730.143 58.5183 730.081 58.3153 730.018 58.1258H703.713V55.4591C703.479 55.5809 703.26 55.6892 703.026 55.7975V58.1393H699.154C698.92 58.3424 698.67 58.5319 698.436 58.7349H703.026V94.9721C703.026 94.9721 703.104 94.9857 703.151 94.9992C703.244 95.0263 703.276 95.1617 703.338 95.2429C703.291 95.3376 703.26 95.4324 703.182 95.5136C703.135 95.5677 703.088 95.6219 703.026 95.6625V110.119H685.197C685.431 110.323 685.666 110.512 685.884 110.715H703.026V162.113H642.015V111.013C641.812 110.986 641.594 110.999 641.422 111.067C641.391 111.067 641.36 111.094 641.328 111.108V162.127H580.318V134.634C580.131 134.174 580.193 133.687 580.271 133.172C580.412 132.13 580.24 131.412 579.631 130.857V162.127H565.018C564.441 162.357 563.785 162.316 563.051 162.127H556.12C555.667 162.249 555.214 162.384 554.762 162.533C554.574 162.587 554.403 162.655 554.231 162.722H579.615V214.12H518.605V184.963C518.605 184.963 518.496 185.017 518.449 185.044C518.339 185.098 518.105 185.085 517.918 185.017V214.12H481.48C481.558 214.31 481.605 214.513 481.621 214.716H517.934V224.489L518.105 224.774C518.277 224.909 518.449 225.031 518.621 225.166V214.716H579.35C579.678 214.337 580.006 213.958 580.334 213.579V162.709H641.344V209.924C641.578 209.816 641.812 209.708 642.031 209.586V162.709H703.041V214.107H647.245C646.995 214.256 646.839 214.445 646.746 214.703H703.057V266.101H650.867C651.101 266.25 651.304 266.466 651.476 266.696H703.057V279.8C703.291 279.773 703.525 279.745 703.744 279.732V266.696H764.754V304.26C764.864 304.125 765.02 304.003 765.207 303.922C765.285 303.881 765.363 303.854 765.441 303.813V266.696H826.452V315.035C826.655 315.035 826.873 315.103 827.03 315.198C827.076 315.225 827.108 315.252 827.139 315.292V266.696H888.149V270.73C888.384 270.338 888.524 269.904 888.602 269.431C888.649 269.119 888.727 268.835 888.852 268.564V266.696H890.616C890.725 266.507 890.788 266.304 890.835 266.101H888.852V259.955C888.633 259.901 888.399 259.901 888.165 259.915V266.101H827.154V214.703H888.165V224.638C888.399 224.584 888.618 224.544 888.852 224.503V214.703H904.901C904.901 214.499 904.948 214.296 905.01 214.107H888.852V162.709H921.73C921.668 162.628 921.59 162.546 921.496 162.479C921.355 162.37 921.246 162.235 921.137 162.113H888.852V110.715H941.338C941.338 110.512 941.338 110.309 941.338 110.119H888.836V58.7214H949.847V104.705C950.112 104.583 950.362 104.597 950.534 104.705V58.7214H992.03L991.952 58.6943ZM888.743 377.858V379.875C888.508 379.916 888.29 379.956 888.056 379.997V377.709C888.29 377.736 888.524 377.79 888.743 377.858ZM944.133 370.67H942.993C943.056 370.603 943.118 370.535 943.181 370.467C943.243 370.399 943.399 370.372 943.508 370.345C943.821 370.278 944.039 370.386 944.117 370.643V370.67H944.133ZM892.271 370.075H895.05C895.05 370.075 894.956 370.115 894.894 370.142C894.019 370.427 893.083 370.602 892.271 370.075ZM912.207 318.676H908.601C908.491 318.473 908.398 318.284 908.288 318.081H911.973C912.066 318.27 912.145 318.473 912.207 318.676ZM906.993 318.676H905.385C905.385 318.676 905.244 318.622 905.182 318.595C904.682 318.406 904.37 318.243 904.245 318.067H906.993C906.977 318.27 906.961 318.46 906.993 318.663V318.676ZM893.411 318.676H892.052C892.052 318.676 892.037 318.568 892.037 318.528C892.037 318.338 892.083 318.189 892.161 318.081H893.098C893.286 318.176 893.442 318.297 893.598 318.379C893.582 318.487 893.52 318.582 893.426 318.676H893.411ZM888.758 324.321V326.392C888.555 326.649 888.321 326.893 888.071 327.123V325.066C888.305 324.822 888.54 324.565 888.758 324.321ZM888.758 337.628V340.403C888.68 340.524 888.618 340.66 888.602 340.822C888.54 341.188 888.383 341.499 888.071 341.729V337.316L888.227 337.384C888.399 337.465 888.586 337.546 888.758 337.628ZM888.758 350V352.057C888.54 352.085 888.305 352.085 888.071 352.085V349.553C888.29 349.702 888.54 349.837 888.758 349.986V350ZM943.633 214.689H940.823C941.011 214.486 941.229 214.283 941.448 214.093H943.337C943.43 214.296 943.524 214.5 943.649 214.689H943.633ZM888.758 253.282V254.906C888.664 254.96 888.571 255.014 888.446 255.068C888.321 255.123 888.196 255.136 888.056 255.163V252.686C888.305 252.876 888.524 253.092 888.743 253.295L888.758 253.282ZM888.758 255.867V258.52C888.508 258.696 888.29 258.872 888.087 259.075H888.071V255.42C888.305 255.569 888.54 255.718 888.758 255.881V255.867ZM928.755 162.695H923.041C922.979 162.492 922.901 162.289 922.823 162.1H928.537C928.63 162.289 928.708 162.492 928.755 162.695ZM846.404 370.684H845.561C845.03 370.643 844.499 370.657 843.953 370.684H841.096C840.924 370.63 840.768 370.535 840.627 370.399C840.518 370.291 840.393 370.183 840.284 370.075H846.45C846.45 370.278 846.419 370.481 846.404 370.67V370.684ZM856.567 318.69H832.946C832.572 318.487 832.197 318.284 831.822 318.094H856.739C856.692 318.297 856.629 318.487 856.567 318.69ZM827.061 329.736V337.33C826.983 336.734 826.827 336.166 826.374 335.665V329.1C826.499 329.235 826.639 329.357 826.78 329.479C826.889 329.56 826.983 329.641 827.061 329.736ZM827.061 346.047V356.904C826.858 356.511 826.624 356.118 826.374 355.767V345.262C826.374 345.262 826.467 345.384 826.514 345.452C826.67 345.668 826.842 345.871 827.061 346.034V346.047ZM827.061 214.093V162.695H888.071V214.093H827.061ZM827.061 162.1V110.702H888.071V162.1H827.061ZM827.061 20.3048V28.6703C826.811 28.6433 826.592 28.6433 826.374 28.6703V20.1829L827.061 20.2912V20.3048ZM824.75 318.69H820.441C820.395 318.487 820.348 318.297 820.285 318.094H824.922C824.875 318.297 824.813 318.5 824.766 318.69H824.75ZM765.348 266.101V214.703H826.358V266.101H765.348ZM765.348 214.107V162.709H826.358V214.107H765.348ZM765.348 162.113V110.715H826.358V162.113H765.348ZM825.874 58.7214H824.079C824.079 58.586 824.079 58.4506 824.079 58.3153C824.079 58.2476 824.126 58.1799 824.173 58.1122H824.969C825.265 58.3424 825.562 58.5454 825.874 58.7078V58.7214ZM757.542 318.704H740.197C740.041 318.514 739.901 318.311 739.776 318.108H757.839C757.729 318.311 757.636 318.514 757.542 318.704ZM703.635 266.114V214.716H764.645V266.114H703.635ZM703.635 214.12V162.722H764.645V214.12H703.635ZM703.635 162.127V110.729H764.645V162.127H703.635ZM762.6 58.7349H756.121C756.152 58.5319 756.215 58.3288 756.277 58.1393H761.398C761.398 58.1393 761.523 58.2476 761.585 58.3017C761.882 58.5454 762.241 58.6808 762.584 58.7349H762.6ZM753.904 58.7349H734.78C734.827 58.5319 734.874 58.3288 734.921 58.1393H754.107C754.029 58.3424 753.951 58.5319 753.904 58.7349ZM643.202 422.705H641.922V424.721C641.719 424.924 641.485 425.114 641.235 425.263V422.705H629.838C629.823 422.501 629.807 422.298 629.791 422.109H641.235V397.676C641.406 397.621 641.563 397.554 641.734 397.486C641.797 397.459 641.875 397.432 641.937 397.391V422.109H643.545C643.436 422.312 643.342 422.515 643.233 422.705H643.202ZM641.922 322.792V346.765C641.703 346.914 641.485 347.063 641.25 347.198H641.235V322.832C641.469 322.805 641.687 322.792 641.922 322.778V322.792ZM645.169 266.723H641.922V315.563H641.828C641.625 315.536 641.422 315.522 641.235 315.522V266.737H580.224V318.135H631.961C632.149 318.338 632.242 318.514 632.242 318.731H580.224V370.129H617.302C617.318 370.332 617.38 370.535 617.474 370.724H580.224V422.122H602.736C602.674 422.339 602.565 422.542 602.424 422.718H580.209V446.028C579.974 446.204 579.74 446.38 579.522 446.569V422.718H532.531C532.468 422.515 532.406 422.312 532.343 422.122H579.522V370.724H526.38C526.286 370.521 526.192 370.332 526.098 370.129H579.522V318.731H518.511V361.682C518.261 361.465 518.027 361.249 517.824 361.032V347.739C518.09 347.063 518.324 346.345 518.293 345.655C518.246 344.937 518.183 344.193 517.824 343.557V318.731H456.814V339.861C456.72 339.821 456.626 339.766 456.517 339.726C456.377 339.658 456.252 339.59 456.111 339.523V318.731H430.149C429.962 318.555 429.79 318.352 429.665 318.135H456.111V266.737H453.582C453.629 266.547 453.66 266.344 453.645 266.141H456.111V258.317C456.314 258.128 456.548 257.952 456.798 257.776V266.128H517.809V245.2C518.027 245.336 518.261 245.403 518.496 245.403V253.498C518.386 253.579 518.293 253.674 518.199 253.755C517.824 254.08 518.012 254.92 518.496 255.177V266.141H579.506V263.082C579.647 263.109 579.787 263.136 579.928 263.163C580.021 263.177 580.115 263.19 580.193 263.204V266.155H641.204V227.061C641.453 227.264 641.688 227.495 641.89 227.725V266.155H645.434C645.434 266.155 645.309 266.29 645.278 266.358C645.216 266.48 645.169 266.615 645.138 266.75L645.169 266.723ZM682.044 110.729H668.961C668.977 110.526 668.992 110.323 669.008 110.133H681.997C681.997 110.336 681.997 110.539 682.044 110.729ZM666.869 110.729H646.761C646.777 110.526 646.714 110.309 646.574 110.133H665.776C666.135 110.336 666.51 110.526 666.869 110.729ZM641.937 103.73V106.573C641.734 106.383 641.5 106.235 641.25 106.113V103.297C641.485 103.432 641.719 103.581 641.937 103.73ZM702.948 27.0866V25.6246C702.948 25.6246 703.026 25.7058 703.073 25.7464C703.338 26.0172 703.291 26.7481 703.01 27.0189L702.948 27.073V27.0866ZM634.069 214.716H602.533C602.705 214.527 602.861 214.324 603.017 214.12H634.412C634.303 214.256 634.21 214.405 634.147 214.554L634.069 214.716ZM595.18 214.716H588.389C588.592 214.54 588.811 214.378 588.998 214.188C589.029 214.161 589.045 214.134 589.06 214.107H594.509C594.759 214.364 594.962 214.554 595.18 214.703V214.716ZM580.224 230.148V247.488C580.224 247.488 580.131 247.447 580.099 247.434C579.912 247.353 579.709 247.258 579.537 247.163V230.188C579.772 230.188 580.006 230.175 580.224 230.161V230.148ZM580.224 114.343V128.895C579.99 128.84 579.756 128.773 579.537 128.705V114.099C579.772 114.167 579.99 114.248 580.224 114.329V114.343ZM518.511 318.108V266.71H579.522V318.108H518.511ZM538.369 162.722H534.435C534.31 162.695 534.185 162.655 534.06 162.641C533.951 162.628 533.764 162.641 533.686 162.722H518.511V171.345C518.215 170.871 517.965 170.384 517.824 169.843V162.722H499.168C499.371 162.519 499.605 162.33 499.824 162.127H517.824V136.854C517.98 136.231 518.043 135.582 518.308 134.986C518.605 134.309 518.511 133.673 518.308 133.01C518.215 132.739 518.308 132.495 518.511 132.333V162.127H538.354C538.338 162.249 538.338 162.384 538.354 162.506C538.354 162.587 538.369 162.655 538.369 162.736V162.722ZM518.511 177.937V182.892C518.293 182.905 518.058 182.892 517.824 182.811V181.47C517.996 181.497 518.152 181.525 518.277 181.47C518.402 181.416 518.464 181.064 518.371 180.915C518.215 180.672 518.027 180.455 517.824 180.239V178.398C518.043 178.235 518.277 178.073 518.511 177.937ZM561.787 110.729H537.448C537.979 110.539 538.494 110.323 539.009 110.133H543.693C543.693 110.201 543.74 110.336 543.755 110.336C544.005 110.336 544.099 110.241 544.146 110.133H549.688H564.019C563.473 110.512 562.817 110.647 562.115 110.661C561.974 110.661 561.865 110.688 561.771 110.729H561.787ZM518.511 69.6995V77.7266C518.511 77.7266 518.433 77.7266 518.386 77.7266C518.168 77.7266 517.996 77.7808 517.824 77.862V69.4964C518.058 69.5641 518.277 69.6318 518.511 69.6859V69.6995ZM456.798 318.108V266.71H517.809V318.108H456.798ZM456.798 223.786V225.572C456.673 225.329 456.517 225.085 456.361 224.841C456.174 224.544 456.424 224.043 456.798 223.799V223.786ZM456.798 234.344C456.595 234.818 456.377 235.292 456.111 235.765V239.989C456.455 240.49 456.689 241.004 456.798 241.559V234.344ZM456.798 183.433V194.547C456.564 194.547 456.33 194.52 456.111 194.479V183.447C456.345 183.447 456.58 183.433 456.798 183.42V183.433ZM456.798 30.024V36.6298C456.58 36.7516 456.345 36.8328 456.111 36.8735V29.6991C456.345 29.7939 456.58 29.9021 456.798 30.024ZM425.544 110.729C425.544 110.729 425.419 110.661 425.372 110.647C424.217 110.323 422.952 110.377 421.797 110.119H395.101V58.7214H440.281C440.375 58.5589 440.468 58.3559 440.593 58.1258H395.101V15.6482C394.867 15.5534 394.648 15.4587 394.414 15.3639V58.1122H333.403V39.2423C333.263 39.2423 333.122 39.2423 332.982 39.2423C332.888 39.2423 332.794 39.2423 332.716 39.2423V58.0987H321.726C321.726 58.0987 321.554 58.1934 321.429 58.2611C321.117 58.4236 320.773 58.5454 320.477 58.6943H332.716V63.229C332.951 63.1749 333.185 63.1072 333.403 62.9854V58.6808H394.414V110.079H349.187C349.187 110.201 349.234 110.323 349.265 110.458C349.28 110.539 349.312 110.62 349.327 110.688H394.414V123.886C394.539 123.751 394.648 123.615 394.742 123.466C394.851 123.318 394.976 123.182 395.101 123.047V110.688H425.559L425.544 110.729ZM333.778 422.705H333.372V422.867C333.138 422.975 332.904 423.084 332.685 423.192V422.705H271.675V474.103H286.756C286.709 474.306 286.678 474.495 286.646 474.698H271.659V523.321C271.331 523.619 271.097 523.998 270.972 524.431V474.685H249.865C249.943 474.482 250.006 474.279 250.037 474.089H270.972V422.691H251.38C251.333 422.488 251.286 422.285 251.223 422.095H270.972V370.697H212.1C212.1 370.697 212.132 370.63 212.147 370.603C212.225 370.44 212.272 370.278 212.288 370.102H270.972V322.034C271.113 321.979 271.284 321.993 271.394 322.101C271.487 322.182 271.565 322.25 271.659 322.318V370.102H332.67V357.31C332.904 357.404 333.122 357.499 333.357 357.58V370.102H368.53C368.623 370.305 368.717 370.508 368.811 370.697H333.372V422.095H335.605C335.464 422.136 335.308 422.19 335.152 422.231C334.684 422.366 334.215 422.515 333.778 422.691V422.705ZM361.02 6.71411C360.412 6.53813 359.803 6.38923 359.163 6.25387C358.288 6.07789 357.586 6.14558 356.837 6.48399C356.587 6.59228 356.306 6.64643 356.009 6.70057H361.005L361.02 6.71411ZM279.574 526.678H271.659V529.684L270.972 529.386V529.345V526.678H259.747C259.404 526.475 259.045 526.272 258.701 526.083H262.823C262.917 526.232 263.073 526.34 263.276 526.394C263.307 526.448 263.354 526.489 263.369 526.543L263.557 526.624L263.463 526.462C263.385 526.462 263.338 526.408 263.276 526.394C263.213 526.272 263.12 526.164 263.01 526.083H270.894C270.894 526.191 271.05 526.299 271.16 526.34C271.206 526.354 271.362 526.245 271.409 526.178C271.472 526.083 271.487 525.975 271.487 525.866C271.534 525.447 271.565 525.027 271.675 524.634V526.083H278.872C279.09 526.299 279.34 526.502 279.59 526.678H279.574ZM271.659 530.252C271.362 530.252 271.175 530.076 271.081 529.819C271.035 529.684 271.003 529.521 270.972 529.372V532.323C271.253 532.499 271.472 532.729 271.659 533V530.252ZM271.659 370.684V422.082H332.67V370.684H271.659ZM285.382 214.689H276.858C277.186 214.459 277.545 214.256 277.919 214.093H285.881C285.725 214.283 285.554 214.486 285.366 214.689H285.382ZM274.422 214.689H271.659V215.637C271.425 215.691 271.191 215.745 270.972 215.799V214.689H209.962V266.074C209.728 265.843 209.509 265.6 209.275 265.383V214.703H148.264V266.101H173.462C172.962 266.25 172.462 266.426 172.025 266.696H148.264V304.937C148.03 304.856 147.796 304.761 147.577 304.666V266.696H114.278C114.137 266.493 114.012 266.304 113.887 266.101H147.593V214.703H86.5356V233.126C86.4263 233.045 86.2546 232.963 85.9892 232.814L85.8487 232.747V214.703H84.6154C84.6154 214.499 84.6466 214.296 84.6622 214.107H85.8487V211.142C85.9112 211.061 85.9736 210.994 86.0361 210.912C86.2234 210.696 86.3795 210.479 86.5512 210.263V214.107H147.562V162.709H86.5356V164.807C86.3327 164.875 86.1297 164.929 85.9268 164.983C85.8955 164.983 85.8799 164.983 85.8487 164.997V162.695H85.6145C85.6145 162.519 85.4896 162.33 85.2711 162.1H85.8487V160.881C86.0048 160.814 86.1297 160.719 86.1297 160.543C86.1297 160.042 86.2858 159.609 86.5356 159.23V162.1H147.546V110.702H86.5356V157.416C86.3171 157.389 86.1141 157.362 85.9268 157.281C85.8955 157.281 85.8643 157.254 85.8487 157.227V110.702H24.8382V127.514C24.6196 127.717 24.3855 127.893 24.1513 128.055V110.688H0.202952C0.156117 110.512 0.0936702 110.35 0.0312234 110.174L0 110.079H24.1357V92.2242C24.3699 92.1565 24.604 92.0618 24.8226 91.9535V110.079H85.8487V58.7214H34.1116C34.1116 58.7214 34.0491 58.5995 34.0335 58.5454C33.971 58.3965 33.9086 58.2611 33.8618 58.1258H85.8487V52.2645C86.0829 52.8736 86.1922 53.5098 86.5356 54.0784V58.1258H95.0752C95.2626 58.2205 95.4499 58.3017 95.6529 58.3694C96.0119 58.4642 96.3398 58.5995 96.652 58.7349H86.52V110.133H147.531V69.4423C147.64 69.3069 147.796 69.1986 147.983 69.1039C148.046 69.0768 148.124 69.0633 148.233 69.0633V110.119H209.244V102.106C209.478 102.065 209.712 102.011 209.93 101.93V110.119H262.714C262.776 110.323 262.839 110.526 262.917 110.715H209.93V142.255C209.696 142.499 209.462 142.729 209.244 142.973V110.702H148.233V162.1H209.244V160.34C209.478 160.326 209.712 160.286 209.93 160.245V162.1H218.142C218.486 162.289 218.814 162.479 219.126 162.695H209.915V214.093H270.925V200.882C271.16 200.787 271.378 200.692 271.612 200.598V214.093H274.641C274.641 214.093 274.594 214.175 274.579 214.215C274.5 214.378 274.454 214.54 274.376 214.703L274.422 214.689ZM271.659 162.695H300.088C300.026 162.546 299.916 162.425 299.713 162.316C299.588 162.249 299.526 162.181 299.479 162.086H271.659V139.792C271.441 139.846 271.191 139.873 270.972 139.873V162.086H255.485C255.517 162.289 255.548 162.492 255.595 162.682H270.972V199.758C271.191 199.623 271.425 199.488 271.659 199.366V162.682V162.695ZM303.96 110.702H287.411C287.364 110.485 287.286 110.282 287.13 110.106H302.617C303.164 110.228 303.616 110.431 303.96 110.702ZM271.659 124.631C271.55 124.59 271.441 124.549 271.331 124.495L270.957 124.333V129.368C271.191 129.314 271.425 129.274 271.643 129.233V124.631H271.659ZM271.659 58.7078H288.894C288.504 58.3423 287.942 58.1935 287.271 58.2205C286.428 58.2611 285.585 58.2882 284.789 58.1122H277.201C276.374 58.2341 275.593 58.4777 274.969 58.1122H271.659V56.4878C271.409 56.3796 271.175 56.2577 270.972 56.1088V58.1122H260.153C260.091 58.3153 260.044 58.5048 260.013 58.7078H270.972V65.6385C271.206 65.6656 271.441 65.6791 271.659 65.6791V58.7078ZM271.659 70.7553C271.472 70.6064 271.253 70.4711 271.019 70.3898L270.957 70.3628V72.5963C271.175 72.5015 271.409 72.4203 271.643 72.3391V70.7553H271.659ZM271.659 73.9093C271.409 73.9635 271.191 74.0312 270.972 74.1124V97.4764C270.972 97.4764 270.988 97.5035 271.003 97.5305C271.238 97.5305 271.456 97.5441 271.659 97.5982V73.9093ZM271.659 98.072C271.362 98.0043 271.128 97.8554 271.003 97.5305H270.972V99.1955C271.097 99.2632 271.222 99.3444 271.347 99.4121C271.441 99.4663 271.55 99.4933 271.675 99.5339V98.072H271.659ZM271.659 47.9463V49.6248C271.394 49.1781 271.394 48.4878 271.659 47.9463ZM271.659 50.8025C271.331 50.5859 271.113 50.3693 270.972 50.1122V52.3186C271.206 52.3186 271.425 52.2915 271.659 52.2374V50.789V50.8025ZM246.915 318.69H243.496C244.042 318.379 244.682 318.189 245.353 318.094C245.385 318.094 245.416 318.094 245.447 318.094H245.619C245.915 318.108 246.243 318.203 246.509 318.297C246.696 318.365 246.837 318.514 246.93 318.69H246.915ZM209.962 327.259V330.304C209.743 330.196 209.509 330.115 209.275 330.061V326.961C209.493 327.069 209.728 327.177 209.962 327.259ZM218.33 266.696C218.283 266.493 218.236 266.29 218.205 266.101H209.977C210.165 266.304 210.368 266.493 210.555 266.696H218.33ZM209.962 286.162C209.728 286.202 209.493 286.229 209.275 286.27V288.504C209.509 288.409 209.743 288.314 209.962 288.192V286.148V286.162ZM209.962 65.5167C209.712 66.0988 209.509 66.6944 209.275 67.2764V90.275C209.275 90.275 209.431 90.1667 209.634 90.1531C209.743 90.1531 209.852 90.1396 209.962 90.1261V65.5167ZM209.962 90.5457C209.962 90.5457 209.868 90.5592 209.821 90.5728C209.696 90.5863 209.509 90.5998 209.431 90.5457C209.353 90.4916 209.29 90.4374 209.275 90.3968V94.3088C209.478 94.2818 209.665 94.2412 209.868 94.187C209.899 94.187 209.93 94.1735 209.977 94.1599V90.5592L209.962 90.5457ZM209.962 25.2321V33.909C209.712 33.9496 209.478 34.0172 209.275 34.0985V25.381C209.493 25.2997 209.728 25.2456 209.962 25.2185V25.2321ZM209.962 35.9936V47.6079C209.728 47.5944 209.493 47.5808 209.275 47.5538V36.2778C209.509 36.1966 209.743 36.1019 209.962 35.9936ZM209.962 48.0005L209.275 48.0952V52.3321C209.275 52.3321 209.353 52.3321 209.4 52.3321C209.587 52.3457 209.774 52.3592 209.962 52.3592V47.9869V48.0005ZM204.872 318.704H193.054C192.836 318.514 192.617 318.311 192.43 318.108H205.325L205.294 318.135C205.122 318.325 204.982 318.514 204.872 318.704ZM189.214 266.71L189.323 266.669C189.385 266.48 189.448 266.29 189.526 266.101H183C183 266.101 183.11 266.222 183.156 266.277C183.281 266.439 183.391 266.574 183.531 266.696H189.229L189.214 266.71ZM209.275 162.722H148.264V214.12H209.275V162.722ZM209.275 158.77C209.384 158.404 209.431 158.025 209.368 157.606C209.306 157.037 209.275 156.468 209.275 155.886V158.756V158.77ZM195.88 58.7349C195.88 58.7349 195.817 58.6943 195.802 58.6808C195.599 58.5454 195.334 58.4642 195.099 58.3559L195.24 58.2476C195.24 58.2476 195.162 58.2476 195.115 58.2476V58.1393H166.577C166.296 58.3424 165.999 58.5319 165.718 58.7349H192.929C193.554 58.3423 194.334 58.2882 195.115 58.2476C195.115 58.2747 195.115 58.3017 195.115 58.3288C194.85 58.5454 194.553 58.6672 194.225 58.7484H195.911L195.88 58.7349ZM110.094 266.723C109.969 266.52 109.828 266.317 109.703 266.128H105.644C105.785 266.331 105.925 266.52 106.066 266.723H110.078H110.094ZM86.5512 233.708V233.735C86.3795 234.046 86.1609 234.344 86.0829 234.669C85.9892 234.994 85.9268 235.359 86.0517 235.657C86.2078 236.036 86.4107 236.415 86.5669 236.794V233.708H86.5512ZM86.5512 238.676C86.5512 238.676 86.5512 238.784 86.5512 238.838V238.676ZM86.5512 177.396C86.3639 177.369 86.1766 177.355 85.9892 177.328C85.9424 177.328 85.9112 177.328 85.8643 177.328V180.739C85.8643 180.739 85.9112 180.794 85.9268 180.821C86.1141 181.037 86.3327 181.24 86.5512 181.443V177.396ZM24.8382 70.8636C24.5728 70.9584 24.323 71.0937 24.1513 71.2426V85.7944C24.1513 85.7944 24.2606 85.7538 24.323 85.7267C24.4947 85.659 24.6665 85.5913 24.8538 85.5237V70.8501L24.8382 70.8636ZM85.8487 50.7348V49.7602C85.9112 49.8279 85.9424 49.9091 85.9892 49.9768C86.1297 50.234 86.0361 50.4912 85.8487 50.7348Z" fill="#BCBCBC"/>
</svg>
