<?xml version="1.0" standalone="no"?>
<!DOCTYPE svg PUBLIC "-//W3C//DTD SVG 20010904//EN"
 "http://www.w3.org/TR/2001/REC-SVG-20010904/DTD/svg10.dtd">
<svg version="1.0" xmlns="http://www.w3.org/2000/svg"
 width="512.000000pt" height="512.000000pt" viewBox="0 0 512.000000 512.000000"
 preserveAspectRatio="xMidYMid meet">

<g transform="translate(0.000000,512.000000) scale(0.100000,-0.100000)"
fill="#F76501" stroke="none">
<path d="M2163 4692 c-48 -26 -2119 -1729 -2140 -1760 -24 -36 -25 -128 -1
-164 10 -15 493 -421 1075 -903 736 -609 1068 -879 1094 -886 72 -22 148 13
187 85 15 28 17 82 20 510 l4 479 156 -7 c617 -27 1089 -147 1465 -375 403
-243 698 -649 773 -1061 19 -107 28 -131 64 -165 39 -37 110 -45 160 -17 58
32 78 86 90 242 44 592 -64 1190 -302 1665 -342 681 -994 1125 -1860 1265
-156 25 -390 50 -480 50 l-68 0 0 413 c-1 460 -6 542 -40 584 -30 39 -77 62
-125 62 -22 0 -54 -8 -72 -17z m-72 -1267 c42 -76 65 -83 315 -94 523 -24 898
-112 1267 -297 562 -282 951 -816 1092 -1501 36 -176 33 -182 -44 -84 -311
396 -772 670 -1351 805 -298 69 -723 116 -1047 116 -111 0 -130 -3 -165 -22
-21 -12 -49 -38 -61 -58 -21 -34 -22 -45 -27 -424 l-5 -389 -823 683 c-452
376 -821 687 -820 691 2 4 372 311 823 682 l820 674 5 -376 c4 -324 7 -380 21
-406z"/>
</g>
</svg>
