<svg width="347" height="1339" viewBox="0 0 347 1339" fill="none" xmlns="http://www.w3.org/2000/svg">
<path d="M325.5 1C338.833 25.1667 359.2 91.1 334 161.5C308.8 231.9 124.167 304.5 35.0001 332C29.1667 342 16.1001 373.3 10.5001 418.5C3.50007 475 13.0001 531.5 35.0001 554.5C57.0001 577.5 196.5 658 215.5 665.5C230.7 671.5 282.833 679.833 307 686C316 687 336.5 718.5 336.5 770.5C336.5 841.5 331 854.5 307 913C276.13 988.248 107.167 1028 33.5 1040.5C5.83333 1066.17 -15.9 1172.5 22.5 1232.5C60.9 1292.5 152.667 1316.33 195.5 1337.5" stroke="#888080" stroke-width="2" stroke-dasharray="4 4"/>
</svg>
