<svg width="44" height="43" viewBox="0 0 44 43" fill="none" xmlns="http://www.w3.org/2000/svg">
<circle cx="21.6919" cy="21.3384" r="21.3384" fill="#F1864B"/>
<path fill-rule="evenodd" clip-rule="evenodd" d="M21.0075 9.0293C19.0087 9.0293 16.1648 9.80468 13.7965 11.5098C11.38 13.2497 9.38086 16.0247 9.38086 19.9721C9.38086 22.3443 10.1754 24.1427 10.9784 25.3473C11.325 25.8672 11.6735 26.2773 11.9616 26.5788L10.7895 31.267C10.66 31.7852 10.844 32.3315 11.2607 32.6657C11.6773 33 12.2505 33.0611 12.7283 32.8222L17.6643 30.3542C20.4604 31.2909 24.2911 30.9716 27.4775 29.5076C30.9707 27.9025 34.0021 24.7622 34.0021 19.9721C34.0021 15.6536 31.7995 12.8517 29.0696 11.1942C26.4078 9.57809 23.2377 9.0293 21.0075 9.0293ZM14.8114 26.4591C14.9441 25.9284 14.7478 25.37 14.313 25.0391L14.3082 25.0352C14.2997 25.0284 14.2822 25.0142 14.257 24.9926C14.2066 24.9494 14.1256 24.8769 14.0242 24.7754C13.8205 24.5718 13.5388 24.256 13.2547 23.8298C12.6899 22.9826 12.1166 21.7033 12.1166 19.9721C12.1166 17.0802 13.537 15.0677 15.395 13.7299C17.3013 12.3574 19.5868 11.765 21.0075 11.765C22.8809 11.765 25.5242 12.2421 27.6498 13.5326C29.7074 14.7819 31.2664 16.7673 31.2664 19.9721C31.2664 23.389 29.1683 25.72 26.3353 27.0217C23.4361 28.3538 20.0854 28.4452 18.1268 27.6058C17.7569 27.4473 17.3361 27.4597 16.9762 27.6396L14.1649 29.0453L14.8114 26.4591ZM18.397 14.5888C18.9371 14.3547 19.4713 14.6179 19.707 15.0154L20.7933 16.8475C21.0129 17.2179 21.0035 17.7536 20.6005 18.1136C20.4277 18.2679 20.1887 18.4571 19.9662 18.6332L19.9661 18.6332L19.9661 18.6332C19.844 18.7299 19.7268 18.8225 19.6284 18.9033C20.653 20.8068 22.1015 21.7045 22.764 22.035L23.5631 21.1159C23.9404 20.6819 24.5796 20.5901 25.0488 20.8879C25.4828 21.1633 26.0833 21.5344 26.6286 21.845C26.9924 22.0521 27.2394 22.4751 27.1412 22.946C26.9647 23.7918 26.5802 24.4034 26.0544 24.8114C25.5374 25.2127 24.9366 25.3762 24.391 25.4257C23.3178 25.523 22.3117 25.1914 22.1282 25.1276C22.0817 25.1114 22.0433 25.0945 22.0022 25.073C21.8067 24.9708 20.6556 24.3532 19.4367 23.35C18.2305 22.3574 16.8849 20.9284 16.4073 19.1873C16.0565 17.9084 16.2276 16.8794 16.6811 16.0938C17.1266 15.322 17.8113 14.8427 18.397 14.5888Z" fill="white"/>
</svg>
