<?xml version="1.0" standalone="no"?>
<!DOCTYPE svg PUBLIC "-//W3C//DTD SVG 20010904//EN"
 "http://www.w3.org/TR/2001/REC-SVG-20010904/DTD/svg10.dtd">
<svg version="1.0" xmlns="http://www.w3.org/2000/svg"
 width="2133.000000pt" height="2133.000000pt" viewBox="0 0 2133.000000 2133.000000"
 preserveAspectRatio="xMidYMid meet">

<g transform="translate(0.000000,2133.000000) scale(0.100000,-0.100000)"
fill="#F76501" stroke="none">
<path d="M11958 19609 c-140 -18 -272 -84 -379 -191 -182 -179 -203 -339 -219
-1673 -5 -423 -9 -1169 -10 -1656 l0 -886 -312 -6 c-172 -3 -389 -12 -483 -21
-683 -64 -1285 -142 -1774 -232 -3027 -553 -5411 -2021 -6892 -4244 -974
-1462 -1609 -3395 -1804 -5490 -66 -719 -78 -1576 -30 -2284 45 -657 108 -903
269 -1053 113 -106 235 -153 392 -153 175 0 296 49 409 164 114 116 158 221
214 516 53 277 71 359 111 516 355 1372 1285 2705 2544 3646 386 289 770 522
1256 762 1361 673 3008 1058 5050 1181 215 13 1042 53 1046 51 1 -1 6 -707 13
-1571 15 -2009 24 -2345 66 -2492 36 -124 183 -289 324 -362 103 -54 185 -74
296 -74 165 0 185 11 585 322 1104 859 7101 5825 8451 6998 189 164 203 182
231 305 18 78 15 308 -5 391 -29 118 -41 132 -269 328 -1181 1013 -7803 6454
-8599 7067 -132 101 -196 126 -384 146 -16 2 -60 0 -97 -5z m2462 -3453 c3056
-2512 3897 -3206 5148 -4252 14 -11 23 -25 21 -31 -17 -44 -1764 -1511 -4924
-4133 l-1920 -1593 -2 74 c-1 41 -7 502 -13 1024 -13 1136 -27 1811 -40 1983
-19 233 -49 300 -196 441 -65 63 -111 97 -166 124 -126 62 -171 68 -555 74
-1000 15 -2398 -105 -3593 -307 -2657 -452 -4762 -1532 -6216 -3190 -60 -69
-182 -215 -271 -325 -163 -203 -231 -275 -258 -275 -28 0 -37 48 -25 144 15
128 120 643 180 886 384 1546 1050 2854 2016 3960 239 274 646 666 949 915
812 667 1828 1205 3000 1588 1109 362 2242 544 3885 622 816 39 979 77 1116
258 68 91 104 173 119 275 27 180 42 782 61 2509 5 431 10 600 18 596 6 -4
756 -619 1666 -1367z"/>
</g>
</svg>
