<svg width="977" height="451" viewBox="0 0 977 451" fill="none" xmlns="http://www.w3.org/2000/svg">
<path d="M1 68.5747C26.5594 78.0823 52.4269 82.5937 76.9377 83.8559C160.984 88.184 227.876 10.8015 311.554 1.82196C326.383 0.230548 342.271 0.847644 359 4.57474C455.5 26.0747 375 3.07471 518.5 50.5747C662 98.0747 728 45.0747 750.5 43.0747C773 41.0747 891 0 906 27.5C921 55 1006.4 58.2107 964 190.5C951.5 229.5 866.5 263.5 845 302C828.223 332.042 841 345.075 833.5 368.575C826 392.075 815.5 423.075 750.5 423.075C685.5 423.075 460.5 383.075 416.5 379.075C372.5 375.075 351 368.575 307.5 368.575C264 368.575 232 395.075 223.5 402.575C215 410.075 199 429.575 181 438.075C163 446.575 92 458.575 53.5 438.075" stroke="#888080" stroke-width="2" stroke-dasharray="2 2"/>
</svg>
