<?xml version="1.0" standalone="no"?>
<!DOCTYPE svg PUBLIC "-//W3C//DTD SVG 20010904//EN"
 "http://www.w3.org/TR/2001/REC-SVG-20010904/DTD/svg10.dtd">
<svg version="1.0" xmlns="http://www.w3.org/2000/svg"
 width="50.000000pt" height="50.000000pt" viewBox="0 0 50.000000 50.000000"
 preserveAspectRatio="xMidYMid meet">

<g transform="translate(0.000000,50.000000) scale(0.100000,-0.100000)"
fill="#F76501" stroke="none">
<path d="M112 438 c-6 -6 -12 -18 -12 -25 0 -7 -10 -13 -23 -13 -13 0 -28 -5
-35 -12 -15 -15 -17 -291 -2 -319 10 -18 23 -19 185 -19 l175 0 35 38 34 37 1
126 c0 131 -5 149 -45 149 -11 0 -24 10 -30 23 -6 12 -19 22 -30 22 -13 0 -21
-8 -23 -22 -3 -17 -10 -23 -30 -23 -19 0 -30 7 -37 23 -6 12 -17 22 -25 22 -8
0 -19 -10 -25 -22 -14 -32 -62 -32 -67 -1 -3 26 -28 34 -46 16z m36 -26 c2 -7
-3 -12 -12 -12 -9 0 -16 7 -16 16 0 17 22 14 28 -4z m120 0 c2 -7 -6 -12 -17
-12 -21 0 -27 11 -14 24 9 9 26 2 31 -12z m112 3 c0 -8 -7 -15 -15 -15 -16 0
-20 12 -8 23 11 12 23 8 23 -8z m-277 -56 c6 -24 48 -23 55 1 4 12 2 13 -9 3
-18 -17 -29 -16 -29 2 0 11 12 15 49 15 41 0 50 -3 54 -21 6 -24 48 -23 55 1
4 12 2 13 -9 3 -17 -17 -26 -16 -33 2 -4 12 5 15 48 15 45 0 54 -3 59 -20 3
-12 14 -20 25 -20 22 0 38 17 27 28 -3 3 -10 0 -14 -7 -5 -7 -14 -10 -20 -7
-24 15 -8 26 39 26 49 0 50 -1 50 -30 l0 -30 -200 0 -200 0 0 30 c0 25 4 30
24 30 16 0 26 -7 29 -21z m347 -144 l0 -85 -30 0 c-27 0 -30 -3 -30 -30 l0
-30 -167 2 -168 3 -3 113 -3 112 201 0 200 0 0 -85z m-10 -99 c0 -2 -7 -9 -15
-16 -12 -10 -15 -10 -15 4 0 9 7 16 15 16 8 0 15 -2 15 -4z"/>
<path d="M94 259 c-10 -17 13 -36 27 -22 12 12 4 33 -11 33 -5 0 -12 -5 -16
-11z"/>
<path d="M164 259 c-10 -17 13 -36 27 -22 12 12 4 33 -11 33 -5 0 -12 -5 -16
-11z"/>
<path d="M234 259 c-10 -17 13 -36 27 -22 12 12 4 33 -11 33 -5 0 -12 -5 -16
-11z"/>
<path d="M304 259 c-10 -17 13 -36 27 -22 12 12 4 33 -11 33 -5 0 -12 -5 -16
-11z"/>
<path d="M374 259 c-10 -17 13 -36 27 -22 12 12 4 33 -11 33 -5 0 -12 -5 -16
-11z"/>
<path d="M90 184 c0 -9 7 -14 17 -12 25 5 28 28 4 28 -12 0 -21 -6 -21 -16z"/>
<path d="M163 188 c2 -7 10 -13 17 -13 7 0 15 6 18 13 2 7 -5 12 -18 12 -13 0
-20 -5 -17 -12z"/>
<path d="M233 188 c2 -7 10 -13 17 -13 7 0 15 6 18 13 2 7 -5 12 -18 12 -13 0
-20 -5 -17 -12z"/>
<path d="M303 188 c2 -7 10 -13 17 -13 7 0 15 6 18 13 2 7 -5 12 -18 12 -13 0
-20 -5 -17 -12z"/>
<path d="M372 188 c7 -19 38 -22 38 -4 0 10 -9 16 -21 16 -12 0 -19 -5 -17
-12z"/>
<path d="M90 125 c0 -10 7 -15 18 -13 21 4 19 22 -2 26 -10 2 -16 -3 -16 -13z"/>
<path d="M160 125 c0 -8 9 -15 20 -15 11 0 20 7 20 15 0 8 -9 15 -20 15 -11 0
-20 -7 -20 -15z"/>
<path d="M230 125 c0 -8 9 -15 20 -15 11 0 20 7 20 15 0 8 -9 15 -20 15 -11 0
-20 -7 -20 -15z"/>
<path d="M300 125 c0 -8 9 -15 20 -15 11 0 20 7 20 15 0 8 -9 15 -20 15 -11 0
-20 -7 -20 -15z"/>
</g>
</svg>
