<?xml version="1.0" standalone="no"?>
<!DOCTYPE svg PUBLIC "-//W3C//DTD SVG 20010904//EN"
 "http://www.w3.org/TR/2001/REC-SVG-20010904/DTD/svg10.dtd">
<svg version="1.0" xmlns="http://www.w3.org/2000/svg"
 width="48.000000pt" height="48.000000pt" viewBox="0 0 48.000000 48.000000"
 preserveAspectRatio="xMidYMid meet">

<g transform="translate(0.000000,48.000000) scale(0.100000,-0.100000)"
fill="#FFFFFF" stroke="none">
<path d="M230 370 c-123 -49 -226 -93 -228 -99 -2 -6 26 -25 63 -43 l66 -33
52 28 c51 27 52 28 25 3 -26 -23 -28 -30 -28 -106 0 -44 3 -80 8 -80 4 0 21
16 38 37 l30 36 63 -36 c55 -33 81 -44 81 -34 0 2 18 92 40 201 37 184 40 217
22 215 -4 0 -108 -40 -232 -89z m180 -125 l-33 -165 -65 36 -65 37 -19 -23
-18 -22 0 40 c0 38 5 44 83 113 78 69 102 99 77 99 -6 0 -62 -30 -124 -66
l-114 -65 -39 19 c-27 15 -34 22 -23 26 262 104 366 143 369 140 2 -2 -11 -78
-29 -169z"/>
</g>
</svg>
