<svg width="211" height="222" viewBox="0 0 211 222" fill="none" xmlns="http://www.w3.org/2000/svg">
<path fill-rule="evenodd" clip-rule="evenodd" d="M112.178 29.2377C111.751 29.2199 111.715 28.5428 112.213 28.5072H112.249L112.978 28.5785C113.458 28.6319 113.387 29.3268 112.907 29.309L112.178 29.2377ZM115.076 29.5228C114.614 29.4693 114.667 28.7745 115.165 28.7923C115.414 28.8279 115.646 28.8457 115.895 28.8814C116.339 28.9348 116.304 29.6297 115.806 29.6119C115.557 29.5762 115.325 29.5584 115.076 29.5228ZM117.957 29.9147C117.477 29.8257 117.584 29.1308 118.064 29.2021L118.793 29.3268C119.256 29.4159 119.167 30.0751 118.704 30.0573C118.455 30.0216 118.206 29.986 117.957 29.9326V29.9147ZM120.821 30.4136C120.376 30.3245 120.447 29.6297 120.963 29.7009C121.212 29.7544 121.443 29.79 121.692 29.8435C122.101 29.9147 122.065 30.574 121.621 30.574C121.603 30.574 121.585 30.574 121.55 30.574L120.838 30.4314L120.821 30.4136ZM123.666 31.0194C123.203 30.9125 123.346 30.2176 123.826 30.3067C124.057 30.3602 124.306 30.4136 124.537 30.4671C124.946 30.574 124.893 31.1797 124.448 31.1797C124.431 31.1797 124.395 31.1797 124.377 31.1797C124.146 31.1263 123.915 31.0728 123.666 31.0194ZM126.476 31.7321C126.067 31.6252 126.138 30.9838 126.6 31.0194H126.653C126.885 31.0907 127.134 31.1619 127.365 31.2154C127.738 31.3045 127.72 31.9281 127.24 31.9281C127.205 31.9281 127.187 31.9281 127.151 31.9281C126.92 31.8568 126.689 31.8033 126.458 31.7321H126.476ZM129.268 32.5338C128.841 32.3913 129.001 31.7499 129.463 31.8212C129.712 31.8924 129.961 31.9637 130.192 32.0528C130.601 32.1953 130.495 32.7833 130.05 32.7655C130.015 32.7655 129.997 32.7655 129.979 32.7655L129.285 32.5517L129.268 32.5338ZM132.024 33.4425C131.597 33.3 131.757 32.6229 132.255 32.7476C132.486 32.8189 132.735 32.908 132.967 32.9971C133.429 33.1753 133.18 33.8345 132.718 33.6919L132.024 33.4425ZM134.745 34.4403C134.318 34.2621 134.531 33.6029 135.012 33.7632L135.705 34.0305C136.096 34.1908 135.936 34.8144 135.492 34.7253C135.474 34.7253 135.456 34.7253 135.438 34.7253L134.763 34.4581L134.745 34.4403ZM137.43 35.5449C137.003 35.3489 137.27 34.6897 137.715 34.8679L138.39 35.1708C138.782 35.3489 138.586 35.9547 138.159 35.8656C138.142 35.8656 138.106 35.8656 138.088 35.8478L137.412 35.5627L137.43 35.5449ZM140.08 36.7387C139.689 36.5427 139.902 35.9191 140.364 36.0616C140.596 36.1507 140.827 36.2754 141.058 36.3823C141.485 36.5961 141.182 37.2375 140.738 37.0415C140.525 36.9346 140.293 36.8277 140.08 36.7208V36.7387ZM142.676 38.0215C142.285 37.8255 142.534 37.2019 142.961 37.3444H143.014C143.228 37.4692 143.441 37.5939 143.672 37.7008C143.85 37.7899 143.903 37.9858 143.832 38.164C143.743 38.36 143.512 38.4491 143.316 38.3422C143.103 38.2353 142.89 38.1106 142.676 38.0037V38.0215ZM145.237 39.4112C144.828 39.1796 145.148 38.556 145.593 38.7698C145.806 38.8945 146.02 39.0192 146.233 39.144C146.589 39.3578 146.375 39.9279 145.948 39.8032C145.913 39.8032 145.895 39.7854 145.86 39.7675C145.646 39.6428 145.433 39.5359 145.237 39.4112ZM147.745 40.89C147.336 40.6228 147.709 40.017 148.118 40.2664C148.331 40.3911 148.527 40.5159 148.74 40.6584C149.096 40.89 148.847 41.4602 148.42 41.3176C148.403 41.3176 148.367 41.2998 148.349 41.282C148.154 41.1573 147.94 41.0326 147.727 40.9078L147.745 40.89ZM150.199 42.4579C149.967 42.2976 149.985 41.959 150.234 41.8343C150.359 41.7809 150.483 41.7809 150.59 41.8521C150.786 41.9947 150.999 42.1194 151.195 42.2619C151.319 42.351 151.372 42.4936 151.337 42.6361C151.283 42.8855 150.981 43.0102 150.768 42.8677C150.572 42.7252 150.359 42.6005 150.163 42.4579H150.199ZM152.582 44.1149C152.226 43.8655 152.546 43.2775 152.973 43.4913H153.008C153.204 43.6517 153.4 43.7942 153.595 43.9545C153.969 44.2396 153.56 44.8098 153.168 44.5425C152.973 44.4 152.777 44.2574 152.582 44.1149ZM154.911 45.8432C154.556 45.5759 154.911 45.0058 155.32 45.2374H155.356C155.551 45.4155 155.747 45.5581 155.943 45.7184C156.281 45.9857 155.943 46.5558 155.516 46.3064C155.32 46.1639 155.125 46.0035 154.911 45.8432ZM157.188 47.6605C157.063 47.5536 157.027 47.3754 157.081 47.2329C157.17 47.0013 157.454 46.9478 157.65 47.0903C157.846 47.2507 158.023 47.411 158.219 47.5536C158.592 47.8921 158.112 48.4088 157.739 48.1059L157.188 47.6427V47.6605ZM159.268 49.2462C159.304 48.9968 159.606 48.8008 159.855 48.9968L159.25 49.2462H159.268ZM166.506 55.6425L166.613 55.7494C166.613 55.7494 166.684 55.8563 166.702 55.9098C166.755 56.2127 166.488 56.4086 166.239 56.3374L166.506 55.6247V55.6425ZM167.484 57.8875C167.217 57.5667 167.626 57.1035 168 57.3708C168.018 57.3708 168.035 57.4064 168.053 57.4242L168.516 57.9944C168.8 58.3329 168.32 58.8139 167.982 58.4932L167.947 58.4576L167.484 57.9053V57.8875ZM169.316 60.1502C169.031 59.7761 169.547 59.3306 169.885 59.687C170.045 59.883 170.187 60.0789 170.347 60.2749C170.383 60.3284 170.418 60.3996 170.418 60.4709C170.436 60.8273 169.992 61.0054 169.76 60.7204L169.316 60.1502ZM171.059 62.4664C170.97 62.3417 170.97 62.1992 171.041 62.0745C171.165 61.8428 171.503 61.825 171.663 62.0388L172.09 62.6268C172.161 62.7337 172.179 62.8762 172.126 62.9831C172.019 63.2326 171.645 63.286 171.503 63.0544L171.076 62.4664H171.059ZM172.73 64.8539C172.499 64.5154 172.961 64.0521 173.317 64.4085L173.353 64.4441L173.762 65.0499C174.011 65.4597 173.424 65.8517 173.157 65.4597L172.748 64.8539H172.73ZM174.313 67.2948C174.064 66.8672 174.686 66.5109 174.935 66.9207L175.327 67.5443C175.54 67.9184 175.06 68.2926 174.758 67.9897C174.758 67.9719 174.722 67.9541 174.704 67.9363L174.331 67.3127L174.313 67.2948ZM175.807 69.7892C175.718 69.6289 175.753 69.4151 175.913 69.3082C176.091 69.1834 176.322 69.2369 176.429 69.4329L176.785 70.0743C176.856 70.199 176.838 70.3415 176.785 70.4484C176.625 70.6801 176.305 70.6623 176.162 70.4306L175.807 69.7892ZM177.212 72.337C176.998 71.9094 177.621 71.5709 177.852 71.9985C177.959 72.2123 178.083 72.4261 178.19 72.6578C178.279 72.8359 178.225 73.0497 178.047 73.1388C177.87 73.2457 177.638 73.1744 177.55 72.9785C177.443 72.7647 177.318 72.5509 177.212 72.337ZM178.528 74.9383C178.332 74.5107 178.937 74.19 179.168 74.5998C179.275 74.8136 179.381 75.0631 179.488 75.2769C179.559 75.455 179.488 75.651 179.346 75.7401C179.168 75.847 178.919 75.7757 178.83 75.5797C178.723 75.3659 178.617 75.1343 178.51 74.9205L178.528 74.9383ZM179.737 77.5753C179.559 77.1298 180.199 76.8448 180.413 77.2902C180.519 77.504 180.608 77.7356 180.697 77.9672C180.875 78.4127 180.235 78.6799 180.039 78.2701C179.933 78.0385 179.844 77.8069 179.737 77.5931V77.5753ZM180.857 80.2656C180.697 79.8736 181.248 79.5708 181.497 79.9271C181.497 79.9449 181.515 79.9627 181.533 79.9984L181.8 80.6754C181.96 81.0674 181.391 81.3881 181.142 80.9961C181.142 80.9783 181.142 80.9605 181.124 80.9427C181.035 80.711 180.946 80.4972 180.857 80.2656ZM181.871 82.9916C181.8 82.7956 181.889 82.5997 182.084 82.5284C182.28 82.4571 182.493 82.5462 182.564 82.7422L182.813 83.4371C182.956 83.8647 182.351 84.1319 182.138 83.7221V83.6865L181.889 82.9916H181.871ZM182.796 85.7533C182.796 85.7533 182.778 85.6285 182.796 85.5751C182.885 85.2009 183.382 85.1653 183.507 85.5395L183.72 86.2343C183.845 86.6263 183.276 86.9114 183.045 86.5194C183.045 86.5016 183.027 86.4838 183.009 86.4481L182.796 85.7533ZM183.614 88.5505C183.596 88.4614 183.614 88.3724 183.649 88.2833C183.809 87.9982 184.236 88.0517 184.325 88.3545L184.521 89.0672C184.627 89.5127 184.005 89.7265 183.827 89.2988V89.2632L183.631 88.5683L183.614 88.5505ZM184.343 91.3656C184.236 90.9558 184.823 90.7242 185.019 91.134C185.019 91.1518 185.036 91.1874 185.036 91.2053C185.09 91.4369 185.143 91.6863 185.196 91.9179C185.285 92.399 184.592 92.5415 184.485 92.0783C184.432 91.8467 184.378 91.6151 184.325 91.3656H184.343ZM184.965 94.1985C184.876 93.7531 185.552 93.5749 185.677 94.056C185.73 94.3054 185.765 94.537 185.819 94.7865C185.819 94.8756 185.819 94.9647 185.765 95.0359C185.588 95.321 185.161 95.2319 185.09 94.9112C185.036 94.6796 185.001 94.4301 184.947 94.1985H184.965ZM185.481 97.0671C185.428 96.586 186.121 96.4791 186.21 96.9602L186.317 97.6907C186.37 98.1717 185.677 98.2608 185.605 97.8154L185.481 97.0849V97.0671ZM185.89 99.9534C185.89 99.8643 185.89 99.7752 185.943 99.704C186.139 99.4189 186.566 99.5258 186.601 99.8643L186.69 100.595C186.744 101.022 186.121 101.183 185.979 100.737C185.979 100.72 185.979 100.702 185.979 100.666L185.89 99.9356V99.9534ZM186.21 102.84C186.192 102.483 186.583 102.305 186.832 102.555C186.886 102.608 186.921 102.697 186.939 102.769C186.957 103.018 186.975 103.25 187.01 103.499C187.046 103.962 186.335 104.034 186.281 103.57L186.21 102.84ZM187.117 115.258C187.117 115.419 186.975 115.561 186.797 115.579C186.655 115.597 186.512 115.525 186.441 115.419L187.117 115.258ZM186.228 117.378C186.263 116.951 186.921 116.915 186.957 117.414C186.957 117.664 186.921 117.931 186.886 118.18C186.832 118.608 186.21 118.626 186.157 118.18C186.157 118.162 186.157 118.127 186.157 118.109C186.174 117.877 186.21 117.628 186.228 117.378ZM185.926 120.265C185.979 119.837 186.619 119.837 186.655 120.3C186.655 120.318 186.655 120.336 186.655 120.354L186.566 121.084C186.512 121.53 185.819 121.494 185.837 120.995L185.926 120.265ZM185.516 123.151C185.605 122.688 186.263 122.777 186.246 123.24C186.21 123.49 186.174 123.739 186.121 123.989C186.032 124.416 185.428 124.381 185.392 123.935C185.392 123.917 185.392 123.882 185.392 123.864L185.516 123.151ZM185.001 126.02C185.09 125.574 185.783 125.646 185.712 126.144C185.659 126.394 185.623 126.625 185.57 126.875C185.499 127.285 184.841 127.267 184.841 126.786V126.732C184.894 126.501 184.947 126.251 185.001 126.02ZM184.396 128.853C184.503 128.389 185.196 128.532 185.107 129.013L184.93 129.726C184.823 130.135 184.218 130.082 184.218 129.637C184.218 129.601 184.218 129.583 184.218 129.565L184.378 128.853H184.396ZM183.685 131.668C183.792 131.258 184.467 131.347 184.396 131.828V131.864L184.201 132.576C184.112 132.951 183.489 132.933 183.489 132.452C183.489 132.416 183.489 132.398 183.489 132.363L183.685 131.668ZM182.867 134.465C183.009 134.055 183.596 134.162 183.578 134.608C183.578 134.643 183.578 134.661 183.578 134.679L183.365 135.374C183.365 135.374 183.276 135.534 183.187 135.587C182.902 135.748 182.564 135.463 182.671 135.16L182.885 134.465H182.867ZM181.96 137.227C182.102 136.799 182.778 136.959 182.653 137.458C182.582 137.69 182.493 137.939 182.404 138.171C182.244 138.545 181.693 138.456 181.693 138.028C181.693 137.993 181.693 137.957 181.711 137.921C181.8 137.69 181.871 137.476 181.96 137.244V137.227ZM180.946 139.953C181.124 139.525 181.782 139.739 181.622 140.22C181.533 140.451 181.444 140.683 181.355 140.915C181.195 141.325 180.537 141.129 180.662 140.665C180.751 140.434 180.857 140.202 180.946 139.953ZM179.844 142.643C180.039 142.215 180.697 142.483 180.519 142.946C180.43 143.178 180.324 143.391 180.217 143.623C180.021 144.033 179.399 143.801 179.541 143.356C179.63 143.124 179.737 142.892 179.844 142.661V142.643ZM178.634 145.298C178.812 144.906 179.435 145.12 179.31 145.565C179.31 145.583 179.31 145.601 179.292 145.618C179.186 145.832 179.079 146.064 178.972 146.278C178.777 146.67 178.154 146.438 178.296 145.993C178.403 145.761 178.528 145.529 178.634 145.298ZM177.336 147.899C177.585 147.471 178.19 147.81 177.976 148.238L177.638 148.879C177.532 149.057 177.354 149.111 177.176 149.039C176.98 148.95 176.892 148.719 176.998 148.523L177.336 147.881V147.899ZM175.949 150.447C176.162 150.055 176.767 150.34 176.607 150.768V150.803L176.216 151.445C176.002 151.801 175.433 151.587 175.54 151.16C175.54 151.124 175.558 151.106 175.576 151.07L175.931 150.447H175.949ZM174.473 152.941C174.722 152.549 175.309 152.888 175.095 153.315C174.971 153.529 174.829 153.743 174.704 153.957C174.473 154.313 173.904 154.064 174.046 153.636C174.046 153.618 174.064 153.583 174.082 153.565L174.473 152.941ZM172.908 155.382C173.157 155.026 173.708 155.311 173.548 155.739C173.548 155.756 173.548 155.774 173.513 155.792L173.104 156.398C173.015 156.522 172.872 156.576 172.73 156.558C172.481 156.505 172.357 156.202 172.499 155.988L172.908 155.382ZM171.254 157.77C171.557 157.378 172.126 157.805 171.841 158.197L171.414 158.785C171.13 159.159 170.543 158.75 170.827 158.358C170.97 158.162 171.112 157.966 171.254 157.77ZM169.511 160.104C169.778 159.765 170.347 160.104 170.098 160.531C169.956 160.727 169.778 160.941 169.636 161.137C169.369 161.476 168.8 161.137 169.049 160.709C169.191 160.513 169.369 160.3 169.511 160.104ZM167.68 162.366C167.929 162.064 168.462 162.331 168.284 162.758C168.284 162.776 168.267 162.812 168.231 162.83L167.751 163.382C167.413 163.738 166.897 163.275 167.2 162.901L167.662 162.349L167.68 162.366ZM159.873 171.471C159.766 171.56 159.659 171.667 159.553 171.756C159.25 172.041 158.752 171.649 159.019 171.257C159.019 171.239 159.055 171.221 159.073 171.204L159.108 171.168L159.873 171.471ZM157.419 172.629C157.739 172.362 158.201 172.772 157.934 173.146C157.917 173.146 157.899 173.181 157.881 173.199C157.685 173.36 157.508 173.52 157.312 173.662C156.921 173.965 156.494 173.395 156.85 173.092C157.027 172.932 157.223 172.789 157.401 172.629H157.419ZM155.16 174.464C155.516 174.179 155.978 174.696 155.623 175.034C155.427 175.195 155.231 175.337 155.036 175.498C154.716 175.747 154.271 175.355 154.52 174.981C154.538 174.945 154.556 174.927 154.591 174.91C154.787 174.767 154.982 174.607 155.16 174.464ZM152.831 176.21C152.955 176.121 153.097 176.121 153.222 176.192C153.453 176.317 153.471 176.656 153.257 176.816L152.653 177.244C152.493 177.351 152.279 177.333 152.155 177.172C152.03 177.012 152.066 176.763 152.226 176.656L152.813 176.228L152.831 176.21ZM150.448 177.867C150.786 177.636 151.248 178.099 150.892 178.437L150.857 178.473L150.252 178.883C149.879 179.132 149.47 178.58 149.825 178.295H149.861C150.056 178.134 150.27 178.01 150.465 177.867H150.448ZM148.011 179.435C148.438 179.186 148.794 179.791 148.403 180.059C148.189 180.183 147.994 180.308 147.78 180.433C147.602 180.54 147.389 180.486 147.282 180.308C147.175 180.148 147.229 179.898 147.407 179.791L148.029 179.417L148.011 179.435ZM145.522 180.914C145.682 180.825 145.895 180.86 146.002 181.021C146.126 181.199 146.073 181.448 145.877 181.555C145.664 181.68 145.451 181.805 145.237 181.912C144.864 182.125 144.472 181.609 144.828 181.306L144.881 181.27C145.095 181.146 145.308 181.039 145.522 180.914ZM142.979 182.304C143.103 182.25 143.245 182.25 143.352 182.321C143.583 182.464 143.565 182.82 143.316 182.945L142.659 183.284C142.249 183.48 141.912 182.909 142.285 182.66C142.498 182.535 142.747 182.428 142.961 182.304H142.979ZM140.382 183.604C140.756 183.426 141.094 183.889 140.791 184.192C140.756 184.228 140.738 184.246 140.702 184.264L140.044 184.584C139.867 184.656 139.671 184.584 139.582 184.442C139.475 184.264 139.546 184.014 139.742 183.925L140.4 183.622L140.382 183.604ZM137.733 184.816C138.035 184.691 138.319 184.958 138.213 185.279C138.177 185.368 138.106 185.457 138.017 185.493L137.341 185.778C136.897 185.956 136.63 185.333 137.039 185.119C137.27 185.012 137.501 184.923 137.733 184.816ZM135.047 185.921C135.438 185.76 135.759 186.33 135.367 186.58H135.314L134.638 186.865C134.247 187.025 133.927 186.455 134.318 186.206C134.336 186.206 134.354 186.188 134.371 186.188L135.047 185.921ZM132.326 186.936C132.753 186.794 133.02 187.399 132.611 187.613H132.575L131.882 187.863C131.473 188.005 131.206 187.435 131.579 187.203C131.597 187.203 131.615 187.186 131.651 187.168L132.344 186.936H132.326ZM129.57 187.845C129.57 187.845 129.694 187.827 129.748 187.845C130.121 187.916 130.157 188.433 129.783 188.557L129.09 188.771C128.841 188.843 128.574 188.629 128.627 188.361C128.663 188.219 128.752 188.13 128.876 188.076L129.57 187.863V187.845ZM126.778 188.664C126.867 188.647 126.956 188.664 127.045 188.7C127.329 188.86 127.276 189.288 126.974 189.377L126.262 189.573C126.102 189.609 125.924 189.537 125.853 189.377C125.746 189.163 125.853 188.914 126.084 188.86L126.778 188.664ZM123.968 189.377C124.359 189.288 124.608 189.822 124.235 190.054C124.199 190.072 124.164 190.09 124.128 190.09L123.417 190.25C122.937 190.339 122.794 189.662 123.257 189.537L123.968 189.377ZM121.123 189.983C121.55 189.912 121.745 190.499 121.318 190.678C121.301 190.678 121.283 190.678 121.247 190.678L120.536 190.82C120.447 190.82 120.358 190.82 120.287 190.767C120.002 190.589 120.091 190.161 120.411 190.09L121.123 189.947V189.983ZM118.26 190.499C118.74 190.446 118.847 191.141 118.366 191.23C118.135 191.248 117.868 191.301 117.637 191.337C117.157 191.39 117.05 190.695 117.531 190.606C117.762 190.571 118.029 190.517 118.26 190.499ZM115.379 190.909C115.468 190.909 115.557 190.909 115.628 190.963C115.912 191.159 115.806 191.586 115.468 191.622L114.739 191.711C114.312 191.764 114.17 191.141 114.579 190.998C114.614 190.998 114.632 190.998 114.65 190.998C114.881 190.981 115.13 190.945 115.379 190.909ZM112.498 191.212C112.978 191.177 113.049 191.889 112.569 191.943L111.84 191.996C111.36 192.032 111.306 191.319 111.769 191.266L112.498 191.212ZM100.939 192.121C100.939 192.121 100.885 192.121 100.85 192.121C100.601 192.121 100.352 192.103 100.121 192.085C99.9784 192.085 99.8539 191.978 99.8005 191.836C99.7116 191.586 99.9072 191.337 100.174 191.355C100.37 191.355 100.583 191.373 100.796 191.39L100.956 192.121H100.939ZM97.9866 191.194C98.4668 191.248 98.3956 191.96 97.9155 191.925L97.1864 191.854C96.7596 191.8 96.7418 191.177 97.1864 191.123C97.2042 191.123 97.2397 191.123 97.2575 191.123L97.9866 191.194ZM95.1057 190.874C95.5325 190.927 95.5325 191.569 95.0701 191.604C95.0524 191.604 95.0346 191.604 95.0168 191.604C94.7678 191.569 94.5366 191.533 94.2877 191.515C93.8609 191.462 93.8609 190.785 94.3588 190.785C94.6078 190.802 94.8745 190.856 95.1057 190.891V190.874ZM92.2248 190.464C92.6872 190.553 92.5983 191.212 92.1359 191.194C91.8869 191.159 91.6202 191.105 91.389 191.07C90.9266 190.981 91.0333 190.286 91.5135 190.357L92.2426 190.482L92.2248 190.464ZM89.3617 189.947C89.7707 190.018 89.7351 190.678 89.2905 190.678C89.2728 190.678 89.255 190.678 89.2194 190.678L88.5081 190.535C88.0991 190.464 88.1168 189.822 88.597 189.822H88.6503L89.3617 189.983V189.947ZM86.5341 189.324C86.9431 189.43 86.8898 190.036 86.4274 190.036C86.4096 190.036 86.3741 190.036 86.3563 190.036L85.6449 189.858C85.2537 189.751 85.2893 189.163 85.7161 189.145C85.7516 189.145 85.7872 189.145 85.8228 189.145L86.5341 189.324ZM83.7243 188.593C84.1334 188.7 84.0444 189.377 83.5643 189.306C83.3153 189.252 83.0663 189.163 82.8174 189.092C82.3728 188.949 82.5506 188.272 83.013 188.397C83.2442 188.468 83.4754 188.54 83.7066 188.593H83.7243ZM80.9323 187.773C81.3414 187.916 81.2347 188.504 80.7901 188.486C80.7545 188.486 80.7367 188.486 80.7189 188.486C80.4878 188.415 80.2566 188.344 80.0254 188.255C79.9365 188.219 79.8653 188.165 79.812 188.076C79.6519 187.791 79.9365 187.453 80.2566 187.56C80.4878 187.631 80.7189 187.702 80.9501 187.773H80.9323ZM78.1759 186.847C78.6205 187.025 78.3893 187.684 77.9269 187.542L77.2334 187.292C76.8599 187.132 76.9489 186.58 77.3757 186.58C77.4112 186.58 77.4468 186.58 77.4824 186.598L78.1759 186.847ZM75.4551 185.814C75.8463 185.974 75.6862 186.598 75.2417 186.508C75.2239 186.508 75.2061 186.508 75.1883 186.508L74.5125 186.241C74.1035 186.081 74.2991 185.439 74.7615 185.564C74.9927 185.653 75.2417 185.76 75.4728 185.849L75.4551 185.814ZM72.7698 184.691C73.161 184.869 72.9654 185.475 72.5386 185.386C72.5208 185.386 72.4852 185.386 72.4674 185.368L71.7917 185.065C71.3827 184.869 71.6138 184.246 72.0584 184.388C72.2896 184.477 72.5208 184.602 72.752 184.691H72.7698ZM70.1378 183.48C70.5646 183.693 70.2623 184.335 69.8177 184.139L69.1597 183.818C68.7685 183.622 68.9997 182.999 69.4443 183.141H69.4798L70.1378 183.48ZM67.5414 182.161C67.7193 182.25 67.7726 182.446 67.7015 182.624C67.6126 182.82 67.3814 182.909 67.1858 182.803L66.5456 182.464C66.1721 182.25 66.4033 181.644 66.8657 181.805H66.9012L67.5414 182.161ZM64.9984 180.754C65.3897 180.967 65.1051 181.573 64.6783 181.413C64.4471 181.306 64.216 181.146 64.0026 181.021C63.6113 180.807 63.9136 180.166 64.3582 180.379C64.5716 180.504 64.785 180.629 64.9984 180.754ZM62.5087 179.257C62.9 179.506 62.5621 180.094 62.1353 179.881C61.9219 179.756 61.7085 179.613 61.4951 179.471C61.1216 179.221 61.4417 178.633 61.8685 178.847C62.0819 178.972 62.2953 179.114 62.5087 179.257ZM60.0724 177.671C60.4281 177.921 60.1436 178.473 59.7168 178.313C59.699 178.313 59.6812 178.313 59.6634 178.277C59.4678 178.134 59.2544 178.01 59.0588 177.867C58.9165 177.76 58.8631 177.582 58.9343 177.422C59.0232 177.208 59.29 177.137 59.4856 177.261C59.6812 177.404 59.8768 177.529 60.0902 177.671H60.0724ZM57.6894 175.996C58.0629 176.299 57.6539 176.869 57.2626 176.584C57.067 176.442 56.8714 176.299 56.6758 176.157C56.3023 175.872 56.6758 175.319 57.0848 175.551C57.2804 175.694 57.4938 175.854 57.6894 175.996ZM55.3776 174.25C55.7155 174.518 55.3776 175.088 54.9508 174.838C54.7552 174.696 54.5418 174.518 54.3462 174.357C54.0083 174.09 54.3462 173.538 54.7552 173.751C54.7552 173.751 54.7908 173.769 54.8085 173.787C55.0042 173.947 55.182 174.09 55.3776 174.233V174.25ZM53.1191 172.415C53.4214 172.665 53.1547 173.199 52.7101 173.021C52.6923 173.021 52.6567 172.985 52.639 172.968L52.0877 172.486C51.732 172.166 52.1766 171.631 52.5678 171.934C52.7457 172.095 52.9413 172.255 53.1191 172.397V172.415ZM44.2452 164.807L43.765 164.255C43.4983 163.952 43.8717 163.453 44.263 163.721C44.2808 163.721 44.2985 163.756 44.3163 163.774L44.5475 164.041L44.2452 164.807ZM42.8937 162.117C43.1782 162.456 42.698 162.937 42.3602 162.616L42.3246 162.58C42.1645 162.402 42.0045 162.206 41.8622 162.01C41.6133 161.689 41.9689 161.28 42.3246 161.458C42.3779 161.493 42.3957 161.511 42.4313 161.547C42.5913 161.725 42.7336 161.921 42.8937 162.117ZM41.0798 159.854C41.0798 159.854 41.1509 159.979 41.1509 160.05C41.1687 160.407 40.7241 160.585 40.4929 160.3L40.0483 159.712C39.7993 159.391 40.1906 158.946 40.564 159.195C40.5996 159.213 40.6174 159.231 40.6352 159.266L41.0798 159.854ZM39.337 157.52C39.4081 157.627 39.4259 157.77 39.3725 157.877C39.2658 158.126 38.8924 158.162 38.7501 157.948L38.3233 157.342C38.2166 157.182 38.2344 156.968 38.3945 156.843C38.5545 156.718 38.8035 156.754 38.9102 156.932L39.337 157.52ZM37.6831 155.133C37.9499 155.543 37.3452 155.934 37.0785 155.543L36.6695 154.937C36.4205 154.563 36.9718 154.153 37.2563 154.509V154.545L37.6831 155.151V155.133ZM36.1182 152.674C36.3316 153.048 35.8514 153.422 35.5491 153.119C35.5491 153.102 35.5135 153.084 35.4958 153.066L35.1223 152.442C35.0156 152.264 35.069 152.05 35.2468 151.943C35.4068 151.837 35.6558 151.89 35.7447 152.068L36.1182 152.692V152.674ZM34.6422 150.162C34.7133 150.286 34.6955 150.429 34.6422 150.536C34.4821 150.768 34.162 150.75 34.0197 150.518L33.6641 149.877C33.4507 149.503 33.9664 149.111 34.2687 149.467L34.3043 149.52L34.6599 150.162H34.6422ZM33.2551 147.596C33.344 147.774 33.2906 147.988 33.1128 148.077C32.935 148.184 32.7038 148.113 32.6149 147.935L32.277 147.275C32.0814 146.866 32.6504 146.527 32.8994 146.901V146.937L33.2551 147.578V147.596ZM31.9569 144.995C32.028 145.173 31.9569 145.369 31.8146 145.458C31.6368 145.565 31.3878 145.494 31.2989 145.298L30.9966 144.638C30.8009 144.229 31.4056 143.89 31.6545 144.318C31.7612 144.532 31.868 144.781 31.9747 144.995H31.9569ZM30.7654 142.34C30.8899 142.643 30.6231 142.928 30.303 142.821C30.2141 142.786 30.1252 142.714 30.0896 142.625C30.0007 142.394 29.894 142.18 29.8051 141.948C29.6272 141.503 30.2674 141.235 30.4631 141.645C30.5698 141.877 30.6587 142.108 30.7476 142.34H30.7654ZM29.6628 139.65C29.8229 140.042 29.2538 140.362 29.0048 139.97V139.917C28.8981 139.685 28.8092 139.454 28.7203 139.222C28.578 138.848 29.1115 138.509 29.3783 138.901C29.3783 138.919 29.3961 138.937 29.4138 138.973C29.5028 139.204 29.5917 139.418 29.6806 139.65H29.6628ZM28.6669 136.924C28.8092 137.351 28.2046 137.619 27.9912 137.191V137.155L27.7422 136.46C27.5999 136.051 28.169 135.783 28.4002 136.158C28.4002 136.175 28.418 136.193 28.4358 136.229L28.6669 136.924ZM27.76 134.162C27.8845 134.554 27.3154 134.839 27.0842 134.447C27.0842 134.429 27.0664 134.412 27.0487 134.376L26.8353 133.681C26.7641 133.432 26.9953 133.164 27.2443 133.218C27.3865 133.253 27.4755 133.343 27.5288 133.467L27.7422 134.162H27.76ZM26.9597 131.365C27.0664 131.81 26.444 132.006 26.2662 131.579V131.543L26.0706 130.83C26.035 130.67 26.1061 130.492 26.2662 130.421C26.4796 130.314 26.7286 130.421 26.7819 130.652L26.9597 131.347V131.365ZM26.2484 128.55C26.3373 129.031 25.6438 129.173 25.5371 128.71L25.377 127.997C25.3059 127.588 25.8216 127.374 26.0528 127.73C26.0706 127.766 26.0883 127.801 26.0883 127.837L26.2484 128.55ZM25.6438 125.699C25.7149 126.127 25.128 126.323 24.9502 125.895C24.9502 125.877 24.9502 125.859 24.9502 125.824C24.8969 125.592 24.8613 125.343 24.8079 125.093C24.8079 125.022 24.8079 124.951 24.8257 124.897C24.968 124.559 25.4659 124.612 25.5193 124.969C25.5548 125.2 25.6082 125.45 25.6615 125.681L25.6438 125.699ZM25.1458 122.83C25.1992 123.312 24.5056 123.401 24.4167 122.955C24.3811 122.706 24.3456 122.456 24.31 122.225C24.2567 121.744 24.9502 121.637 25.0391 122.118L25.1458 122.848V122.83ZM24.7546 119.944C24.8079 120.372 24.1855 120.532 24.0433 120.087C24.0433 120.069 24.0433 120.051 24.0433 120.015L23.9543 119.285C23.901 118.857 24.5234 118.715 24.6657 119.125C24.6657 119.16 24.6657 119.178 24.6657 119.196L24.7546 119.926V119.944ZM24.4701 117.058C24.5056 117.539 23.7943 117.61 23.7409 117.129L23.6876 116.381C23.652 115.935 24.3278 115.846 24.4167 116.292V116.327C24.4345 116.559 24.4523 116.808 24.4701 117.058ZM23.6165 105.245L23.652 104.657C23.652 104.515 23.7587 104.39 23.901 104.336C24.15 104.247 24.3989 104.443 24.3811 104.711V105.085L23.6165 105.245ZM24.559 102.537C24.5056 103.018 23.7943 102.947 23.8299 102.466C23.8476 102.216 23.8832 101.985 23.901 101.735C23.9543 101.308 24.5768 101.308 24.6301 101.735C24.6301 101.771 24.6301 101.789 24.6301 101.806C24.6123 102.056 24.5768 102.287 24.559 102.537ZM24.8791 99.6505C24.8257 100.096 24.1322 100.06 24.15 99.5614C24.1855 99.312 24.2211 99.0626 24.2567 98.8309C24.31 98.4033 24.9858 98.4033 24.9858 98.9022V98.9379L24.8791 99.6505ZM25.3059 96.782C25.2347 97.2096 24.6123 97.174 24.5768 96.7285C24.5768 96.6929 24.5768 96.6751 24.5768 96.6573L24.7012 95.9446C24.7902 95.4813 25.4837 95.5882 25.4126 96.0693L25.2881 96.7998L25.3059 96.782ZM25.8394 93.9135C25.7682 94.3232 25.1103 94.2876 25.1103 93.8422C25.1103 93.8244 25.1103 93.8065 25.1103 93.7709C25.1636 93.5393 25.217 93.2899 25.2525 93.0582C25.3237 92.6841 25.9105 92.6663 25.9816 93.0939C25.9816 93.1473 25.9816 93.1651 25.9816 93.2186C25.9283 93.4502 25.8749 93.6997 25.8394 93.9313V93.9135ZM26.4618 91.0805C26.3551 91.4903 25.7505 91.4369 25.7505 90.9915C25.7505 90.9558 25.7505 90.938 25.7505 90.9202C25.8038 90.6886 25.8572 90.4391 25.9283 90.2075C26.035 89.7799 26.693 89.8868 26.6396 90.35C26.5863 90.5995 26.5151 90.8489 26.4618 91.0984V91.0805ZM27.1909 88.2655C27.102 88.6574 26.4796 88.6218 26.4796 88.1407C26.4796 88.1051 26.4796 88.0873 26.4796 88.0517L26.6752 87.339C26.8175 86.8936 27.4932 87.0717 27.3688 87.5528L27.1731 88.2476L27.1909 88.2655ZM28.0267 85.486C27.9912 85.5751 27.9378 85.6464 27.8489 85.6998C27.5644 85.8602 27.2265 85.5751 27.3332 85.2722L27.5644 84.5773C27.5644 84.5773 27.6533 84.417 27.7422 84.3635C28.0267 84.2032 28.3646 84.4883 28.2579 84.7911L28.0267 85.486ZM28.9693 82.7244C28.8092 83.1163 28.2579 83.0094 28.2579 82.5818C28.2579 82.5462 28.2579 82.5106 28.2757 82.4749L28.5247 81.7801C28.578 81.6375 28.6847 81.5663 28.827 81.5485C29.0937 81.5128 29.3071 81.7979 29.2182 82.0295L28.9693 82.7066V82.7244ZM30.0007 79.9984C29.8406 80.3903 29.2182 80.23 29.3071 79.7846C29.3071 79.7667 29.3071 79.7489 29.3071 79.7311C29.3961 79.4995 29.485 79.2857 29.5917 79.0541C29.7517 78.6621 30.3741 78.8046 30.2852 79.2857V79.3391C30.1785 79.5708 30.0896 79.7846 30.0007 80.0162V79.9984ZM31.121 77.3258C30.9432 77.7178 30.3386 77.5218 30.4275 77.0942C30.4275 77.0764 30.4275 77.0407 30.4453 77.0229C30.552 76.7913 30.6409 76.5775 30.7476 76.3459C30.9254 75.9539 31.5301 76.1499 31.4412 76.5775C31.4412 76.5953 31.4412 76.631 31.4234 76.6488C31.3167 76.8626 31.2277 77.0942 31.121 77.308V77.3258ZM32.3481 74.6889C32.1347 75.1165 31.4945 74.8136 31.6901 74.3682C31.7968 74.1544 31.9035 73.9228 32.0102 73.709C32.2058 73.317 32.8283 73.5486 32.686 73.994V74.0475C32.5615 74.2613 32.4548 74.4751 32.3481 74.7067V74.6889ZM33.6641 72.0876C33.5752 72.2658 33.3795 72.3192 33.2017 72.248C33.0061 72.1589 32.9172 71.9273 33.0239 71.7313C33.1306 71.5175 33.2551 71.3037 33.3795 71.0899C33.4685 70.9295 33.6641 70.8582 33.8419 70.9295C34.0375 71.0008 34.1264 71.2502 34.0197 71.4462C33.8953 71.66 33.7886 71.8738 33.6819 72.0876H33.6641ZM35.069 69.5398C34.8556 69.8961 34.2865 69.6823 34.3932 69.2547C34.3932 69.2191 34.411 69.2013 34.4288 69.1656C34.5532 68.9518 34.6777 68.738 34.8022 68.5242C35.0156 68.1679 35.6025 68.3817 35.4602 68.8449C35.3535 69.0765 35.1934 69.3082 35.069 69.522V69.5398ZM36.5628 67.0454C36.3316 67.4017 35.7625 67.1523 35.9048 66.7247C35.9048 66.7069 35.9048 66.6891 35.9403 66.6534L36.3316 66.0298C36.5806 65.6557 37.1674 65.9764 36.954 66.404C36.8295 66.6178 36.6873 66.8316 36.545 67.0454H36.5628ZM38.1455 64.6045C38.0566 64.7292 37.9143 64.7826 37.772 64.7648C37.5231 64.7114 37.3986 64.4085 37.5409 64.1947L37.9499 63.5889C38.0566 63.4464 38.2344 63.3929 38.3945 63.4642C38.6079 63.5533 38.679 63.8205 38.5545 64.0165L38.1455 64.6223V64.6045ZM39.8171 62.2348C39.5326 62.609 38.9457 62.1992 39.2303 61.8072C39.3725 61.6112 39.5148 61.4152 39.6749 61.2192C39.9594 60.8451 40.5107 61.2192 40.2795 61.629C40.1372 61.825 39.9772 62.0388 39.8349 62.2348H39.8171ZM41.5777 59.9186C41.3109 60.2571 40.7419 59.9186 40.9908 59.491C41.1331 59.295 41.3109 59.0812 41.471 58.8852C41.7377 58.5467 42.289 58.8852 42.0756 59.295C42.0756 59.295 42.0578 59.3306 42.0401 59.3484L41.5955 59.9186H41.5777ZM43.4094 57.6736C43.0715 58.03 42.5558 57.5667 42.8581 57.1926L43.3382 56.6403C43.6583 56.2839 44.1918 56.7293 43.8895 57.1213C43.7295 57.2995 43.5694 57.4955 43.4094 57.6736ZM50.9318 49.068C50.9318 49.068 50.9673 48.9433 51.0029 48.8899C51.0029 48.872 51.0385 48.8542 51.0562 48.8364L51.6075 48.3553C51.9098 48.0881 52.4078 48.4623 52.141 48.8542C52.141 48.872 52.1055 48.8899 52.0877 48.9077L51.5897 49.3353L50.9318 49.0858V49.068ZM53.7415 47.4823C53.3503 47.7852 52.9235 47.2151 53.2792 46.9122L53.8482 46.4489C54.1683 46.1995 54.5774 46.5558 54.3995 46.9122C54.3639 46.9478 54.3462 46.9834 54.3106 47.0191L53.7415 47.4823ZM56.0178 45.665C55.6977 45.9144 55.2531 45.5224 55.5021 45.1483C55.5199 45.1127 55.5377 45.0948 55.5732 45.077L56.1601 44.6316C56.498 44.3643 56.9603 44.8454 56.6224 45.2017H56.5869L56 45.665H56.0178ZM58.3474 43.9367C58.1874 44.0436 57.974 44.0258 57.8495 43.8655C57.725 43.7051 57.7606 43.4557 57.9206 43.3488L58.5253 42.9212C58.8809 42.6717 59.29 43.135 59.0054 43.4735C58.9876 43.4913 58.9699 43.5091 58.9521 43.5269L58.3652 43.9545L58.3474 43.9367ZM60.7482 42.2976C60.3392 42.547 59.9479 41.959 60.3392 41.6918L60.9616 41.282C61.2639 41.086 61.6374 41.4067 61.4951 41.7274C61.4595 41.7987 61.424 41.8521 61.3528 41.8878L60.7482 42.2797V42.2976ZM63.2023 40.7475C62.8288 40.9613 62.4554 40.4802 62.7577 40.1595C62.7755 40.1595 62.7933 40.1239 62.8111 40.1061C63.0245 39.9814 63.2379 39.8566 63.4335 39.7319C63.8425 39.5003 64.216 40.0883 63.8247 40.3555C63.6113 40.4802 63.3979 40.6049 63.1845 40.7475H63.2023ZM65.7098 39.2865C65.5853 39.3578 65.443 39.3399 65.3363 39.2865C65.1051 39.1261 65.1229 38.8054 65.3541 38.6629L65.9943 38.3066C66.1188 38.2353 66.261 38.2531 66.3677 38.3244C66.5989 38.4847 66.5811 38.8054 66.3322 38.948L65.692 39.3043L65.7098 39.2865ZM68.2706 37.9146C68.0927 38.0037 67.8793 37.9502 67.7904 37.772C67.6837 37.5939 67.7548 37.3623 67.9505 37.2732L68.6085 36.9346C68.9819 36.7387 69.3376 37.2732 68.9997 37.5404C68.9819 37.5404 68.9463 37.5761 68.9285 37.5939L68.2884 37.9146H68.2706ZM70.8847 36.6318C70.7247 36.703 70.5113 36.6318 70.4224 36.4892C70.3157 36.311 70.3868 36.0616 70.5824 35.9725C70.7958 35.8656 71.027 35.7587 71.2582 35.6696C71.6316 35.4915 71.9873 35.9903 71.6316 36.2932C71.6138 36.2932 71.5961 36.3289 71.5605 36.3289L70.9025 36.6318H70.8847ZM73.5344 35.438C73.0899 35.6162 72.8231 34.9748 73.2321 34.7788C73.4633 34.6719 73.6945 34.5828 73.9257 34.4937C74.2991 34.3334 74.6192 34.8322 74.2814 35.1173C74.2458 35.1351 74.228 35.1529 74.1924 35.1708L73.5167 35.4558L73.5344 35.438ZM76.2197 34.3512C75.8285 34.5115 75.5084 33.9414 75.8996 33.6919C75.8996 33.6919 75.9352 33.6919 75.953 33.6741L76.6288 33.4069C77.0022 33.2465 77.3401 33.7989 76.9489 34.0483C76.9311 34.0483 76.9133 34.0661 76.8777 34.0839L76.202 34.3512H76.2197ZM78.9584 33.3534C78.5494 33.496 78.2826 32.9258 78.6561 32.6942C78.6739 32.6942 78.6916 32.6764 78.7272 32.6586L79.4208 32.4269C79.8298 32.2844 80.0965 32.8545 79.7231 33.0862C79.7053 33.0862 79.6875 33.104 79.6519 33.1218L78.9584 33.3534ZM81.7148 32.4626C81.4658 32.5338 81.1991 32.32 81.2524 32.0528C81.288 31.9102 81.3769 31.8212 81.5014 31.7677L82.195 31.5539C82.6751 31.4292 82.853 32.1062 82.3906 32.2488L81.697 32.4626H81.7148ZM84.5068 31.6608C84.0622 31.7677 83.8488 31.1441 84.2756 30.9659C84.5068 30.8947 84.7736 30.8234 85.0225 30.77C85.1114 30.7521 85.2004 30.77 85.2893 30.8056C85.5916 30.9659 85.5205 31.3936 85.2004 31.4826C84.9692 31.5361 84.738 31.6074 84.5068 31.6608ZM87.3344 30.9659C86.8542 31.055 86.7119 30.3602 87.1743 30.2533C87.4055 30.1998 87.6545 30.1464 87.8857 30.0929C88.348 30.0038 88.5081 30.6631 88.0635 30.8056C87.8145 30.8769 87.5655 30.9125 87.3166 30.9659H87.3344ZM90.1797 30.378C90.0908 30.378 90.0019 30.378 89.9307 30.3245C89.6462 30.1464 89.7351 29.7188 90.0552 29.6475L90.7843 29.5228C90.7843 29.5228 90.9266 29.5228 90.98 29.5406C91.3178 29.6831 91.2645 30.1642 90.9088 30.2354L90.1975 30.378H90.1797ZM93.0428 29.8969C92.5627 29.9504 92.456 29.2555 92.9361 29.1664L93.6653 29.0595C94.1276 29.0061 94.2521 29.6831 93.772 29.79L93.0428 29.8969ZM95.9237 29.5049C95.4969 29.5584 95.3369 28.9348 95.7815 28.7923C95.7993 28.7923 95.817 28.7923 95.8526 28.7923C96.1016 28.7566 96.3328 28.7388 96.5817 28.721C96.9908 28.6676 97.1686 29.2911 96.724 29.4337C96.7062 29.4337 96.6884 29.4337 96.6529 29.4337C96.4217 29.4515 96.1727 29.4871 95.9237 29.5049ZM98.8224 29.2199C98.3423 29.2555 98.2889 28.5428 98.7513 28.4894C99.0003 28.4716 99.2492 28.4537 99.4982 28.4359C99.9428 28.4003 100.049 29.0773 99.5871 29.1664H99.5516L98.8224 29.2199Z" fill="#DDDDDD"/>
<path fill-rule="evenodd" clip-rule="evenodd" d="M98.9469 34.4402C83.0663 35.7587 68.5906 41.9768 56.9781 51.5624C57.3693 51.8653 57.6894 52.2573 57.885 52.7027C69.1419 43.3844 83.1908 37.3088 98.5912 35.9369L98.9291 34.4402H98.9469ZM46.717 61.8428C37.1318 73.4595 30.9432 87.9626 29.6272 103.855L31.121 103.517C32.4903 88.0873 38.5545 74.0297 47.873 62.7515C47.4284 62.5377 47.0371 62.2348 46.7348 61.8428H46.717ZM29.6272 116.666C30.961 132.559 37.1496 147.062 46.7348 158.66C47.0371 158.269 47.4284 157.966 47.873 157.752C38.5722 146.474 32.5081 132.416 31.121 117.004L29.6272 116.666ZM56.9958 168.941C68.7329 178.633 83.422 184.887 99.5159 186.099L99.1781 184.602C83.5642 183.319 69.3197 177.226 57.9028 167.783C57.6894 168.228 57.3871 168.638 56.9958 168.923V168.941ZM111.733 186.045C127.596 184.727 142.089 178.509 153.666 168.941C153.275 168.638 152.973 168.246 152.759 167.801C141.503 177.119 127.454 183.177 112.053 184.566L111.715 186.063L111.733 186.045ZM163.945 158.643C173.53 147.026 179.719 132.523 181.053 116.63L179.559 116.969C178.172 132.38 172.108 146.456 162.807 157.734C163.252 157.948 163.661 158.251 163.945 158.643ZM181.053 103.838C179.737 87.9447 173.53 73.4417 163.963 61.825C163.661 62.217 163.269 62.5199 162.825 62.7337C172.126 74.0118 178.19 88.0695 179.559 103.499L181.053 103.838ZM153.684 51.5446C142.089 41.959 127.596 35.7409 111.715 34.4224L112.053 35.9191C127.454 37.291 141.503 43.3666 152.777 52.6849C152.991 52.2394 153.293 51.8475 153.684 51.5446Z" fill="#DDDDDD"/>
<path fill-rule="evenodd" clip-rule="evenodd" d="M113.725 39.8923C113.262 39.8388 113.316 39.144 113.814 39.1618C114.063 39.1974 114.312 39.2152 114.543 39.2509C114.987 39.3043 114.952 39.9992 114.454 39.9814L113.725 39.8923ZM116.606 40.2842C116.143 40.1952 116.232 39.5359 116.695 39.5538C116.944 39.5894 117.193 39.6428 117.442 39.6785C117.868 39.7497 117.833 40.3733 117.388 40.409C117.37 40.409 117.335 40.409 117.317 40.409L116.606 40.2842ZM119.469 40.8009C119.06 40.7297 119.095 40.0704 119.558 40.0704C119.576 40.0704 119.593 40.0704 119.629 40.0704C119.86 40.1239 120.109 40.1595 120.34 40.213C120.714 40.2842 120.732 40.8722 120.305 40.9257C120.251 40.9257 120.234 40.9257 120.18 40.9257C119.949 40.8722 119.7 40.8188 119.469 40.7831V40.8009ZM122.296 41.4424C121.887 41.3355 121.941 40.7475 122.368 40.7297C122.421 40.7297 122.439 40.7297 122.474 40.7297L123.186 40.9078C123.612 41.0147 123.506 41.674 123.043 41.6205H123.008L122.296 41.4424ZM125.106 42.1907C124.662 42.0481 124.839 41.3711 125.302 41.4958C125.533 41.5671 125.764 41.6383 126.013 41.7096C126.422 41.8521 126.316 42.4401 125.871 42.4223C125.835 42.4223 125.818 42.4223 125.8 42.4223C125.569 42.351 125.337 42.2798 125.106 42.2085V42.1907ZM127.88 43.0637C127.454 42.9212 127.631 42.2441 128.094 42.3688C128.325 42.4401 128.574 42.5292 128.805 42.6183C129.232 42.7608 129.072 43.4379 128.574 43.3131C128.343 43.2419 128.112 43.1528 127.863 43.0637H127.88ZM130.619 44.0436C130.459 43.9902 130.37 43.8298 130.388 43.6695C130.388 43.42 130.655 43.2597 130.886 43.3488L131.562 43.616C131.988 43.7942 131.775 44.4534 131.295 44.2931C131.064 44.204 130.832 44.1149 130.619 44.0258V44.0436ZM133.304 45.1305C132.878 44.9167 133.144 44.2753 133.607 44.4534L134.282 44.7563C134.674 44.9345 134.478 45.5403 134.051 45.4512C134.033 45.4512 133.998 45.4512 133.98 45.4334L133.304 45.1483V45.1305ZM135.954 46.342C135.563 46.1639 135.776 45.5403 136.221 45.665C136.239 45.665 136.256 45.665 136.274 45.6828C136.488 45.7897 136.719 45.8966 136.932 46.0035C137.323 46.1995 137.092 46.8231 136.648 46.6806H136.612C136.399 46.5558 136.185 46.4489 135.954 46.342ZM138.55 47.6605C138.373 47.5714 138.319 47.3754 138.39 47.1972C138.479 47.0013 138.711 46.9122 138.906 47.0191C139.12 47.126 139.333 47.2507 139.546 47.3754C139.955 47.607 139.635 48.2306 139.208 48.0168L138.55 47.6605ZM141.094 49.0859C140.702 48.872 141.005 48.2306 141.449 48.4444C141.663 48.5692 141.894 48.6939 142.089 48.8186C142.427 49.0146 142.232 49.6025 141.787 49.4778C141.752 49.4778 141.734 49.46 141.716 49.4422C141.503 49.3175 141.307 49.1928 141.094 49.068V49.0859ZM143.565 50.6003C143.441 50.5112 143.37 50.3509 143.405 50.2083C143.476 49.9589 143.743 49.852 143.957 49.9945L144.561 50.3865C144.953 50.6716 144.561 51.2595 144.152 50.9923L143.548 50.6003H143.565ZM145.984 52.2216C145.628 51.9722 145.948 51.4021 146.357 51.5981C146.571 51.7228 146.784 51.9009 146.998 52.0435C147.353 52.2929 147.033 52.8809 146.606 52.6671H146.571C146.375 52.5067 146.18 52.3642 145.984 52.2216ZM148.331 53.9321C147.993 53.6648 148.314 53.1125 148.74 53.3263L148.776 53.3619C148.972 53.5045 149.167 53.6648 149.363 53.8074C149.701 54.0746 149.363 54.6448 148.936 54.3953C148.74 54.2528 148.527 54.0924 148.331 53.9321ZM150.608 55.7494C150.483 55.6425 150.448 55.4643 150.501 55.3218C150.59 55.0902 150.874 55.0189 151.07 55.1793C151.266 55.3396 151.443 55.5 151.639 55.6603C151.639 55.6603 151.657 55.696 151.675 55.696L151.443 56.3017C151.443 56.3017 151.248 56.3017 151.159 56.2127C150.981 56.0523 150.785 55.9098 150.608 55.7494ZM159.891 63.9274L159.926 63.9631C160.211 64.3016 159.766 64.7648 159.41 64.4619L159.375 64.4263L159.179 64.2125L159.891 63.9274ZM160.744 66.1189C160.46 65.7626 160.958 65.2993 161.295 65.6557C161.455 65.8517 161.616 66.0477 161.758 66.2436C162.042 66.6178 161.527 67.0632 161.189 66.7069C161.029 66.5109 160.886 66.3149 160.726 66.1189H160.744ZM162.505 68.4351C162.238 68.0432 162.807 67.6155 163.092 68.0075L163.518 68.6133C163.607 68.738 163.607 68.8806 163.536 69.0053C163.412 69.2369 163.074 69.2547 162.914 69.0409C162.771 68.8449 162.629 68.6489 162.487 68.4529L162.505 68.4351ZM164.176 70.8226C163.945 70.4841 164.408 70.0208 164.763 70.3772L164.799 70.4128C164.941 70.6088 165.066 70.8226 165.208 71.0186C165.457 71.3928 164.923 71.8204 164.603 71.4462C164.461 71.2502 164.319 71.0364 164.194 70.8226H164.176ZM165.741 73.2635C165.51 72.8537 166.079 72.4796 166.364 72.8894C166.488 73.1032 166.613 73.317 166.737 73.513C166.844 73.6911 166.791 73.905 166.613 74.0119C166.453 74.1188 166.204 74.0653 166.097 73.8871L165.724 73.2635H165.741ZM167.217 75.7757C167.004 75.4016 167.52 75.0096 167.822 75.3659C167.822 75.3659 167.84 75.4016 167.858 75.4194L168.213 76.0608C168.284 76.1855 168.267 76.3281 168.213 76.435C168.053 76.6666 167.733 76.6488 167.591 76.3993L167.235 75.7579L167.217 75.7757ZM168.587 78.3414C168.391 77.9316 168.96 77.5931 169.209 77.9672V78.0029L169.565 78.6621C169.778 79.1075 169.12 79.4104 168.907 78.9828L168.587 78.3236V78.3414ZM169.849 80.9605C169.671 80.5863 170.169 80.23 170.472 80.5863C170.472 80.6041 170.507 80.622 170.507 80.6576L170.81 81.3347C170.987 81.7801 170.347 82.0651 170.134 81.6375C170.027 81.4237 169.938 81.1921 169.831 80.9783L169.849 80.9605ZM170.987 83.633C170.827 83.2411 171.361 82.9382 171.628 83.2767C171.645 83.3123 171.663 83.3302 171.681 83.3658C171.77 83.5974 171.859 83.8112 171.948 84.0428C172.108 84.4348 171.539 84.7555 171.29 84.3457C171.183 84.1141 171.094 83.8647 171.005 83.6152L170.987 83.633ZM172.019 86.3412C171.965 86.1987 172.019 86.0562 172.108 85.9671C172.303 85.7711 172.623 85.8602 172.712 86.1096L172.961 86.8045C173.104 87.2321 172.499 87.4993 172.286 87.0895V87.0539L172.037 86.3769L172.019 86.3412ZM172.944 89.1029C172.944 89.1029 172.926 88.9781 172.944 88.9247C173.032 88.5505 173.53 88.5149 173.655 88.8891C173.726 89.1207 173.797 89.3523 173.868 89.5839C173.939 89.8334 173.726 90.1006 173.459 90.0472C173.317 90.0115 173.228 89.9225 173.175 89.7977C173.104 89.5661 173.032 89.3345 172.961 89.1029H172.944ZM173.762 91.9001C173.655 91.4547 174.277 91.2587 174.455 91.6685V91.7042L174.651 92.4168C174.669 92.5059 174.651 92.595 174.615 92.6841C174.455 92.987 174.011 92.9157 173.939 92.595C173.886 92.3634 173.815 92.1318 173.762 91.9001ZM174.455 94.7152C174.384 94.3054 174.9 94.0916 175.131 94.448C175.131 94.4836 175.167 94.5192 175.167 94.5549L175.327 95.2676C175.415 95.713 174.775 95.8911 174.615 95.4457C174.562 95.1963 174.509 94.9468 174.455 94.6974V94.7152ZM175.024 97.5659C175.024 97.5659 175.024 97.4234 175.042 97.37C175.184 97.0314 175.664 97.0849 175.736 97.4412C175.771 97.6729 175.824 97.9223 175.86 98.1717C175.931 98.5815 175.309 98.7953 175.149 98.3321C175.095 98.0826 175.06 97.8332 175.006 97.5838L175.024 97.5659ZM175.487 100.434C175.433 99.9891 176.056 99.8465 176.198 100.274C176.198 100.292 176.198 100.31 176.198 100.328L176.287 101.058C176.305 101.254 176.18 101.432 175.985 101.468C175.771 101.504 175.576 101.361 175.558 101.165L175.469 100.434H175.487ZM176.465 117.735C176.465 117.735 176.482 117.788 176.482 117.824C176.482 117.86 176.482 117.877 176.482 117.895C176.465 118.145 176.429 118.376 176.394 118.626C176.34 119.089 175.647 119.035 175.664 118.537C175.682 118.323 175.718 118.091 175.736 117.877L176.447 117.717L176.465 117.735ZM175.398 120.71C175.451 120.3 176.091 120.283 176.127 120.746C176.127 120.764 176.127 120.782 176.127 120.817L176.02 121.548C175.931 122.029 175.238 121.922 175.291 121.441L175.398 120.728V120.71ZM174.918 123.579C174.989 123.151 175.647 123.205 175.647 123.65C175.647 123.668 175.647 123.686 175.647 123.721C175.593 123.971 175.558 124.202 175.504 124.452C175.433 124.862 174.775 124.826 174.775 124.381C174.775 124.363 174.775 124.345 174.775 124.309C174.829 124.078 174.864 123.828 174.918 123.597V123.579ZM174.313 126.412C174.42 125.948 175.113 126.091 175.024 126.572C174.971 126.821 174.918 127.053 174.846 127.303C174.74 127.695 174.153 127.659 174.135 127.231C174.135 127.196 174.135 127.16 174.135 127.124C174.188 126.893 174.242 126.661 174.295 126.412H174.313ZM173.602 129.227C173.69 128.835 174.313 128.87 174.313 129.352C174.313 129.387 174.313 129.405 174.313 129.441L174.117 130.153C173.975 130.599 173.299 130.421 173.424 129.957L173.619 129.262L173.602 129.227ZM172.766 132.006C172.801 131.917 172.855 131.846 172.944 131.792C173.228 131.632 173.566 131.917 173.459 132.22C173.388 132.452 173.299 132.683 173.228 132.915C173.086 133.343 172.41 133.182 172.535 132.701C172.606 132.469 172.695 132.238 172.766 131.988V132.006ZM171.823 134.75C171.877 134.608 171.983 134.536 172.126 134.518C172.392 134.483 172.606 134.768 172.517 135.017C172.428 135.249 172.339 135.481 172.268 135.712C172.214 135.873 172.054 135.962 171.894 135.944C171.645 135.944 171.485 135.677 171.574 135.445C171.663 135.213 171.752 134.999 171.823 134.768V134.75ZM170.756 137.458C170.916 137.048 171.574 137.244 171.432 137.708V137.743L171.13 138.42C170.987 138.795 170.383 138.67 170.436 138.224C170.436 138.189 170.436 138.171 170.454 138.135L170.738 137.458H170.756ZM169.583 140.113C169.654 139.953 169.849 139.864 170.027 139.917C170.24 139.988 170.329 140.22 170.241 140.416C170.134 140.63 170.027 140.861 169.92 141.075C169.743 141.467 169.12 141.253 169.245 140.826C169.245 140.808 169.245 140.79 169.262 140.772C169.369 140.558 169.476 140.327 169.565 140.113H169.583ZM168.302 142.714C168.498 142.322 169.12 142.572 168.978 142.999V143.053C168.836 143.267 168.729 143.48 168.622 143.712C168.533 143.89 168.338 143.944 168.16 143.872C167.964 143.783 167.875 143.552 167.982 143.373C168.089 143.16 168.213 142.946 168.32 142.732L168.302 142.714ZM166.915 145.262C167.128 144.87 167.733 145.155 167.573 145.583V145.618C167.431 145.832 167.306 146.046 167.182 146.26C166.968 146.652 166.328 146.349 166.542 145.904C166.666 145.69 166.791 145.476 166.915 145.262ZM165.421 147.756C165.51 147.614 165.688 147.543 165.848 147.614C166.061 147.685 166.168 147.952 166.044 148.148L165.652 148.772C165.403 149.146 164.817 148.826 165.03 148.398C165.154 148.184 165.297 147.97 165.439 147.756H165.421ZM163.838 150.197C164.087 149.841 164.674 150.162 164.461 150.572V150.607L164.016 151.213C163.767 151.569 163.18 151.249 163.394 150.839V150.803L163.838 150.197ZM162.149 152.567C162.434 152.193 163.003 152.567 162.754 152.977C162.611 153.191 162.451 153.387 162.291 153.583C162.025 153.921 161.473 153.6 161.687 153.173L161.722 153.137C161.865 152.941 162.007 152.745 162.167 152.549L162.149 152.567ZM160.371 154.865C160.673 154.491 161.242 154.937 160.94 155.329C160.78 155.525 160.637 155.703 160.477 155.899C160.371 156.024 160.193 156.059 160.051 156.006C159.819 155.917 159.748 155.632 159.908 155.436C160.068 155.257 160.211 155.061 160.371 154.865ZM150.145 165.146C150.536 164.843 150.963 165.413 150.608 165.716C150.412 165.876 150.234 166.019 150.039 166.179C149.683 166.464 149.221 165.965 149.576 165.627C149.772 165.467 149.967 165.306 150.163 165.164L150.145 165.146ZM147.851 166.945C148.189 166.678 148.651 167.159 148.314 167.516C148.118 167.676 147.905 167.818 147.691 167.979C147.3 168.264 146.873 167.676 147.264 167.391C147.46 167.248 147.656 167.106 147.851 166.963V166.945ZM145.486 168.638C145.842 168.389 146.268 168.887 145.948 169.208C145.948 169.208 145.913 169.226 145.895 169.244C145.699 169.386 145.486 169.529 145.29 169.654C144.952 169.885 144.49 169.422 144.846 169.066L144.881 169.03C145.077 168.887 145.273 168.763 145.486 168.62V168.638ZM143.067 170.242C143.405 170.028 143.814 170.455 143.53 170.794C143.494 170.83 143.476 170.847 143.459 170.865C143.245 170.99 143.05 171.132 142.836 171.257C142.427 171.489 142.054 170.919 142.463 170.634C142.676 170.509 142.872 170.384 143.085 170.242H143.067ZM140.578 171.738C140.738 171.649 140.951 171.685 141.058 171.845C141.182 172.023 141.129 172.255 140.933 172.362L140.293 172.718C140.169 172.789 140.027 172.772 139.92 172.718C139.689 172.558 139.706 172.237 139.938 172.095L140.578 171.738ZM138.035 173.128C138.159 173.074 138.302 173.074 138.408 173.146C138.639 173.288 138.622 173.645 138.373 173.769C138.159 173.876 137.928 174.001 137.715 174.108C137.306 174.304 136.968 173.734 137.341 173.484H137.377C137.59 173.36 137.804 173.235 138.017 173.128H138.035ZM135.438 174.411C135.616 174.339 135.812 174.411 135.901 174.553C136.007 174.731 135.936 174.981 135.741 175.07C135.527 175.177 135.296 175.284 135.083 175.373C134.709 175.551 134.354 175.052 134.709 174.749C134.727 174.749 134.745 174.714 134.78 174.714L135.438 174.411ZM132.789 175.587C133.215 175.408 133.5 176.032 133.091 176.246C132.86 176.353 132.629 176.442 132.397 176.531C132.006 176.691 131.704 176.157 132.042 175.89C132.077 175.872 132.095 175.854 132.131 175.836C132.362 175.747 132.575 175.658 132.806 175.551L132.789 175.587ZM130.086 176.656C130.459 176.513 130.779 177.03 130.423 177.297C130.388 177.315 130.37 177.333 130.335 177.351L129.641 177.6C129.196 177.743 128.947 177.101 129.392 176.905L130.068 176.656H130.086ZM127.347 177.618C127.507 177.564 127.685 177.618 127.774 177.778C127.898 177.974 127.792 178.241 127.578 178.313C127.347 178.384 127.116 178.455 126.885 178.526C126.831 178.544 126.76 178.544 126.707 178.526C126.333 178.455 126.298 177.939 126.671 177.814C126.902 177.743 127.134 177.671 127.365 177.6L127.347 177.618ZM124.573 178.455C125.035 178.348 125.213 178.99 124.804 179.15H124.768C124.537 179.221 124.306 179.293 124.057 179.364C123.612 179.471 123.399 178.847 123.826 178.669C124.057 178.598 124.324 178.526 124.555 178.455H124.573ZM121.763 179.186C122.154 179.097 122.403 179.631 122.03 179.863C121.994 179.881 121.959 179.898 121.923 179.898L121.212 180.059C120.732 180.148 120.589 179.453 121.052 179.346L121.763 179.186ZM118.918 179.791C119.344 179.72 119.54 180.308 119.113 180.486C119.095 180.486 119.078 180.486 119.042 180.486C118.793 180.54 118.562 180.575 118.313 180.629C118.242 180.629 118.171 180.629 118.117 180.611C117.779 180.469 117.833 179.987 118.188 179.916C118.42 179.881 118.669 179.827 118.9 179.774L118.918 179.791ZM116.054 180.29C116.535 180.237 116.641 180.914 116.161 181.003L115.432 181.11C114.97 181.163 114.845 180.486 115.325 180.397L116.054 180.29ZM113.174 180.665C113.6 180.611 113.743 181.235 113.334 181.377C113.298 181.377 113.28 181.377 113.262 181.377C113.138 181.377 112.996 181.413 112.871 181.413L113.049 180.665H113.191H113.174ZM98.5378 181.484C98.3244 181.466 98.111 181.448 97.8799 181.413C97.4531 181.359 97.4531 180.736 97.8799 180.682C97.9154 180.682 97.9332 180.682 97.9688 180.682C98.111 180.682 98.2355 180.718 98.3778 180.718L98.5556 181.466L98.5378 181.484ZM95.7992 180.433C96.226 180.486 96.226 181.163 95.7281 181.163H95.6925L94.9634 181.056C94.8923 181.056 94.8389 181.021 94.7855 180.967C94.5188 180.718 94.7144 180.29 95.0701 180.326L95.7992 180.433ZM92.9361 179.987C93.3984 180.077 93.2917 180.771 92.8116 180.7C92.5626 180.665 92.3314 180.611 92.0825 180.575C91.6557 180.504 91.709 179.845 92.1536 179.845C92.1714 179.845 92.1892 179.845 92.2247 179.845C92.4559 179.898 92.7049 179.934 92.9361 179.97V179.987ZM90.0907 179.417C90.5531 179.542 90.4108 180.219 89.9307 180.13C89.6995 180.077 89.4505 180.023 89.2193 179.97C88.757 179.863 88.8992 179.168 89.3794 179.257C89.6106 179.31 89.8595 179.364 90.0907 179.417ZM87.2632 178.74C87.5655 178.812 87.6366 179.239 87.3521 179.417C87.281 179.471 87.1565 179.471 87.0676 179.453L86.3562 179.257C85.9472 179.15 86.0361 178.473 86.5163 178.544H86.5518L87.2454 178.74H87.2632ZM84.4712 177.939C84.9158 178.081 84.7557 178.722 84.2933 178.651C84.0444 178.58 83.7954 178.491 83.5642 178.42C83.4753 178.384 83.4042 178.33 83.3508 178.241C83.1908 177.956 83.4753 177.618 83.7776 177.725C84.0088 177.796 84.24 177.867 84.4712 177.939ZM81.7148 177.03C82.1771 177.208 81.9282 177.867 81.4658 177.725C81.2346 177.636 81.0034 177.564 80.7722 177.475C80.63 177.422 80.5588 177.315 80.541 177.172C80.5055 176.905 80.79 176.691 81.039 176.78C81.2702 176.869 81.4836 176.941 81.7148 177.03ZM78.9939 175.996C79.4029 176.157 79.2073 176.816 78.7449 176.691C78.5137 176.602 78.2648 176.495 78.0336 176.406C77.6424 176.246 77.7846 175.622 78.2648 175.711H78.3181L78.9939 176.014V175.996ZM76.3264 174.856C76.7354 175.052 76.5042 175.676 76.0596 175.533C75.8284 175.444 75.5973 175.319 75.3661 175.212C75.206 175.141 75.1171 174.945 75.1705 174.767C75.2416 174.553 75.4728 174.464 75.6684 174.553C75.8818 174.66 76.113 174.749 76.3264 174.856ZM73.7122 173.609C74.1035 173.805 73.8545 174.429 73.4277 174.286H73.3743C73.1609 174.161 72.9298 174.054 72.7164 173.93C72.3251 173.734 72.5563 173.11 73.0009 173.253H73.0542C73.2676 173.377 73.481 173.502 73.6944 173.609H73.7122ZM71.1514 172.255C71.5071 172.469 71.3115 173.021 70.9024 172.932C70.8669 172.932 70.8313 172.914 70.7957 172.896C70.5823 172.772 70.3689 172.665 70.1555 172.54C69.7643 172.326 70.0488 171.72 70.4756 171.881H70.5112C70.7246 172.023 70.938 172.148 71.1514 172.255ZM68.644 170.794C69.053 171.043 68.6795 171.667 68.2705 171.417L67.6481 171.025C67.2569 170.776 67.5947 170.188 68.0215 170.402C68.2349 170.527 68.4483 170.669 68.6617 170.794H68.644ZM66.1898 169.226C66.5455 169.475 66.261 170.028 65.8342 169.867C65.8164 169.867 65.7986 169.85 65.7808 169.832L65.1762 169.422C65.0517 169.333 64.9984 169.19 65.0339 169.048C65.0873 168.798 65.3896 168.674 65.603 168.816L66.2076 169.226H66.1898ZM63.8069 167.569C64.1981 167.872 63.7713 168.442 63.3801 168.157C63.1845 168.014 62.9888 167.872 62.7932 167.729C62.4198 167.444 62.7932 166.874 63.2022 167.124C63.3979 167.266 63.6113 167.426 63.8069 167.569ZM61.495 165.805C61.8329 166.072 61.495 166.643 61.0682 166.393C60.8726 166.251 60.6592 166.072 60.4636 165.912C60.0901 165.609 60.5347 165.039 60.926 165.342C61.1216 165.502 61.2994 165.645 61.495 165.787V165.805ZM59.3788 164.202C59.3788 164.308 59.3432 164.415 59.2543 164.504L59.3788 164.202ZM51.1095 155.685C51.3763 156.006 50.9673 156.469 50.6116 156.202C50.5938 156.202 50.576 156.166 50.5582 156.148C50.3982 155.952 50.2381 155.774 50.0959 155.578C49.7936 155.186 50.3626 154.759 50.6649 155.115C50.825 155.311 50.9673 155.489 51.1273 155.667L51.1095 155.685ZM49.2956 153.422C49.2956 153.422 49.3668 153.547 49.3668 153.618C49.3845 153.975 48.94 154.153 48.7088 153.868C48.5665 153.672 48.4064 153.476 48.2642 153.28C47.9974 152.941 48.4776 152.478 48.8333 152.817C48.9933 153.012 49.1356 153.226 49.2956 153.422ZM47.5706 151.088C47.6773 151.249 47.6595 151.462 47.4995 151.587C47.3394 151.712 47.0905 151.676 46.9838 151.498L46.557 150.892C46.308 150.536 46.8059 150.108 47.126 150.429C47.126 150.429 47.1438 150.465 47.1616 150.482C47.3039 150.678 47.4461 150.874 47.5706 151.07V151.088ZM45.9523 148.683C46.148 148.986 45.8279 149.36 45.5078 149.217C45.4366 149.182 45.3833 149.146 45.3477 149.075L44.9565 148.451C44.7431 148.113 45.1699 147.703 45.5078 147.988C45.5433 148.024 45.5611 148.042 45.5789 148.059C45.7034 148.273 45.8456 148.469 45.9701 148.665L45.9523 148.683ZM44.423 146.206C44.4941 146.331 44.4941 146.474 44.423 146.581C44.2807 146.812 43.925 146.812 43.8005 146.581L43.4271 145.939C43.2137 145.565 43.6938 145.191 43.9962 145.494C44.014 145.512 44.0317 145.547 44.0495 145.565L44.423 146.189V146.206ZM43.0003 143.676C43.1959 144.015 42.7335 144.425 42.4134 144.086C42.3957 144.068 42.3779 144.051 42.3601 144.015L42.0222 143.373C41.9689 143.249 41.9689 143.106 42.04 142.999C42.2 142.768 42.5379 142.786 42.6624 143.035L43.0003 143.676ZM41.6843 141.093C41.8799 141.521 41.2753 141.841 41.0441 141.431C40.9374 141.218 40.8307 140.986 40.724 140.754C40.6529 140.576 40.724 140.38 40.8663 140.291C41.0441 140.184 41.2931 140.256 41.382 140.452C41.4887 140.665 41.5954 140.897 41.7021 141.111L41.6843 141.093ZM40.4751 138.456C40.5995 138.759 40.315 139.044 40.0127 138.937C39.9238 138.901 39.8349 138.83 39.7993 138.741C39.7104 138.509 39.6037 138.296 39.5148 138.064C39.3369 137.636 39.9771 137.351 40.1727 137.761C40.2794 137.993 40.3684 138.224 40.4751 138.456ZM39.3725 135.766C39.4258 135.908 39.3725 136.086 39.248 136.175C39.0524 136.318 38.7678 136.247 38.6789 136.015L38.4122 135.338C38.2521 134.964 38.8034 134.625 39.0702 135.017C39.0702 135.035 39.088 135.053 39.1057 135.089L39.3725 135.766ZM38.3766 133.022C38.5189 133.467 37.8609 133.717 37.6831 133.271C37.6119 133.04 37.523 132.808 37.4519 132.559C37.3985 132.398 37.4519 132.22 37.6119 132.131C37.8075 132.006 38.0743 132.113 38.1454 132.327C38.2166 132.559 38.3055 132.79 38.3766 133.022ZM37.5052 130.242C37.6297 130.723 36.9539 130.902 36.8117 130.438C36.7405 130.207 36.6694 129.975 36.6161 129.726C36.5094 129.262 37.1318 129.084 37.3096 129.494C37.3807 129.726 37.4519 129.993 37.523 130.225L37.5052 130.242ZM36.7405 127.445C36.7583 127.552 36.7405 127.659 36.6872 127.748C36.4916 127.997 36.1181 127.926 36.0292 127.623L35.8514 126.911C35.7447 126.501 36.3315 126.269 36.5271 126.679C36.5271 126.697 36.5449 126.732 36.5449 126.75L36.7228 127.463L36.7405 127.445ZM36.1003 124.612C36.1893 125.075 35.5135 125.236 35.389 124.773C35.3357 124.523 35.2823 124.291 35.2467 124.042C35.1756 123.614 35.7625 123.418 35.9403 123.846C35.9403 123.864 35.9403 123.882 35.9403 123.917C35.9936 124.149 36.0292 124.398 36.0826 124.63L36.1003 124.612ZM35.5668 121.761C35.6202 122.243 34.9266 122.349 34.8377 121.868L34.731 121.138C34.6777 120.657 35.3712 120.55 35.4601 121.031C35.4957 121.263 35.5313 121.512 35.5668 121.761ZM35.1578 118.875C35.1578 118.964 35.1578 119.071 35.0867 119.142C34.8911 119.41 34.4643 119.303 34.4287 118.964L34.3398 118.234C34.3042 118.002 34.4821 117.86 34.6599 117.842L34.9089 117.895C34.9089 117.895 35.0156 118.002 35.0511 118.091C35.0511 118.127 35.0511 118.145 35.0511 118.162L35.14 118.875H35.1578ZM35.1756 101.468C35.1223 101.895 34.4821 101.895 34.4465 101.432C34.4465 101.414 34.4465 101.397 34.4465 101.379C34.4821 101.129 34.4998 100.898 34.5354 100.648C34.5888 100.221 35.2645 100.221 35.2645 100.72C35.2467 100.969 35.1934 101.218 35.1756 101.468ZM35.5846 98.5993C35.5135 99.0269 34.8911 98.9913 34.8555 98.5459C34.8555 98.5281 34.8555 98.4924 34.8555 98.4746L34.98 97.7441C35.0689 97.2809 35.7625 97.3878 35.7091 97.8688L35.5846 98.5993ZM36.1181 95.7486C36.1181 95.7486 36.0648 95.8912 36.0114 95.9268C35.7447 96.1762 35.3357 95.9268 35.4068 95.5883C35.4601 95.3566 35.5135 95.1072 35.5668 94.8756C35.6913 94.4123 36.3671 94.5549 36.2782 95.0359L36.1359 95.7486H36.1181ZM36.7761 92.9157C36.6694 93.3433 36.0114 93.2364 36.0648 92.7732V92.7375L36.2604 92.0249C36.3671 91.5973 37.0251 91.6863 36.9717 92.1852C36.9184 92.4347 36.8472 92.6841 36.7761 92.9157ZM37.5408 90.1184C37.4874 90.261 37.3807 90.3501 37.2385 90.3679C36.9717 90.4035 36.7583 90.1541 36.8472 89.9046C36.9184 89.673 36.9895 89.4414 37.0606 89.192C37.2029 88.7643 37.8609 88.9247 37.772 89.3879C37.7008 89.6196 37.6297 89.869 37.5586 90.1184H37.5408ZM38.43 87.3568C38.2877 87.7666 37.6475 87.6241 37.7364 87.1608V87.1252C37.8253 86.8936 37.9142 86.6619 37.9854 86.4303C38.1632 85.9671 38.8212 86.2165 38.6789 86.6798C38.59 86.9114 38.5189 87.143 38.4478 87.3746L38.43 87.3568ZM39.4258 84.6308C39.248 85.0584 38.59 84.8446 38.7501 84.3635L39.0168 83.6865C39.1769 83.2945 39.7993 83.4549 39.7104 83.9003C39.7104 83.9181 39.7104 83.9359 39.7104 83.9537L39.4436 84.6308H39.4258ZM40.5284 81.9404C40.3328 82.3859 39.6748 82.1008 39.8526 81.6554C39.9416 81.4237 40.0483 81.2099 40.155 80.9783C40.3506 80.5685 40.973 80.8001 40.8307 81.2456C40.7418 81.4772 40.6173 81.7088 40.5284 81.9404ZM41.7377 79.3035C41.5243 79.7311 40.8841 79.4282 41.0797 78.9828C41.1864 78.769 41.2931 78.5374 41.3998 78.3236C41.5954 77.9316 42.2178 78.181 42.0756 78.6086V78.6621C41.9511 78.8759 41.8444 79.0897 41.7377 79.3035ZM43.0714 76.72C42.858 77.0942 42.2534 76.8626 42.4134 76.3993V76.3637C42.5557 76.1499 42.6624 75.9361 42.7869 75.7223C43.0003 75.3659 43.5516 75.5619 43.4627 75.9717C43.4627 76.0074 43.4449 76.043 43.4271 76.0786L43.0714 76.72ZM44.4941 74.19C44.2807 74.5464 43.6938 74.3326 43.8361 73.8693V73.8159C43.9962 73.6021 44.1207 73.3883 44.2451 73.1923C44.4941 72.7825 45.1165 73.1566 44.8676 73.5664L44.4941 74.19ZM46.0235 71.7313C45.7389 72.1232 45.1521 71.7313 45.4188 71.3215L45.8279 70.7157C45.9879 70.4841 46.3258 70.5019 46.4503 70.7513C46.5036 70.8761 46.5036 71.0008 46.4325 71.1077L46.0413 71.7135L46.0235 71.7313ZM47.6595 69.326C47.4106 69.7001 46.8059 69.326 47.0549 68.934C47.1972 68.7202 47.3572 68.5242 47.4995 68.3104C47.8018 67.9184 48.3709 68.346 48.0864 68.738C47.9441 68.934 47.8018 69.13 47.6595 69.326ZM49.3845 66.9919C49.1178 67.3483 48.5487 66.9919 48.7799 66.5822L48.8155 66.5465C48.9577 66.3505 49.1178 66.1546 49.2601 65.9586C49.5268 65.62 50.0959 65.9586 49.8469 66.3862C49.7046 66.5822 49.5268 66.7781 49.3845 66.9741V66.9919ZM51.2162 64.7292C50.9673 65.0321 50.4338 64.7648 50.6116 64.3194C50.6116 64.3016 50.6294 64.2838 50.6649 64.2481L50.8961 63.9809L51.6075 64.2659C51.483 64.4085 51.3407 64.5688 51.2162 64.7292ZM59.1121 55.7494L59.4677 55.4465C59.7878 55.1793 60.2502 55.5891 59.9834 55.9454C59.9834 55.9632 59.9479 55.981 59.9301 55.9989L59.3788 56.4621L59.0943 55.7494H59.1121ZM61.6373 54.6269C61.335 54.8586 60.9082 54.5379 61.086 54.1637C61.1216 54.1102 61.1394 54.0924 61.1749 54.0568C61.3705 53.9143 61.5662 53.7539 61.7618 53.6114C61.8151 53.5757 61.8863 53.5401 61.9574 53.5401C62.3131 53.5223 62.4909 53.9677 62.2064 54.1993C62.0107 54.3419 61.8329 54.5022 61.6373 54.6448V54.6269ZM63.9491 52.8809C63.8247 52.97 63.6824 52.97 63.5579 52.8987C63.3267 52.774 63.3089 52.4355 63.5223 52.2751C63.718 52.1326 63.9136 51.99 64.127 51.8475C64.287 51.7406 64.5004 51.7762 64.6249 51.9188C64.7494 52.0791 64.7138 52.3285 64.5538 52.4355C64.3582 52.578 64.1625 52.7205 63.9669 52.8631L63.9491 52.8809ZM66.3321 51.2239C65.9231 51.4733 65.5319 50.8854 65.9231 50.6181L66.5277 50.2083C66.8301 50.0123 67.2035 50.333 67.0612 50.6538C67.0257 50.725 66.9901 50.7785 66.919 50.8141C66.7234 50.9388 66.5099 51.0814 66.3143 51.2061L66.3321 51.2239ZM68.7862 49.6738C68.6084 49.7807 68.395 49.7273 68.2883 49.5491C68.1816 49.3887 68.2349 49.1393 68.4128 49.0502L69.0352 48.6761C69.4442 48.4444 69.8177 49.0324 69.4264 49.2997C69.213 49.4244 68.9996 49.5491 68.7862 49.6738ZM71.2937 48.2128C71.1692 48.2841 71.0269 48.2663 70.9202 48.2128C70.689 48.0525 70.7068 47.7318 70.9558 47.5892L71.596 47.2329C71.9339 47.0369 72.3429 47.5001 72.005 47.8208C71.9872 47.8387 71.9695 47.8565 71.9339 47.8743L71.2937 48.2306V48.2128ZM73.8723 46.8587C73.4988 47.0547 73.1432 46.538 73.481 46.2529C73.4988 46.2529 73.5166 46.2173 73.5522 46.2173C73.7656 46.1104 73.9968 46.0035 74.2102 45.8966C74.637 45.7006 74.9571 46.3064 74.548 46.538C74.3346 46.6449 74.1035 46.7518 73.8723 46.8765V46.8587ZM76.5042 45.6115C76.113 45.7897 75.7751 45.2196 76.1663 44.9701H76.2197C76.4331 44.8454 76.6643 44.7563 76.8955 44.6494C77.1978 44.5247 77.4823 44.792 77.3756 45.1127C77.34 45.2017 77.2689 45.2908 77.18 45.3265C76.9666 45.4155 76.7354 45.5225 76.522 45.6115H76.5042ZM79.1717 44.4891C78.7805 44.6494 78.4604 44.0971 78.8338 43.8477C78.8516 43.8477 78.8694 43.8298 78.905 43.812L79.5807 43.5448C79.972 43.3844 80.2921 43.9546 79.8831 44.204H79.8297L79.1539 44.4891H79.1717ZM81.8926 43.4735C81.4658 43.616 81.199 43.0103 81.6258 42.7964H81.6614L82.355 42.547C82.7995 42.4045 83.0485 43.0637 82.6039 43.2419L81.9104 43.4913L81.8926 43.4735ZM84.649 42.5648C84.2578 42.6895 83.9732 42.1194 84.3645 41.8878C84.3823 41.8878 84.4 41.87 84.4356 41.8521L85.1469 41.6383C85.6271 41.5136 85.8049 42.1907 85.3426 42.3332C85.1114 42.4045 84.8802 42.4757 84.649 42.547V42.5648ZM87.441 41.7809C87.281 41.8165 87.1031 41.7452 87.032 41.5849C86.9253 41.3711 87.032 41.1216 87.2632 41.0682L87.9745 40.89C88.0812 40.8722 88.1879 40.89 88.2768 40.9435C88.5258 41.1395 88.4547 41.5136 88.1523 41.6027L87.441 41.7809ZM90.2686 41.1038C89.8595 41.1751 89.6461 40.6584 90.0018 40.4268C90.0374 40.4268 90.0729 40.3911 90.1085 40.3911L90.8199 40.2308C91.2822 40.1417 91.4423 40.8188 90.9799 40.9435L90.2508 41.1038H90.2686ZM93.1139 40.5515C92.7049 40.6228 92.4915 40.0348 92.9183 39.8566C92.9361 39.8566 92.9539 39.8566 92.9894 39.8388L93.7185 39.7141C94.1987 39.6607 94.3054 40.3555 93.8252 40.4446C93.5941 40.4802 93.3451 40.5159 93.1139 40.5693V40.5515ZM95.977 40.1061C95.7814 40.1239 95.6036 39.9992 95.568 39.8032C95.5325 39.5894 95.6747 39.3934 95.8881 39.3756L96.6172 39.2865C96.7062 39.2865 96.8129 39.2865 96.884 39.3578C97.1507 39.5538 97.044 39.9635 96.7062 40.017L95.977 40.1061Z" fill="#DDDDDD"/>
<path fill-rule="evenodd" clip-rule="evenodd" d="M91.958 64.9965C86.463 66.6178 81.3769 69.2191 76.9133 72.6043L78.2471 73.4417C82.2483 70.4841 86.7475 68.1679 91.5846 66.6356L91.958 64.9965ZM67.7371 81.8157C64.3582 86.2878 61.7618 91.3656 60.1436 96.8711L61.7796 96.4969C63.309 91.6507 65.6208 87.143 68.5729 83.152L67.7371 81.8157ZM60.1436 123.65C61.7618 129.138 64.376 134.233 67.7371 138.688L68.5729 137.369C65.6208 133.378 63.309 128.87 61.7796 124.042L60.1436 123.668V123.65ZM76.9311 147.899C81.5548 151.391 86.8187 154.064 92.5449 155.667L92.1715 154.028C87.1032 152.514 82.4084 150.126 78.2471 147.062L76.9133 147.899H76.9311ZM118.704 155.489C124.199 153.868 129.268 151.266 133.713 147.899L132.38 147.062C128.378 150.001 123.897 152.318 119.06 153.85L118.686 155.489H118.704ZM142.925 138.688C146.304 134.233 148.9 129.138 150.519 123.65L148.883 124.024C147.353 128.87 145.041 133.36 142.089 137.369L142.925 138.688ZM150.519 96.8711C148.9 91.3656 146.304 86.2878 142.925 81.8157L142.089 83.152C145.041 87.1608 147.353 91.6507 148.883 96.4969L150.519 96.8711ZM133.731 72.6043C129.268 69.2191 124.182 66.6178 118.686 64.9965L119.06 66.6356C123.897 68.1679 128.396 70.4841 132.397 73.4417L133.731 72.6043Z" fill="#DDDDDD"/>
<path fill-rule="evenodd" clip-rule="evenodd" d="M80.2565 95.0181L64.9094 70.5375L87.6722 93.3255L88.1701 93.2008C88.1701 93.2008 88.3124 93.1295 88.3302 93.0404L90.393 83.9894L62.1886 66.2614C62.1886 66.2614 62.0819 66.1902 62.0107 66.1724H61.9929H61.9218H61.8862C61.8862 66.1724 61.8507 66.1724 61.8329 66.1724C61.8329 66.1724 61.8151 66.1724 61.7973 66.1724H61.7795V66.208C61.7795 66.208 61.7795 66.2258 61.7795 66.2436C61.7795 66.2614 61.7795 66.2793 61.7795 66.3149V66.3505V66.3862V66.4218V66.4574V66.4753C61.7795 66.4931 61.7795 66.5287 61.7795 66.5465C61.7795 66.5465 61.7795 66.5822 61.7795 66.6V66.6178V66.6356L79.5096 94.8934L80.6299 94.644L80.2565 95.0181ZM120.536 85.1297L144.988 69.7536L122.225 92.5415L122.35 93.0404C122.35 93.0404 122.421 93.183 122.51 93.2008L131.544 95.2676L149.256 67.0276C149.256 67.0276 149.327 66.9207 149.345 66.8494V66.8316V66.8138V66.7781V66.7425V66.7069C149.345 66.7069 149.345 66.6534 149.345 66.6356C149.345 66.6356 149.345 66.6178 149.345 66.6V66.5822V66.5643H149.327V66.5465C149.327 66.5465 149.309 66.5465 149.292 66.5465C149.274 66.5465 149.256 66.5465 149.221 66.5465H149.203H149.185H149.114C149.114 66.5465 149.06 66.5465 149.043 66.5465H149.007L120.785 84.2923L121.034 85.4147L120.536 85.1297ZM79.1361 125.2L61.4239 153.44C61.4239 153.44 61.3527 153.547 61.335 153.618V153.636V153.654V153.69V153.707V153.743V153.779C61.335 153.779 61.335 153.832 61.335 153.85C61.335 153.85 61.335 153.868 61.335 153.886V153.903V153.921V153.939H61.3527C61.3527 153.939 61.3705 153.939 61.3883 153.939C61.4061 153.939 61.4239 153.939 61.4594 153.939H61.4772H61.495H61.5306H61.5484C61.5484 153.939 61.5839 153.939 61.6195 153.939H61.6551L89.8773 136.193L89.6283 135.071L65.1762 150.447L87.9389 127.659L87.8144 127.16C87.8144 127.16 87.7433 127.017 87.6544 127L78.6204 124.933L79.1361 125.2ZM120.287 136.478L148.491 154.206C148.491 154.206 148.598 154.278 148.669 154.295H148.687H148.723H148.758C148.758 154.295 148.794 154.295 148.811 154.295C148.811 154.295 148.829 154.295 148.847 154.295L148.865 154.278V154.242C148.865 154.242 148.865 154.224 148.865 154.206C148.865 154.188 148.865 154.171 148.865 154.135V154.099V154.064V154.028V154.01C148.865 153.992 148.865 153.975 148.865 153.939C148.865 153.939 148.865 153.903 148.865 153.886L131.135 125.628L130.014 125.895L145.362 150.376L122.599 127.588L122.101 127.712C122.101 127.712 121.959 127.784 121.941 127.873L119.878 136.924L120.287 136.478Z" fill="#DDDDDD"/>
<path fill-rule="evenodd" clip-rule="evenodd" d="M89.1838 93.2899L104.798 24.926V88.4793C104.975 88.4793 105.153 88.4793 105.349 88.4793C111.555 88.4793 117.139 91.0806 121.105 95.2497L122.279 94.0738L190.567 109.699H127.08C127.08 109.878 127.08 110.073 127.08 110.252C127.08 116.452 124.484 122.064 120.323 126.02L121.496 127.196L105.882 195.56V132.006C105.705 132.006 105.527 132.006 105.331 132.006C99.1247 132.006 93.5407 129.405 89.575 125.236L88.4013 126.412L20.1309 110.786H83.6176C83.6176 110.608 83.6176 110.412 83.6176 110.234C83.6176 104.034 86.214 98.439 90.3753 94.4658L89.2016 93.2899H89.1838ZM195.493 110.786C195.493 110.786 195.6 110.751 195.653 110.733V110.715L195.671 110.679V110.661V110.644V110.608V110.59V110.572V110.555V110.519V110.483V110.465V110.448V110.43V110.412V110.394V110.376V110.359V110.341C195.671 110.341 195.6 110.287 195.546 110.269L122.581 93.5749L105.882 19.9907C105.882 19.9907 105.847 19.8838 105.829 19.8303V19.8125L105.793 19.7947H105.776H105.758H105.74H105.722H105.651H105.633H105.616H105.598C105.562 19.8303 105.545 19.8659 105.527 19.9194V19.9372V19.955L88.8459 93.0048L15.1871 109.699C15.1871 109.699 15.0804 109.735 15.027 109.753V109.771V109.806H14.9915V109.824V109.842V109.877V109.913V109.931V109.967V110.002V110.038V110.056V110.073V110.109V110.127V110.145C14.9915 110.145 15.0626 110.198 15.1159 110.216L88.0812 126.911L104.762 199.925C104.762 199.925 104.798 200.032 104.815 200.085V200.103V200.121L104.851 200.139H104.869H104.887H104.904H104.922H104.94H105.011H105.029H105.047H105.064H105.082C105.118 200.103 105.135 200.067 105.153 200.014V199.996V199.978L121.834 126.928L194.764 110.234L195.493 110.786Z" fill="#DDDDDD"/>
<path fill-rule="evenodd" clip-rule="evenodd" d="M45.5255 49.6382H45.4366V49.656V49.6738V49.6916V49.7095V49.7273V49.7451V49.7629V49.7985V49.8342V49.852V49.8698V49.8876L49.2422 59.687C49.2956 59.8295 49.4201 59.9542 49.5623 60.0077L59.3788 63.8384H59.4143H59.4321H59.4677C59.4677 63.8384 59.4855 63.8384 59.5032 63.8027C59.5032 63.8027 59.521 63.7849 59.5388 63.7671C59.5388 63.7671 59.5566 63.7314 59.5744 63.7314C59.5744 63.7314 59.5744 63.7136 59.5922 63.6958V63.678V63.6602V63.6424V63.6245V63.6067V63.5889V63.5533V63.5176V63.482V63.4642V63.4464V63.4286L55.7687 53.5757C55.7154 53.4332 55.6087 53.3263 55.4486 53.255L45.6678 49.4422L45.5255 49.6382ZM56.729 158.126L46.7526 168.121L49.5445 160.923L56.729 158.126ZM59.4321 156.398C59.4321 156.398 59.4321 156.38 59.4143 156.362C59.4143 156.362 59.4143 156.344 59.3788 156.326C59.3788 156.326 59.361 156.309 59.3432 156.291C59.3432 156.291 59.3254 156.291 59.3076 156.273H59.2898H59.2543H59.2365L49.4201 160.104C49.2778 160.157 49.1711 160.264 49.1 160.424L45.2943 170.224V170.242V170.259V170.277V170.295V170.313V170.348V170.384V170.402V170.42V170.438H45.3121H45.3654L55.1463 166.625C55.2886 166.571 55.4131 166.447 55.4664 166.304L59.2898 156.469V156.451V156.433V156.416V156.398V156.362V156.344V156.326V156.309V156.291V156.273V156.255V156.237L59.4321 156.398ZM153.186 158.892L163.163 168.887L155.978 166.09L153.186 158.892ZM151.461 156.184C151.461 156.184 151.443 156.184 151.426 156.202C151.426 156.202 151.408 156.202 151.39 156.237C151.39 156.237 151.372 156.273 151.354 156.273C151.354 156.273 151.354 156.291 151.337 156.309V156.326V156.344V156.362V156.38V156.398V156.416V156.451V156.487V156.522V156.54V156.558L155.16 166.393C155.213 166.536 155.32 166.643 155.48 166.714L165.261 170.527H165.279H165.314H165.332V170.509V170.491V170.473V170.438V170.402V170.384V170.366V170.348V170.331L161.527 160.531C161.473 160.389 161.349 160.264 161.224 160.211L151.39 156.38H151.372H151.319H151.301L151.461 156.184ZM153.951 62.3239L163.927 52.3286L161.135 59.5266L153.951 62.3239ZM151.248 64.0522C151.248 64.0522 151.248 64.07 151.266 64.0878C151.266 64.0878 151.266 64.1056 151.301 64.1234C151.301 64.1234 151.319 64.1412 151.337 64.1591C151.337 64.1591 151.354 64.1591 151.372 64.1769H151.408H151.426H151.461L161.295 60.3462C161.438 60.2928 161.544 60.1859 161.598 60.0255L165.403 50.2261V50.2083V50.1905V50.1727V50.1549V50.1371V50.1014V50.0658V50.048V50.0302V50.0123V49.9945V49.9767H165.386H165.35H165.314L155.534 53.7896C155.391 53.843 155.267 53.9677 155.213 54.1103L151.39 63.9452V63.9631V63.9809V63.9987V64.0165V64.0522V64.07V64.1056V64.1234V64.1412V64.1591L151.248 64.0522ZM57.4937 61.5578L47.5172 51.5624L54.7017 54.3597L57.4937 61.5578Z" fill="#DDDDDD"/>
<path d="M203.993 115.169V114.92C204.296 114.92 204.509 114.866 204.633 114.831C204.758 114.777 204.865 114.688 204.918 114.546C204.971 114.403 205.007 114.171 205.007 113.869V107.739C205.007 107.437 204.971 107.205 204.918 107.062C204.865 106.92 204.776 106.831 204.633 106.777C204.509 106.724 204.296 106.688 203.993 106.688V106.439C204.794 106.457 206.003 106.474 207.568 106.474C208.777 106.474 209.648 106.474 210.146 106.439C210.093 106.973 210.057 107.472 210.057 107.9C210.057 108.221 210.057 108.47 210.093 108.666H209.808C209.773 108.399 209.755 108.185 209.72 108.007C209.684 107.829 209.648 107.668 209.595 107.508C209.542 107.347 209.488 107.223 209.399 107.134C209.328 107.045 209.239 106.973 209.115 106.902C208.99 106.831 208.866 106.777 208.706 106.76C208.546 106.742 208.368 106.724 208.137 106.724H207.105C206.679 106.724 206.412 106.777 206.287 106.902C206.163 107.027 206.11 107.312 206.11 107.739V110.661H206.928C207.07 110.661 207.212 110.661 207.319 110.608C207.425 110.555 207.532 110.519 207.603 110.448C207.674 110.376 207.746 110.305 207.799 110.216C207.852 110.127 207.888 110.038 207.923 109.913C207.959 109.788 207.977 109.699 207.995 109.61C208.012 109.521 208.03 109.432 208.048 109.29C208.048 109.165 208.083 109.076 208.083 109.022H208.368C208.332 109.432 208.332 109.824 208.332 110.18C208.332 110.252 208.332 110.359 208.332 110.501C208.332 110.644 208.332 110.715 208.332 110.786C208.332 111.214 208.35 111.784 208.404 112.55H208.119C208.066 112.087 208.012 111.784 207.977 111.659C207.87 111.267 207.639 111.018 207.283 110.947C207.177 110.929 207.07 110.911 206.945 110.911H206.127V113.886C206.127 114.332 206.181 114.617 206.305 114.724C206.43 114.848 206.696 114.902 207.123 114.902H208.03C208.421 114.902 208.741 114.866 208.973 114.795C209.204 114.724 209.399 114.599 209.559 114.421C209.702 114.243 209.808 114.011 209.88 113.762C209.951 113.512 210.004 113.156 210.057 112.728H210.342C210.324 112.942 210.306 113.245 210.306 113.619C210.306 114.082 210.342 114.617 210.395 115.205C209.844 115.187 208.902 115.169 207.568 115.169C205.985 115.169 204.794 115.169 203.993 115.205V115.169Z" fill="#DDDDDD"/>
<path d="M0 106.653V106.403C0.337885 106.421 0.782469 106.439 1.31597 106.439C1.90282 106.439 2.34741 106.439 2.64973 106.403V106.653C2.43633 106.653 2.27627 106.706 2.18736 106.777C2.09844 106.849 2.04509 106.938 2.04509 107.08C2.04509 107.223 2.08066 107.419 2.16957 107.686L3.98348 113.209L5.47729 108.417L5.15719 107.437C4.97935 106.92 4.74817 106.653 4.42807 106.653V106.403C4.73038 106.421 5.12162 106.439 5.61955 106.439C6.33089 106.439 6.84661 106.439 7.20228 106.403V106.653C7.04223 106.653 6.91774 106.653 6.82882 106.67C6.73991 106.67 6.65099 106.706 6.57986 106.724C6.50872 106.742 6.43759 106.795 6.40202 106.849C6.36646 106.902 6.34867 106.973 6.34867 107.062C6.34867 107.205 6.38424 107.401 6.47316 107.668L8.2515 113.174L9.78087 108.381C9.90535 107.971 9.97649 107.633 9.97649 107.383C9.97649 107.116 9.88757 106.92 9.72752 106.795C9.56747 106.688 9.30072 106.617 8.92727 106.617V106.368C9.38963 106.385 9.86979 106.403 10.3499 106.403C10.7234 106.403 11.0257 106.403 11.2747 106.368V106.617C10.8123 106.724 10.4922 107.08 10.2966 107.686L7.96696 115.187H7.77134L5.61955 108.808L3.66338 115.187H3.46776L0.853603 107.401C0.675769 106.884 0.391235 106.635 0 106.617V106.653Z" fill="#DDDDDD"/>
<path d="M101.365 10.6011V10.3517C101.774 10.3517 102.041 10.2448 102.183 10.0844C102.308 9.92407 102.379 9.62118 102.379 9.15794V3.1536C102.379 2.85071 102.343 2.61909 102.29 2.47656C102.237 2.33402 102.148 2.24494 102.006 2.19148C101.881 2.13803 101.668 2.1024 101.365 2.1024V1.85296C101.632 1.87078 102.023 1.8886 102.504 1.8886C102.877 1.8886 103.197 1.8886 103.464 1.85296L107.821 8.58779V3.27832C107.821 3.02888 107.821 2.85071 107.785 2.70818C107.767 2.56564 107.714 2.45874 107.625 2.35184C107.536 2.24494 107.43 2.19148 107.287 2.15585C107.145 2.12022 106.949 2.08458 106.7 2.08458V1.83514C107.003 1.85296 107.412 1.87078 107.963 1.87078C108.461 1.87078 108.834 1.87078 109.101 1.83514V2.08458C108.692 2.08458 108.425 2.19148 108.283 2.35184C108.159 2.51219 108.088 2.81508 108.088 3.27832V10.6546H107.803L102.61 2.61909V9.15794C102.61 9.62118 102.681 9.92407 102.824 10.0844C102.966 10.2448 103.268 10.3339 103.731 10.3517V10.6011C103.428 10.5833 103.019 10.5655 102.468 10.5655C101.97 10.5655 101.597 10.5655 101.33 10.6011H101.365Z" fill="#DDDDDD"/>
<path d="M102.415 219.666C102.45 219.221 102.468 218.223 102.468 216.708H102.806C102.824 217.1 102.877 217.457 102.966 217.777C103.055 218.098 103.179 218.401 103.357 218.668C103.517 218.935 103.748 219.149 104.033 219.292C104.317 219.434 104.638 219.506 105.029 219.506C105.473 219.506 105.847 219.363 106.149 219.096C106.452 218.811 106.612 218.401 106.612 217.866C106.612 217.617 106.576 217.403 106.487 217.189C106.398 216.976 106.256 216.797 106.078 216.601C105.882 216.423 105.687 216.245 105.491 216.103C105.296 215.96 105.029 215.8 104.691 215.586C104.46 215.443 104.264 215.319 104.122 215.23C103.98 215.14 103.802 215.016 103.606 214.873C103.411 214.731 103.268 214.588 103.144 214.463C103.037 214.339 102.913 214.178 102.806 214.018C102.699 213.84 102.61 213.662 102.557 213.466C102.504 213.27 102.486 213.056 102.486 212.824C102.486 212.468 102.557 212.147 102.681 211.88C102.806 211.595 102.984 211.381 103.197 211.203C103.411 211.025 103.66 210.9 103.944 210.811C104.211 210.722 104.513 210.686 104.815 210.686C105.064 210.686 105.296 210.704 105.509 210.757C105.722 210.811 105.865 210.864 105.971 210.918C106.078 210.971 106.185 211.043 106.345 211.149C106.523 211.274 106.665 211.328 106.772 211.328C106.843 211.328 106.914 211.274 106.949 211.203C106.985 211.114 107.021 210.971 107.038 210.775H107.323C107.287 211.256 107.27 212.112 107.27 213.305H106.985C106.967 213.002 106.914 212.7 106.825 212.432C106.736 212.165 106.612 211.916 106.452 211.684C106.291 211.452 106.096 211.274 105.829 211.132C105.58 210.989 105.278 210.936 104.958 210.936C104.513 210.936 104.157 211.078 103.873 211.328C103.588 211.595 103.446 211.933 103.446 212.361C103.446 212.486 103.446 212.593 103.482 212.7C103.499 212.806 103.535 212.913 103.588 213.02C103.642 213.109 103.695 213.216 103.731 213.287C103.766 213.359 103.855 213.448 103.944 213.537C104.033 213.626 104.122 213.697 104.193 213.751C104.264 213.804 104.353 213.893 104.495 213.965C104.62 214.054 104.727 214.125 104.815 214.178C104.887 214.232 105.011 214.303 105.171 214.392C105.331 214.481 105.456 214.552 105.527 214.606C105.74 214.748 105.918 214.855 106.06 214.944C106.203 215.034 106.363 215.14 106.523 215.265C106.7 215.39 106.843 215.515 106.949 215.604C107.056 215.693 107.163 215.835 107.287 215.978C107.412 216.12 107.483 216.263 107.554 216.388C107.625 216.53 107.661 216.673 107.714 216.851C107.75 217.011 107.767 217.189 107.767 217.385C107.767 217.884 107.643 218.33 107.412 218.686C107.163 219.042 106.861 219.31 106.469 219.488C106.078 219.666 105.633 219.737 105.153 219.737C104.762 219.737 104.442 219.702 104.175 219.613C103.926 219.523 103.677 219.417 103.464 219.274C103.286 219.149 103.162 219.096 103.073 219.096C103.002 219.096 102.948 219.131 102.913 219.221C102.877 219.31 102.841 219.452 102.824 219.63H102.486L102.415 219.666Z" fill="#DDDDDD"/>
<path fill-rule="evenodd" clip-rule="evenodd" d="M127.311 87.8379L109.475 99.0448L105.616 82.1542L105.491 81.9761C105.331 81.8513 105.118 81.9761 105.064 82.083L101.188 99.0448L83.4219 87.8735L83.2085 87.8201L82.9417 88.0873V88.1586L82.9951 88.3189L94.1453 106.082L77.2866 109.949L77.1088 110.074C76.9843 110.234 77.1088 110.448 77.2155 110.501L94.1453 114.385L82.9951 132.167L82.9417 132.398L83.2085 132.665H83.3508L101.188 121.459L105.046 138.349L105.171 138.527C105.331 138.652 105.544 138.527 105.58 138.42L109.457 121.459L127.222 132.63L127.436 132.683L127.703 132.416V132.345V132.273L116.517 114.421L133.375 110.555L133.553 110.43C133.678 110.269 133.553 110.056 133.447 110.02L116.517 106.136L127.667 88.3546L127.72 88.1408L127.454 87.8735H127.382H127.311V87.8379ZM109.99 105.584C112.551 108.149 112.551 112.318 109.99 114.902C107.429 117.468 103.25 117.468 100.69 114.902C98.1288 112.336 98.1288 108.167 100.69 105.584C103.25 103.018 107.429 103.018 109.99 105.584ZM105.331 106.1C107.625 106.1 109.475 107.953 109.475 110.252C109.475 112.55 107.625 114.403 105.331 114.403C103.037 114.403 101.188 112.55 101.188 110.252C101.188 107.953 103.037 106.1 105.331 106.1ZM105.331 102.359C109.67 102.359 113.209 105.887 113.209 110.234C113.209 114.581 109.688 118.109 105.331 118.109C100.974 118.109 97.453 114.581 97.453 110.234C97.453 105.887 100.974 102.359 105.331 102.359Z" fill="#DDDDDD"/>
</svg>
