<svg width="707" height="595" viewBox="0 0 707 595" fill="none" xmlns="http://www.w3.org/2000/svg">
<path fill-rule="evenodd" clip-rule="evenodd" d="M623.602 203.108C620.533 198.21 617.883 193.083 614.071 188.623C612.87 187.213 612.032 185.764 612.127 183.878C612.165 183.115 611.994 182.239 611.593 181.591C610.278 179.418 609.649 176.845 607.362 175.244C606.504 174.653 606.409 173.605 605.913 172.785C605.399 171.928 604.503 171.451 603.454 171.356C603.207 171.337 602.902 171.642 602.673 171.852C602.578 171.928 602.559 172.176 602.597 172.309C602.73 172.595 602.902 172.862 603.111 173.09C604.789 174.958 604.751 174.977 603.264 177.379C603.111 177.626 602.978 178.007 603.035 178.274C603.207 178.884 603.435 179.513 603.798 180.028C604.865 181.533 605.17 183.249 605.513 184.945C605.57 185.193 605.322 185.517 605.151 185.764C604.922 186.069 604.274 185.688 604.141 185.078C603.95 184.144 603.779 183.21 603.035 182.486C602.559 182.01 602.215 181.438 602.273 180.79C602.387 179.323 601.586 178.389 600.405 177.664C598.441 176.464 596.307 175.53 594.477 174.139C594.115 173.872 593.524 173.776 593.047 173.776C592.209 173.776 591.389 173.967 590.55 173.986C589.616 174.005 589.025 174.31 588.816 175.282C588.587 176.368 588.206 177.436 587.253 178.179C587.157 178.255 586.833 178.198 586.776 178.122C586.109 176.864 585.461 175.606 584.794 174.329C584.718 174.196 584.508 174.005 584.47 174.024C584.203 174.177 583.917 174.329 583.688 174.539C583.136 175.053 583.25 175.663 583.422 176.311C583.479 176.54 583.25 176.921 583.021 177.074C582.735 177.283 582.411 177.112 582.278 176.788C581.801 175.606 581.344 174.424 580.867 173.243C580.41 172.157 579.819 171.928 578.485 172.271C578.008 172.404 577.551 172.652 577.055 172.728C576.579 172.804 576.064 172.747 575.569 172.728C574.673 172.652 573.987 171.775 574.272 171.07C574.444 170.632 574.596 170.174 574.825 169.755C575.607 168.364 576.407 166.973 577.208 165.581C578.085 164.038 579.038 162.513 579.209 160.74C579.533 157.539 580.658 154.584 582.087 151.688C583.059 149.705 583.917 147.59 583.441 145.284C583.231 144.312 583.517 143.359 584.108 142.558C585.023 141.301 585.328 140.005 584.737 138.518C584.489 137.889 584.756 137.26 585.118 136.707C585.938 135.469 586.929 134.63 588.606 134.306C590.55 133.944 592.38 133.048 594.267 132.419C595.087 132.152 595.906 132.21 596.688 132.61C597.546 133.067 598.327 132.953 598.804 132.114C599.433 130.952 600.614 130.494 601.72 130.685C603.664 131.028 605.284 129.999 607.114 129.942C607.362 129.942 607.724 129.58 607.8 129.332C608.048 128.569 608.143 127.788 608.372 127.026C608.601 126.282 609.497 125.692 610.297 125.768C612.623 125.977 614.948 126.187 617.254 126.454C617.712 126.511 618.188 126.816 618.57 127.102C618.76 127.254 618.875 127.636 618.836 127.864C618.779 128.15 618.455 128.379 618.322 128.665C617.998 129.351 618.131 129.846 618.665 130.361C619.18 130.837 619.866 131.219 620.438 130.876C622.096 129.865 624.116 129.332 625.26 127.636C625.66 127.045 626.289 126.93 627.013 127.178C627.719 127.407 628.367 127.197 628.786 126.664C629.358 125.939 630.654 125.634 630.387 124.472C630.12 123.271 628.977 123.309 627.986 123.195C627.814 123.176 627.661 123.138 627.49 123.119C626.956 123.042 626.575 122.738 626.384 122.28C625.698 120.603 625.508 118.907 626.232 117.172C626.365 116.867 626.404 116.543 626.537 116.258C627.204 114.923 627.318 113.551 627.242 112.084C627.166 110.197 627.357 108.31 627.166 106.404C627.032 105.051 627.776 103.965 629.186 103.431C630.273 103.012 631.436 102.745 632.446 102.211C633.551 101.621 634.581 101.487 635.781 101.849C636.487 102.059 637.02 101.582 637.573 101.239C638.126 100.915 638.66 101.106 638.736 101.602C638.888 102.707 639.06 103.793 639.155 104.899C639.231 105.947 639.841 106.671 640.718 107.186C641.671 107.738 642.777 108.062 643.672 108.787C643.787 108.882 644.34 108.71 644.53 108.52C644.854 108.177 645.178 107.757 645.274 107.319C645.674 105.451 646.112 103.584 646.303 101.697C646.436 100.382 647.103 99.7528 648.342 99.3335C649.067 99.1048 649.029 98.3615 649.143 97.7707C649.2 97.7898 649.238 97.8088 649.295 97.8469C649.353 97.7707 649.391 97.6945 649.429 97.6373C649.467 97.6373 649.505 97.6373 649.524 97.5992C649.581 97.5611 649.581 97.4467 649.6 97.3705C649.543 97.4467 649.486 97.542 649.41 97.6373C649.334 97.6754 649.219 97.6945 649.143 97.7326C649.143 97.7326 649.143 97.7707 649.143 97.7898C649.029 97.7326 648.933 97.6945 648.838 97.6373C646.589 95.9411 645.884 93.5397 645.464 91.0049C645.464 90.8715 645.56 90.719 645.636 90.5856C646.265 89.5374 647.904 89.0609 649.162 89.5755C649.524 89.728 649.924 90.395 649.677 90.7571C648.8 92.1675 649.029 93.4825 649.829 94.8166C650.82 96.4557 651.964 98.0375 651.792 100.077C651.773 100.344 652.04 100.668 652.25 100.896C653.432 102.23 652.764 103.984 653.432 105.432C653.165 106.576 652.193 107.281 651.526 108.158C651.43 108.291 651.297 108.386 651.182 108.52C650.534 109.282 650.248 110.083 650.287 111.131C650.363 113.627 650.592 116.181 649.448 118.583C649.2 119.135 649.238 119.822 649.219 120.45C649.162 122.833 649.01 125.215 649.143 127.578C649.257 129.58 648.99 131.352 647.523 132.877C647.199 133.201 647.103 133.753 646.818 134.116C646.532 134.478 646.131 134.783 645.75 135.068C644.416 136.079 644.302 136.155 645.121 137.127C646.189 138.366 646.303 139.719 645.998 141.148C645.826 141.91 645.502 142.654 645.216 143.397C644.797 144.464 644.778 145.532 644.931 146.656C645.178 148.581 646.112 150.277 646.646 152.107C648.438 158.167 652.135 163.275 655.662 168.44C656.653 169.908 657.739 171.299 658.635 172.824C659.226 173.776 659.741 174.882 660.598 175.549C661.818 176.502 662.505 177.722 663.114 179.018C663.743 180.314 664.258 181.648 664.811 182.982C665.402 184.411 666.793 185.002 668.051 185.726C668.146 185.783 668.394 185.669 668.509 185.574C669.481 184.83 669.557 183.63 670.091 182.658C671.52 180.161 671.539 177.607 670.51 174.882C669.424 172.004 669.042 171.185 672.473 169.584C672.626 169.507 672.759 169.412 672.893 169.336C673.407 169.012 673.522 168.669 673.179 168.173C672.74 167.506 672.225 166.877 671.844 166.172C671.558 165.619 671.253 164.99 671.234 164.381C671.234 162.97 671.292 161.541 671.463 160.131C671.596 159.139 672.264 158.434 673.293 158.053C674.055 157.767 674.818 157.424 675.523 157.043C676.171 156.681 676.4 155.499 675.923 154.928C675.199 154.051 674.475 153.193 673.674 152.393C671.539 150.277 670.872 147.781 671.349 144.941C671.406 144.522 671.901 144.083 672.378 144.14C672.702 144.178 673.026 144.312 673.35 144.331C674.341 144.369 675.294 143.168 674.837 142.406C674.189 141.32 673.312 140.329 672.778 139.185C672.264 138.118 671.577 137.794 670.434 137.965C670.186 138.003 669.748 137.775 669.652 137.565C669.061 136.269 668.223 135.03 668.966 133.506C669.157 133.105 669.138 132.572 669.042 132.114C668.966 131.657 668.756 131.18 668.432 130.837C667.746 130.094 666.774 129.789 665.802 129.637C665.535 129.599 665.154 129.827 664.944 130.037C664.658 130.342 664.449 130.723 664.201 131.066C664.22 131.066 664.22 131.066 664.239 131.085C664.277 131.18 664.296 131.18 664.315 131.238C664.43 131.238 664.506 131.276 664.506 131.295C664.506 131.524 664.43 131.466 664.315 131.238C664.239 131.238 664.163 131.219 664.106 131.2C664.125 131.161 664.163 131.104 664.182 131.047C663.248 130.628 662.657 129.942 662.238 129.027C661.475 127.388 661.323 125.653 661.418 123.9C661.57 121.156 661.418 118.506 659.779 116.124C659.588 115.857 659.569 115.514 659.474 115.228C658.959 113.532 659.817 112.141 661.742 111.684C662.047 111.607 662.409 111.76 662.733 111.722C663.724 111.626 663.934 111.512 664.087 110.673C664.239 109.892 664.334 109.13 664.906 108.482C665.23 108.139 665.897 108.043 666.126 108.444C666.545 109.13 666.908 109.854 667.384 110.502C667.517 110.692 667.994 110.788 668.242 110.731C668.528 110.654 668.871 110.407 668.947 110.159C669.195 109.396 669.328 108.615 669.462 107.853C669.69 106.709 670.339 105.794 671.101 104.956C672.13 103.812 673.598 103.374 675.085 103.126C676.133 102.955 676.991 103.622 677.81 104.136C678.63 104.67 679.43 105.261 680.25 105.813C680.517 106.004 680.803 106.233 681.108 106.309C681.565 106.442 682.08 106.481 682.575 106.538C683.033 106.576 683.528 106.042 683.528 105.642C683.49 104.537 682.594 103.584 682.88 102.421C683.147 101.335 683.338 100.248 683.662 99.1811C684.119 97.6564 684.348 96.1126 684.501 94.5307C684.691 92.1675 685.358 89.8804 686.769 87.8221C687.569 86.6405 688.16 85.3445 688.732 84.0104C689.609 81.9902 691 80.1796 692.716 78.674C693.345 78.1213 694.164 77.8354 695.022 77.8354C696.185 77.8354 697.347 77.9498 698.529 77.9688C699.025 77.9688 699.539 77.9307 700.016 77.7782C700.264 77.6829 700.626 77.378 700.645 77.1302C700.759 75.0528 700.836 72.9945 698.777 71.5079C698.281 71.1458 698.072 70.4597 697.691 69.9261C697.405 69.5449 697.138 69.0113 696.738 68.8969C694.851 68.287 693.497 66.7052 691.496 66.3431C691.496 66.3812 691.515 66.4002 691.534 66.4383L691.134 66.5336L691.42 66.3049C691.42 66.3049 691.477 66.324 691.496 66.324C691.343 65.7522 691.172 65.1614 690.981 64.5897C690.581 63.4461 689.876 62.6266 688.446 62.76C688.065 62.7981 687.779 62.7029 687.627 62.3598C687.493 62.0739 687.436 61.7499 687.283 61.464C686.597 60.1109 686.083 59.7297 684.596 60.0156C683.014 60.3015 682.099 59.5201 681.203 58.5671C680.879 58.2241 681.032 57.4808 681.47 57.3474C682.099 57.1568 682.728 56.9853 683.376 56.8328C685.263 56.3563 686.121 55.0413 686.273 53.3451C686.445 51.4583 686.464 49.5524 686.445 47.6465C686.445 47.0367 686.216 46.4077 685.968 45.836C685.644 45.1118 685.091 44.4638 684.806 43.7395C684.329 42.596 683.567 41.9099 682.27 41.7193C681.031 41.5478 680.155 40.8236 679.469 39.8706C679.183 39.4704 679.011 39.0511 679.278 38.5556C679.507 38.1363 679.64 37.6789 679.869 37.2405C680.269 36.4782 681.051 36.402 681.298 37.0309C681.718 38.1363 682.48 38.8796 683.605 39.4323C686.597 40.9189 686.864 40.8426 688.351 37.7932C688.484 37.5074 688.56 37.1834 688.732 36.9165C689.323 36.078 690.219 35.6587 691.191 35.43C691.953 35.2584 692.449 35.8111 692.925 36.2304C693.554 36.7641 694.107 37.3549 694.66 37.9457C695.575 38.9177 696.795 39.1464 697.824 38.4984C698.872 37.8504 699.902 37.6217 701.083 37.6979C701.941 37.7551 702.761 37.8695 703.599 37.8314C704.247 37.8123 704.915 37.6408 705.563 37.4883C705.868 37.4121 706.173 37.2215 706.401 37.0118C706.611 36.8022 706.916 36.4591 706.878 36.2304C706.63 34.7248 706.744 32.9714 704.381 32.7427C703.695 32.6855 703.371 31.9613 703.199 31.3324C703.123 31.0274 703.161 30.7034 703.18 30.3794C703.256 28.8547 702.932 27.6159 701.35 26.7583C700.683 26.3962 700.245 25.6148 699.711 25.0049C699.101 24.2807 699.025 23.9757 699.768 23.4421C701.064 22.5082 701.598 21.2313 702.017 19.84C702.17 19.3445 702.094 18.868 701.77 18.525C700.359 17.0193 699.844 15.2469 699.844 13.2839C699.844 12.6359 699.539 12.4072 698.91 12.4072C698.586 12.4072 698.224 12.5977 697.919 12.5215C696.166 12.1403 694.45 11.4923 692.601 11.3208C691.991 11.2636 691.439 10.7491 690.848 10.4632C689.818 9.96766 688.885 10.1773 688.103 10.9015C687.055 11.8926 686.14 13.0552 684.539 13.341C684.291 13.3792 684.081 13.7794 683.872 14.0271C683.433 14.5417 683.357 15.3803 683.738 15.7805C684.501 16.6191 685.339 17.4005 686.025 18.2963C686.407 18.8109 686.464 19.497 686.14 20.1068C686.006 20.3355 685.682 20.5071 685.415 20.6595C685.301 20.7167 685.015 20.6786 684.996 20.6214C683.891 18.2391 681.356 16.9241 680.078 14.6751C678.287 13.2457 676.533 11.8163 673.846 12.3309C672.893 12.5215 671.787 12.5406 670.891 12.2547C669.424 11.7782 667.956 11.8163 666.45 11.7973C664.62 11.7782 662.809 11.6258 661.018 11.054C659.455 10.5394 657.72 10.3679 656.1 11.0159C654.861 11.5114 653.908 11.1493 652.898 10.3869C651.983 9.68178 650.877 9.28155 649.696 9.14814C646.055 8.76696 642.51 7.68062 638.774 7.98556C638.278 8.02368 637.745 7.98556 637.268 7.87121C634.847 7.20416 632.579 7.89027 630.463 8.74791C628.92 9.37684 627.395 10.2535 625.775 10.3298C623.926 10.4251 622.191 11.0731 620.342 10.9968C619.523 10.9587 618.703 11.1493 617.883 11.2446C617.464 11.3018 617.369 11.5686 617.407 11.9688C617.559 13.5316 619.199 14.6751 618.836 16.4285C618.779 16.6763 619.408 17.2481 619.809 17.3624C621.105 17.7436 622.382 18.1057 623.316 19.0967C624.307 20.164 625.241 21.2694 626.175 22.3939C626.556 22.8322 626.499 23.7661 626.08 24.1663C625.603 24.6047 625.088 25.024 624.574 25.4051C623.754 25.996 622.782 26.015 622.382 25.2527C621.352 23.2896 619.618 22.6035 617.502 22.432C617.178 22.4129 616.816 22.3748 616.53 22.2414C616.111 22.0318 615.634 21.784 615.348 21.4409C614.929 20.9454 614.662 20.3546 614.338 19.8019C614.148 19.4589 614.224 19.2111 614.51 18.9633C615.596 18.0295 615.329 16.9812 614.662 15.9521C613.938 14.8467 612.756 14.7704 611.555 14.8657C610.907 14.9229 609.878 15.8949 609.859 16.4476C609.84 17.7055 609.878 18.9633 609.859 20.2212C609.84 21.0407 609.154 21.7649 608.353 21.8984C606.714 22.1652 605.017 22.2795 603.416 22.7179C602.254 23.0419 601.186 23.3087 600.004 22.9847C599.719 22.9085 599.318 22.9275 599.051 23.0609C597.126 24.0139 595.201 24.9477 593.333 26.015C590.665 27.5206 587.844 28.283 584.756 27.9971C584.089 27.9399 583.536 27.5397 583.269 26.8727C583.212 26.7202 583.117 26.5868 583.079 26.4343C582.45 23.4421 580.658 21.2694 577.913 19.7447C577.627 19.5923 577.437 19.3064 577.151 19.1349C574.215 17.3243 571.204 16.1617 567.773 18.0485C567.22 18.3535 566.515 18.4487 565.886 18.6774C563.236 19.6685 560.663 20.793 558.357 22.432C557.156 23.2896 555.879 24.052 554.602 24.7953C553.725 25.3098 552.505 25.043 552.086 24.1282C551.571 23.0228 550.79 22.3176 549.665 21.8602C548.903 21.5553 548.14 21.2122 547.378 20.8692C546.482 20.4499 545.815 20.7548 545.129 21.3075C544.366 21.8984 544.29 21.8984 543.528 21.3457C542.975 20.9454 542.46 20.5642 541.736 20.793C541.221 20.9454 540.668 20.9835 540.325 20.6214C539.582 19.8781 538.61 19.7257 537.657 19.4779C537.295 19.3826 537.295 19.0777 537.504 18.7156C538.362 17.3052 538.343 16.6001 537.504 15.8568C537.371 15.7424 537.276 15.609 537.142 15.5328C535.236 14.4464 533.273 13.6269 530.986 14.1796C530.013 14.4083 529.022 14.5798 528.069 14.9038C527.459 15.1135 526.735 15.3803 526.373 15.8377C525.286 17.1909 524.181 17.3243 522.446 16.8478C520.731 16.3714 518.787 16.5048 516.976 16.5429C514.803 16.6001 512.63 16.8097 510.457 17.0575C508.303 17.2862 506.169 17.5911 503.996 16.9431C503.633 16.8288 503.043 17.1528 502.642 17.3815C502.414 17.5149 502.299 17.896 502.223 18.1819C502.204 18.2772 502.356 18.5059 502.49 18.5631C503.252 18.849 504.053 19.0777 504.796 19.4017C505.063 19.516 505.273 19.84 505.444 20.0878C505.616 20.3355 505.196 20.9835 504.72 21.1932C504.262 21.3838 503.748 21.46 503.309 21.6887C502.356 22.2033 501.994 23.0609 502.013 24.0901C502.013 24.8906 502.699 25.6338 503.576 25.691C504.224 25.7291 504.891 25.691 505.54 25.6529C505.54 25.6148 505.54 25.5576 505.559 25.5195L505.616 25.2717L505.54 25.6338C505.54 25.6338 505.54 25.6338 505.521 25.6338C505.349 26.3962 505.406 27.1204 505.883 27.7684C506.645 28.8166 507.446 29.8077 508.589 30.5319C509.047 30.8178 509.028 31.2943 508.704 31.7898C508.399 32.2281 507.846 32.4949 507.465 32.2281C506.416 31.542 505.368 31.3133 504.243 32.0566C503.557 32.4949 502.795 32.8571 502.147 33.3526C501.308 34.0006 500.431 34.2293 499.364 34.0387C498.544 33.8862 497.687 33.81 496.886 33.9053C495.704 34.0768 494.542 34.5342 494.179 35.7349C493.817 37.0118 493.055 37.4502 491.701 37.5645C489.224 37.7932 487.07 37.2405 485.259 35.6206C485.145 35.5253 484.992 35.43 484.84 35.3919C484.706 35.3728 484.516 35.3919 484.401 35.4871C484.287 35.5824 484.172 35.7349 484.172 35.8874C484.115 37.3549 484.592 38.689 485.202 40.0231C486.021 41.7574 486.746 43.5299 487.032 45.4357C487.108 45.9503 486.784 46.2743 486.136 46.2172C485.145 46.1219 484.192 46.0075 483.219 45.7216C480.246 44.8068 478.302 42.5579 475.862 40.957C475.786 40.8998 475.862 40.652 475.824 40.4996C475.405 39.2417 475.385 39.2417 474.28 39.8897C473.251 40.4805 472.774 40.4805 472.069 39.7944C471.764 39.4895 471.631 39.0321 471.421 38.6509C471.383 38.6699 471.345 38.689 471.287 38.7081C471.249 38.6699 471.211 38.6509 471.173 38.6128C470.792 38.6509 470.43 38.689 470.201 38.2697C470.334 38.2125 470.525 38.0791 470.582 38.1172C470.792 38.2697 470.982 38.4412 471.173 38.6128C471.249 38.6128 471.326 38.6128 471.383 38.6128C471.383 38.6128 471.383 38.6509 471.402 38.6699C471.955 38.4031 472.507 38.1744 473.003 37.8314C473.213 37.6789 473.365 37.2787 473.327 36.9928C473.194 35.8493 472.412 34.9726 471.669 34.153C471.116 33.5622 470.201 33.5051 469.343 33.4669C468.619 33.4288 468.466 33.2192 468.657 32.5712C468.829 31.9613 469.115 31.3895 468.543 30.8368C467.247 29.6171 465.989 28.3592 464.654 27.1966C463.625 26.3009 459.07 25.0811 457.583 25.1955C457.259 25.2146 456.878 25.2336 456.63 25.4051C455.944 25.8816 455.353 26.0341 454.419 25.7673C452.341 25.1764 450.149 25.0049 447.995 25.4814C447.385 25.6148 446.794 25.996 446.261 26.3581C445.231 27.0823 445.003 27.8828 445.555 28.8166C446.204 29.922 446.928 30.9703 447.614 32.0375C447.843 32.3806 447.671 33.1811 447.328 33.3145C445.346 34.0959 443.383 34.9344 441.343 35.5824C440.047 36.0017 438.751 35.8493 437.607 34.8582C436.864 34.1912 436.768 34.3055 435.949 34.8582C433.662 36.402 431.641 35.754 431.165 33.3526C431.107 33.0476 431.146 32.7236 431.069 32.4187C430.898 31.6754 429.983 31.1418 429.144 31.2943C426.533 31.8088 423.922 32.2853 421.329 32.838C420.357 33.0476 419.385 33.2763 418.489 33.6956C417.46 34.1721 416.507 34.8392 415.516 35.43C414.487 34.9535 413.457 34.477 412.409 34.0196C412.295 33.9625 412.142 34.0006 412.009 34.0196C411.951 34.2865 411.894 34.5723 411.799 34.8392C411.132 36.5354 409.188 37.1071 407.891 35.9064C407.434 35.4871 407.11 34.9154 406.786 34.3817C406.519 33.9243 406.157 33.6385 405.642 33.8862C404.88 34.2674 404.137 34.3627 403.279 34.2483C402.345 34.1149 401.716 34.6676 401.449 35.4871C401.297 35.9255 401.201 36.402 401.163 36.8594C401.125 37.5455 401.449 38.1172 402.097 38.365C402.65 38.5937 403.26 38.6699 403.851 38.8033C403.851 38.7843 403.851 38.7462 403.851 38.7271C403.908 38.689 403.946 38.6699 404.003 38.6318C404.003 38.4031 404.022 38.1744 404.117 38.0029C404.232 37.7932 404.499 37.6789 404.708 37.5264C404.746 37.6408 404.823 37.7742 404.785 37.8695C404.766 38.0029 404.689 38.1554 404.575 38.2506C404.384 38.4031 404.175 38.5175 403.984 38.6509C403.984 38.7271 403.984 38.7843 403.984 38.8605C403.946 38.8605 403.889 38.8415 403.832 38.8224C403.698 39.2608 403.679 39.7944 403.374 40.0422C402.459 40.7854 401.773 41.6812 401.22 42.6341C400.134 44.5019 398.399 45.207 396.264 45.3976C395.502 45.4548 395.178 45.2452 395.502 44.6543C395.979 43.7776 396.169 42.8819 396.245 41.929C396.341 40.8236 397.751 40.7283 398.113 39.8325C398.285 39.3942 398.666 38.8796 398.552 38.4984C398.113 36.9737 398.628 35.6777 399.314 34.3817C399.619 33.81 399.829 33.2001 399.676 32.5521C399.524 31.9041 399.6 31.3324 399.886 30.7225C400.572 29.274 401.373 27.8446 401.773 26.32C402.173 24.7953 402.288 23.2325 402.917 21.7268C403.469 20.3546 403.279 18.8871 402.65 17.553C401.983 16.1236 400.915 14.8657 400.629 13.2648C400.572 12.9789 400.343 12.5977 400.096 12.4834C398.304 11.7401 397.427 10.1392 396.169 8.90037C395.807 8.55732 395.273 8.57638 394.911 8.95755C394.606 9.28155 394.644 10.5013 393.787 9.45307C392.834 8.27144 391.537 7.58533 390.203 6.91828C389.021 6.34652 387.725 5.92723 386.639 5.22206C385.533 4.47878 384.542 4.32631 383.418 5.03148C381.454 6.27029 379.243 6.99451 377.051 7.7378C376.575 7.89027 376.289 8.48108 376.479 8.90037C376.67 9.33872 376.994 9.7199 377.185 10.1582C377.509 10.9968 377.242 11.6258 376.384 12.1594C375.431 12.7502 374.307 12.2928 374.173 11.2065C374.078 10.4251 374.135 9.64366 374.059 8.86226C373.982 8.08085 373.887 7.29945 373.697 6.53711C373.525 5.81288 372.496 5.22206 371.752 5.33641C371.104 5.45076 370.456 5.64135 369.827 5.81288C368.798 6.09876 367.864 5.81288 366.93 5.43171C366.225 5.12677 365.825 4.70748 365.977 3.98325C366.32 2.4395 365.31 1.6581 364.185 0.895755C362.298 1.1054 360.659 0.0571759 358.829 0C358.391 0 357.914 0.323997 357.514 0.571759C357.247 0.743286 357.018 1.02917 356.885 1.29599C355.551 3.92608 354.96 6.74675 355.208 9.58648C355.36 11.3589 355.265 13.4363 357.438 14.5608C358.429 15.0754 358.124 16.2761 358.486 17.1528C358.905 18.201 358.791 18.3344 357.914 18.4297C356.752 18.544 355.57 18.525 354.502 19.0967C354.026 19.3636 353.778 19.7257 353.873 20.2403C353.95 20.6977 354.236 21.2504 354.064 21.5934C353.588 22.6035 352.959 23.5374 352.33 24.4713C352.158 24.719 351.834 24.9096 351.548 25.024C350.481 25.4051 349.413 25.7863 348.327 26.1103C348.06 26.1865 347.869 25.9007 347.984 25.5004C348.136 24.8906 348.365 24.2997 348.517 23.6899C348.67 23.099 348.003 22.5082 347.297 22.5654C346.249 22.6416 345.239 22.8703 344.972 23.9757C344.801 24.6809 344.591 25.1193 343.79 25.1955C343.123 25.2527 342.475 25.4242 341.808 25.4623C340.683 25.5195 339.997 26.2247 339.311 26.8917C338.453 27.7684 338.415 28.2639 339.311 29.3503C339.692 29.8077 339.673 30.3413 339.311 30.551C338.034 31.2943 336.814 32.1138 335.48 32.7236C334.279 33.2763 333.097 33.7338 332.259 34.8392C331.496 35.8493 330.257 36.4782 329.838 37.7932C329.552 38.7081 328.904 39.5466 327.894 39.8325C326.521 40.2137 326.864 41.7384 325.873 42.3292C325.282 42.6913 325.016 43.2631 324.711 43.8348C324.139 44.9402 324.539 45.9694 324.787 47.0557C324.939 47.7609 325.359 48.0658 325.892 48.4661C327.074 49.3428 328.18 50.2195 329.666 50.6769C331.229 51.1724 332.792 51.8394 333.917 53.0783C334.107 53.2879 334.203 53.6691 334.165 53.9359C334.127 54.2027 333.898 54.5458 333.65 54.6792C332.945 55.0794 332.869 54.4886 332.697 54.0502C332.506 53.5738 332.22 53.1926 331.611 53.2688C330.962 53.3641 330.143 53.307 329.704 53.6691C328.122 54.9079 326.254 55.4606 324.425 56.242C322.595 57.0234 320.708 57.6523 318.802 58.205C318.173 58.3956 317.506 58.5481 316.896 58.7768C315.085 59.4438 314.57 60.8351 315.504 62.5694C315.885 63.2746 316.343 63.9417 316.877 64.5515C317.658 65.4092 318.249 66.3049 318.478 67.4484C318.592 68.0583 318.859 68.6873 319.24 69.1828C319.602 69.6783 320.117 70.1548 320.689 70.4216C321.928 71.0124 323.3 70.7646 324.634 70.8599C325.702 71.8319 326.769 72.8039 327.875 73.7378C328.103 73.9284 328.485 73.9474 328.809 74.0808C329.571 74.3858 330.353 74.6717 331.096 74.9957C331.725 75.2625 332.24 75.7008 332.373 76.3679C332.754 78.4072 333.402 80.3511 334.679 82.0664C335.003 82.5048 334.641 82.9431 334.184 83.2099C333.631 83.5339 333.078 83.8389 332.525 84.1629C332.544 84.201 332.583 84.2581 332.602 84.2963C332.525 84.4106 332.43 84.525 332.373 84.6393C332.335 84.7346 332.316 84.868 332.278 84.9824C332.354 84.7156 332.411 84.4487 332.468 84.1819C332.468 84.1819 332.487 84.1819 332.506 84.1629C332.373 83.9342 332.24 83.6864 332.068 83.4767C330.658 81.8568 330.276 80.1415 331.363 78.2166C331.515 77.9688 331.477 77.6067 331.515 77.2827C331.611 76.3869 330.638 75.3387 329.685 75.415C328.866 75.4721 328.027 75.5865 327.227 75.739C325.664 76.0439 324.272 75.8533 323.033 74.786C322.29 74.1571 321.47 73.5663 320.593 73.147C319.107 72.4609 317.582 71.7366 315.981 71.3745C314.342 71.0315 312.817 70.4788 311.216 70.0404C310.834 69.9261 310.186 70.1357 309.862 70.4216C309.1 71.0505 308.623 71.9082 308.604 72.8992C308.604 73.147 308.852 73.5282 309.081 73.6425C309.519 73.8521 310.034 73.8903 310.529 74.0046C310.491 73.9665 310.453 73.9284 310.396 73.8903L310.606 73.6425L310.529 74.0046C310.834 74.2905 311.139 74.5954 311.501 74.767C311.94 74.9766 312.474 74.9957 312.931 75.1672C313.522 75.3959 313.732 76.2345 313.427 76.7872C313.16 77.2636 312.664 77.4733 312.188 77.378C311.559 77.2446 310.968 76.9396 310.377 76.6919C309.919 76.5013 309.5 76.1392 309.024 76.082C308.337 76.0058 307.67 76.3298 307.289 76.8444C307.041 77.1874 306.832 77.8163 306.984 78.1403C307.842 79.9128 309.1 81.3041 311.197 81.9139C312.34 82.2379 313.427 82.5429 314.627 82.6001C315.104 82.6191 315.6 82.7906 316.057 82.9431C316.19 82.9812 316.305 83.1528 316.362 83.2862C316.476 83.6102 316.267 83.877 315.905 83.7245C315.123 83.4005 314.361 83.0956 313.503 83.229C311.997 83.4577 310.491 83.3052 309.005 83.1909C308.128 83.1146 307.384 82.8097 306.965 82.0283C306.813 81.7424 306.698 81.4375 306.527 81.1707C305.459 79.5507 304.487 77.9498 304.373 75.9295C304.277 74.3286 303.496 72.8802 302.467 71.5842C302.181 71.2221 301.742 70.9552 301.342 70.6884C301.247 70.6312 301.037 70.6312 300.923 70.6884C300.789 70.7646 300.618 70.9552 300.637 71.0505C301.037 72.2512 301.476 73.4329 301.857 74.6526C302.143 75.6055 302.047 76.5394 301.476 77.397C301.304 77.6639 301.132 77.9497 300.923 78.1975C300.122 79.0933 299.665 80.0081 300.065 81.2469C300.427 82.2951 299.703 83.553 300.446 84.4869C301.132 85.3636 302.085 86.0497 302.943 86.812C303.553 87.3456 304.144 87.8984 304.792 88.3939C305.745 89.1562 306.26 90.0901 306.279 91.2717C306.298 92.5296 306.298 93.7875 306.508 95.0644C306.908 97.5039 308.49 99.3907 309.443 101.563C309.729 102.192 310.453 102.345 311.158 102.307C312.512 102.23 313.751 101.983 314.704 100.858C315.752 99.6003 317.086 100.039 318.325 100.649C318.459 100.725 318.63 100.877 318.649 100.992C318.649 101.087 318.459 101.239 318.344 101.316C317.01 102.269 315.619 103.164 314.342 104.155C313.16 105.089 312.988 106.938 313.922 108.024C314.456 108.634 315.104 109.149 315.6 109.797C316.324 110.731 316.648 111.855 316.19 112.941C315.561 114.447 315.295 115.953 315.352 117.573C315.371 118.316 315.085 119.174 314.666 119.822C313.674 121.289 312.493 122.623 312.188 124.415C312.15 124.586 311.635 124.853 311.368 124.815C309.386 124.624 307.403 124.396 305.421 124.148C305.116 124.11 304.64 123.957 304.582 123.786C304.468 123.366 304.525 122.909 304.525 122.452C304.506 122.452 304.487 122.433 304.449 122.414C304.087 122.414 304.049 122.299 304.335 122.128C304.392 122.204 304.449 122.299 304.506 122.394V122.452C304.926 122.661 305.345 122.89 305.783 123.042C307.499 123.671 308.738 123.195 309.424 121.651C310.663 118.85 311.254 115.895 311.768 112.922C311.845 112.484 311.768 111.931 311.54 111.55C310.853 110.407 310.548 109.244 310.777 107.91C310.93 107.071 310.472 106.385 309.748 105.89C309.062 105.413 308.356 104.994 307.689 104.537C306.717 103.869 306.05 102.993 305.65 101.887C304.354 98.2853 302.905 94.7404 301.761 91.1002C301.056 88.8703 299.932 87.0788 297.93 85.7638C296.92 85.0967 296.386 84.1247 296.405 82.9241C296.444 79.7222 295.891 76.6156 295.052 73.5282C294.881 72.8992 294.442 72.3846 293.775 72.1559C291.221 71.2792 288.686 70.5931 285.941 71.527C285.35 71.7176 284.588 71.4126 283.959 71.5651C283.578 71.6604 283.082 72.1178 283.006 72.499C282.834 73.2613 282.853 74.0618 282.872 74.8623C282.968 77.397 283.12 79.9318 283.234 82.4666C283.292 83.7817 283.063 84.9824 282.11 86.0116C281.062 87.1551 280.718 88.451 280.814 89.9757C280.89 90.9858 280.985 91.8244 281.957 92.4343C282.815 92.9679 283.616 93.7112 283.806 94.626C284.073 95.9792 285.121 97.2561 284.378 98.7427C284.245 98.9905 284.264 99.4098 284.378 99.6575C285.083 100.915 285.846 102.135 286.627 103.336C286.703 103.431 287.237 103.374 287.466 103.241C288.266 102.783 289.048 102.669 289.715 103.393C291.03 104.841 292.345 106.252 294.404 106.804C294.633 106.862 294.842 107.319 294.842 107.605C294.881 108.386 294.842 109.168 294.766 109.968C294.728 110.464 294.099 110.75 293.642 110.464C292.669 109.854 291.697 109.225 290.725 108.615C290.02 108.177 289.372 107.662 288.61 107.357C287.39 106.843 286.094 106.5 284.855 106.042C283.787 105.642 282.72 105.165 281.671 104.708C280.089 104.994 279.365 103.584 278.183 103.069C275.82 102.078 273.475 101.449 270.883 101.906C270.559 101.964 270.216 102.04 269.892 102.04C267.014 102.04 264.25 101.716 261.925 99.81C260.8 98.8952 259.485 98.1709 258.227 97.3895C257.903 97.1799 257.14 97.4467 256.912 97.8279C256.835 97.9613 256.721 98.0947 256.683 98.2281C256.225 99.5813 256.683 100.706 257.827 101.582C259.123 102.573 261.029 102.593 262.058 104.022C262.21 104.232 262.668 104.289 262.973 104.327C263.678 104.441 264.231 104.784 264.65 105.28C265.603 106.385 266.499 107.51 267.414 108.653C267.833 109.187 267.776 109.93 267.242 110.368C266.251 111.169 265.031 111.779 264.688 113.132C264.669 113.227 264.383 113.342 264.326 113.323C264.078 113.17 263.735 113.018 263.64 112.77C263.411 112.179 263.373 111.531 263.125 110.959C262.801 110.178 261.734 109.74 261.067 110.044C259.866 110.559 258.837 111.455 257.369 111.283C257.236 111.283 257.026 111.417 256.969 111.531C256.454 112.77 255.406 113.037 254.148 112.96C252.909 112.884 251.689 113.265 250.965 114.104C250.069 115.171 248.715 115.381 247.648 116.086C247.305 116.315 246.714 116.162 246.219 116.181C246.219 115.895 246.161 115.591 246.219 115.305C246.466 113.99 245.952 112.922 245.056 111.969C243.95 111.874 243.093 112.141 242.73 113.265C242.654 113.494 242.292 113.837 242.082 113.818C241.053 113.78 240.824 114.79 240.119 115.076C239.376 115.4 238.518 115.514 237.717 115.705C236.536 115.991 235.678 116.639 234.877 117.535C233.048 119.574 231.18 121.632 228.74 123.081C228.13 123.443 227.844 123.957 227.749 124.624C227.653 125.406 227.52 126.187 227.329 126.969C227.253 127.254 227.024 127.54 226.796 127.75C225.442 129.008 222.774 129.16 221.783 128.093C221.116 127.388 220.372 126.74 219.686 126.054C219.057 125.425 219.057 124.453 219.743 123.957C220.525 123.385 221.402 122.909 222.221 122.394C222.717 122.07 222.85 121.175 222.412 120.698C221.764 119.974 221.02 119.345 220.448 118.583C219.362 117.115 217.856 116.543 216.103 116.867C214.749 117.115 213.472 117.058 212.176 116.848C212.043 116.829 211.871 116.944 211.776 117.039C211.528 117.268 211.528 117.611 211.852 117.839C214.254 119.536 214.959 121.842 214.559 124.548C214.463 125.177 214.406 125.806 214.406 126.435C214.406 127.083 214.654 127.731 215.302 128.017C216.541 128.569 216.922 129.541 216.922 130.723C216.922 131.352 216.865 131.981 216.789 132.61C216.713 133.22 215.969 133.83 215.397 133.715C214.425 133.525 213.415 133.353 212.462 133.124C211.032 132.762 209.851 132.896 208.936 134.154C208.478 134.802 207.868 135.392 207.201 135.831C206.21 136.479 205.562 137.355 204.876 138.27C203.408 140.214 202.455 140.977 205.028 143.569C205.257 143.797 205.41 144.083 205.543 144.369C205.867 145.017 205.6 145.608 205.238 146.141C204.857 146.713 204.056 147.037 203.523 146.77C201.178 145.589 198.452 145.131 196.337 143.492C195.975 143.226 195.403 143.206 194.907 143.073C194.488 142.959 193.84 143.226 193.668 143.626C193.42 144.198 193.173 144.807 192.944 145.398C192.677 146.065 192.868 146.675 193.306 147.171C194.297 148.257 195.384 149.248 197.061 149.267C197.366 149.267 197.69 149.439 197.976 149.591C198.491 149.839 198.605 150.296 198.605 150.792C198.605 151.535 197.69 152.316 196.947 152.202C195.288 151.954 193.63 151.745 192.505 150.334C191.857 149.534 190.828 149.362 189.856 149.134C189.17 148.962 188.655 148.524 188.503 147.876C188.141 146.485 187.683 145.131 186.806 143.95C186.196 143.13 186.273 142.215 186.406 141.224C186.692 138.861 185.93 137.66 183.642 136.784C182.708 136.422 181.831 136.117 181.164 135.335C177.924 131.619 174.97 131.066 183.032 134.077C186.597 135.392 190.275 136.345 194.068 136.955C196.966 137.413 199.729 137.031 202.398 135.926C202.855 135.735 203.313 135.507 203.656 135.164C205.276 133.506 206.515 131.638 206.782 129.351C206.858 128.76 206.782 127.998 206.42 127.54C205.371 126.149 204.628 124.491 202.779 123.729C202.055 123.424 201.464 122.776 200.854 122.242C200.111 121.575 199.367 121.213 198.281 121.041C196.68 120.774 195.155 120.088 193.802 119.04C192.525 118.03 191.095 117.191 189.665 116.391C185.548 114.085 184.367 113.78 179.716 113.799C179.049 113.799 178.401 114.066 177.733 114.066C176.914 114.066 176.075 113.951 175.275 113.78C174.55 113.627 174.836 113.151 175.008 112.713C175.198 112.236 175.084 111.722 174.665 111.417C174.131 111.055 173.54 110.75 172.93 110.483C172.282 110.178 171.634 110.197 171.119 110.731C170.376 111.474 169.594 111.969 168.47 111.531C167.498 111.169 166.526 111.264 165.515 111.436C165.115 111.493 164.601 111.188 164.219 110.921C163.991 110.769 163.857 110.407 163.781 110.102C163.705 109.778 163.953 109.587 164.372 109.568C165.23 109.549 166.011 109.358 166.697 108.825C167.326 108.31 167.974 107.815 168.622 107.3C168.965 107.014 168.813 106.366 168.375 106.118C166.202 104.899 163.8 104.251 161.436 103.526C161.093 103.431 160.541 103.812 160.14 104.06C159.893 104.232 159.74 104.556 159.549 104.822C159.321 105.165 159.073 105.28 158.863 105.089C158.749 104.994 158.673 104.822 158.673 104.67C158.673 104.193 158.749 103.717 158.73 103.26C158.711 102.421 158.139 101.735 157.338 101.506C156.633 101.316 156.042 101.582 155.509 102.021C155.013 102.44 154.613 102.917 154.537 103.603C154.498 104.06 154.346 104.537 154.117 104.956C153.984 105.185 153.622 105.299 153.336 105.413C153.279 105.432 153.031 105.223 153.012 105.089C152.821 104.289 152.592 103.603 151.449 103.66C150.82 103.698 150.839 103.069 150.724 102.65C150.419 101.544 149.371 101.297 148.933 101.906C148.037 103.126 146.264 103.183 145.483 104.46C144.129 104.651 143.272 105.718 142.033 106.118C141.899 106.157 141.747 106.176 141.594 106.195C141.594 106.233 141.594 106.252 141.594 106.29L141.385 106.5L141.537 106.214C141.537 106.214 141.575 106.214 141.594 106.214C141.651 105.966 141.613 105.718 141.499 105.47C141.366 105.432 141.232 105.375 141.099 105.375C138.983 105.337 138.754 105.585 139.25 107.395C139.326 107.662 139.345 107.929 139.383 108.215C139.421 108.215 139.479 108.215 139.517 108.215L139.707 108.444L139.402 108.329C139.402 108.329 139.402 108.253 139.383 108.215C137.363 108.1 135.705 109.13 133.951 109.854C133.798 109.911 133.779 110.426 133.818 110.712C133.875 111.15 134.199 111.626 134.084 112.007C133.932 112.56 133.246 112.274 132.807 112.389C132.026 112.617 131.244 112.865 130.463 113.094L130.577 113.018H130.482C130.52 112.579 130.596 112.141 130.539 111.722C130.463 111.188 129.948 110.959 129.434 110.921C129.224 110.921 128.785 111.302 128.824 111.398C128.995 111.95 129.281 112.484 129.529 113.018H129.434L129.567 113.094C128.137 112.999 127.127 113.57 126.555 114.771H126.613C126.422 114.657 126.975 115.286 126.479 114.885C126.498 114.847 126.536 114.809 126.555 114.771C126.079 114.771 125.583 114.771 125.107 114.809C124.211 114.866 123.544 115.247 123.22 116.105C122.858 117.077 122.839 117.973 123.811 118.659C124.078 118.85 124.363 119.021 124.592 119.231C124.935 119.536 124.821 120.088 124.344 120.431C123.811 120.794 123.296 121.289 122.553 120.965C121.733 120.622 120.932 120.736 120.094 120.889C119.56 120.965 119.103 120.412 119.274 119.974C119.56 119.231 119.865 118.506 120.132 117.763C120.151 117.687 119.979 117.477 119.865 117.42C119.77 117.363 119.522 117.344 119.465 117.42C118.302 118.545 117.139 119.65 116.034 120.832C115.653 121.232 116.034 121.689 116.32 122.07C116.815 122.699 116.644 123.214 116.053 123.729C115.843 123.9 115.748 124.167 115.615 124.415C116.224 124.415 116.834 124.472 117.425 124.377C118.569 124.167 119.694 123.767 120.837 123.614C121.466 123.519 122.152 123.709 122.819 123.805C122.934 123.805 123.029 123.919 123.144 123.976C123.029 124.091 122.915 124.224 122.781 124.281C122.19 124.586 121.619 124.891 121.009 125.158C120.704 125.291 120.361 125.31 120.037 125.387C119.16 125.539 119.122 126.092 119.35 126.759C118.855 127.102 118.15 127.369 117.921 127.845C117.692 128.341 117.959 129.065 117.902 129.675C117.711 131.371 113.842 134.973 113.708 135.583C113.518 136.498 112.679 137.298 112.565 138.175C112.47 139.033 112.47 139.642 111.497 139.986C111.002 140.157 110.773 140.614 110.907 141.129C111.154 142.063 111.269 142.959 110.907 143.912C110.563 144.788 110.506 145.76 110.278 146.675C110.201 146.961 103.32 153.784 102.558 155.633C102.386 156.071 102.215 156.528 101.948 156.929C101.586 157.5 101.033 157.843 100.29 157.786C99.6417 157.748 98.9745 157.615 98.3265 157.558C98.193 157.558 97.9834 157.653 97.8881 157.767C97.6212 158.034 97.6403 158.339 97.8881 158.625C98.0024 158.739 98.1359 158.835 98.2312 158.968C98.5171 159.425 98.4218 160.111 98.0215 160.15C96.4967 160.283 95.6389 161.903 93.9806 161.693C92.9323 162.437 91.884 163.18 90.8547 163.942C90.7594 164.018 90.7403 164.247 90.7784 164.4C91.0072 165.467 90.34 165.753 89.4251 165.924C88.7771 166.039 88.129 166.21 87.5572 166.496C87.1569 166.706 86.7757 167.125 86.6613 167.525C86.4707 168.116 86.6041 168.764 86.4707 169.374C86.1276 171.051 86.8901 172.824 86.0323 174.482C85.9751 174.596 86.0895 174.787 86.1276 174.92C86.4898 176.14 87.4809 177.036 88.0146 178.16C88.3577 178.884 88.7961 179.57 88.9867 180.333C89.1011 180.714 88.9105 181.267 88.6818 181.648C88.3387 182.181 87.805 182.582 87.4238 183.077C87.195 183.363 87.4047 184.182 87.7478 184.354C88.1862 184.564 88.6627 184.697 89.1011 184.888C89.6538 185.116 89.8635 185.593 89.5585 185.955C89.1583 186.45 88.7008 186.908 88.3005 187.422C87.9956 187.823 88.1481 188.871 88.5293 189.195C90.2447 190.739 92.1889 191.92 94.4381 192.645C94.7431 192.74 95.1243 192.854 95.3911 192.759C97.4116 192.111 99.6417 191.806 100.938 189.843C101.471 189.042 102.101 188.261 102.863 187.689C104.159 186.755 106.008 186.508 106.751 184.85C106.77 184.811 107.056 184.792 107.133 184.85C107.628 185.25 108.314 185.612 108.524 186.146C108.848 187.003 108.772 188.013 109.02 188.909C109.325 189.976 110.049 190.967 110.144 192.035C110.297 193.864 111.25 195.275 112.145 196.799C112.965 198.191 113.728 199.582 114.795 200.821C115.176 201.259 114.928 201.697 114.795 202.136C114.662 202.555 114.547 202.974 114.433 203.394C114.471 203.394 114.49 203.394 114.528 203.394C114.547 203.489 114.528 203.584 114.547 203.679C114.814 203.984 115.138 204.289 115.271 204.651C116.51 207.834 117.082 206.977 119.846 206.653C120.589 206.557 120.952 206.024 121.085 205.357C121.295 204.27 122.057 203.756 123.144 203.584C123.639 203.508 124.135 203.413 124.63 203.432C126.06 203.47 127.28 203.222 127.928 201.831C130.215 202.212 130.082 200.478 130.444 199.201C130.52 198.915 130.52 198.572 130.463 198.248C130.387 197.714 130.082 197.447 129.472 197.6C129.319 197.638 129.11 197.657 128.995 197.6C128.881 197.543 128.786 197.352 128.786 197.219C128.786 195.637 128.633 194.074 129.186 192.53C129.434 191.806 129.567 190.986 129.548 190.205C129.51 188.757 130.348 187.842 131.492 187.118C132.312 186.584 133.246 186.184 133.989 185.555C134.847 184.811 135.533 183.916 135.381 182.658C135.323 182.048 135.571 181.419 135.552 180.809C135.552 180.352 135.457 179.837 135.19 179.475C134.065 177.912 132.922 176.368 130.958 175.587C129.948 175.187 129.51 174.253 129.51 173.262C129.529 170.727 129.605 168.211 129.719 165.677C129.719 165.238 129.986 164.762 130.234 164.362C131.626 162.208 133.169 160.207 135.438 158.758C136.524 158.072 137.496 157.176 138.449 156.3C140.336 154.546 140.279 154.508 141.404 152.012C141.766 151.23 141.785 150.525 141.594 149.725C141.175 147.876 141.575 145.722 142.395 144.293C143.253 142.825 144.263 141.625 146.302 142.063C148.704 141.663 150.953 142.101 153.088 143.149C153.698 143.454 154.06 144.884 153.507 145.208C152.764 145.646 152.173 145.989 152.173 146.961C152.173 147.552 151.849 148.2 151.487 148.695C149.905 150.906 148.513 153.288 146.626 155.309C146.074 155.899 145.521 156.471 145.254 157.253C144.892 158.339 144.034 158.625 142.909 158.549C142.3 158.491 141.937 158.835 142.033 159.406C142.166 160.207 142.033 160.95 141.804 161.731C141.632 162.303 141.709 162.989 141.804 163.58C141.918 164.19 142.242 164.781 142.395 165.391C143.005 167.83 143.824 170.27 143.386 172.843C143.31 173.3 143.424 173.776 143.481 174.253C143.596 175.092 144.034 175.682 144.892 176.044C145.502 176.292 146.035 176.673 146.607 176.997V176.959C146.607 176.959 146.531 176.902 146.493 176.883L146.817 176.731L146.626 176.978C147.008 177.226 147.427 177.569 147.77 177.531C148.933 177.398 149.619 177.817 150.172 178.732C150.763 179.723 151.792 179.799 152.783 179.513C153.736 179.246 154.651 178.846 155.547 178.427C158.558 177.016 161.703 176.14 165.096 176.121C166.259 176.121 167.402 175.892 168.565 175.816C168.87 175.797 169.385 175.892 169.442 176.064C170.052 177.531 171.71 177.169 172.74 177.855C172.873 177.95 173.064 177.988 173.159 178.084C173.235 178.16 173.292 178.389 173.254 178.408C172.701 178.751 172.149 179.132 171.558 179.399C170.643 179.799 169.594 180.066 169.08 180.904C167.974 182.658 166.583 182.601 164.829 181.972C163.743 181.591 162.58 181.457 161.436 181.247C160.96 181.171 160.426 181.095 159.988 181.228C158.406 181.667 156.805 182.143 155.261 182.715C153.622 183.325 152.459 184.354 152.325 186.165C152.268 187.06 151.639 187.556 150.801 187.804C150.172 187.994 149.505 188.09 148.875 188.28C147.617 188.68 147.427 189.519 148.323 190.853C148.38 190.948 148.475 191.025 148.532 191.12C149.981 191.063 150.915 190.129 151.944 189.366C152.669 188.833 152.974 188.852 153.717 189.366C154.251 189.748 154.746 190.186 155.337 190.472C155.833 190.72 156.176 191.082 156.195 191.539C156.271 192.797 156.29 194.074 156.252 195.332C156.233 196.037 155.642 196.513 155.013 196.704C154.613 196.818 153.984 196.628 153.66 196.342C152.916 195.713 152.325 194.932 151.677 194.207C150.953 193.426 150.496 193.331 149.485 193.617C148.132 194.017 147.065 194.665 146.588 196.018C146.264 196.914 145.845 197.79 145.54 198.686C145.14 199.906 144.949 201.126 145.254 202.422C145.616 203.965 145.845 205.528 146.074 207.11C146.112 207.339 145.864 207.758 145.616 207.872C144.873 208.215 144.091 208.482 143.31 208.749C142.452 209.054 142.014 209.569 141.88 210.483C141.651 212.027 138.583 212.275 137.763 211.112C137.592 210.845 137.42 210.56 137.268 210.293C136.829 209.473 136.048 209.206 135.19 209.283C133.513 209.435 131.911 209.854 130.444 210.693C128.461 211.837 126.479 213.037 124.344 213.933C123.639 214.238 123.182 215.057 122.515 215.496C122.171 215.725 121.39 215.839 121.142 215.629C120.284 214.943 119.484 214.124 118.817 213.266C118.588 212.961 118.798 212.332 118.741 211.875C118.683 211.455 117.921 211.131 117.578 211.398C116.796 211.97 116.091 212.542 114.966 212.637C113.442 212.751 112.222 213.723 110.907 214.429C110.716 214.543 110.22 214.429 110.049 214.257C109.477 213.685 109.02 213.037 108.124 212.847C107.342 212.675 106.389 212.58 105.836 212.122C105.265 211.646 105.055 210.75 104.769 210.007C104.693 209.797 104.845 209.473 104.941 209.206C104.979 209.13 105.246 209.073 105.36 209.13C106.732 209.664 108.2 209.816 109.439 210.826C110.811 211.951 112.279 211.398 113.118 209.874C114.185 207.949 114.757 205.928 114.471 203.737C114.414 203.679 114.376 203.622 114.318 203.565C114.318 203.527 114.337 203.489 114.357 203.451C112.584 203.355 111.231 204.175 110.011 205.28C109.572 205.681 109.458 206.443 109.82 207.034C110.144 207.586 110.602 208.063 110.926 208.616C111.04 208.806 110.964 209.302 110.811 209.397C110.583 209.511 110.22 209.397 109.934 209.321C109.782 209.283 109.629 209.187 109.515 209.092C108.352 208.215 108.028 206.576 106.484 205.986C106.351 205.928 106.351 205.433 106.408 205.147C106.58 203.984 107.19 203.146 108.371 202.65C108.753 202.498 108.715 202.117 108.448 201.831C108.333 201.716 108.238 201.564 108.105 201.507C106.446 200.725 106.103 199.506 106.751 197.943C107.056 197.2 107.266 196.437 107.152 195.637C107.094 195.198 106.58 194.684 106.179 194.779C105.855 194.855 105.493 194.855 105.207 195.008C103.339 196.018 101.986 197.752 99.8513 198.419C99.6226 198.496 99.3939 198.934 99.3939 199.201C99.432 201.049 97.9834 202.746 98.8411 204.671C98.9364 204.88 98.6886 205.261 98.5933 205.547C98.3646 206.214 98.5171 206.767 98.9936 207.282C99.3176 207.644 99.756 208.006 99.8323 208.425C100.271 210.426 101.052 212.332 101.167 214.409C101.224 215.496 99.6798 217.097 98.6314 216.811C97.2781 216.449 96.0583 216.525 94.7812 217.211C93.771 217.745 92.6464 218.164 91.5218 218.374C89.9969 218.66 88.7389 219.422 87.4047 220.07C86.1467 220.68 85.3843 221.556 84.9649 222.891C83.6116 227.141 83.5735 227.141 80.0854 229.752C79.3229 230.323 78.3508 230.666 77.5312 231.181C77.131 231.429 76.7879 231.848 76.5973 232.248C76.3304 232.82 76.2732 233.468 76.0636 234.078C75.7586 235.05 75.0533 235.698 74.0241 236.003C73.5475 236.155 73.052 236.232 72.5755 236.403C71.7749 236.67 71.1268 237.108 70.7266 237.89C70.1738 238.9 69.1636 238.938 68.1343 238.824C67.2766 238.728 66.5904 238.347 65.9042 237.852C65.5611 237.604 64.9893 237.585 64.5128 237.547C64.0363 237.528 63.4454 238.118 63.5216 238.461C63.7503 239.376 64.0172 240.291 64.2078 241.206C64.3603 241.854 63.8266 242.368 63.0642 242.426C61.8824 242.502 60.7578 242.483 59.6523 241.968C59.0995 241.72 58.3371 241.625 57.7272 241.759C56.431 242.006 55.154 242.445 53.8769 242.826C53.4576 242.94 53.0763 243.55 53.1526 243.95C53.4385 245.513 53.5529 247.114 55.9164 247.209C56.8694 247.247 57.7462 247.972 58.7183 248.2C60.3575 248.562 61.444 249.515 61.9396 250.907C62.4542 252.355 63.331 253.441 64.6653 254.185C65.6755 254.737 65.9804 255.595 65.9233 256.586C65.7898 259.102 65.6755 261.618 65.4467 264.133C65.3705 265.067 65.0083 265.982 64.7034 266.878C64.4365 267.697 63.1595 268.536 62.3017 268.193C60.5481 267.507 58.6421 268.422 56.9266 267.602C56.5263 267.411 55.8973 267.373 55.4589 267.507C53.7816 268.078 52.1233 267.831 50.5413 267.392C48.7496 266.897 47.015 266.554 45.1471 266.973C44.6706 267.068 44.1178 267.068 43.6604 266.916C41.6018 266.211 39.7529 266.211 38.2471 268.021C37.9803 268.326 37.3322 268.326 36.8557 268.498C36.5507 268.612 36.2457 268.746 35.9408 268.879C35.388 269.146 34.9496 270.003 35.2165 270.48C36.1123 272.043 36.6651 273.644 36.2457 275.435C36.2076 275.569 36.322 275.74 36.341 275.893C37.1035 279.457 36.4173 282.811 34.7971 286.051C34.3778 286.908 34.0156 287.785 33.6916 288.681C33.4629 289.291 33.4438 289.996 33.9013 290.491C35.388 292.13 36.0361 293.998 35.7883 296.152C35.7502 296.457 35.7883 296.8 35.9026 297.086C36.017 297.372 36.2076 297.753 36.4554 297.829C37.7134 298.191 38.9142 298.839 40.3247 298.477C40.9537 298.305 41.6399 298.229 42.307 298.229C43.1838 298.229 43.9653 298.534 44.48 299.22C45.1471 300.116 45.7189 301.107 46.386 302.003C47.0722 302.918 48.578 303.242 49.531 302.727C50.2554 302.346 50.9797 301.927 51.6659 301.469C53.3813 300.307 55.2302 299.868 57.3459 300.021C58.8327 300.116 60.3385 299.925 61.8443 299.849C62.7401 299.811 63.4454 299.43 63.941 298.725C64.5318 297.886 65.2943 297.353 66.3045 297.048C67.3338 296.743 67.9628 296.133 68.3059 295.123C68.7633 293.75 69.5257 292.531 70.6313 291.502C71.165 291.025 71.4128 290.32 70.9553 289.786C69.0111 287.537 70.0404 285.708 71.7749 283.935C72.2324 283.459 72.6517 282.982 73.0901 282.506C74.4053 281.096 75.568 279.476 77.8172 279.342C80.0663 278.351 81.7818 277.017 81.839 274.406C81.858 273.453 82.0105 272.519 82.1439 271.585C82.2011 271.128 82.3155 270.651 82.468 270.194C82.8301 269.051 84.355 268.021 85.5177 268.25C87.7668 268.688 90.1685 268.612 92.1889 270.003C93.0657 270.613 94.2475 270.366 94.9146 269.565C96.2107 268.021 97.7356 266.916 99.7179 266.306C100.309 266.115 100.823 265.601 101.262 265.143C102.425 263.886 103.759 263.752 105.341 264.324C106.808 264.858 107.99 265.639 108.676 267.03C109.248 268.174 109.858 269.279 110.449 270.404C112.508 272.195 114.662 273.91 116.453 275.969C117.768 277.474 119.446 278.58 121.428 279.018C123.83 279.552 125.374 281.286 127.356 282.372C127.985 283.573 129.09 284.259 130.291 284.85C130.711 285.06 131.13 285.422 131.321 285.822C131.835 286.985 132.255 288.204 132.674 289.405C132.769 289.672 132.75 290.034 132.674 290.32C132.197 291.673 131.778 292.893 129.834 293.217C126.879 293.731 123.944 294.284 120.913 293.998C120.456 293.96 119.941 294.17 119.503 294.379C119.255 294.494 119.026 294.837 118.969 295.123C118.912 295.409 118.969 295.866 119.16 295.98C120.132 296.59 121.142 297.124 122.171 297.638C124.23 298.649 126.308 299.64 128.404 300.631C128.747 300.802 129.491 300.459 129.643 300.059C129.834 299.621 130.044 299.163 130.063 298.706C130.063 298.077 129.834 297.467 129.834 296.838C129.834 295.904 130.653 295.085 131.759 295.142C132.903 295.199 133.722 294.856 134.256 293.96C135.076 292.588 135.857 291.197 136.639 289.805C137.153 288.891 137.058 287.976 136.467 287.099C136.2 286.699 135.781 286.318 135.705 285.898C135.609 285.307 135.666 284.64 135.838 284.05C136.124 283.097 137.42 282.639 138.297 283.192C139.116 283.707 139.784 284.412 140.584 284.945C140.737 285.041 141.27 284.907 141.423 284.736C142.109 283.897 142.052 282.582 141.289 282.163C138.678 280.772 136.505 278.637 133.532 277.875C132.521 277.608 132.312 276.979 132.235 276.14C132.197 275.874 131.95 275.511 131.702 275.435C131.073 275.225 130.425 275.092 129.758 275.073C128.118 275.016 126.879 274.254 125.888 273.148C125.145 272.31 124.306 271.433 123.887 270.442C123.086 268.593 121.581 267.354 120.113 266.077C119.503 265.544 118.721 265.201 118.073 264.705C117.273 264.057 116.873 263.199 116.911 262.189C116.93 261.408 117.025 260.627 117.063 259.845C117.082 259.312 117.425 258.949 117.864 258.74C118.607 258.378 119.37 258.073 120.17 257.844C120.38 257.787 120.894 258.035 120.952 258.225C121.199 258.968 121.257 259.769 121.542 260.493C121.771 261.084 122.305 261.77 122.991 261.58C124.116 261.275 124.764 262.342 125.793 262.208C126.574 262.094 127.146 262.609 127.337 263.199C127.985 265.334 129.605 266.649 131.435 267.774C132.941 268.707 134.313 269.946 136.295 269.965C137.096 270.537 137.763 271.28 138.83 271.414C140.069 271.585 140.927 272.367 141.766 273.148C142.7 274.044 143.538 275.035 144.472 275.95C144.987 276.445 145.159 276.96 145.101 277.646C145.025 278.58 145.14 279.533 145.063 280.486C144.949 282.163 145.197 283.649 146.798 284.659C146.931 284.736 147.065 284.945 147.027 285.06C146.55 286.47 147.617 287.004 148.571 287.671C149.371 288.223 150.019 288.967 150.743 289.615C150.953 291.025 152.592 291.787 152.669 293.274C153.126 293.655 153.145 293.789 152.669 294.17C152.669 294.513 152.688 294.875 152.707 295.218C154.06 296.095 155.28 297.048 155.585 298.744C155.661 299.106 156.195 299.506 156.614 299.678C157.834 300.192 159.111 300.535 160.503 300.402C161.093 300.345 161.551 300.059 161.303 299.525C160.522 297.962 162.332 296.99 162.199 295.599C162.199 295.542 162.504 295.39 162.618 295.428C163.895 295.828 164.753 294.818 165.84 294.57C166.183 294.494 166.297 294.189 166.183 293.827C165.801 292.588 165.325 291.406 164.086 290.701C163.514 290.377 162.809 290.11 162.447 289.634C161.17 287.976 159.988 286.241 158.825 284.507C158.673 284.278 158.711 283.897 158.692 283.592C158.692 283.44 158.749 283.287 158.806 283.154C158.997 282.811 159.283 282.773 159.626 283.04C159.874 283.249 160.102 283.497 160.35 283.688C161.818 284.85 163.152 284.507 163.8 282.849C164.029 282.258 164.219 281.648 164.543 281.115C164.658 280.905 165.153 280.714 165.363 280.791C166.011 281.038 166.602 281.21 167.193 280.714C168.032 279.99 169.061 280.066 170.052 280.2C171.482 280.371 172.511 281.439 172.549 282.754C172.606 284.659 172.625 286.546 172.034 288.395C171.92 288.776 172.454 289.329 172.93 289.329C173.426 289.329 173.921 289.291 174.417 289.272C174.588 289.272 174.76 289.215 174.912 289.272C175.046 289.329 175.256 289.462 175.275 289.577C175.313 289.882 175.351 290.244 175.198 290.472C174.627 291.387 173.445 291.273 172.606 291.749C172.473 291.826 172.32 291.921 172.244 292.054C172.091 292.397 172.206 292.702 172.549 292.874C173.14 293.179 173.731 293.446 174.322 293.75C174.76 293.979 175.275 294.132 175.637 294.437C176.209 294.932 174.912 295.523 175.541 295.923C176.38 296.457 177.257 296.971 177.676 297.848C178.134 298.782 179.01 299.239 179.735 299.887C180.249 300.364 180.878 300.478 181.584 300.288C183.032 299.925 184.195 300.326 185.11 301.469C185.396 301.831 185.891 302.06 186.311 302.289C186.597 302.441 186.959 302.594 187.264 302.556C188.903 302.346 190.657 302.308 191.743 300.859C192.582 299.754 193.668 299.773 194.869 300.04C196.032 300.307 197.061 300.859 197.9 301.641C199.253 302.918 200.854 302.975 202.57 302.651C204.437 302.308 205.981 301.507 207.22 300.097C207.64 299.621 208.326 299.373 209.05 299.64C210.289 300.116 211.604 299.964 212.9 300.078C212.9 300.04 212.9 300.002 212.919 299.964L213.034 299.811L212.996 300.078C212.996 300.078 212.919 300.078 212.881 300.078C212.29 301.736 212.443 303.451 212.748 305.128C213.053 306.729 212.977 308.292 212.519 309.836C212.157 311.056 211.738 312.256 211.28 313.438C210.67 315.077 209.794 316.602 209.489 318.355C209.222 319.937 208.288 321.29 207.22 322.548C206.782 323.044 206.267 323.482 205.562 323.501C203.065 323.558 200.568 323.939 198.147 322.929C197.271 322.567 196.203 322.586 195.212 322.51C192.963 322.338 190.923 322.948 189.017 324.035C188.102 324.549 187.168 324.606 186.139 324.397C182.556 323.673 179.01 322.701 175.351 322.319C174.036 322.186 172.568 322.033 171.501 321.385C169.842 320.394 168.089 320.166 166.278 319.88C164.753 319.651 163.4 319.137 162.294 318.05C161.856 317.612 161.189 317.307 160.56 317.154C157.72 316.526 154.918 316.64 152.23 317.822C150.515 318.584 149.009 320.985 149.638 323.005C149.829 323.615 150.095 324.187 150.229 324.816C150.381 325.464 150.133 326.074 149.714 326.588C149.409 326.97 149.085 327.332 148.704 327.656C147.808 328.456 146.417 328.647 145.464 328.113C144.892 327.789 144.358 327.408 143.805 327.046C142.986 326.512 142.185 325.921 141.308 325.483C139.231 324.435 137.077 323.615 134.637 323.653C133.551 323.653 132.75 323.063 132.293 322.11C132.026 321.538 131.797 320.947 131.587 320.337C131.225 319.384 130.539 318.736 129.529 318.393C126.689 317.402 123.811 316.583 120.723 316.926C118.95 317.116 117.463 316.373 115.939 315.782C115.786 315.725 115.595 315.687 115.5 315.573C114.395 314.315 112.889 313.724 111.288 313.228C110.583 313 110.278 311.647 110.773 311.17C111.459 310.484 112.222 309.855 112.889 309.15C113.88 308.083 113.937 306.806 113.384 305.586C113.079 304.881 112.431 304.309 112.012 303.623C111.86 303.375 111.802 302.994 111.898 302.727C112.241 301.85 112.679 300.993 113.06 300.116C113.251 299.697 112.794 299.125 112.222 299.277C111.383 299.487 110.602 299.563 109.973 298.801C109 297.6 107.666 297.657 106.313 298.001C105.036 298.325 103.797 298.858 102.52 299.163C101.738 299.354 100.881 299.316 100.061 299.373C98.8221 298.496 97.4116 299.735 96.1917 299.144C94.7431 298.458 93.6375 299.506 92.3605 299.678C91.3884 299.792 90.3591 299.849 89.387 299.735C86.871 299.411 84.374 299.487 81.9533 300.249C80.6572 300.65 79.3039 300.593 77.9887 300.669C76.8069 300.726 75.7014 300.955 74.634 301.507C72.8804 302.422 71.1078 303.28 69.2589 304.042C67.8865 304.614 66.5332 305.128 65.4086 306.158C64.0934 307.358 62.3399 307.549 60.7197 306.901C59.4236 306.386 58.2227 306.215 56.8504 306.405C55.5352 306.577 54.1819 306.577 52.8476 306.482C52.2377 306.424 51.6468 306.005 51.094 305.7C50.8081 305.548 50.6366 305.243 50.4078 305.014C49.0927 303.737 47.7203 304.061 47.0913 305.796C46.7672 306.691 46.3479 307.568 46.1573 308.502C45.6808 310.732 44.2131 312.085 42.1927 313.114C40.4391 314.029 38.7236 315.02 37.0463 316.068C35.5024 317.021 34.0156 318.05 34.0156 320.128C34.0156 320.947 33.3676 321.557 32.891 322.205C32.0714 323.272 31.6902 324.454 31.8427 325.788C31.938 326.722 31.9571 327.694 31.9952 328.628C32.0333 329.447 31.7665 330.191 31.2899 330.858C30.6228 331.772 30.0129 332.706 29.2886 333.583C28.8883 334.079 28.3927 334.498 27.859 334.86C27.0585 335.413 26.1245 335.813 25.3621 336.404C24.2756 337.223 23.1129 337.757 21.7405 337.909C20.4825 338.062 19.6248 338.786 18.9195 339.72C18.5383 340.234 18.0809 340.73 17.814 341.302C17.2613 342.521 16.3654 343.379 15.1455 344.027C13.7922 344.751 13.0679 345.952 12.3245 347.248C11.0665 349.459 9.96101 351.803 7.95963 353.575C7.48312 353.995 7.14002 354.586 6.85411 355.138C5.67235 357.597 4.45246 359.998 2.77512 362.19C2.06987 363.124 1.87927 364.229 1.74584 365.335C1.5743 366.726 1.87927 367.831 3.21352 368.613C4.35716 369.28 4.71931 370.366 4.35716 371.51C3.99501 372.615 3.95689 373.587 4.29998 374.711C5.17677 377.494 5.4055 380.315 3.93782 383.059C3.78534 383.345 3.72816 383.669 3.67097 383.974C3.15633 386.814 2.39391 389.539 0.144742 391.674C-0.0268041 391.826 -0.0458648 392.322 0.0875602 392.55C0.583139 393.37 1.17402 394.151 1.72678 394.933C2.31766 395.752 2.66076 396.61 2.18424 397.601C1.49805 399.049 2.01269 400.402 2.62263 401.737C3.11821 402.804 4.05219 403.49 5.10053 403.986C5.97732 404.405 6.94942 404.634 7.88339 404.938C7.88339 404.9 7.88339 404.881 7.88339 404.843L8.03588 404.653L7.94057 404.958C7.94057 404.958 7.92151 404.958 7.90245 404.958C7.90245 405.949 8.30273 406.768 9.19858 407.283C10.1135 407.797 10.7234 408.464 10.9712 409.455C11.1428 410.103 11.6574 410.561 12.2864 410.809C13.716 411.399 14.8215 412.371 15.8126 413.439C16.232 413.896 16.7276 414.506 16.7466 415.059C16.8419 417.06 17.9093 418.68 18.8433 420.357C19.8345 422.072 21.245 423.387 23.2273 424.111C24.6378 424.626 25.8386 425.407 27.0394 426.322C29.7841 428.381 32.4336 430.572 35.4642 432.288C36.9129 433.107 38.4377 433.717 40.0579 434.155C40.5153 434.27 41.0872 434.251 41.5255 434.079C42.612 433.679 43.6794 433.183 44.7277 432.707C46.5576 431.868 48.4636 431.411 50.5413 431.468C51.8565 431.506 53.2098 431.373 54.525 431.163C56.5454 430.858 58.4705 431.03 60.3194 431.868C60.7769 432.059 61.2725 432.173 61.749 432.307C62.7401 432.592 63.7122 432.573 64.7034 432.23C65.7898 431.849 66.9335 431.563 68.039 431.182C68.973 430.858 69.9451 430.553 70.7456 430.001C72.0036 429.143 73.3951 428.647 74.8437 428.247C76.2732 427.828 77.6837 427.123 79.1323 426.989C81.2862 426.78 83.3257 425.808 85.5558 426.17C86.0323 426.265 86.566 426.246 87.0044 426.418C88.9295 427.161 90.4925 428.285 91.3121 430.191C91.6933 431.087 92.0174 431.983 92.4558 432.84C93.2944 434.403 94.724 435.108 96.5348 435.165C97.0303 435.165 97.545 435.165 98.0406 435.089C100.175 434.727 102.348 434.422 104.464 433.946C105.722 433.66 106.713 433.622 107.457 434.841C107.781 435.375 108.333 435.794 108.886 436.137C110.678 437.224 110.849 438.996 110.945 440.673C110.983 441.76 110.621 442.884 110.258 443.932C109.954 444.828 109.21 445.61 109 446.505C108.772 447.554 109.172 448.735 108.886 449.745C108.429 451.403 108.257 453.195 106.885 454.529C106.694 454.72 106.694 455.101 106.656 455.406C106.637 455.558 106.713 455.711 106.77 455.863C108.962 461.009 109.744 462.095 114.09 465.907C114.814 466.555 115.557 467.222 116.32 467.832C117.616 468.88 118.512 470.195 119.236 471.644C119.598 472.349 119.827 473.092 120.075 473.854C120.628 475.665 121.39 477.38 122.457 479.019C123.715 480.906 123.753 483.212 124.306 485.328C124.421 485.728 124.02 486.223 123.944 486.681C123.868 487.291 123.753 487.958 123.868 488.549C124.173 489.94 124.497 491.331 125.278 492.589C125.602 493.142 125.965 493.714 126.117 494.323C126.765 496.915 126.765 499.431 124.382 501.318C123.334 502.156 122.648 503.224 121.752 504.158C120.799 505.13 120.189 506.235 120.018 507.531C119.751 509.608 119.141 511.571 118.15 513.42C117.597 514.449 117.387 515.517 117.368 516.641C117.33 518.547 117.33 520.453 117.33 522.359C117.33 523.35 117.616 524.264 118.359 524.97C120.284 526.818 121.581 529.048 122.438 531.45C123.372 534.003 124.668 536.405 125.945 538.787C126.879 540.502 127.585 542.141 127.566 544.162C127.547 546.201 127.985 548.259 128.652 550.241C128.9 550.985 129.186 551.785 129.167 552.547C129.129 554.815 129.853 556.912 130.31 559.085C130.825 561.505 131.988 563.544 133.551 565.45C134.37 566.46 135.133 567.489 135.99 568.461C136.886 569.452 137.325 570.596 137.63 571.854C138.221 574.331 138.983 576.771 140.298 579.02C140.622 579.573 140.87 580.163 141.099 580.754C141.632 582.165 141.823 583.518 140.622 584.776C140.146 585.271 140.108 585.995 140.527 586.529C141.48 587.768 141.537 589.178 141.709 590.589C141.747 590.893 141.918 591.294 142.147 591.427C143.882 592.361 145.635 593.276 147.427 594.133C147.808 594.324 148.494 594.286 148.875 594.076C150.515 593.219 152.173 592.59 154.117 592.742C154.899 592.799 155.775 592.513 156.519 592.208C157.929 591.637 159.359 591.446 160.922 591.446C162.561 591.446 164.2 590.951 165.84 591.637C166.259 591.827 166.945 591.942 167.288 591.732C168.718 590.912 170.719 591.827 171.92 590.322C172.168 590.017 172.816 589.883 173.292 589.864C175.751 589.826 177.752 588.778 179.754 587.539C182.594 585.786 184.862 583.441 187.34 581.326C188.979 579.935 190.466 578.41 191.61 576.676C192.772 574.922 194.221 573.398 195.384 571.663C196.032 570.729 196.737 569.815 197.747 569.224C199.901 568.004 200.968 566.06 201.674 563.887C202.169 562.382 202.57 560.838 202.989 559.294C203.199 558.513 203.179 557.75 202.722 557.007C202.074 555.959 202.665 555.139 203.446 554.51C204.59 553.577 205.81 552.776 207.335 552.452C208.955 552.09 210.575 551.652 212.005 550.737C213.148 549.994 214.12 549.041 214.12 547.688C214.12 546.068 214.521 544.543 214.826 542.98C214.978 542.199 214.921 541.417 214.692 540.636C213.949 538.196 213.282 535.757 212.557 533.317C212.29 532.46 212.462 531.583 213.091 531.107C216.751 528.343 220.258 525.427 223.86 522.606C224.871 521.825 226.129 521.253 227.368 520.796C228.797 520.281 230.036 519.5 231.351 518.795C234.287 517.251 236.135 514.945 237.393 512.067C237.984 510.714 238.327 509.456 238.042 507.95C237.794 506.559 238.003 505.111 238.042 503.681C238.042 502.576 238.308 501.432 238.08 500.365C237.66 498.44 237.908 496.61 238.366 494.743C238.594 493.771 238.251 492.799 237.279 492.265C235.525 491.312 234.916 489.73 234.344 488.034C233.619 485.88 233.924 483.67 233.524 481.497C233.448 481.078 233.638 480.563 233.848 480.144C234.344 479.172 234.344 478.2 233.448 477.571C231.675 476.294 231.427 474.865 232.342 472.997C233.048 471.567 233.467 470.062 234.725 468.88C236.193 467.527 236.517 465.507 237.508 463.868C238.003 463.029 238.518 462.286 239.471 461.79C241.091 460.933 242.464 459.732 243.55 458.303C246.409 454.548 249.916 451.384 253.481 448.259C255.558 446.429 257.483 444.428 260.228 443.418C260.533 443.303 260.8 443.075 261.067 442.884C267.376 438.196 272.351 432.573 275.534 425.541C276.716 422.949 277.821 420.3 279.746 418.032C280.985 416.545 281.633 414.716 282.224 412.867C283.025 410.37 282.758 407.854 282.968 405.358C283.006 404.767 281.652 403.966 281.042 404.195C280.89 404.252 280.699 404.29 280.585 404.367C278.698 405.853 276.334 406.215 274.066 406.577C270.788 407.092 267.433 407.225 264.288 408.407C263.85 408.579 263.278 408.617 262.801 408.579C260.857 408.388 259.18 409.017 257.522 409.817C257.083 410.027 256.607 410.199 256.13 410.332C255.463 410.523 254.796 410.389 254.205 410.065C253.786 409.817 253.404 409.493 253.042 409.169C251.861 408.045 250.698 406.921 249.516 405.777C249.097 405.377 249.211 405.015 249.44 404.557C250.355 402.766 250.355 402.346 248.982 401.279C248.067 400.574 247.21 399.85 246.543 398.916C245.113 396.934 243.093 395.485 241.396 393.732C240.386 392.703 239.033 392.036 237.641 391.407C235.201 390.301 233.2 388.701 232.571 385.975C232.247 384.584 231.713 383.25 231.275 381.878C230.817 380.467 229.884 379.362 228.683 378.447C227.634 377.666 226.586 376.884 225.519 376.103C224.661 375.493 224.203 374.635 224.165 373.644C224.07 370.938 223.193 368.346 222.679 365.697C222.183 363.162 220.601 361.428 218.352 360.151C217.932 359.903 217.38 359.846 216.998 359.541C216.636 359.255 216.369 358.798 216.179 358.378C216.007 357.94 215.874 357.444 215.912 356.987C216.084 355.329 215.569 353.899 214.463 352.623C213.949 352.013 213.606 351.269 213.148 350.602C211.166 347.667 209.088 344.789 208.211 341.321C208.059 340.711 207.621 340.196 207.335 339.625C207.106 339.148 207.411 338.672 208.021 338.672C208.688 338.672 209.374 338.862 209.927 338.367C210.403 337.909 210.899 337.49 211.623 337.509C212.538 337.547 213.148 338.1 213.682 338.729C214.101 339.224 214.444 339.777 214.864 340.254C216.789 342.464 218.047 345.094 219.896 347.324C220.963 348.601 221.745 349.954 222.088 351.536C222.297 352.508 222.964 353.232 224.013 353.556C226.09 354.185 227.387 355.519 228.149 357.406C228.378 357.997 228.702 358.569 229.026 359.122C229.617 360.113 229.884 361.161 229.807 362.323C229.769 362.8 229.845 363.276 229.864 363.753C229.998 366.326 231.389 368.232 233.486 369.737C234.287 370.309 235.221 370.709 236.021 371.281C237.355 372.272 238.48 373.435 238.937 375.055C239.49 376.941 240.634 378.466 242.025 379.895C243.15 381.039 244.274 382.24 245.208 383.536C246.352 385.117 247.152 386.871 246.676 388.891C246.523 389.52 246.447 390.149 246.752 390.74C247.896 392.874 248.163 395.276 248.963 397.525C249.287 398.439 249.63 399.316 250.126 400.136C250.603 400.917 251.327 401.241 252.204 401.241C253.023 401.241 253.862 401.127 254.701 401.07C255.92 400.974 257.045 400.65 257.807 399.716C258.856 398.439 260.209 398.135 261.81 398.306C263.697 398.516 265.508 398.154 267.071 397.105C268.081 396.419 269.168 396.191 270.33 396C271.322 395.848 272.294 395.504 272.961 394.723C273.761 393.827 274.829 393.408 275.934 393.046C277.688 392.512 279.46 392.055 281.176 391.426C282.567 390.911 283.902 390.244 285.274 389.634C285.922 389.368 286.399 388.891 286.513 388.243C286.837 386.623 287.961 385.785 289.505 385.384C291.602 384.832 293.68 384.203 295.795 383.841C297.282 383.593 298.311 383.059 298.655 381.63C298.864 380.772 299.36 380.181 300.294 380.048C302.124 379.781 303.344 378.962 303.973 377.246C304.239 376.503 305.021 376.027 305.84 375.76C306.469 375.55 307.175 375.493 307.747 375.188C308.109 374.997 308.452 374.502 308.509 374.102C308.623 373.168 308.509 372.196 308.604 371.243C308.68 370.442 309.062 369.699 309.805 369.242C312.302 367.736 313.77 365.449 315.066 363.067C315.924 361.504 315.733 360.684 314.246 359.331C313.274 358.435 312.435 357.463 311.749 356.377C311.197 355.519 310.415 355.005 309.309 354.891C307.975 354.757 306.622 354.643 305.345 354.338C304.582 354.147 303.801 353.709 303.21 353.175C301.99 352.051 301.113 350.717 300.904 349.059C300.732 347.648 300.503 346.238 300.294 344.828C300.294 344.694 300.122 344.485 300.027 344.485C299.722 344.485 299.284 344.485 299.112 344.675C297.206 346.657 295.071 348.487 293.565 350.736C292.345 352.546 290.763 353.404 288.59 353.251C286.894 353.137 285.274 353.194 283.673 353.842C283.025 354.109 282.358 353.728 281.881 353.251C281.29 352.68 280.814 352.051 280.718 351.193C280.566 349.611 280.433 348.029 280.261 346.467C280.223 346.162 280.051 345.857 279.861 345.628C279.651 345.399 279.365 345.133 279.079 345.094C278.812 345.056 278.393 345.247 278.241 345.457C277.878 345.971 277.631 346.562 277.326 347.134C276.944 347.82 276.373 347.82 275.801 347.134C275.172 346.371 274.676 345.571 274.524 344.58C274.295 342.941 273.38 341.626 272.217 340.444C271.436 339.625 270.578 338.862 269.739 338.1C269.396 337.776 268.863 337.566 268.615 337.185C267.605 335.546 266.633 333.869 265.737 332.173C265.527 331.791 265.546 331.239 265.603 330.8C265.68 330.171 265.813 329.543 266.042 328.952C266.137 328.704 266.461 328.38 266.709 328.342C267.681 328.189 268.672 328.056 269.644 328.075C270.616 328.094 271.684 328.151 272.503 328.552C273.151 328.876 273.533 329.752 273.99 330.419C275.248 332.287 276.487 334.174 277.707 336.08C278.26 336.956 279.022 337.49 280.032 337.738C280.509 337.852 281.004 337.986 281.5 338.081C282.663 338.329 283.673 338.748 284.454 339.72C284.95 340.311 285.75 340.673 286.437 341.111C288.286 342.331 290.458 342.617 292.555 343.093C293.413 343.284 294.175 343.189 294.957 342.788C296.139 342.197 297.32 341.588 298.54 341.111C299.97 340.558 301.285 341.054 301.914 342.312C302.429 343.303 302.886 344.332 303.324 345.361C303.763 346.371 304.582 346.791 305.65 346.848C310.339 347.153 314.894 348.163 319.507 348.849C321.184 349.097 322.766 349.211 324.463 349.02C327.265 348.696 330.028 347.877 332.907 348.525C333.498 348.658 334.222 348.411 334.851 348.239C336.814 347.705 338.815 347.705 340.817 347.782C341.503 347.801 342.094 348.106 342.418 348.754C342.704 349.344 343.142 349.821 343.733 350.145C344.496 350.564 345.067 351.174 345.258 351.956C345.639 353.537 346.554 354.395 348.27 354.7C349.413 354.91 350.328 355.615 351.072 356.587C352.33 358.245 354.159 358.95 356.256 359.045C356.714 359.064 357.152 359.083 357.59 359.102C357.609 359.064 357.647 359.045 357.667 359.026L357.876 358.912L357.781 359.122C357.781 359.122 357.667 359.122 357.609 359.122C356.828 360.208 355.894 360.856 354.388 360.284C354.178 360.208 353.721 360.418 353.588 360.608C353.454 360.818 353.492 361.275 353.645 361.447C355.112 362.914 356.542 364.42 358.124 365.792C360.964 368.27 362.241 368.308 365.558 366.288C366.835 365.487 367.692 364.496 367.826 363.029C367.807 363.029 367.769 363.009 367.75 362.99L367.712 362.743L367.845 362.876C367.845 362.876 367.826 362.952 367.826 363.009C367.978 363.067 368.15 363.124 368.169 363.219C368.931 365.297 369.789 367.336 369.637 369.604C369.56 370.538 369.541 371.586 369.884 372.424C370.78 374.673 371.104 377.018 371.714 379.324C372.305 381.611 373.811 383.65 373.868 386.109C373.868 386.547 374.211 386.985 374.44 387.424C375.241 388.815 375.965 390.263 376.918 391.559C378.119 393.141 378.786 394.914 379.472 396.705C379.815 397.601 380.196 398.497 380.444 399.411C380.94 401.298 381.816 402.937 383.303 404.348C384.123 405.11 384.866 406.063 385.266 407.073C386.162 409.284 387.516 411.323 387.821 413.763C387.992 415.211 388.774 416.469 389.689 417.612C390.089 418.108 390.584 418.546 391.099 418.947C392.319 419.899 394.187 419.671 395.083 418.451C395.369 418.07 395.578 417.632 395.788 417.193C396.169 416.45 396.741 415.859 397.561 415.573C398.647 415.211 399.028 414.449 399.371 413.496C399.81 412.276 400.572 411.266 401.868 410.637C402.688 410.237 402.917 409.455 402.821 408.598C402.726 407.816 402.574 407.035 402.421 406.253C402.23 405.301 402.25 404.367 402.707 403.471C402.993 402.899 403.203 402.289 403.488 401.718C404.137 400.345 404.194 399.011 403.565 397.582C403.241 396.877 403.145 396.057 403.126 395.257C403.069 393.522 403.069 391.769 403.126 390.035C403.164 388.967 403.793 388.3 404.918 388.072C405.395 387.976 406.062 387.881 406.252 387.576C407.129 386.261 408.463 385.766 409.912 385.308C410.541 385.098 410.96 384.527 411.151 383.898C411.38 383.135 411.513 382.259 412.314 381.858C414.429 380.791 415.725 378.828 417.593 377.513C418.413 376.922 419.023 376.198 419.557 375.379C420.167 374.445 421.005 373.644 421.691 372.748C422.206 372.081 422.911 371.757 423.693 371.433C426.457 370.252 428.344 368.422 428.42 365.316C428.439 364.458 429.106 363.924 429.868 363.505C431.088 362.838 432.404 362.743 433.757 362.781C436.864 362.895 439.742 362.266 442.296 360.551C443.383 359.827 444.907 359.979 445.88 358.969C445.937 358.931 446.566 359.198 446.661 359.426C447.042 360.284 447.328 361.199 447.614 362.114C448.643 365.258 450.359 367.869 453.637 369.337C454.095 369.547 454.552 369.737 454.991 369.966C455.696 370.328 455.867 370.881 455.639 371.948C455.315 373.415 455.505 373.911 457.03 374.502C458.021 374.883 458.784 375.379 459.241 376.293C459.317 376.427 459.394 376.579 459.47 376.713C460.499 378.752 461.052 380.829 460.289 383.097C460.042 383.822 460.175 384.66 460.213 385.461C460.232 386.109 461.262 387.061 461.871 387.023C463.72 386.947 465.55 386.871 467.151 385.785C468.371 384.946 469.648 384.184 470.906 383.421C471.135 383.269 471.669 383.212 471.802 383.345C472.717 384.222 474.013 384.813 474.28 386.204C474.49 387.29 474.795 388.376 475.157 389.425C476.072 392.112 476.472 394.99 478.34 397.372C478.721 397.868 478.874 398.535 479.045 399.145C479.236 399.755 479.236 400.402 479.445 401.012C480.246 403.357 480.265 405.663 479.56 408.026C479.369 408.617 479.198 409.322 479.369 409.875C479.922 411.647 479.655 413.324 479.045 415.001C478.359 416.926 478.588 418.432 480.818 419.232C480.97 419.29 481.142 419.385 481.237 419.499C483.219 421.843 485.221 424.169 487.127 426.551C488.08 427.733 487.947 429.257 488.156 430.649C488.194 430.953 488.366 431.258 488.537 431.525C489.071 432.383 489.185 433.298 489.128 434.27C489.052 435.28 489.452 436.156 490.196 436.862C491.263 437.891 492.311 438.863 492.635 440.368C492.712 440.769 493.226 441.112 493.588 441.436C494.084 441.855 494.789 442.141 495.113 442.655C495.952 443.99 497.286 444.58 498.64 445.209C500.279 445.972 501.899 446.81 503.519 447.63L503.386 447.763C503.5 447.763 503.595 447.763 503.71 447.744C503.653 447.706 503.576 447.687 503.519 447.649C503.824 447.363 504.129 447.077 504.472 446.829C505.082 446.391 505.273 445.819 504.987 445.19C504.396 443.894 503.977 442.446 503.062 441.417C501.88 440.083 501.613 438.653 501.556 437.071C501.518 436.137 501.556 435.184 501.556 434.251C501.556 433.107 501.27 432.002 500.508 431.163C499.23 429.734 497.782 428.438 496.409 427.085C494.37 426.36 493.112 424.588 491.072 423.787C489.738 423.254 488.728 422.072 488.747 420.433C488.747 419.461 488.366 418.565 487.622 417.898C486.536 416.888 486.04 415.592 485.43 414.334C483.982 414.048 483.162 413.172 482.972 411.8C482.838 410.847 482.857 409.932 483.181 408.998C484.382 405.529 485.621 402.08 485.888 398.401C485.888 398.249 486.002 398.096 486.117 398.001C486.364 397.83 486.65 397.62 486.936 397.582C487.222 397.544 487.603 397.639 487.832 397.811C488.08 397.982 488.29 398.325 488.328 398.592C488.556 400.307 489.605 401.07 491.397 401.051C491.892 401.051 492.483 401.051 492.864 401.298C494.58 402.48 496.638 403.242 497.629 405.301C498.773 407.645 501.003 409.112 503.024 410.751C503.481 410.58 504.072 410.141 504.339 410.275C505.33 410.789 506.416 411.285 506.302 412.733C506.207 413.972 506.34 415.249 506.397 416.507C506.397 416.869 507.293 417.155 507.655 416.964C507.808 416.888 507.998 416.869 508.113 416.774C510.038 415.02 511.982 413.286 513.85 411.495C514.327 411.037 514.746 410.561 515.432 410.427C518.024 409.913 519.873 408.293 521.741 406.692C522.885 405.72 523.495 404.5 523.895 403.033C524.505 400.822 524.829 398.725 523.857 396.553C523.8 396.4 523.819 396.248 523.8 396.076C523.399 393.217 522.275 390.568 520.883 388.014C520.331 387.004 519.587 386.204 518.787 385.384C517.167 383.726 515.165 382.583 513.221 381.344C511.944 380.543 510.8 379.667 510.457 378.104C510.286 377.303 509.638 376.732 509.009 376.217C508.513 375.798 507.979 375.398 507.522 374.94C507.293 374.711 507.026 374.407 507.026 374.14C507.007 372.463 506.416 370.652 508.189 369.318C508.99 368.708 509.428 367.831 509.619 366.859C509.733 366.192 510.076 365.64 510.686 365.316C512.573 364.305 514.479 363.295 516.423 362.361C516.823 362.152 517.414 362.171 517.891 362.247C518.367 362.304 518.825 362.609 519.301 362.724C520.502 362.99 521.417 363.429 521.627 364.801C521.76 365.754 522.465 366.497 523.304 367.088C524.162 367.698 525.477 367.26 525.649 366.249C525.725 365.792 525.649 365.297 525.649 364.839L525.763 364.953L525.839 364.687L525.687 364.82C525.534 364.591 525.344 364.363 525.363 364.153C525.363 363.905 525.687 363.524 525.915 363.486C528.241 363.124 530.223 361.866 532.491 361.275C534.378 360.78 536.075 359.636 536.99 357.787C537.257 357.254 537.676 357.254 538.133 357.521C538.686 357.864 539.201 358.302 539.944 357.959C541.297 357.349 542.708 356.968 544.233 356.777C545.357 356.644 546.444 356.148 547.549 355.786C548.693 355.405 549.646 354.814 549.97 353.595C550.122 353.08 550.637 352.985 551.018 352.737C556.775 348.982 559.348 344.961 559.767 339.262C559.824 338.5 559.424 337.833 560.434 337.299C561.978 336.48 562.779 335.089 563.008 333.431C563.141 332.439 563.446 331.525 564.285 330.934C565.466 330.076 565.848 329.028 565.81 327.637C565.771 326.874 565.981 326.017 566.381 325.388C567.277 324.016 566.667 322.948 565.79 321.938C565.276 321.347 564.571 320.871 563.922 320.356C563.408 319.956 562.779 319.975 562.15 320.013C562.15 320.051 562.15 320.07 562.15 320.109H561.864L562.036 320.032C562.074 320.032 562.131 320.032 562.169 320.032C562.245 319.613 562.245 319.137 562.493 318.851C563.008 318.26 563.675 317.822 564.285 317.288C564.799 316.83 564.799 316.221 564.456 315.63C563.903 314.639 562.931 314.086 562.093 313.4C562.055 313.4 562.016 313.4 561.978 313.4L561.75 313.209L562.055 313.362C562.055 313.362 562.074 313.362 562.093 313.381C562.379 313.343 562.684 313.324 562.931 313.209C564.018 312.695 564.266 311.704 563.503 310.903C562.95 310.331 562.398 309.664 561.692 309.302C559.386 308.064 557.728 304.195 556.527 301.908C555.974 300.897 555.288 300.04 554.163 299.563C553.553 299.297 552.982 298.973 552.391 298.687C551.018 298.02 550.618 296.895 550.752 295.504C550.847 294.551 550.923 293.617 551.59 292.817C552.105 292.207 552.639 291.559 552.943 290.854C553.553 289.462 554.697 288.547 555.955 287.785C557.232 287.004 558.605 286.47 560.187 286.451C560.777 286.451 561.025 285.955 561.14 285.498C561.254 285.041 561.311 284.564 561.311 284.088C561.311 283.268 560.625 282.449 559.863 282.411C559.043 282.372 558.204 282.487 557.385 282.449C556.737 282.43 556.05 282.392 555.44 282.201C554.831 282.01 554.278 281.591 553.706 281.286C553.039 280.943 552.391 281.134 551.8 281.42C550.58 282.029 549.856 283.116 548.941 284.05C548.636 284.374 548.102 284.545 547.645 284.679C546.863 284.888 546.024 284.526 545.643 283.63C545.11 282.392 544.5 281.439 542.994 281.057C541.526 280.676 540.459 279.571 539.487 278.465C538.648 277.513 539.334 275.626 540.592 275.397C541.088 275.321 541.583 275.321 542.098 275.283C543.204 275.206 544.023 274.711 544.328 273.682C544.862 271.852 545.167 269.946 547.359 269.051C547.873 268.841 548.121 268.059 548.464 267.507C548.96 266.687 549.36 265.811 549.913 265.029C550.18 264.667 550.675 264.381 551.114 264.286C552.41 263.981 553.363 264.648 554.182 265.487C554.869 266.192 554.659 266.935 554.221 267.678C554.068 267.964 553.935 268.25 553.763 268.517C553.134 269.527 552.924 270.575 553.477 271.681C553.687 272.119 553.782 272.595 553.973 273.034C554.297 273.777 553.725 274.177 553.344 274.654C553.249 274.768 553.115 274.94 553.115 275.073C553.153 275.34 553.191 275.702 553.382 275.854C553.592 276.026 554.03 276.121 554.278 276.026C555.383 275.588 556.203 274.787 556.87 273.853C558.586 271.395 561.235 270.518 564.075 270.042C564.532 269.965 565.028 270.156 565.505 270.289C566 270.404 566.458 270.594 566.934 270.728C568.974 271.357 568.955 271.357 568.897 273.301C568.859 274.882 568.878 276.464 568.878 278.046C568.878 278.885 569.279 279.571 569.85 280.181C570.327 280.676 570.861 281 571.604 280.81C572.081 280.676 572.557 280.505 573.034 280.409C573.891 280.238 574.73 280.409 575.397 280.962C576.026 281.477 576.579 282.087 577.113 282.677C577.665 283.287 577.57 283.688 576.731 284.679C576.083 285.479 575.95 285.765 576.541 286.299C578.428 287.976 578.885 290.034 578.58 292.359C578.504 292.988 578.447 293.636 578.466 294.265C578.504 295.561 579.343 296.59 579.953 297.696C580.01 297.791 580.258 297.829 580.41 297.81C581.287 297.715 581.935 297.2 582.545 296.647C583.441 295.828 584.451 295.389 585.709 295.504C586.204 295.561 586.719 295.466 587.215 295.523C588.416 295.694 589.025 295.008 589.674 294.246C591.027 292.626 591.484 290.911 590.703 288.91C590.36 288.014 590.169 287.08 589.883 286.165C588.72 282.468 588.74 282.43 586.09 279.59C585.08 278.523 584.089 277.455 583.422 276.159C582.812 274.978 581.878 274.12 580.715 273.434C579.876 272.919 579.038 272.367 578.237 271.814C577.379 271.204 577.132 269.641 577.742 268.803C578.123 268.288 578.504 267.716 579.038 267.373C580.01 266.706 580.677 265.83 581.458 265.029C583.422 262.971 584.203 260.836 583.174 258.111C582.43 256.129 583.231 254.375 584.794 252.946C585.271 252.508 585.785 252.107 586.262 251.65C586.719 251.212 587.177 250.735 587.577 250.24C588.168 249.496 588.168 248.372 589.273 247.991C590.703 247.514 591.275 248.886 592.323 249.287C593.467 249.744 594.534 249.858 595.697 249.363C596.783 248.886 597.698 248.277 598.461 247.381C599.719 245.875 600.767 244.217 601.434 242.445C602.501 239.624 604.274 237.051 604.846 234.04C604.96 233.43 605.189 232.763 605.589 232.286C607.667 229.771 607.876 226.759 608.162 223.786C608.41 221.251 609.554 218.888 609.478 216.296C609.478 215.839 609.63 215.305 609.897 214.943C611.06 213.342 610.659 211.608 610.488 209.874C610.145 206.691 609.211 203.66 607.495 200.897C606.79 199.753 606.409 198.591 606.371 197.314C606.294 194.627 606.218 191.92 606.161 189.233C606.161 188.985 606.371 188.738 606.485 188.49C606.619 188.566 606.809 188.604 606.885 188.718C607.953 190.148 609.192 191.425 610.431 192.721C611.708 194.036 611.441 196.056 612.337 197.581C612.737 198.267 613.118 198.972 613.499 199.677C614.414 201.392 615.101 203.165 615.196 205.109C615.196 205.433 615.196 205.757 615.31 206.062C615.939 208.158 616.13 210.407 617.731 212.218C618.436 213.018 618.779 214.238 618.875 215.305C619.027 216.944 619.504 218.412 620.285 219.822C620.857 220.851 621.067 221.899 621.009 223.024C621.009 223.5 621.009 223.977 621.124 224.434C621.41 225.559 622.02 226.493 623.182 226.95C623.392 227.026 623.983 226.798 623.983 226.683C624.059 226.073 623.983 225.444 623.964 224.815C623.926 223.805 624.459 223.539 625.546 223.653C626.632 223.767 627.28 224.549 628.176 224.93C628.31 224.987 628.596 225.025 628.634 224.968C628.805 224.72 629.053 224.415 629.015 224.148C628.824 223.024 628.405 221.823 627.338 221.366C625.203 220.432 624.745 218.088 622.877 216.982C622.382 215.801 621.753 214.676 621.448 213.457C621.066 211.932 620.914 210.331 620.685 208.768C620.609 208.292 620.628 207.815 620.609 207.339C620.457 204.156 626.518 208.044 623.697 203.565L623.602 203.108Z" fill="#058bc9"/>
</svg>
