<?xml version="1.0" standalone="no"?>
<!DOCTYPE svg PUBLIC "-//W3C//DTD SVG 20010904//EN"
 "http://www.w3.org/TR/2001/REC-SVG-20010904/DTD/svg10.dtd">
<svg version="1.0" xmlns="http://www.w3.org/2000/svg"
 width="50.000000pt" height="50.000000pt" viewBox="0 0 50.000000 50.000000"
 preserveAspectRatio="xMidYMid meet">

<g transform="translate(0.000000,50.000000) scale(0.100000,-0.100000)"
fill="#F76501" stroke="none">
<path d="M212 455 c-17 -8 -37 -26 -42 -40 -14 -36 -6 -134 13 -172 29 -55 23
-70 -38 -99 -58 -28 -85 -55 -85 -86 0 -16 11 -18 115 -18 70 0 115 4 115 10
0 6 -42 10 -105 10 -103 0 -105 1 -95 20 6 11 33 31 60 45 39 20 58 24 94 19
30 -5 46 -3 46 4 0 6 -15 12 -32 14 -27 2 -34 8 -36 28 -2 14 -11 41 -20 60
-24 51 -26 143 -4 169 25 31 71 36 110 11 32 -20 32 -21 30 -85 -2 -36 -6 -65
-10 -65 -5 0 -8 -4 -8 -10 0 -8 28 -15 31 -7 5 15 8 127 4 144 -5 22 -70 63
-97 63 -7 -1 -28 -7 -46 -15z"/>
<path d="M310 120 l0 -120 95 0 95 0 0 93 c0 89 -1 94 -28 120 -25 24 -36 27
-95 27 l-67 0 0 -120z m110 70 c0 -27 3 -30 30 -30 l30 0 0 -70 0 -70 -75 0
-75 0 0 100 0 100 45 0 c43 0 45 -1 45 -30z m40 5 c10 -12 10 -15 -4 -15 -9 0
-16 7 -16 15 0 8 2 15 4 15 2 0 9 -7 16 -15z"/>
<path d="M350 130 c0 -5 25 -10 55 -10 30 0 55 5 55 10 0 6 -25 10 -55 10 -30
0 -55 -4 -55 -10z"/>
<path d="M350 90 c0 -5 16 -10 35 -10 19 0 35 5 35 10 0 6 -16 10 -35 10 -19
0 -35 -4 -35 -10z"/>
<path d="M350 50 c0 -5 23 -10 50 -10 28 0 50 5 50 10 0 6 -22 10 -50 10 -27
0 -50 -4 -50 -10z"/>
</g>
</svg>
