<svg width="408" height="834" viewBox="0 0 408 834" fill="none" xmlns="http://www.w3.org/2000/svg">
<path fill-rule="evenodd" clip-rule="evenodd" d="M-51.3243 -133.81C-51.4646 -133.67 -51.7173 -133.529 -51.9137 -133.529C-52.3067 -133.529 -52.6997 -133.557 -53.0927 -133.586C-53.0927 -133.557 -53.1488 -133.501 -53.1768 -133.473C-53.2049 -133.501 -53.233 -133.529 -53.2611 -133.557C-52.7277 -132.547 -52.1664 -131.537 -51.7453 -130.498C-51.1559 -128.983 -50.6226 -127.439 -50.1454 -125.896C-49.6682 -124.24 -48.6577 -122.977 -47.1981 -122.023C-46.1876 -121.377 -45.1771 -120.704 -44.1666 -120.058C-43.6053 -119.722 -42.8193 -120.058 -42.679 -120.928C-42.3421 -123.061 -40.8545 -124.184 -38.9738 -124.829C-37.402 -125.391 -35.7178 -125.784 -34.0337 -125.952C-32.967 -126.064 -32.2653 -126.625 -31.4232 -127.075C-30.1601 -127.748 -29.5707 -127.664 -28.9251 -126.85C-28.2514 -125.98 -28.3918 -125.138 -29.0374 -124.352C-29.1496 -124.212 -29.2619 -124.1 -29.4023 -123.987C-29.4584 -123.987 -29.5145 -123.987 -29.5707 -123.987L-29.7391 -123.482L-29.5426 -123.819C-29.5426 -123.819 -29.4584 -123.931 -29.4023 -123.959C-27.0164 -123.651 -24.7428 -123.538 -22.6095 -125.138C-21.7393 -125.812 -20.364 -126.176 -19.1851 -126.205C-15.1992 -126.317 -11.5222 -127.411 -7.90125 -128.843C-6.27325 -129.488 -4.56104 -129.207 -2.90494 -128.674C-2.28741 -128.478 -1.86636 -127.776 -2.03479 -126.962C-2.20319 -126.317 -2.42776 -125.671 -2.62427 -124.998C-2.68039 -125.054 -2.73651 -125.11 -2.79266 -125.138C-2.90494 -125.054 -3.04529 -124.97 -3.18564 -124.885C-3.66281 -124.801 -4.16806 -124.717 -4.67331 -124.689C-5.40311 -124.633 -5.5715 -124.436 -5.09433 -124.1C-4.95398 -123.987 -4.61716 -124.015 -4.44873 -124.1C-4.02771 -124.324 -3.60669 -124.605 -3.21371 -124.885C-3.01721 -124.885 -2.84879 -124.914 -2.65231 -124.942C-2.65231 -124.942 -2.65231 -124.942 -2.65231 -124.97C-2.34354 -124.717 -2.00674 -124.465 -1.72604 -124.184C-0.940094 -123.454 0.0142517 -123.202 0.940552 -123.679C2.45627 -124.436 3.88779 -125.335 5.40353 -126.148C6.58243 -126.794 7.05963 -127.776 7.17191 -129.011C7.28418 -130.19 7.59293 -131.34 8.74377 -132.014C9.02448 -132.182 9.81039 -132.042 9.95074 -131.846C10.2876 -131.256 10.5121 -130.555 10.5683 -129.881C10.8209 -126.597 10.6525 -123.342 9.7262 -120.171C9.19287 -118.346 9.13675 -116.494 9.47357 -114.614C9.52972 -114.249 9.97882 -113.8 10.3437 -113.66C10.7367 -113.519 11.4103 -113.603 11.7191 -113.828C13.7962 -115.428 15.8172 -117.14 17.8943 -118.767C18.4557 -119.188 19.1574 -119.469 19.803 -119.75C19.9434 -119.806 20.2241 -119.665 20.3925 -119.525C20.5609 -119.385 20.8135 -119.132 20.7574 -118.992C20.3083 -116.27 19.803 -113.547 17.8663 -111.274C17.4452 -110.797 18.2592 -109.871 19.0732 -109.927C19.803 -109.983 20.589 -109.955 21.1784 -110.292C22.0205 -110.741 22.8065 -111.386 23.3959 -112.088C25.052 -114.024 26.9607 -114.221 29.2904 -113.295C31.957 -112.228 34.0622 -110.853 34.5113 -107.934C35.999 -98.645 68.0821 -74.8742 70.0188 -75.2952C70.9732 -75.4917 71.8994 -75.8004 72.8538 -75.9968C73.6397 -76.1652 74.959 -75.4917 75.3239 -74.79C75.9976 -73.5552 76.6712 -72.2923 77.2887 -71.0294C78.0185 -69.57 78.7203 -68.0826 79.4501 -66.5952C80.0114 -65.4726 80.0676 -64.378 79.4501 -63.2555C79.0852 -62.638 78.6361 -61.8242 79.5062 -61.4874C79.9553 -61.319 80.8535 -61.8522 81.3307 -62.2732C81.8359 -62.7222 82.3412 -63.3958 82.3973 -64.0413C82.65 -66.3706 83.2675 -68.6158 83.9692 -70.861C84.4464 -72.3765 85.485 -73.1903 86.9165 -73.7236C87.8428 -74.0604 88.769 -74.4252 89.7234 -74.5936C91.7163 -74.9023 93.4285 -75.66 95.0565 -76.7826C96.2074 -77.5684 97.7231 -77.821 99.0704 -78.3262C99.2388 -78.4104 99.4353 -78.8313 99.3792 -78.8875C99.1266 -79.1681 98.7055 -79.6452 98.4529 -79.5891C97.0495 -79.2243 95.7021 -78.6068 94.2986 -78.2981C92.8671 -77.9894 91.3795 -77.9894 89.9199 -77.7368C89.4708 -77.6526 89.162 -77.1755 88.7129 -76.951C88.0112 -76.5581 87.2813 -76.7546 86.6638 -77.2036C85.5691 -78.0175 85.1201 -79.3646 85.5411 -80.2907C86.1586 -81.6378 87.1691 -82.8727 88.6848 -82.9849C92.1093 -83.2094 95.5056 -83.6304 98.902 -84.1636C100.474 -84.4162 102.355 -82.8165 102.495 -81.273C102.551 -80.5714 102.663 -79.8698 102.551 -79.1681C102.13 -76.6984 103.449 -74.6497 104.151 -72.4607C104.46 -71.4784 105.218 -70.8329 106.2 -70.6084C108.474 -70.0752 110.27 -69.149 111.281 -66.96C112.01 -65.3884 113.61 -64.6026 115.154 -63.8448C116.052 -63.3958 117.007 -63.2555 118.017 -63.4239C118.747 -63.5361 119.477 -63.6764 120.15 -63.9571C121.863 -64.7429 123.519 -64.4061 125.147 -63.7887C126.045 -63.4239 126.915 -62.9748 127.813 -62.61C128.74 -62.2171 129.722 -62.1329 130.62 -62.61C131.35 -63.0029 131.378 -63.7326 131.378 -64.4342C131.378 -65.22 131.855 -65.669 132.417 -66.1742C133.118 -66.7916 133.96 -67.409 134.353 -68.1948C134.999 -69.5139 135.981 -69.5981 137.301 -69.5981C138.48 -69.5981 139.658 -69.991 140.837 -70.2155C140.781 -70.2716 140.697 -70.3278 140.641 -70.4119L140.894 -70.2436C139.574 -73.1904 136.795 -74.7339 134.269 -76.502C133.764 -76.8668 133.792 -77.9894 134.269 -78.3823C134.438 -78.5226 134.578 -78.7472 134.774 -78.8875C135.167 -79.1401 135.588 -79.533 136.038 -79.5891C139.462 -79.982 141.679 -82.0027 143.588 -84.5004C144.29 -85.4265 145.3 -86.1282 146.171 -86.914C146.564 -87.2788 147.883 -87.0824 148.163 -86.6333C148.416 -86.2404 148.725 -85.8756 148.893 -85.4546C150.044 -82.3394 152.43 -81.2168 155.742 -81.4414C156.135 -81.4414 156.556 -81.4414 156.921 -81.4414C156.809 -79.8978 156.753 -78.3823 154.479 -78.0175C152.823 -77.7649 152.851 -77.5404 152.907 -76.2775C152.991 -74.6497 153.16 -73.05 153.16 -71.4223C153.16 -71.0294 152.851 -70.4681 152.486 -70.2997C150.97 -69.57 149.37 -68.9245 147.827 -68.251C146.872 -67.83 145.918 -67.9984 144.964 -68.251C144.037 -68.5036 143.083 -68.7281 142.129 -68.9526L142.353 -68.7281C142.353 -68.7281 142.213 -68.8684 142.129 -68.9526C141.904 -69.149 141.708 -69.3455 141.483 -69.57C141.708 -69.3736 141.904 -69.1771 142.129 -68.9526C142.325 -66.9039 143.083 -65.3884 145.581 -65.1919C146.227 -65.1358 146.62 -63.9851 146.255 -63.508C144.964 -61.8242 143.644 -60.1683 142.325 -58.4845C141.315 -57.2215 141.286 -56.6883 142.213 -55.3693C142.746 -54.5835 143.279 -53.8257 143.841 -53.068C143.981 -52.8996 144.178 -52.7593 144.346 -52.5909C144.571 -52.8996 144.935 -53.1522 144.992 -53.489C145.328 -55.0886 145.441 -56.7164 145.862 -58.288C146.423 -60.4209 147.546 -62.2171 150.269 -62.2171C152.374 -62.2171 154.03 -63.1993 155.546 -64.4061C156.837 -65.4726 158.1 -66.5671 159.307 -67.7177C160.009 -68.3913 159.981 -69.3174 159.812 -70.2155C159.868 -70.2155 159.924 -70.2155 159.981 -70.1874L160.374 -70.5242L159.812 -70.3558C159.812 -70.3558 159.812 -70.2716 159.812 -70.2155C159.391 -70.2997 158.942 -70.3839 158.577 -70.5523C157.426 -71.0855 157.061 -71.9836 157.651 -72.7133C158.661 -73.9762 159.616 -75.3233 160.767 -76.4739C161.188 -76.8949 162.03 -77.0352 162.703 -77.1475C163.265 -77.2597 163.658 -77.372 163.63 -77.821C163.63 -77.9894 163.377 -78.1859 163.209 -78.2981C161.805 -79.1962 160.458 -80.1504 158.998 -80.9643C158.465 -81.273 157.791 -81.3852 157.146 -81.5536C156.781 -82.3394 156.528 -83.1814 155.995 -83.8269C154.872 -85.174 154.563 -86.7175 154.395 -88.3453C154.198 -90.0572 154.647 -91.5446 155.826 -92.8356C156.135 -93.1724 156.444 -93.5372 156.837 -93.8459C158.044 -94.8001 158.24 -96.0631 158.465 -97.4944C158.998 -101.031 160.907 -103.977 164.135 -105.942C165.061 -106.503 166.268 -106.615 167.391 -106.896C167.391 -106.84 167.391 -106.812 167.391 -106.784C167.475 -106.728 167.531 -106.7 167.615 -106.643C167.643 -106.391 167.728 -106.279 167.896 -106.475C167.812 -106.531 167.7 -106.587 167.615 -106.643C167.615 -106.756 167.587 -106.784 167.587 -106.952C167.531 -106.952 167.447 -106.952 167.391 -106.924C167.335 -108.019 167.138 -109.141 168.373 -109.927C169.805 -110.825 171.152 -111.835 172.584 -112.733C173.229 -113.126 173.622 -113.575 173.875 -114.277C177.72 -124.352 180.583 -145.008 196.471 -142.005C197.397 -141.837 198.407 -141.5 199.137 -140.967C201.467 -139.255 203.909 -137.767 206.996 -137.571C207.221 -137.571 207.446 -137.374 207.67 -137.29C208.821 -136.813 209.495 -134.624 208.793 -133.614C208.26 -132.856 207.726 -132.042 207.025 -131.396C203.684 -128.309 200.288 -125.25 196.892 -122.219C196.19 -121.574 195.376 -121.013 194.562 -120.507C193.271 -119.694 191.895 -119.385 190.408 -120.171C189.341 -120.732 188.246 -121.265 187.095 -121.658C186.815 -121.742 186.225 -121.349 185.945 -121.041C185.636 -120.704 185.439 -120.227 185.383 -119.778C185.187 -118.318 184.569 -117.14 183.306 -116.213C181.538 -114.951 179.854 -113.603 178.057 -112.397C177.131 -111.779 176.598 -111.078 177.103 -110.123C178.45 -107.542 178.057 -104.623 179.04 -101.985C179.264 -101.367 179.236 -100.525 178.983 -99.936C177.131 -95.586 177.776 -91.264 178.899 -86.914C179.208 -85.7072 178.787 -85.2582 176.934 -84.6407C176.485 -84.5004 175.924 -84.4724 175.643 -84.1917C174.268 -82.8727 172.949 -81.5256 171.657 -80.1504C171.236 -79.7294 171.461 -79.3365 171.966 -78.9717C172.949 -78.2701 173.959 -77.6807 175.25 -77.5404C176.794 -77.372 177.889 -76.3897 179.04 -75.5197C180.19 -74.6497 180.078 -73.4149 178.703 -72.7974C177.833 -72.4045 176.766 -72.3484 176.878 -71.0855C177.131 -68.7 176.429 -66.4829 175.643 -64.2658C175.475 -63.7606 175.812 -63.4238 176.345 -63.4519C176.569 -63.4519 176.822 -63.5922 177.019 -63.7045C178.001 -64.4342 178.871 -65.2481 179.236 -66.4268C179.882 -68.5316 181.482 -69.991 182.941 -71.5626C183.418 -72.0958 184.597 -72.0958 184.906 -71.5907C186.478 -68.8965 187.601 -66.118 187.124 -62.9467C186.983 -62.0206 186.759 -61.1226 185.945 -60.4771C183.643 -58.6529 183.082 -56.2673 183.474 -53.5732C183.671 -52.198 183.952 -50.7947 184.429 -49.4757C184.625 -48.9144 185.383 -48.4373 186.001 -48.1567C186.759 -47.8199 188.134 -48.3812 188.583 -49.0547C189.116 -49.8406 189.566 -50.6825 189.144 -51.6648C188.751 -52.5628 188.808 -53.4328 189.06 -54.387C189.481 -56.0709 190.239 -57.1093 191.081 -56.9128C192.12 -56.6603 192.344 -55.7903 192.709 -55.0325C192.681 -55.0325 192.653 -55.0325 192.625 -55.0325C192.597 -54.8922 192.541 -54.7238 192.485 -54.5835C192.597 -54.6957 192.681 -54.7799 192.793 -54.8641C192.765 -54.9203 192.737 -54.9764 192.709 -55.0325C193.72 -55.0325 194.562 -55.4254 195.123 -56.2112C195.797 -57.1654 196.386 -58.1758 196.892 -59.2422C197.706 -60.9822 198.604 -62.5819 200.905 -62.7784C201.748 -63.5922 202.59 -64.4061 203.46 -65.1919C203.853 -65.5568 203.909 -65.9216 203.74 -66.4548C203.011 -68.6439 204.414 -70.4681 204.919 -72.4326C205.425 -74.4533 206.856 -75.5197 209.13 -75.4917C209.607 -75.4917 210.084 -75.7162 210.533 -75.8284L210.309 -76.0249C210.309 -76.0249 210.421 -76.0249 210.477 -76.0249C210.252 -77.4562 209.438 -78.3823 207.81 -78.1017C205.677 -77.7368 204.414 -78.8314 203.179 -80.1223C202.786 -81.2449 202.225 -82.2272 200.849 -82.5078C200.148 -82.6481 199.39 -82.6762 198.66 -82.8165C197.481 -83.013 196.162 -82.9288 195.32 -83.9952C194.281 -85.2862 192.962 -86.4369 192.822 -88.1769C192.709 -89.3275 192.653 -90.5063 192.709 -91.6569C192.822 -93.6495 195.151 -94.9685 196.976 -94.0705C198.267 -93.425 199.474 -92.6111 200.793 -91.9937C201.074 -91.8534 201.804 -92.134 202.056 -92.4146C202.281 -92.6672 202.309 -93.3408 202.112 -93.6214C201.719 -94.1827 201.214 -94.8001 200.597 -95.0527C198.828 -95.8385 196.948 -96.456 195.123 -97.1856C193.271 -97.9434 192.485 -99.5992 193.299 -101.143C194.955 -104.23 195.769 -107.738 198.688 -110.18C199.362 -110.741 199.558 -111.835 200.007 -112.649C200.484 -113.463 200.99 -114.277 201.523 -115.063C201.776 -115.456 202.084 -115.877 202.477 -116.101C205.733 -117.982 207.165 -121.49 210.084 -123.651C212.021 -125.082 213.817 -126.71 215.922 -127.916C220.329 -130.414 225.045 -131.396 229.985 -129.348C230.827 -129.011 231.529 -128.253 232.146 -127.552C232.371 -127.299 232.287 -126.654 232.146 -126.289C231.95 -125.896 231.557 -125.475 231.164 -125.306C227.234 -123.735 224.034 -121.237 221.284 -118.15C220.638 -117.448 219.824 -116.887 219.122 -116.242C218.196 -115.4 217.635 -114.277 217.747 -113.098C217.915 -111.134 217.635 -109.422 216.287 -107.85C215.67 -107.149 215.389 -106.222 214.94 -105.381C214.828 -105.156 214.772 -104.931 214.659 -104.735C213.705 -102.518 214.884 -98.2521 217.017 -96.456C217.214 -96.2876 217.859 -96.5121 218.252 -96.6805C218.421 -96.7366 218.589 -97.0453 218.589 -97.2418C218.589 -97.6908 218.477 -98.1679 218.336 -98.5889C217.915 -99.936 217.41 -101.255 217.017 -102.574C216.624 -103.865 217.129 -104.791 218.336 -105.493C219.375 -106.11 220.189 -107.008 221.48 -107.233C222.491 -107.429 222.238 -108.103 222.042 -108.804C221.003 -111.948 221.733 -114.754 224.063 -117.14C224.877 -117.982 226.084 -118.515 226.87 -119.385C228.582 -121.237 230.603 -122.275 233.241 -122.275C236.273 -122.275 238.855 -123.903 241.746 -124.465C242.981 -124.717 244.16 -124.829 245.367 -124.521C247.697 -123.931 248.763 -123.482 248.792 -120.732C248.792 -120.283 248.848 -119.834 248.848 -119.385C248.258 -118.739 247.837 -118.01 247.837 -117.14C247.781 -113.912 246.462 -110.993 245.592 -107.934C245.255 -106.728 244.974 -105.521 244.693 -104.314C244.609 -104.258 244.525 -104.202 244.441 -104.146C244.216 -103.921 243.992 -103.697 243.795 -103.472C244.048 -103.669 244.3 -103.837 244.637 -103.977C244.637 -104.09 244.693 -104.202 244.721 -104.314C246.041 -105.128 247.248 -105.773 249.044 -104.763C250.756 -103.809 252.777 -103.893 254.658 -105.016C256.539 -106.138 258.588 -107.008 260.917 -106.728L260.693 -106.924C260.693 -106.924 260.693 -106.924 260.721 -106.924C259.991 -107.85 258.896 -108.103 257.774 -108.019C256.342 -107.934 254.939 -107.513 253.507 -107.401C251.121 -107.233 248.09 -109.674 248.82 -112.284C249.269 -113.884 249.437 -115.315 248.763 -116.915C248.455 -117.645 248.876 -118.655 248.96 -119.525C249.521 -120.451 250.083 -121.377 250.672 -122.304C251.262 -123.202 252.328 -123.623 253.114 -123.202C255.472 -121.883 257.942 -121.069 260.665 -120.564C263.528 -120.03 265.296 -118.178 266.11 -115.456C266.84 -112.958 267.093 -110.432 267.233 -107.878C267.233 -107.373 266.363 -106.531 265.773 -106.559C264.089 -106.672 262.405 -106.812 260.721 -106.924C260.721 -106.896 260.777 -106.868 260.805 -106.84C263.135 -105.212 265.493 -103.612 267.738 -101.929C268.721 -101.199 269.282 -100.16 269.254 -98.8695C269.254 -97.9715 268.272 -97.1856 268.833 -96.2876C269.198 -95.7263 269.984 -95.4456 270.405 -94.9124C270.629 -94.6037 270.714 -93.9582 270.545 -93.6214C270.096 -92.8076 269.479 -92.0498 268.833 -91.4043C268.384 -90.9553 268.187 -90.6466 268.664 -90.3379C268.833 -90.2256 269.142 -90.1695 269.366 -90.1975C270.826 -90.3659 272.173 -90.7588 272.959 -88.8785C273.408 -87.784 273.97 -87.6998 275.373 -88.4575C277.029 -89.3556 278.208 -88.9066 279.275 -87.7559C280.089 -86.8859 280.79 -85.9317 281.408 -84.9214C282.334 -83.434 282.222 -81.8343 281.604 -80.2346C281.576 -80.2346 281.548 -80.2626 281.52 -80.2907L281.24 -79.8698L281.576 -80.1785C281.576 -80.1785 281.576 -80.2065 281.576 -80.2346C282.138 -79.8417 282.98 -79.533 283.092 -79.0559C283.457 -77.4281 284.552 -76.6984 286.067 -76.3617C289.548 -75.632 291.401 -73.5833 292.186 -70.2997C292.664 -68.3071 293.73 -66.4268 294.488 -64.4903C295.05 -63.059 294.853 -61.74 293.758 -60.6174C292.411 -59.2703 292.916 -58.1477 294.179 -57.0812C294.348 -56.9409 294.516 -56.7164 294.544 -56.4919C294.628 -55.8183 294.881 -55.0044 294.572 -54.5273C294.292 -54.0783 293.337 -53.7135 292.748 -53.7696C291.541 -53.9099 290.39 -54.359 289.211 -54.6677C288.622 -54.8361 288.116 -54.6115 288.229 -54.1344C288.762 -51.7209 287.19 -50.2615 285.759 -48.6899C285.169 -48.0444 285.366 -47.2305 286.264 -47.0621C288.678 -46.585 290.081 -45.266 290.755 -43.0208C291.092 -41.8983 291.878 -40.916 293.057 -40.4389C294.376 -39.9057 295.779 -39.5128 297.127 -39.0357C296.986 -37.3798 298.165 -36.7063 299.456 -35.9766C300.776 -35.2469 300.748 -34.9943 299.962 -32.8895C299.625 -32.0195 300.242 -30.8688 301.169 -30.7285C301.646 -30.6443 302.123 -30.7285 302.6 -30.7005C303.077 -30.7005 303.611 -30.7285 304.032 -30.5601C304.425 -30.3917 304.705 -29.9427 305.042 -29.634L305.239 -29.7743C305.239 -29.7743 305.239 -29.5779 305.239 -29.4656C305.182 -29.5217 305.126 -29.5498 305.07 -29.6059C304.537 -29.1288 304.481 -28.6798 305.07 -28.2308C305.126 -28.2869 305.182 -28.343 305.239 -28.3991V-28.0904L305.042 -28.2308C305.66 -27.3888 306.642 -27.2766 307.596 -27.1082C309.533 -26.7714 310.431 -25.3682 310.993 -23.7965C311.189 -23.2072 311.105 -22.3652 310.796 -21.832C310.207 -20.8217 309.561 -19.5588 308.579 -19.1097C305.407 -17.6223 304.116 -14.1142 300.748 -12.9636C300.074 -12.7391 299.344 -12.5987 298.642 -12.4303C297.576 -12.1778 297.07 -11.4481 296.818 -10.4939C296.481 -9.14677 296.144 -7.79968 295.667 -6.50871C295.555 -6.2 294.825 -5.83514 294.488 -5.91934C292.551 -6.39644 291.008 -7.54709 289.576 -8.83807C289.239 -9.14677 289.015 -9.62389 288.902 -10.0448C288.65 -10.9429 288.481 -11.869 288.341 -12.7952C287.976 -14.9 287.05 -16.7804 285.702 -18.4642C284.664 -19.7552 283.71 -21.1023 282.699 -22.4214C282.306 -22.9265 281.155 -22.8704 280.875 -22.2811C280.566 -21.6636 280.285 -21.0462 280.117 -20.3727C279.555 -18.352 279.275 -18.1555 277.141 -18.1555C276.72 -18.1555 276.271 -18.2397 275.85 -18.3239C275.85 -18.3801 275.85 -18.4081 275.85 -18.4642L275.457 -18.6326L275.71 -18.352C275.71 -18.352 275.822 -18.352 275.878 -18.352C275.934 -17.931 275.906 -17.4259 276.159 -17.1452C277.619 -15.4613 278.068 -13.4968 277.983 -11.392C277.927 -10.3816 278.264 -9.53969 278.994 -8.8942C280.229 -7.79968 281.492 -6.67709 282.867 -5.75096C284.159 -4.88095 285.029 -3.92677 284.86 -2.32709C284.58 0.254868 285.113 2.72456 286.208 5.13812C286.488 5.75555 286.573 6.48523 286.741 7.15878C287.05 8.36557 286.853 9.57233 285.787 10.302C284.552 11.144 283.794 12.2385 283.008 13.4453C281.829 15.1853 281.576 16.813 282.671 18.6372C282.952 19.1143 282.727 19.6756 282.194 19.7879C281.829 19.844 281.24 19.5353 281.015 19.2266C280.229 18.0479 279.555 16.813 278.882 15.5782C278.18 14.2872 277.282 13.1646 275.878 12.6314C273.998 11.9017 272.482 10.7791 271.247 9.31975C269.703 7.49554 267.654 6.40105 265.408 5.58717C265.408 5.50298 265.408 5.41878 265.408 5.36264C265.324 5.30652 265.212 5.25037 265.128 5.19424C265.128 5.13812 265.128 5.05392 265.072 4.99779C265.016 4.9136 264.819 4.94167 264.679 4.9136C264.819 4.9978 264.987 5.11005 265.128 5.19424C265.156 5.3065 265.212 5.41876 265.24 5.53102C265.296 5.53102 265.352 5.58717 265.408 5.58717C265.38 6.93428 265.549 8.25331 266.7 9.17944C269.956 11.7895 271.78 15.3256 273.689 18.8056C274.419 20.1808 274.222 21.4998 273.492 22.7347C273.296 23.0714 272.678 23.4363 272.37 23.3521C270.966 22.9872 269.591 22.5663 268.272 21.9769C266.98 21.3876 265.858 20.2088 264.51 19.9282C261.423 19.2546 259.346 17.4024 257.381 15.3537C256.23 14.1469 255.051 12.9962 253.395 12.4069L253.535 12.5472C253.535 12.5472 253.451 12.5472 253.395 12.5472C253.395 12.5472 253.395 12.5191 253.395 12.4911C251.177 11.4807 249.493 9.88106 248.118 7.97266C247.528 7.15878 247.276 6.17651 247.725 5.33458C248.567 3.81909 247.921 2.92102 246.967 1.65811C245.564 -0.194153 244.665 -2.41127 243.486 -4.45999C242.869 -5.49838 241.999 -6.08774 240.623 -6.34032C238.041 -6.78935 235.262 -5.91934 232.792 -7.29451C232.427 -7.49097 231.838 -7.46291 231.389 -7.35065C230.434 -7.15419 229.452 -6.92967 228.582 -6.53677C225.073 -4.90901 222.435 -6.2 220.077 -8.64162C219.178 -9.59581 218.842 -11.4481 219.515 -12.5707C219.992 -13.3846 220.442 -14.3107 221.171 -14.8439C222.743 -15.9946 224.175 -17.2013 225.354 -18.7168C225.578 -18.9694 226.308 -19.1378 226.645 -18.9975C227.992 -18.4362 229.283 -17.7907 230.575 -17.1171C232.848 -15.9384 235.122 -15.6578 237.648 -16.5278C239.922 -17.3136 242.223 -18.0714 244.721 -17.9872C244.89 -17.9872 245.311 -18.8572 245.199 -19.1378C242.644 -24.6665 244.02 -24.9753 248.034 -27.6414C250.027 -28.9885 252.132 -30.1672 253.535 -32.1879C254.377 -33.3666 255.725 -34.0401 257.184 -34.405C258.279 -34.6856 258.728 -35.5837 258.812 -36.5098C259.065 -38.8392 259.037 -41.1686 259.374 -43.4699C259.682 -45.4905 259.654 -47.1744 257.296 -48.0725C256.932 -48.2128 256.623 -48.7741 256.511 -49.1951C255.949 -51.2719 254.518 -51.6648 252.553 -51.1596C252.076 -51.0473 251.598 -50.7948 251.149 -50.8509C250.7 -50.907 250.223 -51.1596 249.886 -51.4402C249.437 -51.8331 249.549 -52.9557 250.111 -53.3206C250.7 -53.7135 251.402 -53.9099 252.019 -54.2186C252.497 -54.4712 252.609 -54.8641 252.3 -55.3412C252.188 -55.5096 251.963 -55.678 251.767 -55.7903C249.83 -56.7164 247.921 -55.3132 246.013 -55.7622C245.676 -55.8464 245.255 -56.5199 245.311 -56.8287C245.479 -57.4461 245.816 -58.1477 246.321 -58.5406C246.855 -58.9616 247.697 -59.0177 248.342 -59.2983C249.1 -59.607 249.353 -60.4209 248.82 -60.9822C247.163 -62.7503 246.097 -64.771 245.479 -67.0723C245.199 -68.1106 243.964 -69.0087 243.851 -70.019C243.767 -71.0855 244.525 -72.2081 244.89 -73.3026C244.974 -73.5271 245.114 -73.7797 245.058 -73.9762C244.918 -74.3971 244.75 -74.9584 244.441 -75.1268C243.009 -75.8284 241.494 -76.3897 240.006 -77.0071C240.006 -77.0913 239.978 -77.1755 239.978 -77.2317C239.894 -77.2878 239.894 -77.3439 239.809 -77.4001C239.866 -78.2139 239.95 -79.0559 240.034 -79.8698C240.174 -79.982 240.399 -80.1504 240.371 -80.1785C240.062 -80.5714 239.95 -80.5152 240.034 -80.0101C240.034 -79.9539 240.034 -79.8978 240.034 -79.8417C238.659 -78.6349 238.63 -78.5226 239.809 -77.372C239.809 -77.2597 239.809 -77.1755 239.809 -77.0633C239.894 -77.0633 239.95 -77.0071 240.034 -76.9791C240.146 -76.1933 240.343 -75.3794 240.343 -74.5936C240.371 -72.4607 239.416 -71.1416 237.423 -70.6365C236.301 -70.3558 235.15 -70.2155 233.999 -69.991C234.055 -70.0471 234.111 -70.1032 234.167 -70.1594C233.662 -70.7207 233.185 -71.282 232.708 -71.8433C232.624 -71.8433 232.539 -71.8433 232.455 -71.8433C231.95 -72.8255 231.024 -73.022 229.985 -73.022C229.985 -73.0781 229.901 -73.1342 229.901 -73.1904L229.424 -73.3307L229.704 -73.022C229.704 -73.022 229.873 -73.022 229.957 -73.022C230.378 -71.8713 231.361 -71.7871 232.427 -71.8433C232.455 -71.7871 232.511 -71.7591 232.511 -71.7029C233.017 -71.1416 233.494 -70.5803 233.999 -69.991C233.578 -69.5419 233.157 -69.0087 232.652 -68.8403C232.034 -68.6719 231.136 -68.7842 230.575 -69.0929C229.368 -69.8507 228.301 -70.8049 227.15 -71.6749C226.757 -71.9555 226.364 -72.2081 225.971 -72.4607C225.775 -72.5729 225.494 -72.7694 225.298 -72.7133C222.154 -72.1239 219.88 -74.5655 216.989 -74.8742C216.287 -74.9584 215.558 -74.7058 214.828 -74.5936C213.593 -75.6881 211.937 -75.632 210.421 -75.9407C210.421 -75.8846 210.421 -75.8565 210.421 -75.8284C211.684 -74.8181 213.144 -74.341 214.8 -74.4252C214.94 -73.3026 215.305 -72.2642 216.765 -72.3203C218.617 -72.3765 219.375 -71.5065 219.347 -69.9349C219.319 -67.8861 220.357 -66.6232 222.238 -65.8935C222.94 -64.7429 223.782 -63.6203 222.575 -62.3013C221.929 -61.5716 221.817 -60.7577 221.761 -59.8035C221.592 -57.0812 220.61 -56.1551 217.859 -55.9586C216.989 -55.9025 216.091 -56.1551 215.193 -56.2954V-56.3515L214.659 -56.4638L214.996 -56.3235C214.996 -56.3235 215.108 -56.3235 215.165 -56.2954C214.884 -54.9483 214.659 -53.6012 214.266 -52.2822C213.845 -50.8789 213.789 -49.588 214.519 -48.2409C214.968 -47.427 215.165 -46.5009 215.445 -45.6028C215.81 -44.4241 215.53 -43.3015 214.884 -42.2631C214.014 -40.8879 213.228 -39.4566 211.263 -39.0637C210.393 -38.8953 209.551 -38.1937 208.849 -37.5763C206.828 -35.8363 204.526 -34.5172 202.084 -33.4227C198.52 -31.823 194.955 -32.244 191.446 -33.6472C191.222 -33.7314 190.969 -33.8998 190.913 -34.0963C189.987 -36.7343 187.825 -36.6221 185.58 -36.3134C184.99 -36.2292 184.794 -35.7521 185.018 -35.2189C185.103 -34.9943 185.215 -34.7979 185.327 -34.6014C186.618 -32.2721 186.618 -32.2721 184.738 -30.5321C184.429 -30.2514 184.12 -29.9427 183.783 -29.6621C183.755 -29.634 183.699 -29.6059 183.671 -29.5498C183.222 -29.1288 182.773 -28.7079 182.324 -28.2588C180.639 -26.9678 178.955 -25.6488 177.271 -24.3578C176.457 -23.7404 176.12 -23.0107 176.205 -22.0004C176.205 -21.5794 176.092 -20.9901 175.784 -20.7094C172.078 -17.3417 168.373 -14.002 164.64 -10.7184C163.658 -9.8484 162.395 -9.87646 161.188 -10.2694C160.037 -10.6623 158.942 -11.1955 157.791 -11.5603C157.061 -11.8129 156.219 -11.6165 155.939 -10.9429C154.591 -7.60323 151.84 -6.84547 148.5 -7.06999C148.5 -7.12611 148.5 -7.18225 148.5 -7.26645C148.332 -7.29451 148.135 -7.32257 147.939 -7.37871C148.051 -7.29451 148.192 -7.18225 148.304 -7.09807C148.388 -7.09807 148.444 -7.09807 148.5 -7.09807C148.584 -6.00354 148.753 -4.90903 148.697 -3.81451C148.697 -3.56194 108.558 20.9105 112.459 38.4228C112.684 39.377 113.442 39.8822 114.537 39.9664C115.491 40.0225 116.473 40.0506 117.428 40.247C117.821 40.3312 118.354 40.7522 118.466 41.117C118.719 41.987 118.859 42.9412 118.887 43.8393C119 46.3932 118.887 48.9471 119.14 51.4729C119.364 53.69 118.494 55.43 117.343 57.142C117.259 57.142 117.175 57.142 117.091 57.142L117.007 57.5068L117.259 57.3103C117.259 57.3103 117.315 57.1981 117.372 57.17C119.561 57.4507 121.554 56.6087 123.603 56.1036C124.838 55.7949 126.073 55.9632 127.168 56.5807C129.526 57.8436 131.911 59.0784 134.213 60.3975C136.795 61.8568 139.013 63.7652 140.388 66.291C141.708 68.6765 143.56 70.4165 146.086 71.5672C148.809 72.802 151.055 74.5701 152.823 76.8995C153.44 77.7133 154.395 78.1063 155.405 78.0782C159.391 77.994 163.124 79.4814 167.026 79.8182C167.475 79.8743 168.149 81.0811 168.008 81.5582C167.672 82.6808 167.307 83.7753 166.942 84.8979C166.577 86.0205 165.875 87.1431 165.931 88.2376C166.1 91.9141 164.5 95.0573 162.872 98.2006C162.423 99.0706 162.254 99.9406 162.816 100.839C164.444 103.421 165.173 106.452 167.728 108.556C168.57 109.23 168.766 110.605 169.271 111.672C169.58 112.317 169.805 112.963 170.114 113.58C170.478 114.282 171.994 114.59 172.696 114.085C173.875 113.299 174.717 111.98 176.513 112.345C176.85 112.401 177.44 112.065 177.664 111.756C178.45 110.577 179.18 109.342 179.797 108.079C180.078 107.49 180.162 106.732 180.134 106.059C180.078 104.234 179.797 102.382 179.854 100.558C179.91 98.7057 180.162 96.8535 180.499 95.0293C181.004 92.2228 180.724 89.4444 180.611 86.6379C180.555 85.4031 181.145 84.4208 182.464 83.9156C184.288 83.214 186.141 82.5405 187.966 81.8389C191.867 80.3234 195.544 78.4711 198.52 75.5524C199.362 74.7385 200.541 74.2614 201.523 73.5598C201.86 73.3072 202.337 72.7459 202.253 72.4933C201.186 69.6588 203.291 67.0207 202.702 64.2143C202.169 61.6884 201.972 59.1345 201.495 56.6087C201.326 55.7387 200.821 54.8687 200.288 54.111C199.614 53.1287 198.744 52.2868 198.014 51.3606C196.948 50.0135 197.004 48.6384 198.014 47.5158C200.12 45.2425 202.814 43.5025 204.19 40.6399C204.442 40.1067 205.368 39.8261 205.986 39.4612C207.361 38.6754 208.26 37.7773 207.698 36.0654C207.418 35.1954 207.165 34.157 207.361 33.315C207.839 31.1541 205.986 29.1615 206.828 27.197C207.558 25.5131 209.074 24.166 210.252 22.6785C211.095 21.584 210.926 20.5175 210.252 19.423C209.298 17.8795 209.438 16.3359 210.084 14.7082C211.151 12.014 214.294 10.302 217.186 11.0878C218.364 11.3966 219.628 11.7053 220.582 12.3788C223.08 14.175 226.112 14.1188 228.947 14.7362C229.845 14.9327 230.968 14.8204 231.81 14.4837C234.111 13.5856 235.599 14.4837 236.862 16.1395C237.592 17.0656 238.462 17.9917 238.827 19.0301C239.444 20.8543 240.511 22.3698 241.774 23.8011C242.307 24.4185 242.111 25.0921 242.083 25.7937C242.055 26.5234 242.279 27.1689 243.009 27.5337C243.879 27.9547 244.778 28.7124 245.648 28.7124C248.034 28.7124 249.409 30.7612 251.598 31.0418C252.3 31.126 252.749 32.2486 252.384 32.7538C251.009 34.7183 250.223 36.9073 249.353 39.0683C249.1 39.7138 248.483 40.5277 248.679 41.0048C249.69 43.4464 248.118 45.5512 247.977 47.8245C247.893 49.2277 248.09 50.659 249.662 51.4168C250.784 51.978 251.711 52.7358 252.132 53.9145C252.469 54.8126 253.002 55.5423 253.816 56.1316C254.854 56.8613 255.949 57.3945 257.24 56.8894C258.391 56.4684 259.486 55.9632 260.524 55.3739C261.338 54.8968 261.956 53.9987 262.826 53.6619C266.335 52.3429 268.159 49.6206 269.619 46.6458C271.078 43.6709 273.436 41.2854 275.233 38.5351C275.317 38.3948 275.738 38.2825 275.906 38.3386C276.299 38.507 276.889 38.7035 277.001 39.0122C277.282 39.8822 277.422 40.8364 277.534 41.7625C277.927 44.99 278.517 48.1893 279.752 51.2764C280.285 52.5674 280.594 53.9706 280.846 55.3177C281.043 56.4403 280.847 57.6471 281.211 58.7136C281.52 59.6116 280.678 60.7342 281.632 61.3236C282.867 62.0533 282.194 63.5126 283.148 64.3265C283.653 64.7475 284.271 65.5614 284.159 66.0665C283.681 68.0591 284.411 69.6869 285.534 71.2585C286.124 72.1004 286.067 73.0266 285.31 73.8124C284.467 74.6824 283.569 75.4682 282.727 76.3101C281.997 77.0679 282.025 77.9659 282.783 78.8359C283.569 79.734 284.271 80.7163 285.141 81.474C286.966 83.0737 288.902 84.505 289.436 86.9747C289.52 87.3676 289.997 87.7605 290.418 87.957C292.804 89.1076 295.471 89.7531 297.211 91.886C297.407 92.1386 298.165 92.0263 298.642 91.9702C300.13 91.8299 300.832 92.7841 301.534 93.7383C302.179 94.6364 302.011 95.7309 301.112 96.1519C300.467 96.4605 299.737 96.6009 299.063 96.8815C298.727 97.0219 298.474 97.3306 298.193 97.5551C298.418 97.6112 298.642 97.7234 298.895 97.7515C299.625 97.8076 300.383 97.7796 301.112 97.9199C302.46 98.1444 303.246 99.0425 303.611 100.221C303.807 100.867 303.863 101.568 303.947 102.242C303.891 102.242 303.863 102.242 303.807 102.242L303.47 102.523L303.947 102.27C303.947 102.27 303.947 102.242 303.947 102.214C306.474 101.849 307.989 103.252 309.14 105.104C309.477 105.638 309.589 106.48 309.477 107.125C309.309 108.023 308.944 108.921 308.523 109.735C307.933 110.886 308.13 111.896 308.635 113.019C309.421 114.815 295.358 124.217 293.927 125.199C289.885 127.949 278.713 130.643 271.977 129.717C265.184 128.791 258.363 127.949 251.486 127.809C249.802 127.781 248.006 126.798 246.462 127.725C244.806 128.707 243.43 130.054 241.943 131.261C241.578 131.569 241.269 131.962 241.101 132.383C240.286 134.348 238.546 135.078 236.609 135.639C233.522 136.565 230.771 138.052 228.357 140.073C227.487 140.803 226.898 141.701 227.01 142.851C226.954 142.88 226.898 142.908 226.841 142.964C226.757 143.048 226.701 143.104 226.617 143.188C224.68 143.497 224.512 143.665 224.231 145.574C224.147 145.658 224.062 145.742 223.978 145.826C222.912 146.191 221.845 146.556 220.807 146.921C220.273 147.342 219.74 147.763 219.207 148.184L219.066 148.717L219.207 148.38C219.796 147.959 220.357 147.538 220.947 147.117C222.013 146.752 223.08 146.36 224.175 145.995C224.175 145.854 224.203 145.742 224.231 145.602C225.017 144.816 225.831 144.03 226.617 143.216C226.757 143.216 226.869 143.188 227.01 143.16C227.01 143.076 227.01 142.992 227.01 142.908C232.708 139.119 239.388 137.912 245.928 136.312C248.427 135.695 250.784 136.537 252.833 137.912C253.591 138.417 254.069 139.315 254.546 140.101C255.107 141.055 254.714 142.627 253.9 143.301C252.44 144.563 250.7 145.405 248.876 146.051C248.455 146.219 248.006 146.331 247.585 146.472C247.809 146.584 248.006 146.752 248.23 146.781C248.707 146.865 249.213 146.78 249.69 146.921C250.925 147.23 251.514 147.959 251.065 148.857C249.942 151.018 249.998 153.207 250.335 155.537C250.728 158.175 252.047 159.606 254.77 159.803C254.911 161.234 255.556 162.216 257.268 162.356C258.082 162.413 260.216 165.949 253.704 172.039C251.795 171.618 250.504 172.319 249.381 173.807C247.444 176.305 244.693 177.876 241.746 179.111C241.381 179.251 240.736 179.111 240.371 178.887C239.052 178.129 238.125 177.006 237.844 175.603C237.676 174.761 237.845 173.723 238.181 172.909C239.052 170.888 240.651 169.429 242.701 168.474C243.571 168.054 244.553 167.829 245.395 167.408C245.676 167.268 245.732 166.678 245.844 166.314C245.844 166.285 245.423 166.033 245.255 166.061C242.841 166.51 240.455 166.959 238.069 167.548C237.452 167.717 236.722 168.306 236.497 168.867C236.16 169.765 235.992 170.72 234.841 170.916C231.725 171.449 228.806 172.937 225.466 172.656C224.259 172.572 223.024 172.937 222.07 173.807C220.778 174.986 219.178 175.547 217.579 176.164C214.659 177.259 212.723 179.336 211.459 181.974C210.758 183.433 210.281 185.033 209.775 186.576C209.41 187.671 210.253 189.13 211.6 190C213.424 191.151 213.509 191.684 211.965 192.807C211.375 193.228 210.73 193.901 210.112 193.901C205.902 193.817 201.972 195.838 197.706 195.248C197.481 195.22 197.2 195.248 196.976 195.248C196.723 195.276 196.33 195.276 196.274 195.388C196.078 195.894 196.386 196.09 197.06 196.146C197.537 196.174 198.014 196.315 198.463 196.511C198.66 196.595 198.828 196.876 198.828 197.1C198.828 197.297 198.66 197.549 198.492 197.662C197.874 198.027 197.228 198.448 196.555 198.616C195.123 198.953 193.664 199.233 192.204 199.318C190.015 199.458 188.527 199.963 188.134 202.433C187.657 205.239 186.085 207.653 183.98 209.701C183.11 210.543 182.183 211.301 180.836 211.245C180.218 211.245 179.854 211.47 179.826 212.003C179.797 212.704 179.882 213.406 179.769 214.08C179.601 214.978 179.517 215.988 179.04 216.746C177.917 218.542 176.598 220.226 175.306 221.91C175.194 222.078 174.745 222.246 174.661 222.19C174.324 221.938 173.847 221.573 173.819 221.236C173.763 220.085 174.099 218.879 172.949 218.037C172.78 217.924 172.528 217.812 172.303 217.812C172.106 217.812 171.742 217.952 171.742 218.065C171.545 220.142 171.321 222.19 171.236 224.267C171.236 224.941 171.433 225.698 171.798 226.26C173.033 228.056 172.696 229.908 171.798 231.592C171.124 232.911 171.629 233.725 172.303 234.735C172.724 235.381 172.303 236.138 171.798 236.616C171.096 237.261 170.282 237.794 169.468 238.299C168.85 238.664 168.149 238.889 168.121 239.759C168.093 241.078 167.307 242.004 165.987 242.257C163.209 242.762 160.963 244.109 158.942 245.905C157.679 247.027 156.388 248.038 154.647 248.515C153.777 248.739 153.019 249.525 152.374 250.199C151.532 251.041 150.914 252.079 150.1 252.949C149.118 254.016 148.023 254.942 146.564 255.363C146.086 255.503 145.637 255.728 145.16 255.84C141.062 256.822 138.676 259.881 136.066 262.66C135.476 263.305 135.167 264.343 135.083 265.241C134.522 270.854 134.241 276.439 136.487 281.828C136.571 282.052 136.683 282.277 136.711 282.501C136.936 284.354 136.964 286.206 137.385 288.002C137.806 289.826 138.592 291.566 139.181 293.334C139.322 293.755 139.294 294.26 139.266 294.709C138.957 298.021 137.862 301.108 136.009 303.943C135.111 305.318 132.697 305.627 131.518 304.364C130.255 302.96 128.768 301.557 128.066 299.873C126.55 296.197 124.249 292.857 123.21 288.984C122.087 287.777 122.115 286.486 122.761 285.083C123.07 284.438 123.238 283.764 123.491 283.091C123.968 281.912 123.827 280.789 123.013 279.807C121.498 277.955 120.01 276.102 118.41 274.334C117.736 273.605 116.726 273.352 115.715 273.689C114.789 273.998 113.919 274.419 112.993 274.755C111.786 275.204 110.467 275.317 109.54 274.362C106.818 271.5 103.393 270.686 99.5195 270.882C96.067 271.051 92.6426 270.181 89.1901 270.77C88.2357 270.939 87.1972 270.939 86.299 271.247C85.1762 271.64 84.1376 272.089 84.0254 273.577C83.9412 274.896 83.3798 276.215 83.0149 277.506C81.6956 278.039 80.4325 278.769 79.0571 278.993C76.3344 279.442 73.6959 279.498 71.9275 276.72C71.1135 275.457 69.682 275.12 68.0259 275.822C66.6224 276.439 65.1348 276.159 63.7313 275.625C61.8507 274.924 59.7736 274.531 57.9491 275.233C55.7316 276.103 53.2615 276.355 51.3528 278.011C48.7985 280.256 45.767 281.519 42.2022 282.108C39.1989 282.613 37.234 285.027 36.2235 287.805C35.1007 290.893 34.3148 294.092 34.6797 297.404C34.9323 299.845 34.5674 301.978 32.7991 303.915C32.2096 304.588 31.957 305.57 31.7325 306.468C30.6097 311.239 30.0764 316.123 29.7957 321.006C29.7115 322.381 29.8799 323.812 30.0764 325.188C30.3851 327.264 30.8342 329.313 31.2272 331.362C31.4518 332.541 31.8447 333.635 32.6868 334.533C34.4832 336.498 35.8025 338.687 36.8691 341.072C37.655 342.812 38.9182 344.215 40.9391 344.861C42.5952 345.394 44.139 346.096 45.2899 347.387C46.8336 349.099 48.8546 348.93 50.7353 348.565C53.1212 348.06 55.3948 347.078 57.7526 346.489C58.9034 346.208 60.3069 345.984 61.3454 346.348C63.7874 347.246 65.612 347.303 66.5102 344.552C69.4855 342.223 70.8047 339.023 71.7591 335.6C72.0679 334.505 72.517 333.411 73.0222 332.344C73.8924 330.52 75.3239 329.341 77.5414 329.285C80.0114 329.229 82.4254 329.061 84.7271 328.078C87.534 326.9 90.5093 327.349 93.4566 327.433C94.7758 327.461 96.0951 329.341 95.7021 330.492C95.4776 331.165 95.2811 331.867 94.86 332.428C94.046 333.579 93.1478 334.702 92.1654 335.74C90.6216 337.396 89.8918 339.192 90.0322 341.437C90.1164 343.037 89.6953 344.664 89.3865 346.264C89.1059 347.752 88.2638 348.79 86.4393 348.846C85.5691 348.846 85.1762 349.492 85.092 350.193C84.8674 351.568 84.5025 353 84.6429 354.347C84.9236 357.378 83.885 359.819 81.6395 361.896C81.2746 362.233 81.4991 362.738 82.1166 362.878C83.2955 363.131 84.5306 363.412 85.7375 363.412C87.7024 363.412 89.6673 363.019 91.604 363.103C94.0741 363.243 96.3196 361.952 98.874 362.542C101.007 363.019 103.253 363.243 105.442 363.328C107.772 363.384 109.512 364.422 111.112 365.797L110.859 366.106L111.309 365.966C111.309 365.966 111.196 365.853 111.14 365.825C112.038 366.134 112.993 366.387 113.863 366.836C114.228 367.004 114.649 367.565 114.621 367.93C114.537 370.231 114.705 372.673 114.003 374.806C113.273 377.051 112.6 379.184 112.544 381.541C112.544 382.44 112.235 383.478 111.702 384.151C110.102 386.172 110.074 388.473 110.13 390.803C110.13 391.476 110.354 392.206 110.691 392.767C111.786 394.591 112.852 396.416 114.172 398.072C116.417 400.878 118.943 403.432 122.985 403.797C125.175 405.116 127.168 404.414 129.161 403.292C130.003 402.814 130.957 402.506 131.799 402.057C134.522 400.569 137.385 400.541 140.332 401.159C142.522 401.636 144.514 402.422 146.142 403.965C147.349 405.116 148.613 406.21 149.932 407.249C150.241 407.501 150.718 407.557 151.139 407.67C151.139 407.726 151.111 407.782 151.083 407.866L151.251 408.119V407.698C151.251 407.698 151.195 407.698 151.139 407.698C151.391 406.856 151.504 405.93 152.037 405.34C153.16 404.134 154.479 403.011 155.911 402.113C157.51 401.131 158.212 399.896 158.465 398.128C158.717 396.219 160.037 394.732 161.356 393.329C162.366 392.262 163.602 391.532 165.23 391.701C165.707 391.757 166.408 391.953 166.689 391.701C168.654 390.017 171.18 390.017 173.566 389.456C175.727 388.922 177.58 387.744 179.18 386.228C180.415 385.021 181.987 384.32 183.727 384.039C184.373 383.927 185.159 384.18 185.804 384.46C186.646 384.825 187.067 386.341 186.534 386.874C185.524 387.884 184.429 388.81 183.418 389.792C182.773 390.438 183.166 391.083 183.531 391.673C184.036 392.515 184.569 392.739 185.271 392.487C186.422 392.038 187.516 391.476 188.695 391.168C190.295 390.719 191.222 389.849 191.306 388.221C191.306 387.772 191.558 387.323 191.755 386.902C192.092 386.144 193.383 385.471 194.141 385.555C194.955 385.639 195.488 386.116 195.713 386.818C196.246 388.614 197.453 389.512 199.39 389.764C200.372 389.877 201.326 390.073 202.281 390.27C203.881 390.606 204.863 391.561 205.2 393.076C205.256 393.301 205.256 393.553 205.34 393.778C205.761 394.788 206.463 395.293 207.53 395.237C209.747 395.125 211.965 395.041 214.154 394.816C216.175 394.62 218 394.704 219.74 395.911C222.659 397.903 226.28 396.416 228.497 394.563C228.975 394.171 228.975 393.272 229.283 392.655C229.536 392.15 230.182 391.953 230.547 392.346C231.445 393.272 232.427 393.721 233.774 393.637C235.964 393.525 238.209 393.216 240.371 393.918C240.595 393.974 240.876 394.114 240.988 394.283C241.213 394.732 241.016 395.097 240.511 395.321C240.287 395.433 240.062 395.49 239.837 395.574C239.192 395.798 238.209 395.854 238.434 396.724C238.574 397.258 239.332 397.763 239.922 398.072C241.662 398.942 243.458 399.727 245.255 400.457C247.276 401.271 248.455 402.534 248.37 404.723C248.342 405.537 248.96 405.902 249.746 405.986C250.953 406.126 252.244 406.042 253.395 406.407C254.77 406.856 256.146 407.501 257.268 408.371C258.981 409.69 260.44 411.262 262.012 412.749C262.91 413.591 263.444 414.63 263.808 415.752C263.949 416.145 264.314 416.734 264.651 416.791C267.71 417.324 269.731 419.569 272.229 420.944C272.847 421.281 273.605 421.534 274.278 421.562C276.973 421.674 279.696 421.73 282.39 421.646C285.141 421.562 287.808 421.758 290.278 422.993C290.923 423.33 291.625 423.638 292.327 423.751C298.306 424.789 302.207 428.746 306.221 432.535C307.288 433.545 307.961 434.78 308.214 436.211C308.719 439.074 310.179 441.516 312.2 443.592C313.238 444.659 313.8 445.95 314.698 447.016C315.568 448.027 315.624 449.205 315.372 450.328C314.979 452.096 314.389 453.836 313.884 455.604C311.779 456.109 309.814 456.895 308.214 458.383C309.337 458.467 310.431 458.579 310.993 459.674C312.649 458.214 314.642 458.102 316.719 458.383C316.719 458.411 316.719 458.467 316.691 458.523L317.084 458.635L316.859 458.411C316.859 458.411 316.775 458.411 316.747 458.411C316.831 458.018 316.915 457.597 317.028 457.232C318.88 457.765 320.761 458.242 322.529 458.916C323.68 459.337 324.915 460.431 324.438 462.284C324.326 462.733 324.213 463.21 324.101 463.631C323.961 464.192 324.101 464.557 324.578 464.557C324.775 464.557 325.055 464.388 325.14 464.192C326.206 462.284 327.919 461.863 330.108 461.975C332.634 462.115 334.936 462.789 337.237 463.715C340.157 464.865 342.739 466.746 346.107 466.97C346.865 467.026 347.763 468.009 348.241 468.738C348.858 469.721 349.111 470.927 349.532 471.994C349.841 472.78 350.542 473.145 351.216 472.836C352.114 472.443 352.956 471.91 353.854 471.601C354.528 471.376 355.342 471.236 355.988 471.405C361.714 472.808 367.496 473.846 373.475 473.65C375.215 473.594 376.871 473.986 378.415 474.828C381.811 476.681 385.517 478.084 387.762 481.452C389.137 483.472 391.832 484.006 393.713 485.521C395.257 486.756 396.969 487.429 399.13 487.261C400.281 487.177 401.544 487.682 402.667 488.131C403.284 488.384 403.986 488.945 404.211 489.534C405.474 492.565 406.653 495.624 407.719 498.74C408.365 500.62 407.607 506.008 406.681 508.366C405.698 510.807 404.211 512.94 402.358 514.849C400.505 516.729 398.625 518.609 396.576 520.265C394.836 521.696 393.6 523.352 392.674 525.289C392.365 525.934 391.916 526.495 391.692 527.169C390.569 530.424 388.632 532.978 385.208 534.41C383.973 534.943 383.58 536.178 383.58 537.357C383.58 539.91 383.776 542.464 383.776 545.018C383.776 548.751 383.776 552.511 383.608 556.244C383.467 559.275 383.159 562.278 381.166 564.916C380.155 566.291 380.183 568.031 380.408 569.659C380.717 571.848 380.071 573.728 378.78 575.581C377.152 577.91 375.889 580.436 374.429 582.877C373.784 583.944 373.615 585.066 373.924 586.245C374.205 587.284 373.727 588.125 372.913 588.687C371.735 589.529 370.078 589.922 369.236 590.96C367.356 593.289 364.858 593.794 362.107 593.851C360.647 593.851 359.16 593.542 357.728 593.71C356.268 593.907 354.865 594.244 353.349 593.907C353.012 593.823 352.227 594.159 352.17 594.44C351.805 595.956 350.458 596.657 349.42 597.639C348.185 598.818 346.753 599.407 345.069 599.941C342.065 600.923 339.287 602.467 336.985 604.684C335.609 606.031 334.15 607.294 332.662 608.5C329.069 611.363 328.283 615.068 328.985 619.249C329.069 619.698 329.097 620.203 329.322 620.596C331.203 623.964 330.024 627.135 328.031 629.83C325.027 633.899 322.866 638.305 320.817 642.795C320.368 643.806 319.694 644.844 318.319 644.984C318.15 644.367 318.038 643.722 317.814 643.104C317.673 642.739 317.308 642.206 317.028 642.206C316.635 642.206 316.101 642.515 315.849 642.852C314.782 644.367 314.193 646.051 313.772 647.819C313.154 647.987 312.509 648.072 312.003 648.352C310.488 649.194 310.263 650.064 310.852 652.001C310.881 652.001 310.937 652.001 310.965 652.001C310.965 652.057 310.937 652.141 310.881 652.225L310.74 652.057C310.123 654.33 309.533 656.575 308.916 658.82C308.354 660.897 307.456 662.778 305.632 664.153C304.004 665.359 303.554 667.296 302.572 668.896C300.579 672.039 297.66 673.274 293.955 673.246C292.467 673.246 291.008 673.218 289.548 673.105C288.818 673.077 288.004 673.021 287.415 672.712C284.215 670.888 280.622 670.916 277.113 670.523C277.057 670.439 276.973 670.411 276.889 670.327C276.805 670.243 276.748 670.187 276.664 670.102C276.664 670.074 276.664 670.018 276.664 669.99C276.608 669.906 276.44 669.85 276.327 669.794C276.44 669.906 276.552 670.018 276.664 670.102C276.664 670.243 276.664 670.355 276.72 670.495C276.861 670.495 276.973 670.495 277.113 670.523C278.489 672.067 280.566 672.74 282.11 674.116C283.485 675.322 284.355 676.585 283.597 678.409C283.317 679.055 283.204 679.757 283.176 680.458C283.148 681.16 283.373 681.861 284.074 682.254C284.692 682.591 285.422 682.844 286.039 683.181C287.05 683.742 287.723 685.089 287.471 686.155C287.246 687.053 287.022 687.98 286.657 688.821C286.011 690.337 284.917 691.74 284.608 693.284C284.046 696.006 282.082 697.185 279.808 698.139C278.461 698.7 277.029 699.093 275.654 699.598C270.489 701.563 265.184 702.012 259.71 700.917C258.307 700.637 257.549 701.535 257.858 703.022C257.942 703.471 258.11 703.92 258.251 704.369C258.335 704.594 258.503 704.846 258.475 705.043C258.251 706.643 257.83 708.242 257.802 709.842C257.802 711.217 258.307 712.592 258.335 713.967C258.391 715.736 256.033 717.897 253.984 718.177C251.991 718.43 250.083 718.289 248.258 717.307C246.995 716.634 245.592 716.185 244.216 715.707C243.29 715.399 241.971 716.381 242.195 717.139C242.336 717.588 242.532 718.009 242.644 718.43C242.981 719.805 243.29 721.152 243.627 722.527C244.188 724.772 246.406 725.755 248.735 724.8C249.184 724.604 249.577 724.323 250.027 724.127C250.7 723.874 251.739 724.239 251.907 724.828C252.272 725.951 252.637 727.046 252.862 728.196C253.142 729.599 251.991 730.75 250.251 730.862C249.774 730.862 249.297 730.722 248.848 730.666C248.904 730.582 248.96 730.498 249.044 730.441C248.904 730.441 248.792 730.441 248.651 730.441C248.342 729.964 248.034 729.487 247.641 729.066C247.585 728.982 247.164 729.066 246.995 729.178C246.518 729.487 246.462 730.02 246.939 730.189C247.472 730.385 248.062 730.413 248.651 730.441C248.707 730.526 248.763 730.61 248.848 730.694C248.848 730.694 248.848 730.694 248.876 730.694C248.062 731.732 247.304 732.827 246.321 733.725C244.75 735.156 244.3 736.84 244.497 738.805C244.581 739.478 244.637 740.236 244.918 740.853C245.956 743.07 244.188 744.839 243.935 746.887C243.907 747.224 243.346 747.589 242.925 747.785C241.381 748.487 239.697 748.964 238.237 749.806C237.227 750.367 236.357 751.265 235.627 752.163C233.718 754.605 233.971 756.991 236.301 758.983C237.395 759.909 238.602 760.723 239.725 761.621C240.708 762.407 241.802 762.884 243.065 762.94C245.564 762.996 246.349 764.624 246.799 766.561C246.967 767.234 247.023 767.936 247.107 768.637C247.276 769.844 246.995 770.967 246.209 771.921C244.862 773.577 243.514 775.233 241.971 776.748C240.483 778.179 239.781 779.807 239.95 781.772C240.146 784.045 239.276 785.813 237.367 787.188C236.609 787.749 235.936 788.451 235.318 789.125C233.943 790.64 233.522 792.38 234.167 794.345C234.757 796.113 235.094 797.993 235.936 799.621C236.778 801.249 238.181 802.624 239.248 804.167C239.444 804.448 239.416 805.093 239.22 805.374C238.995 805.683 238.434 805.823 238.013 805.935C237.816 805.991 237.536 805.907 237.311 805.851C235.459 805.318 234.841 806.469 234.252 807.675C234.139 807.675 234.027 807.675 233.915 807.675C233.915 807.788 233.859 807.9 233.831 808.012C231.361 808.658 229.957 810.229 229.62 812.643C229.48 813.541 229.564 814.467 229.62 815.365C229.62 815.534 229.901 815.758 230.097 815.842C230.182 815.87 230.462 815.646 230.547 815.505C230.659 815.309 230.687 815.084 230.687 814.86C230.911 812.811 230.855 810.706 233.325 809.584C233.69 809.415 233.746 808.63 233.859 807.984C233.971 807.956 234.055 807.9 234.167 807.872C234.195 807.788 234.252 807.732 234.28 807.647C235.15 807.619 235.992 807.535 236.862 807.591C240.09 807.732 241.746 808.994 242.364 812.025C242.616 813.204 242.981 814.074 243.767 815.028C245.114 816.712 247.079 817.722 248.483 819.322C248.763 819.659 249.241 819.94 249.662 820.108C252.749 821.455 255.865 822.802 258.981 824.037C259.823 824.374 260.974 823.897 261.675 824.767C261.788 824.935 261.872 825.328 261.788 825.384C260.272 826.479 258.812 827.686 257.156 828.527C256.454 828.864 255.304 828.415 254.349 828.247C253.76 828.163 253.255 828.247 253.17 828.78C253.002 829.79 252.525 830.436 251.43 830.745C250.083 831.081 248.763 831.474 247.444 831.839C247.444 831.783 247.444 831.783 247.444 831.727C247.36 831.671 247.276 831.615 247.192 831.586C247.135 831.306 247.051 831.166 246.883 831.39C246.995 831.446 247.079 831.502 247.192 831.586C247.192 831.699 247.248 831.755 247.248 831.923C247.332 831.923 247.388 831.895 247.472 831.867C247.949 833.944 247.921 833.972 246.378 833.888C245.423 833.832 244.469 833.691 243.514 833.719C242.813 833.719 242.055 834.056 241.409 833.944C240.483 833.804 239.529 833.467 238.743 832.99C237.845 832.428 238.013 831.418 238.097 830.52C238.125 830.071 238.125 829.594 237.985 829.173C237.788 828.696 237.283 828.584 236.75 828.836C235.402 829.397 234.841 830.632 233.971 831.671C232.989 831.615 231.922 831.474 231.529 830.576C230.827 828.976 229.789 827.91 227.992 827.517C227.403 827.405 227.178 827.012 227.291 826.451C227.74 824.654 226.589 824.009 225.045 823.672C224.624 823.588 224.203 823.42 223.782 823.279C223.782 822.914 223.726 822.494 223.866 822.185C224.091 821.652 224.034 821.343 223.473 821.343C223.305 821.343 223.052 821.539 222.968 821.708C222.687 822.213 222.435 822.746 222.182 823.279C221.256 823.279 220.217 823.532 219.375 823.279C218.028 822.858 216.456 822.353 215.558 821.399C213.087 818.789 210.056 816.965 207.081 815C206.772 814.804 206.744 814.214 206.688 813.765C206.688 813.625 207.025 813.316 207.193 813.344C207.67 813.344 208.203 813.429 208.568 813.653C210.393 814.776 212.386 815.056 214.491 814.86C214.547 814.916 214.631 814.944 214.687 815C214.828 815 214.884 815.113 214.996 815.169C215.137 815.618 215.445 815.926 215.922 816.067C215.979 816.179 216.063 816.263 216.091 816.375L216.428 816.544L216.259 816.207C216.119 816.207 216.035 816.095 215.922 816.067C215.754 815.646 215.445 815.337 214.996 815.169C214.968 815.056 214.856 814.972 214.856 814.832C214.715 814.86 214.603 814.832 214.491 814.86C213.003 813.822 211.544 812.727 210 811.745C208.849 811.015 208.232 810.201 208.737 808.854C207.754 807.339 207.165 805.458 204.751 805.346C204.049 805.346 203.347 805.009 202.674 804.785C202.169 804.616 201.916 804.139 202.169 803.69C202.393 803.325 202.814 802.989 203.235 802.876C203.656 802.764 204.19 802.961 204.667 802.961C205.789 802.961 206.323 802.203 206.94 801.473C207.726 800.519 207.361 799.789 206.632 799.031C205.958 798.33 205.593 797.516 205.593 796.506C205.593 795.58 205.144 794.794 204.47 794.148C204.498 794.064 204.526 793.98 204.583 793.896L204.133 793.671L204.386 794.064C204.386 794.064 204.442 794.12 204.47 794.148C203.712 795.776 203.825 797.516 203.656 799.228C203.544 800.407 202.983 800.968 201.888 800.94C200.765 800.94 199.895 800.21 200.204 799.284C200.934 796.983 200.063 794.766 200.091 792.492L199.867 792.689C199.867 792.689 199.867 792.52 199.867 792.436C199.923 792.436 199.979 792.464 200.035 792.464C200.962 791.454 200.934 791.229 200.035 789.77C199.979 789.77 199.951 789.77 199.923 789.77V789.63C198.856 788.956 197.79 788.255 196.667 787.609C194.899 786.599 194.899 786.627 195.235 784.634C195.348 783.989 195.32 783.343 195.376 782.698C195.432 782.726 195.488 782.782 195.516 782.81L195.685 782.529L195.376 782.67C195.039 782.445 194.702 782.249 194.421 781.94C193.72 781.182 194.029 780.256 193.916 779.386C193.86 778.797 193.046 778.32 192.793 777.702C192.429 776.86 192.232 775.962 192.064 775.092C191.895 774.11 192.372 773.408 193.13 772.735C194.225 771.781 195.516 771.556 196.863 771.332C196.863 771.388 196.863 771.416 196.863 771.472C196.948 771.5 197.032 771.528 197.144 771.556C197.256 771.865 197.369 771.977 197.453 771.697C197.453 771.697 197.313 771.612 197.144 771.556C197.116 771.472 197.088 771.444 197.06 771.304C197.004 771.304 196.92 771.304 196.863 771.332C196.527 769.507 196.976 767.767 197.397 765.999C197.593 765.185 196.892 763.951 196.078 763.754C194.674 763.417 193.271 763.081 191.839 763.024C191.25 762.996 190.66 763.782 190.015 764.007C189.678 764.119 189.06 763.894 188.78 763.642C188.471 763.361 188.19 762.744 188.33 762.435C189.341 760.386 190.688 758.562 191.25 756.233C191.643 754.465 193.383 753.314 195.572 753.37C195.881 754.184 196.162 754.998 196.499 755.812C196.583 755.98 196.835 756.121 197.06 756.205C197.593 756.457 197.93 756.261 198.211 755.7C199.53 753.09 200.12 750.48 198.379 747.785C197.846 746.971 197.958 746.045 198.099 745.119C198.576 742.201 199.025 739.282 198.856 736.279C198.688 733.332 199.306 730.329 199.474 727.382C199.502 726.765 199.053 726.091 198.884 725.418C198.604 724.323 198.435 724.099 197.537 724.52C196.414 725.081 195.348 725.474 194.085 725.137C194.927 726.26 195.713 727.467 195.488 728.898C195.264 730.498 195.179 732.041 195.235 733.641C195.292 734.819 194.506 735.746 193.579 736.531C192.962 737.037 191.25 736.644 191.137 735.914C190.716 733.669 190.267 731.424 189.958 729.207C189.874 728.561 190.183 727.859 190.351 727.214C190.913 725.249 191.362 724.997 194.029 725.081C193.411 724.351 192.793 723.65 192.204 722.864C191.137 721.517 190.548 720.029 190.548 718.317C190.548 716.914 190.66 715.511 190.464 714.136C190.267 712.677 190.464 711.414 191.25 710.123C192.541 707.934 192.653 705.632 191.194 703.471C189.594 701.058 189.453 698.139 187.825 695.725C186.871 694.294 186.899 692.61 188.499 691.319C189.285 690.674 189.566 689.804 189.762 688.878C191.025 683.63 192.316 678.41 193.607 673.19C194 671.59 194.393 670.018 194.955 668.475C195.404 667.324 195.46 666.258 195.123 665.079C194.814 663.956 194.618 662.806 194.59 661.627C194.534 660.252 195.095 658.68 194.59 657.501C193.467 654.807 194.225 651.917 193.046 649.25C192.148 647.23 192.232 645.209 193.102 643.132C193.916 641.14 194.029 639.007 193.215 636.958C192.653 635.555 192.793 634.264 193.186 632.861C193.804 630.587 194.281 628.314 194.702 626.013C195.039 624.161 195.404 622.308 195.32 620.456C195.039 613.496 195.993 606.48 194.253 599.576C194.085 598.958 194.253 598.201 194.45 597.527C195.713 592.953 196.134 588.378 194.562 583.747C194.281 582.877 194.029 581.811 194.281 580.997C195.011 578.64 194.618 576.394 194.057 574.093C193.776 572.971 193.804 571.764 193.636 570.613C193.495 569.687 193.158 568.845 192.344 568.172C189.369 565.73 186.309 563.401 183.559 560.734C181.453 558.714 178.675 557.619 175.98 556.44C174.857 555.963 173.482 555.851 172.556 555.178C167.728 551.641 162.086 549.031 157.932 544.653C156.64 543.278 155.349 541.847 155.826 539.686C155.967 539.096 155.574 538.311 155.237 537.721C152.991 534.129 150.802 530.453 148.332 527.001C145.974 523.717 143.785 520.405 142.381 516.617C141.343 513.754 139.35 511.284 138.508 508.31C138.255 507.468 137.553 506.654 136.824 506.064C135.476 504.97 134.522 503.679 133.876 502.135C133.09 500.311 131.546 499.189 129.75 498.29C128.234 497.533 126.691 496.775 125.231 495.905C124.108 495.231 123.519 494.333 124.052 492.958C124.305 492.341 124.389 491.583 124.305 490.938C124.136 489.787 123.856 488.636 123.491 487.542C122.592 484.904 123.856 482.995 125.82 481.396C127.112 480.329 128.655 479.543 130.031 478.561C131.069 477.803 131.462 476.681 131.49 475.474C131.49 475.109 131.266 474.744 131.125 474.379C130.845 474.744 130.592 475.137 130.283 475.474C130.143 475.614 129.834 475.867 129.722 475.811C127.898 475.025 126.017 473.902 125.708 472.106C125.287 469.889 125.708 467.504 125.876 465.174C125.876 464.781 126.382 464.388 126.634 463.995C128.244 461.451 129.497 458.233 130.396 454.341C130.508 453.92 130.761 453.387 131.125 453.162C132.361 452.433 133.68 451.787 134.999 451.142C136.374 450.468 137.301 449.486 137.694 447.999C138.395 445.361 140.023 443.452 142.718 442.33C145.328 441.235 146.76 438.99 148.22 436.829C148.613 436.24 148.865 435.51 148.332 434.864C147.181 433.489 147.069 432.086 147.265 430.318C147.63 427.343 147.462 424.284 147.434 421.281C147.434 420.636 147.378 419.737 146.928 419.345C145.244 417.829 144.992 415.584 143.588 413.928C142.465 412.637 141.932 411.178 141.792 409.466C141.595 407.221 140.023 405.649 137.918 404.695C137.357 404.442 136.206 404.386 135.897 404.695C134.466 406.294 133.343 408.091 131.462 409.297C130.817 409.718 131.21 410.588 131.462 411.234C131.883 412.244 131.631 413.058 130.761 413.676C128.768 415.135 127.869 415.303 126.241 413.956C124.782 412.721 122.957 412.076 121.61 410.588C120.15 408.989 118.017 408.203 115.603 409.017C114.93 409.241 114.116 409.354 113.414 409.241C111.168 408.876 109.035 408.287 108.446 405.761C107.94 403.488 106.004 402.337 104.263 401.074C103.674 400.625 102.944 400.653 102.186 400.653C101.232 400.653 100.305 400.289 99.3792 400.008C97.1898 399.419 95.8986 398.156 96.6846 395.883C97.2179 394.339 96.5723 393.048 95.7302 391.982C94.2706 390.101 92.5303 388.417 90.9304 386.621C89.5269 385.021 87.8147 383.618 87.0007 381.57C86.72 380.868 86.1305 380.447 85.3165 380.503C81.4991 380.756 78.0747 379.324 74.566 378.286C71.5065 377.388 68.5312 376.349 65.2751 376.097C62.9734 375.929 60.9525 374.862 59.549 373.206C56.2649 369.333 51.7177 366.836 47.9845 363.412C46.3284 361.924 44.139 361.672 41.7531 362.486C33.6131 365.348 33.585 365.348 25.4449 362.991C23.1152 362.317 20.7574 361.644 18.5961 360.437C16.7154 359.37 14.6664 358.388 12.5331 357.883C8.3508 356.845 4.87021 354.796 1.69839 352.13C0.996674 351.54 0.0142517 351.232 -0.912048 350.951C-1.83832 350.642 -2.84882 350.586 -3.80316 350.362C-6.02063 349.856 -7.92932 348.986 -9.33279 347.134C-10.624 345.394 -12.3643 344.103 -14.5817 343.43C-16.8553 342.756 -18.2026 341.184 -19.3254 339.276C-20.5885 337.115 -21.2903 335.038 -19.55 332.765C-18.9886 332.007 -18.6237 331.109 -18.343 330.211C-18.1465 329.566 -18.0904 328.808 -18.2588 328.162C-20.5324 319.771 -22.6095 315.926 -30.1882 308.461C-30.8338 307.816 -31.7039 307.002 -31.7881 306.244C-31.9285 304.336 -32.939 303.353 -34.6231 302.539C-36.1389 301.81 -37.5143 300.771 -38.9177 299.817C-39.9843 299.087 -40.0966 297.74 -39.423 296.674C-39.1703 296.281 -38.9177 295.888 -38.637 295.495C-38.1318 294.794 -38.3282 294.064 -38.8335 293.587C-39.8721 292.576 -41.0229 291.706 -42.1457 290.836C-43.8298 289.461 -45.4578 288.086 -45.9911 285.869C-46.1876 285.055 -47.1139 284.382 -47.7034 283.652C-50.819 280.004 -53.233 275.962 -55.0294 271.584C-56.2083 268.721 -56.6013 265.69 -57.1346 262.716C-57.4434 261.088 -58.3416 260.246 -59.717 259.6C-61.0362 258.983 -62.3555 258.422 -63.7028 257.86C-64.2923 257.608 -64.6291 257.86 -64.7975 258.45C-65.8361 261.93 -65.1905 265.41 -64.7414 268.862C-64.6572 269.507 -64.3203 270.237 -63.8432 270.77C-61.4573 273.492 -60.138 276.804 -58.1451 279.751C-56.3206 282.445 -54.861 285.504 -53.7944 288.563C-53.0365 290.696 -50.7629 291.735 -50.3138 293.867C-49.9208 295.692 -49.7524 297.572 -49.3594 299.368C-49.1068 300.491 -48.5454 301.585 -48.1805 302.68C-47.7314 304.027 -44.8123 308.882 -43.8298 309.948C-42.679 311.183 -41.7527 312.53 -41.2755 314.158C-40.9948 315.14 -41.472 316.403 -42.5386 317.217C-43.4088 317.863 -44.7842 317.835 -45.1771 317.077C-47.5349 312.558 -51.8857 309.696 -55.4505 306.216C-56.6013 305.093 -57.1066 304.027 -56.7417 302.483C-56.461 301.361 -56.4048 300.182 -56.3767 299.003C-56.3767 297.825 -56.7417 296.702 -57.7241 295.86C-60.0819 293.839 -62.2151 291.622 -65.2185 290.303C-67.4921 289.321 -69.1763 287.553 -70.3552 285.42C-70.6359 284.887 -70.2149 283.933 -69.5693 283.736C-69.3447 283.68 -69.0921 283.596 -68.8395 283.624C-67.8009 283.68 -66.8746 283.512 -66.3413 282.557C-65.5834 281.266 -65.3027 279.947 -66.1167 278.572C-67.5764 276.131 -68.9798 273.661 -71.3376 271.837C-72.5446 270.911 -73.4428 269.732 -73.6112 268.329C-74.1726 263.866 -76.362 259.881 -77.5971 255.643C-78.3269 253.174 -79.1689 250.732 -79.2812 248.122C-79.3935 244.782 -81.1338 242.481 -84.1091 240.769C-87.6739 238.72 -90.8457 236.054 -95.1964 235.437C-96.4876 235.24 -97.049 234.426 -96.8806 232.799C-96.7402 231.311 -97.0771 230.048 -97.7227 228.757C-98.9858 226.232 -100.193 223.678 -101.372 221.124C-101.652 220.506 -101.989 219.664 -101.793 219.103C-100.866 216.858 -102.073 215.062 -102.775 213.097C-103 212.48 -102.859 211.722 -102.719 211.049C-102.551 210.375 -102.158 209.758 -101.905 209.112C-101.484 208.046 -101.512 208.074 -102.859 207.26C-103.449 206.895 -104.179 206.502 -104.487 205.941C-105.47 204.061 -106.34 202.152 -107.154 200.216C-107.407 199.598 -107.491 198.869 -107.519 198.167C-107.575 197.016 -107.743 195.781 -107.435 194.687C-106.705 192.049 -107.07 189.635 -108.333 187.222C-108.922 186.099 -108.754 184.864 -108.024 183.882C-105.638 180.655 -105.049 177.034 -105.273 173.217C-105.301 172.516 -105.386 171.814 -105.386 171.113C-105.442 167.801 -104.88 164.63 -102.803 161.795C-100.53 158.708 -99.1542 155.172 -98.256 151.523C-97.2736 147.622 -95.4491 144.058 -93.9614 140.354C-92.5579 136.789 -91.6878 133.253 -91.9404 129.408C-92.1369 126.378 -92.0246 123.346 -91.9966 120.316C-91.9685 118.239 -90.7615 116.892 -88.7686 116.134C-88.8247 116.078 -88.8809 116.05 -88.9089 115.994L-88.6844 116.106C-89.2458 115.657 -89.9475 115.264 -90.3405 114.703C-93.1193 110.605 -96.9367 107.237 -99.7717 103.14C-100.698 101.793 -101.989 100.642 -103.028 99.3512C-103.449 98.818 -103.842 98.0883 -103.786 97.4709C-103.673 96.0115 -104.15 94.6925 -104.403 93.3454C-104.487 92.8402 -103.505 92.0263 -102.915 92.1105C-102.214 92.2228 -101.4 92.2789 -100.81 92.6157C-99.7717 93.2331 -98.8735 94.047 -97.9191 94.7767C-96.3754 95.9554 -94.8035 97.0219 -92.8106 97.499C-90.2001 98.1164 -88.5721 99.7441 -87.9546 102.27C-87.6739 103.393 -87.1967 104.487 -86.888 105.61C-86.5511 106.844 -85.5126 107.35 -84.4459 107.799C-83.3793 110.296 -82.7898 112.878 -83.0425 115.629C-83.1548 116.892 -83.9407 117.734 -85.3441 117.706C-86.0459 117.706 -86.7195 117.537 -87.4213 117.453C-87.3651 117.509 -87.309 117.565 -87.2529 117.621L-87.5055 117.453C-85.9336 119.137 -83.6319 119.305 -81.5829 119.923C-81.0776 120.063 -80.2917 119.502 -79.7023 119.137C-79.3093 118.884 -78.9724 118.491 -78.776 118.07C-78.1865 116.807 -77.4848 115.629 -78.3549 114.113C-79.1689 112.71 -79.7303 111.138 -80.2355 109.595C-80.6004 108.528 -81.4145 108.192 -82.3688 107.967C-83.0144 107.827 -83.6881 107.743 -84.3617 107.63C-84.474 107.153 -84.5582 106.704 -84.6705 106.227H-84.6424C-84.6424 106.227 -84.5582 106.339 -84.5021 106.395L-84.2775 106.171L-84.6424 106.227C-85.0354 105.75 -85.4845 105.301 -85.681 104.74C-86.1862 103.364 -85.8775 101.989 -85.3441 100.642C-85.0634 99.9406 -85.5406 99.267 -86.1862 98.9022C-87.2529 98.3128 -88.3475 97.7515 -89.4703 97.3306C-90.9018 96.8254 -92.0527 96.0677 -92.9509 94.8889C-93.8211 93.7383 -95.0842 92.9805 -96.4596 92.3912C-99.1261 87.1711 -96.628 78.2466 -97.1051 77.7414C-98.3121 76.5066 -99.5191 75.2998 -100.726 74.0649C-100.67 73.9807 -100.614 73.9246 -100.586 73.8405C-100.221 73.8124 -100.08 73.7001 -100.361 73.5037C-100.445 73.6159 -100.502 73.7282 -100.586 73.8405C-100.698 73.8405 -100.726 73.8966 -100.923 73.8966C-100.866 73.9527 -100.81 74.0088 -100.754 74.0649C-101.035 73.7282 -101.596 73.3914 -101.596 73.0266C-101.652 71.3427 -101.147 69.8272 -99.7437 68.6765C-99.0139 68.0872 -98.256 67.4978 -97.6104 66.8243C-97.3858 66.5717 -97.47 66.0385 -97.4981 65.6455C-97.4981 65.5333 -97.8911 65.393 -98.1156 65.393C-99.884 65.3368 -101.456 66.0946 -103.056 66.5997C-104.319 66.9927 -105.75 65.8981 -106.143 64.2704C-106.284 63.7091 -105.807 63.5688 -105.301 63.3442C-103.196 62.4462 -103.112 61.7165 -104.768 59.9765C-105.386 59.331 -105.301 58.882 -104.375 58.461C-103.758 58.1523 -102.691 58.2365 -102.663 57.3665C-102.635 55.3458 -101.596 53.8584 -100.277 52.4552C-99.6875 51.8377 -100.024 51.2203 -100.923 51.0238C-101.624 50.8555 -102.41 50.8835 -103.028 50.6029C-104.628 49.9013 -101.231 33.7641 -108.642 49.5925C-108.81 49.9293 -109.371 50.2381 -109.792 50.2661C-110.185 50.2661 -110.775 50.0135 -110.943 49.7048C-111.898 48.1051 -111.645 46.1125 -112.824 44.5128C-113.161 44.0919 -112.88 43.1938 -112.74 42.5483C-112.571 41.6503 -112.375 40.7241 -112.038 39.8822C-111.561 38.6473 -112.094 37.7493 -112.796 36.739C-113.077 36.318 -112.74 35.5322 -112.627 34.8867C-112.543 34.8867 -112.487 34.8867 -112.403 34.9147C-112.319 34.7183 -112.234 34.5499 -112.178 34.3535C-112.01 34.1851 -111.813 34.0447 -111.673 33.8763C-111.617 33.7921 -111.757 33.5396 -111.785 33.3992C-111.926 33.708 -112.038 34.0447 -112.178 34.3535C-112.319 34.4938 -112.459 34.6341 -112.599 34.7464C-112.599 34.8025 -112.599 34.8305 -112.627 34.8867C-113.02 34.8586 -113.441 34.8306 -113.806 34.7183C-114.845 34.4096 -115.603 33.4554 -115.238 32.7538C-115.378 30.256 -116.136 29.1334 -116.782 31.2663C-116.95 31.5189 -117.568 31.575 -117.989 31.6312C-118.101 31.6312 -118.354 31.2944 -118.382 31.0979C-118.69 28.7686 -118.522 26.4953 -117.68 24.2502C-117.147 22.875 -117.68 21.6682 -118.578 20.5737C-118.634 20.6298 -118.662 20.714 -118.718 20.7701C-118.718 20.6298 -118.718 20.5176 -118.718 20.3772L-118.55 20.5456C-118.803 19.1705 -119.083 17.7953 -119.336 16.4201C-119.617 14.9608 -119.111 13.6698 -118.522 12.3788C-117.932 11.1159 -116.389 10.4423 -114.845 10.8353C-114.396 10.9475 -113.975 11.2282 -113.554 11.4807C-113.02 11.7895 -112.571 11.7614 -112.291 11.2562C-112.206 11.1159 -112.319 10.8072 -112.431 10.6669C-113.329 9.57234 -114.396 8.64621 -114.48 7.0746C-114.536 6.20459 -115.126 5.36263 -115.49 4.49263C-115.771 3.84714 -116.08 3.70683 -116.389 4.18393C-116.501 4.35233 -116.501 4.63297 -116.445 4.85748C-116.276 5.53104 -115.996 6.17651 -115.827 6.85007C-115.603 7.7762 -116.417 8.64621 -117.427 8.75847C-118.775 8.92686 -119.869 8.42169 -120.739 7.57976C-122.283 6.03621 -123.266 4.15587 -123.631 2.05101C-123.799 1.12488 -124.052 0.19873 -123.995 -0.699326C-123.939 -2.13063 -124.894 -2.57967 -125.988 -3.19708C-126.774 -3.64612 -127.251 -4.57224 -127.925 -5.24579C-129.413 -6.64903 -129.525 -7.99612 -127.953 -9.45549C-127.588 -9.79227 -127.897 -10.3255 -128.43 -10.522C-128.627 -10.6062 -128.908 -10.6903 -129.104 -10.6342C-131.574 -9.98872 -133.399 -11.0552 -134.999 -12.6829C-135.476 -13.16 -135.841 -13.6933 -136.262 -14.2265C-136.262 -14.2265 -136.234 -14.2265 -136.206 -14.1984L-136.037 -14.4791L-136.346 -14.3107C-136.346 -14.3107 -136.29 -14.2545 -136.262 -14.1984C-136.879 -14.5352 -137.581 -14.8158 -138.114 -15.2649C-139.855 -16.7523 -141.819 -17.482 -144.177 -17.4259C-145.16 -17.4259 -146.142 -17.5662 -147.096 -17.7346C-148.135 -17.8749 -148.893 -18.4923 -149.398 -19.3343C-149.763 -19.9517 -149.847 -20.6814 -150.212 -21.2988C-151.026 -22.7581 -152.037 -24.1333 -153.777 -24.6665C-156.78 -25.5646 -157.875 -27.8098 -158.464 -30.4198C-158.605 -31.0653 -158.521 -31.7388 -158.521 -32.3843C-158.492 -32.3843 -158.464 -32.3843 -158.408 -32.3843L-158.184 -32.7492L-158.492 -32.4966V-32.3843C-159.643 -32.3282 -160.85 -32.3563 -161.973 -32.1317C-163.854 -31.7669 -164.499 -32.7492 -165.061 -34.1805C-165.341 -34.9382 -166.099 -34.8821 -166.801 -34.2927C-168.036 -33.2824 -168.485 -32.0756 -167.896 -30.6443C-167.559 -29.8304 -167.082 -28.9324 -166.352 -28.4272C-165.089 -27.5572 -165.482 -26.6311 -165.819 -25.6207C-166.324 -25.6207 -166.801 -25.6207 -167.306 -25.6207C-168.064 -26.2662 -168.906 -26.5749 -169.636 -25.6769C-170.394 -24.7507 -171.152 -23.8527 -172.303 -23.3475C-172.976 -23.0669 -173.734 -22.5056 -174.324 -22.6178C-176.99 -23.151 -179.095 -22.0004 -181.285 -20.9059C-182.127 -20.4849 -183.081 -20.1762 -184.035 -19.9236C-186.393 -19.2781 -188.667 -18.4642 -190.828 -17.3136C-191.839 -16.7804 -193.158 -16.5839 -194.365 -16.5278C-194.898 -16.5278 -195.572 -17.2013 -195.965 -17.7346C-196.386 -18.2678 -196.077 -19.3343 -195.544 -19.6149C-194.253 -20.2885 -192.961 -20.9059 -191.642 -21.5514C-190.997 -21.8601 -191.025 -22.1407 -191.586 -22.6178C-192.709 -23.6001 -192.568 -24.7788 -191.67 -25.7049C-189.2 -28.2869 -186.506 -30.7005 -185.158 -34.0682C-184.934 -34.6295 -184.232 -35.1066 -183.642 -35.4714C-180.976 -37.0992 -178.225 -37.436 -175.334 -35.9205C-175.138 -35.8082 -174.38 -36.2572 -174.324 -36.5379C-174.155 -37.2114 -174.183 -37.9131 -174.239 -38.6147C-174.352 -40.1302 -176.008 -41.2808 -177.327 -40.6634C-181.453 -38.755 -186 -37.3518 -188.47 -33.1982C-188.976 -32.3563 -189.93 -32.0475 -190.969 -31.9353C-192.288 -31.823 -193.495 -31.1214 -193.775 -29.9988C-194.281 -27.922 -195.965 -27.024 -197.453 -25.8453C-198.491 -25.0314 -199.502 -24.7788 -200.821 -25.0314C-202.926 -25.4523 -204.666 -24.7227 -206.126 -23.2633C-206.856 -22.5336 -207.052 -21.7478 -206.519 -20.7655C-206.182 -20.1481 -205.705 -19.5868 -205.396 -18.9694C-204.694 -17.5943 -205.172 -16.191 -206.547 -15.3771C-207.389 -14.9 -208.287 -14.5352 -209.129 -14.03C-210.168 -13.4126 -211.403 -12.8794 -212.077 -11.9813C-213.733 -9.79227 -215.726 -8.58549 -218.589 -7.91194C-222.378 -7.04193 -225.774 -4.99323 -229.086 -3.00064C-229.676 -2.66386 -230.322 -2.13063 -230.574 -1.51321C-231.276 0.114548 -232.511 1.04068 -234.223 1.68616C-235.795 2.27551 -237.198 3.28587 -238.911 3.67877C-239.388 3.79103 -239.669 4.60489 -240.005 5.19424C-240.707 5.11005 -241.549 4.77328 -242.083 5.02586C-243.823 5.81168 -245.451 6.85008 -247.135 7.77621C-248.117 10.3301 -250.756 10.6669 -252.945 11.593C-254.265 12.1543 -255.724 12.5191 -256.819 13.5294C-257.605 14.2591 -258.503 13.8382 -259.457 13.754C-261.619 13.5295 -263.668 14.5679 -265.829 14.8766C-266.138 14.9327 -266.334 15.6062 -266.587 16.0272C-267.373 17.3463 -267.373 17.3463 -267.822 16.6446C-268.439 15.7185 -269.029 14.7924 -269.646 13.8662L-269.618 13.8101L-269.338 13.5575L-269.759 13.6979C-269.759 13.6979 -269.675 13.8101 -269.646 13.8662C-271.078 16.5885 -273.436 18.0479 -276.608 18.1601C-278.937 18.2443 -280.902 18.7495 -282.53 20.4895C-283.092 21.1069 -284.271 21.3034 -285.225 21.4998C-286.656 21.7805 -288.172 21.3315 -289.604 21.9208C-290.249 22.2014 -291.035 22.2856 -291.737 22.2576C-292.13 22.2576 -292.691 21.9208 -292.888 21.584C-293.112 21.2473 -293.225 20.5737 -293 20.3211C-291.653 18.6653 -290.333 16.9534 -287.807 16.813C-286.572 16.7288 -285.365 16.4762 -284.13 16.4201C-280.762 16.2798 -277.983 14.9888 -275.485 12.912C-273.997 11.7052 -272.369 10.6107 -270.713 9.62846C-268.776 8.47781 -266.643 7.91653 -264.369 8.67429C-263.331 9.01105 -262.433 8.92685 -261.787 8.02878C-260.664 6.42909 -259.205 5.30652 -257.352 4.43651C-254.489 3.0894 -251.823 1.3494 -248.875 0.19873C-246.995 -0.530945 -245.563 -1.79385 -243.851 -2.60773C-238.518 -5.16162 -235.234 -9.48355 -232.595 -14.2545C-231.416 -16.3875 -230.181 -18.2397 -228.104 -19.643C-227.571 -20.0078 -227.571 -20.4568 -227.992 -20.7094C-228.188 -20.8217 -228.441 -20.8778 -228.665 -20.8497C-229.395 -20.7375 -230.097 -20.513 -230.827 -20.4849C-231.529 -20.4568 -232.286 -20.4849 -232.932 -20.7375C-235.178 -21.5514 -235.177 -21.6356 -236.356 -20.2323C-236.497 -20.0639 -236.609 -19.8394 -236.777 -19.643C-237.339 -19.0536 -238.237 -19.1378 -238.405 -19.8955C-239.023 -22.7301 -241.69 -23.8246 -243.542 -25.5646C-243.598 -25.6207 -244.075 -25.4523 -244.188 -25.284C-245.563 -22.7581 -247.696 -23.3194 -249.886 -23.993C-250.644 -24.2175 -250.784 -24.7788 -250.279 -25.5646C-249.886 -26.154 -249.409 -26.6872 -249.1 -27.2766C-248.679 -28.1185 -248.398 -28.9604 -248.931 -29.9146C-249.549 -31.0653 -249.521 -32.2159 -248.454 -33.0859C-247.107 -34.2085 -246.181 -35.4434 -246.153 -37.2676C-246.153 -38.3621 -245.844 -39.4566 -245.647 -40.5231C-245.591 -40.5231 -245.535 -40.5231 -245.451 -40.5231C-245.451 -40.7195 -245.451 -40.9441 -245.423 -41.1405C-245.198 -41.6176 -244.974 -42.0947 -244.805 -42.5999C-244.581 -43.2453 -244.805 -43.526 -245.254 -43.2454C-245.395 -43.1612 -245.339 -42.8244 -245.339 -42.5999C-245.367 -42.1228 -245.395 -41.6457 -245.423 -41.1686C-245.479 -41.0282 -245.535 -40.8879 -245.619 -40.7476C-245.619 -40.6915 -245.619 -40.6353 -245.647 -40.5792C-247.584 -40.8037 -249.409 -40.3266 -251.289 -39.9337C-252.187 -39.7653 -253.226 -40.1021 -254.124 -40.3547C-255.079 -40.6353 -255.893 -41.2528 -256.173 -42.207C-256.65 -43.7786 -256.959 -45.3783 -257.464 -46.9499C-258.307 -49.588 -258.166 -51.9735 -255.921 -54.0502C-254.994 -54.9203 -254.854 -56.099 -255.219 -57.3057C-255.556 -58.4283 -255.808 -59.5509 -256.117 -60.6735C-256.931 -63.7045 -256.117 -66.1461 -253.366 -68.0545C-249.437 -70.8049 -246.489 -74.6778 -242.111 -76.951C-241.718 -77.1475 -241.381 -77.6246 -241.269 -78.0455C-240.342 -81.3291 -237.451 -82.7604 -234.7 -84.304C-233.157 -85.174 -231.753 -84.6688 -230.434 -82.9288C-230.153 -82.564 -229.957 -82.0588 -229.62 -81.7781C-229.283 -81.4975 -228.722 -81.2449 -228.301 -81.301C-225.466 -81.722 -223.22 -82.9849 -222.153 -85.6791C-221.929 -86.2685 -222.069 -87.2788 -221.283 -87.2507C-220.778 -87.2507 -220.329 -86.2965 -219.796 -85.8475C-219.066 -85.2582 -218.252 -84.6969 -217.438 -84.2198C-217.045 -83.9953 -216.511 -83.7988 -216.062 -83.7988C-213.536 -83.7707 -209.831 -86.2124 -209.438 -88.4856C-209.073 -90.6185 -208.175 -92.4708 -207.136 -94.3511C-206.828 -94.9124 -206.884 -95.7263 -207.024 -96.3718C-207.417 -97.9715 -206.379 -98.3644 -205.087 -98.7011C-204.638 -98.8134 -204.217 -99.1221 -203.852 -99.4028C-203.712 -99.515 -203.712 -99.8518 -203.796 -100.048C-203.852 -100.245 -204.049 -100.497 -204.217 -100.497C-204.919 -100.61 -205.733 -100.89 -206.35 -100.666C-208.877 -99.7676 -211.403 -98.7853 -213.817 -97.6627C-215.361 -96.9331 -216.68 -97.1015 -217.915 -98.0556C-220.189 -99.7957 -222.743 -100.104 -225.55 -99.6553C-228.946 -99.094 -231.079 -101.087 -232.792 -103.472C-233.269 -104.146 -233.437 -105.324 -233.185 -106.138C-232.539 -108.355 -231.164 -110.348 -230.714 -112.649C-230.658 -112.902 -229.957 -113.07 -229.536 -113.267C-228.357 -113.744 -228.076 -114.109 -228.497 -114.614C-229.648 -116.101 -230.855 -117.589 -231.978 -119.104C-232.707 -120.086 -232.314 -121.63 -231.136 -122.051C-227.908 -123.145 -225.241 -125.447 -221.732 -125.952C-220.525 -126.12 -219.318 -126.541 -218.14 -126.429C-216.596 -126.289 -215.417 -126.205 -214.266 -127.58C-213.592 -128.394 -212.161 -128.871 -211.01 -129.039C-209.101 -129.348 -207.108 -129.376 -205.143 -129.348C-203.487 -129.32 -201.916 -127.383 -202.954 -125.812C-203.459 -125.026 -204.077 -124.296 -204.61 -123.51C-205.2 -122.668 -204.947 -121.742 -203.936 -121.181C-202.449 -120.367 -200.961 -119.525 -199.417 -118.824C-198.042 -118.178 -196.554 -118.038 -195.207 -118.964C-193.972 -119.834 -192.653 -120.255 -191.137 -120.423C-189.958 -120.535 -190.098 -121.602 -189.818 -122.36C-189.705 -122.36 -189.593 -122.36 -189.509 -122.36C-189.509 -122.416 -189.509 -122.472 -189.509 -122.5C-187.628 -121.714 -185.776 -120.9 -183.727 -120.76C-183.39 -120.76 -182.885 -121.097 -182.688 -121.405C-182.295 -121.939 -182.688 -122.977 -183.221 -123.174C-185.214 -123.931 -187.235 -124.212 -189.341 -123.735C-189.341 -123.735 -189.341 -123.791 -189.341 -123.819L-189.762 -124.015L-189.481 -123.707C-189.481 -123.707 -189.397 -123.707 -189.369 -123.707C-189.425 -123.286 -189.481 -122.893 -189.565 -122.472C-189.649 -122.5 -189.733 -122.528 -189.818 -122.584C-189.846 -122.5 -189.874 -122.416 -189.902 -122.332C-190.519 -122.332 -191.165 -122.332 -191.754 -122.472C-192.176 -122.584 -192.793 -123.033 -192.765 -123.314C-192.709 -125.166 -192.568 -127.018 -192.316 -128.871C-192.204 -129.656 -191.418 -129.881 -190.66 -129.993C-190.435 -129.993 -190.014 -130.162 -190.042 -130.218C-190.126 -130.639 -190.126 -131.228 -190.407 -131.396C-191.614 -132.154 -192.961 -132.716 -194.168 -133.473C-195.207 -134.147 -195.825 -135.718 -195.319 -136.56C-192.765 -140.798 -193.242 -145.036 -194.898 -149.386C-195.488 -150.929 -195.74 -152.557 -196.386 -154.073C-197.34 -156.346 -196.835 -158.002 -194.814 -159.573C-193.523 -160.584 -192.625 -162.099 -191.502 -163.334C-189.79 -165.214 -188.583 -165.495 -186.309 -164.681C-186.084 -164.597 -185.832 -164.541 -185.635 -164.429C-180.022 -161.426 -175.194 -163.811 -170.394 -166.393C-169.776 -166.73 -169.215 -167.235 -168.682 -167.74C-164.976 -171.248 -160.289 -173.437 -155.966 -176.132C-153.749 -177.535 -151.11 -178.349 -148.247 -177.591C-146.254 -177.058 -144.346 -177.872 -142.437 -178.18C-141.819 -178.293 -141.23 -178.91 -140.781 -179.443C-140.332 -179.976 -140.191 -180.762 -139.686 -181.239C-138.058 -182.811 -136.149 -183.793 -133.707 -183.092C-132.304 -182.671 -130.872 -182.278 -129.469 -181.885C-126.971 -181.211 -124.585 -181.239 -122.452 -182.867C-121.076 -183.905 -119.42 -184.439 -117.792 -184.944C-116.782 -185.281 -115.94 -185.112 -115.126 -184.383C-113.666 -183.092 -112.74 -181.52 -112.178 -179.724C-112.234 -179.724 -112.234 -179.78 -112.291 -179.78C-112.403 -179.752 -112.543 -179.696 -112.684 -179.668C-113.498 -179.668 -114.171 -179.387 -114.817 -178.994C-115.126 -178.882 -115.462 -178.798 -115.799 -178.685C-115.799 -178.629 -115.799 -178.573 -115.827 -178.489C-116.726 -178.405 -117.596 -178.349 -118.494 -178.236C-118.69 -178.236 -119.055 -177.928 -119.027 -177.844C-118.887 -177.451 -118.747 -176.889 -118.41 -176.693C-117.427 -176.075 -116.585 -176.328 -116.08 -177.338C-115.912 -177.675 -115.883 -178.096 -115.799 -178.489C-115.715 -178.489 -115.659 -178.489 -115.575 -178.489C-115.322 -178.657 -115.041 -178.798 -114.789 -178.966C-114.087 -179.191 -113.385 -179.415 -112.655 -179.64C-112.487 -179.64 -112.291 -179.64 -112.122 -179.64C-112.122 -179.668 -112.122 -179.696 -112.15 -179.724C-110.775 -179.191 -110.887 -178.124 -111.056 -176.945C-111.28 -175.402 -110.999 -175.093 -109.877 -174.897C-109.147 -174.756 -108.389 -174.756 -107.687 -174.56C-106.536 -174.223 -105.329 -173.886 -104.263 -173.353C-103.673 -173.044 -103.14 -172.427 -102.859 -171.838C-102.551 -171.192 -102.859 -170.519 -103.365 -169.929C-103.645 -169.592 -104.01 -168.947 -103.87 -168.722C-102.691 -166.926 -102.803 -164.737 -101.652 -162.969C-101.231 -162.324 -100.586 -162.015 -99.7998 -162.155C-98.5928 -162.38 -97.4139 -162.745 -96.2069 -162.941C-94.2702 -163.278 -92.6421 -162.548 -91.8843 -160.949C-91.1825 -159.405 -90.2282 -158.086 -88.9651 -156.963C-87.8984 -156.009 -86.7757 -154.887 -85.4564 -154.466C-82.5372 -153.511 -80.404 -151.631 -78.1023 -149.863C-76.5304 -148.628 -74.8182 -147.842 -72.713 -147.899C-71.7306 -147.927 -70.7482 -147.899 -69.7658 -147.786C-68.7272 -147.702 -67.9413 -147.169 -67.3237 -146.383C-67.043 -146.018 -66.6781 -145.625 -66.5378 -145.204C-65.2747 -141.64 -62.2713 -139.591 -59.1837 -137.655C-57.1627 -136.392 -54.9733 -135.382 -53.3172 -133.642C-53.3172 -133.642 -53.3172 -133.67 -53.3172 -133.698C-53.2611 -133.698 -53.1769 -133.698 -53.1207 -133.698C-52.9242 -134.035 -52.7278 -134.427 -52.419 -134.568C-52.1383 -134.708 -51.633 -134.456 -51.2681 -134.371C-51.2681 -134.371 -51.2682 -134.035 -51.3524 -133.95L-51.3243 -133.81Z" fill="#F7F7F7"/>
</svg>
