<svg width="36" height="36" viewBox="0 0 36 36" fill="none" xmlns="http://www.w3.org/2000/svg">
<path d="M21.4161 7.99998C23.044 8.31759 24.5401 9.11374 25.7129 10.2865C26.8857 11.4593 27.6819 12.9554 27.9995 14.5833M21.4161 1.33331C24.7983 1.70904 27.9521 3.2236 30.3599 5.62833C32.7676 8.03305 34.2862 11.185 34.6661 14.5666M15.0444 21.1051C13.0418 19.1025 11.4605 16.8381 10.3005 14.422C10.2007 14.2142 10.1508 14.1103 10.1125 13.9788C9.9763 13.5116 10.0741 12.9378 10.3575 12.5421C10.4372 12.4307 10.5325 12.3355 10.723 12.1449C11.3057 11.5623 11.597 11.2709 11.7875 10.978C12.5058 9.87315 12.5058 8.44885 11.7875 7.34403C11.597 7.05107 11.3057 6.75973 10.723 6.17705L10.3982 5.85227C9.51248 4.96653 9.06961 4.52367 8.59398 4.28309C7.64805 3.80464 6.53094 3.80464 5.585 4.28309C5.10937 4.52367 4.6665 4.96653 3.78076 5.85227L3.51804 6.115C2.63533 6.9977 2.19398 7.43905 1.8569 8.03911C1.48286 8.70495 1.21393 9.7391 1.2162 10.5028C1.21825 11.1911 1.35175 11.6614 1.61877 12.6022C3.05372 17.6578 5.76117 22.4284 9.74114 26.4084C13.7211 30.3884 18.4917 33.0958 23.5474 34.5308C24.4881 34.7978 24.9585 34.9313 25.6467 34.9333C26.4104 34.9356 27.4446 34.6667 28.1104 34.2926C28.7105 33.9556 29.1518 33.5142 30.0345 32.6315L30.2973 32.3688C31.183 31.483 31.6259 31.0402 31.8664 30.5645C32.3449 29.6186 32.3449 28.5015 31.8664 27.5556C31.6259 27.0799 31.183 26.6371 30.2973 25.7513L29.9725 25.4265C29.3898 24.8439 29.0985 24.5525 28.8055 24.362C27.7007 23.6437 26.2764 23.6437 25.1716 24.362C24.8786 24.5525 24.5873 24.8439 24.0046 25.4265C23.8141 25.6171 23.7188 25.7123 23.6075 25.792C23.2117 26.0754 22.638 26.1732 22.1707 26.037C22.0392 25.9987 21.9353 25.9488 21.7275 25.849C19.3115 24.689 17.0471 23.1077 15.0444 21.1051Z" stroke="black" stroke-width="2" stroke-linecap="round" stroke-linejoin="round"/>
</svg>
