<svg width="1439" height="1009" viewBox="0 0 1439 1009" fill="none" xmlns="http://www.w3.org/2000/svg">
<path d="M47.144 20.3861L0 49.2484V1009H1440V49.2484L1380.75 17.4849C1342.89 -2.81186 1297.39 -2.8588 1259.48 17.3598C1222.07 37.3181 1177.22 37.5443 1139.6 17.9642L1136.07 16.1248C1098.65 -3.34984 1053.81 -2.95821 1016.64 16.9695C979.178 37.0496 933.919 37.1245 896.503 16.9666C859.409 -3.01769 814.805 -3.24604 777.509 16.3574L775.36 17.4869C737.549 37.3603 692.135 37.1479 654.405 17.1216C616.714 -2.88429 571.315 -2.95888 533.665 17.1242C496.015 37.2073 450.843 37.2535 413.152 17.2476L410.928 16.0674C374.068 -3.4974 330.163 -4.62875 292.345 13.0117L268.462 24.1519C234.77 39.8674 195.509 38.0343 163.428 19.2478C127.42 -1.83825 82.7318 -1.40131 47.144 20.3861Z" fill="url(#paint0_linear_67_6914)"/>
<defs>
<linearGradient id="paint0_linear_67_6914" x1="720" y1="-15" x2="720" y2="1009" gradientUnits="userSpaceOnUse">
<stop stop-color="#7CE0FF"/>
<stop offset="1" stop-color="#43D8C6" stop-opacity="0"/>
</linearGradient>
</defs>
</svg>
