<svg width="702" height="1020" viewBox="0 0 702 1020" fill="none" xmlns="http://www.w3.org/2000/svg">
<path fill-rule="evenodd" clip-rule="evenodd" d="M241.798 51.3002C241.658 51.4405 241.405 51.5808 241.209 51.5808C240.816 51.5808 240.423 51.5528 240.03 51.5247C240.03 51.5528 239.974 51.6089 239.946 51.637C239.918 51.6089 239.889 51.5808 239.861 51.5528C240.395 52.5631 240.956 53.5734 241.377 54.6118C241.967 56.1273 242.5 57.6709 242.977 59.2144C243.454 60.8702 244.465 62.1332 245.924 63.0874C246.935 63.7328 247.945 64.4064 248.956 65.0519C249.517 65.3887 250.303 65.0519 250.443 64.1819C250.78 62.049 252.268 60.9264 254.149 60.2809C255.72 59.7196 257.405 59.3267 259.089 59.1583C260.155 59.046 260.857 58.4847 261.699 58.0357C262.962 57.3622 263.552 57.4464 264.197 58.2602C264.871 59.1302 264.731 59.9722 264.085 60.758C263.973 60.8983 263.861 61.0106 263.72 61.1228C263.664 61.1228 263.608 61.1228 263.552 61.1228L263.383 61.628L263.58 61.2912C263.58 61.2912 263.664 61.179 263.72 61.1509C266.106 61.4596 268.38 61.5719 270.513 59.9722C271.383 59.2986 272.758 58.9338 273.937 58.9057C277.923 58.7935 281.6 57.6989 285.221 56.2676C286.849 55.6222 288.561 55.9028 290.217 56.436C290.835 56.6325 291.256 57.3341 291.088 58.148C290.919 58.7935 290.695 59.4389 290.498 60.1125C290.442 60.0564 290.386 60.0002 290.33 59.9722C290.217 60.0564 290.077 60.1406 289.937 60.2248C289.46 60.309 288.954 60.3931 288.449 60.4212C287.719 60.4773 287.551 60.6738 288.028 61.0106C288.168 61.1228 288.505 61.0948 288.674 61.0106C289.095 60.7861 289.516 60.5054 289.909 60.2248C290.105 60.2248 290.274 60.1967 290.47 60.1686C290.47 60.1686 290.47 60.1686 290.47 60.1406C290.779 60.3931 291.116 60.6457 291.396 60.9264C292.182 61.6561 293.137 61.9086 294.063 61.4315C295.579 60.6738 297.01 59.7757 298.526 58.9618C299.705 58.3164 300.182 57.3341 300.294 56.0993C300.407 54.9205 300.715 53.7699 301.866 53.0963C302.147 52.9279 302.933 53.0683 303.073 53.2647C303.41 53.8541 303.635 54.5557 303.691 55.2292C303.943 58.5128 303.775 61.7683 302.849 64.9396C302.315 66.7638 302.259 68.6161 302.596 70.4964C302.652 70.8613 303.101 71.3103 303.466 71.4506C303.859 71.591 304.533 71.5068 304.842 71.2822C306.919 69.6825 308.94 67.9706 311.017 66.3429C311.578 65.9219 312.28 65.6412 312.925 65.3606C313.066 65.3045 313.347 65.4448 313.515 65.5851C313.683 65.7254 313.936 65.978 313.88 66.1183C313.431 68.8406 312.925 71.5629 310.989 73.8361C310.568 74.3132 311.382 75.2394 312.196 75.1832C312.925 75.1271 313.711 75.1552 314.301 74.8184C315.143 74.3694 315.929 73.7239 316.518 73.0222C318.174 71.0858 320.083 70.8893 322.413 71.8155C325.079 72.8819 327.185 74.2571 327.634 77.1758C329.121 86.4652 361.204 110.236 363.141 109.815C364.096 109.619 365.022 109.31 365.976 109.113C366.762 108.945 368.081 109.619 368.446 110.32C369.12 111.555 369.794 112.818 370.411 114.081C371.141 115.54 371.843 117.028 372.573 118.515C373.134 119.638 373.19 120.732 372.573 121.855C372.208 122.472 371.759 123.286 372.629 123.623C373.078 123.791 373.976 123.258 374.453 122.837C374.958 122.388 375.464 121.714 375.52 121.069C375.772 118.74 376.39 116.494 377.092 114.249C377.569 112.734 378.607 111.92 380.039 111.387C380.965 111.05 381.891 110.685 382.846 110.517C384.839 110.208 386.551 109.45 388.179 108.328C389.33 107.542 390.846 107.289 392.193 106.784C392.361 106.7 392.558 106.279 392.502 106.223C392.249 105.942 391.828 105.465 391.575 105.521C390.172 105.886 388.825 106.503 387.421 106.812C385.99 107.121 384.502 107.121 383.042 107.373C382.593 107.458 382.284 107.935 381.835 108.159C381.134 108.552 380.404 108.356 379.786 107.907C378.692 107.093 378.242 105.746 378.664 104.82C379.281 103.472 380.292 102.238 381.807 102.125C385.232 101.901 388.628 101.48 392.024 100.947C393.596 100.694 395.477 102.294 395.617 103.837C395.673 104.539 395.786 105.24 395.673 105.942C395.252 108.412 396.572 110.461 397.273 112.65C397.582 113.632 398.34 114.277 399.322 114.502C401.596 115.035 403.392 115.961 404.403 118.15C405.133 119.722 406.733 120.508 408.277 121.265C409.175 121.714 410.129 121.855 411.14 121.686C411.869 121.574 412.599 121.434 413.273 121.153C414.985 120.367 416.641 120.704 418.269 121.322C419.167 121.686 420.038 122.135 420.936 122.5C421.862 122.893 422.844 122.977 423.743 122.5C424.472 122.107 424.501 121.378 424.501 120.676C424.501 119.89 424.978 119.441 425.539 118.936C426.241 118.319 427.083 117.701 427.476 116.915C428.121 115.596 429.104 115.512 430.423 115.512C431.602 115.512 432.781 115.119 433.96 114.895C433.904 114.839 433.819 114.782 433.763 114.698L434.016 114.867C432.697 111.92 429.918 110.376 427.392 108.608C426.886 108.243 426.914 107.121 427.392 106.728C427.56 106.588 427.7 106.363 427.897 106.223C428.29 105.97 428.711 105.577 429.16 105.521C432.584 105.128 434.802 103.108 436.711 100.61C437.412 99.6837 438.423 98.9821 439.293 98.1963C439.686 97.8314 441.005 98.0279 441.286 98.4769C441.539 98.8698 441.847 99.2346 442.016 99.6556C443.167 102.771 445.552 103.893 448.865 103.669C449.258 103.669 449.679 103.669 450.043 103.669C449.931 105.212 449.875 106.728 447.601 107.093C445.945 107.345 445.973 107.57 446.03 108.833C446.114 110.461 446.282 112.06 446.282 113.688C446.282 114.081 445.973 114.642 445.609 114.811C444.093 115.54 442.493 116.186 440.949 116.859C439.995 117.28 439.04 117.112 438.086 116.859C437.16 116.607 436.205 116.382 435.251 116.158L435.476 116.382C435.476 116.382 435.335 116.242 435.251 116.158C435.026 115.961 434.83 115.765 434.605 115.54C434.83 115.737 435.026 115.933 435.251 116.158C435.448 118.206 436.205 119.722 438.704 119.918C439.349 119.974 439.742 121.125 439.377 121.602C438.086 123.286 436.767 124.942 435.447 126.626C434.437 127.889 434.409 128.422 435.335 129.741C435.869 130.527 436.402 131.284 436.963 132.042C437.104 132.211 437.3 132.351 437.468 132.519C437.693 132.211 438.058 131.958 438.114 131.621C438.451 130.022 438.563 128.394 438.984 126.822C439.546 124.689 440.668 122.893 443.391 122.893C445.496 122.893 447.152 121.911 448.668 120.704C449.959 119.638 451.222 118.543 452.429 117.392C453.131 116.719 453.103 115.793 452.935 114.895C452.991 114.895 453.047 114.895 453.103 114.923L453.496 114.586L452.935 114.754C452.935 114.754 452.935 114.839 452.935 114.895C452.514 114.811 452.064 114.726 451.7 114.558C450.549 114.025 450.184 113.127 450.773 112.397C451.784 111.134 452.738 109.787 453.889 108.636C454.31 108.215 455.152 108.075 455.826 107.963C456.387 107.851 456.78 107.738 456.752 107.289C456.752 107.121 456.499 106.924 456.331 106.812C454.928 105.914 453.58 104.96 452.121 104.146C451.587 103.837 450.914 103.725 450.268 103.557C449.903 102.771 449.651 101.929 449.117 101.283C447.994 99.9363 447.686 98.3927 447.517 96.765C447.321 95.053 447.77 93.5656 448.949 92.2746C449.258 91.9378 449.566 91.573 449.959 91.2643C451.166 90.3101 451.363 89.0472 451.587 87.6159C452.121 84.0797 454.029 81.1329 457.257 79.1684C458.184 78.6071 459.391 78.4949 460.513 78.2142C460.513 78.2703 460.513 78.2984 460.513 78.3265C460.598 78.3826 460.654 78.4107 460.738 78.4668C460.766 78.7194 460.85 78.8316 461.019 78.6352C460.934 78.579 460.822 78.5229 460.738 78.4668C460.738 78.3545 460.71 78.3265 460.71 78.1581C460.654 78.1581 460.569 78.1581 460.513 78.1861C460.457 77.0916 460.261 75.969 461.496 75.1832C462.927 74.2852 464.275 73.2748 465.706 72.3768C466.352 71.9839 466.745 71.5348 466.997 70.8332C470.843 60.758 473.706 40.1024 489.593 43.1053C490.519 43.2737 491.53 43.6105 492.26 44.1437C494.589 45.8556 497.031 47.3431 500.119 47.5395C500.343 47.5395 500.568 47.736 500.793 47.8202C501.943 48.2973 502.617 50.4863 501.915 51.4966C501.382 52.2544 500.849 53.0683 500.147 53.7138C496.807 56.8009 493.41 59.8599 490.014 62.8909C489.312 63.5364 488.498 64.0977 487.684 64.6028C486.393 65.4167 485.018 65.7254 483.53 64.9396C482.463 64.3783 481.369 63.8451 480.218 63.4522C479.937 63.368 479.348 63.7609 479.067 64.0696C478.758 64.4064 478.562 64.8835 478.506 65.3325C478.309 66.7919 477.692 67.9706 476.429 68.8967C474.66 70.1597 472.976 71.5068 471.18 72.7135C470.253 73.331 469.72 74.0326 470.225 74.9868C471.573 77.5687 471.18 80.4874 472.162 83.1255C472.387 83.743 472.358 84.5849 472.106 85.1742C470.253 89.5243 470.899 93.8462 472.022 98.1963C472.33 99.403 471.909 99.8521 470.057 100.469C469.608 100.61 469.046 100.638 468.766 100.919C467.39 102.238 466.071 103.585 464.78 104.96C464.359 105.381 464.583 105.774 465.089 106.139C466.071 106.84 467.081 107.43 468.373 107.57C469.916 107.738 471.011 108.72 472.162 109.591C473.313 110.461 473.201 111.695 471.825 112.313C470.955 112.706 469.888 112.762 470.001 114.025C470.253 116.41 469.552 118.627 468.766 120.844C468.597 121.35 468.934 121.686 469.467 121.658C469.692 121.658 469.945 121.518 470.141 121.406C471.123 120.676 471.994 119.862 472.358 118.683C473.004 116.579 474.604 115.119 476.064 113.548C476.541 113.014 477.72 113.014 478.028 113.52C479.6 116.214 480.723 118.992 480.246 122.163C480.106 123.09 479.881 123.988 479.067 124.633C476.765 126.457 476.204 128.843 476.597 131.537C476.793 132.912 477.074 134.315 477.551 135.635C477.748 136.196 478.506 136.673 479.123 136.954C479.881 137.29 481.256 136.729 481.706 136.055C482.239 135.27 482.688 134.428 482.267 133.445C481.874 132.547 481.93 131.677 482.183 130.723C482.604 129.039 483.362 128.001 484.204 128.197C485.242 128.45 485.467 129.32 485.832 130.078C485.804 130.078 485.776 130.078 485.747 130.078C485.719 130.218 485.663 130.386 485.607 130.527C485.719 130.414 485.804 130.33 485.916 130.246C485.888 130.19 485.86 130.134 485.832 130.078C486.842 130.078 487.684 129.685 488.246 128.899C488.919 127.945 489.509 126.934 490.014 125.868C490.828 124.128 491.726 122.528 494.028 122.332C494.87 121.518 495.712 120.704 496.582 119.918C496.975 119.553 497.031 119.189 496.863 118.655C496.133 116.466 497.537 114.642 498.042 112.678C498.547 110.657 499.979 109.591 502.252 109.619C502.729 109.619 503.207 109.394 503.656 109.282L503.431 109.085C503.431 109.085 503.543 109.085 503.599 109.085C503.375 107.654 502.561 106.728 500.933 107.009C498.8 107.373 497.537 106.279 496.302 104.988C495.909 103.865 495.347 102.883 493.972 102.602C493.27 102.462 492.512 102.434 491.782 102.294C490.603 102.097 489.284 102.181 488.442 101.115C487.404 99.824 486.084 98.6734 485.944 96.9333C485.832 95.7827 485.776 94.604 485.832 93.4533C485.944 91.4607 488.274 90.1417 490.098 91.0398C491.389 91.6853 492.596 92.4991 493.916 93.1165C494.196 93.2569 494.926 92.9762 495.179 92.6956C495.403 92.443 495.431 91.7694 495.235 91.4888C494.842 90.9275 494.337 90.3101 493.719 90.0575C491.951 89.2717 490.07 88.6543 488.246 87.9246C486.393 87.1668 485.607 85.511 486.421 83.9675C488.077 80.8803 488.891 77.3723 491.81 74.9306C492.484 74.3693 492.681 73.2748 493.13 72.461C493.607 71.6471 494.112 70.8332 494.645 70.0474C494.898 69.6545 495.207 69.2335 495.6 69.009C498.856 67.1287 500.287 63.6206 503.207 61.4596C505.143 60.0283 506.94 58.4006 509.045 57.1938C513.452 54.696 518.167 53.7138 523.108 55.7625C523.95 56.0993 524.651 56.857 525.269 57.5586C525.493 57.8112 525.409 58.4567 525.269 58.8215C525.072 59.2144 524.679 59.6354 524.286 59.8038C520.357 61.3754 517.157 63.8732 514.406 66.9603C513.761 67.6619 512.947 68.2232 512.245 68.8687C511.319 69.7106 510.757 70.8332 510.869 72.0119C511.038 73.9764 510.757 75.6884 509.41 77.26C508.792 77.9616 508.512 78.8878 508.062 79.7297C507.95 79.9542 507.894 80.1787 507.782 80.3752C506.827 82.5923 508.006 86.8581 510.14 88.6543C510.336 88.8227 510.982 88.5981 511.375 88.4297C511.543 88.3736 511.711 88.0649 511.711 87.8685C511.711 87.4194 511.599 86.9423 511.459 86.5214C511.038 85.1742 510.533 83.8552 510.14 82.5362C509.747 81.2452 510.252 80.3191 511.459 79.6174C512.497 79 513.311 78.102 514.603 77.8774C515.613 77.681 515.36 77.0074 515.164 76.3058C514.125 73.1626 514.855 70.3561 517.185 67.9706C517.999 67.1287 519.206 66.5954 519.992 65.7254C521.704 63.8732 523.725 62.8348 526.364 62.8348C529.395 62.8348 531.977 61.207 534.869 60.6457C536.104 60.3931 537.283 60.2809 538.49 60.5896C540.819 61.179 541.886 61.628 541.914 64.3783C541.914 64.8274 541.97 65.2764 541.97 65.7254C541.381 66.3709 540.96 67.1006 540.96 67.9706C540.903 71.198 539.584 74.1168 538.714 77.1758C538.377 78.3826 538.096 79.5894 537.816 80.7962C537.732 80.8523 537.647 80.9084 537.563 80.9645C537.339 81.1891 537.114 81.4136 536.918 81.6381C537.17 81.4416 537.423 81.2733 537.76 81.1329C537.76 81.0207 537.816 80.9084 537.844 80.7962C539.163 79.9823 540.37 79.3368 542.167 80.3471C543.879 81.3013 545.9 81.2171 547.78 80.0945C549.661 78.972 551.71 78.102 554.04 78.3826L553.815 78.1861C553.815 78.1861 553.815 78.1861 553.843 78.1861C553.114 77.26 552.019 77.0074 550.896 77.0916C549.465 77.1758 548.061 77.5968 546.63 77.709C544.244 77.8774 541.212 75.4358 541.942 72.8258C542.391 71.2261 542.56 69.7948 541.886 68.1951C541.577 67.4654 541.998 66.4551 542.082 65.5851C542.644 64.659 543.205 63.7328 543.795 62.8067C544.384 61.9086 545.451 61.4877 546.237 61.9086C548.594 63.2277 551.065 64.0415 553.787 64.5467C556.65 65.0799 558.419 66.9322 559.233 69.6545C559.962 72.1522 560.215 74.6781 560.355 77.2319C560.355 77.7371 559.485 78.5791 558.896 78.551C557.212 78.4387 555.528 78.2984 553.843 78.1861C553.843 78.2142 553.899 78.2423 553.928 78.2703C556.257 79.8981 558.615 81.4978 560.861 83.1817C561.843 83.9113 562.404 84.9497 562.376 86.2407C562.376 87.1388 561.394 87.9246 561.955 88.8227C562.32 89.3839 563.106 89.6646 563.527 90.1978C563.752 90.5065 563.836 91.152 563.668 91.4888C563.218 92.3027 562.601 93.0604 561.955 93.7059C561.506 94.1549 561.31 94.4637 561.787 94.7724C561.955 94.8846 562.264 94.9408 562.489 94.9127C563.948 94.7443 565.296 94.3514 566.082 96.2317C566.531 97.3262 567.092 97.4104 568.495 96.6527C570.152 95.7546 571.33 96.2037 572.397 97.3543C573.211 98.2243 573.913 99.1785 574.53 100.189C575.457 101.676 575.344 103.276 574.727 104.876C574.699 104.876 574.671 104.848 574.643 104.82L574.362 105.24L574.699 104.932C574.699 104.932 574.699 104.904 574.699 104.876C575.26 105.269 576.102 105.577 576.214 106.054C576.579 107.682 577.674 108.412 579.19 108.749C582.67 109.478 584.523 111.527 585.309 114.811C585.786 116.803 586.853 118.683 587.611 120.62C588.172 122.051 587.975 123.37 586.881 124.493C585.533 125.84 586.039 126.963 587.302 128.029C587.47 128.169 587.639 128.394 587.667 128.618C587.751 129.292 588.004 130.106 587.695 130.583C587.414 131.032 586.46 131.397 585.87 131.341C584.663 131.2 583.512 130.751 582.334 130.443C581.744 130.274 581.239 130.499 581.351 130.976C581.884 133.389 580.313 134.849 578.881 136.42C578.292 137.066 578.488 137.88 579.386 138.048C581.8 138.525 583.204 139.844 583.877 142.089C584.214 143.212 585 144.194 586.179 144.671C587.498 145.205 588.902 145.597 590.249 146.075C590.109 147.73 591.288 148.404 592.579 149.134C593.898 149.863 593.87 150.116 593.084 152.221C592.747 153.091 593.365 154.241 594.291 154.382C594.768 154.466 595.245 154.382 595.723 154.41C596.2 154.41 596.733 154.382 597.154 154.55C597.547 154.718 597.828 155.168 598.165 155.476L598.361 155.336C598.361 155.336 598.361 155.532 598.361 155.645C598.305 155.589 598.249 155.56 598.193 155.504C597.659 155.981 597.603 156.43 598.193 156.879C598.249 156.823 598.305 156.767 598.361 156.711V157.02L598.165 156.879C598.782 157.721 599.765 157.834 600.719 158.002C602.656 158.339 603.554 159.742 604.115 161.314C604.312 161.903 604.228 162.745 603.919 163.278C603.329 164.289 602.684 165.551 601.701 166C598.53 167.488 597.238 170.996 593.87 172.147C593.196 172.371 592.467 172.512 591.765 172.68C590.698 172.932 590.193 173.662 589.94 174.616C589.604 175.963 589.267 177.311 588.789 178.602C588.677 178.91 587.947 179.275 587.611 179.191C585.674 178.714 584.13 177.563 582.698 176.272C582.362 175.963 582.137 175.486 582.025 175.065C581.772 174.167 581.604 173.241 581.463 172.315C581.099 170.21 580.172 168.33 578.825 166.646C577.786 165.355 576.832 164.008 575.822 162.689C575.429 162.184 574.278 162.24 573.997 162.829C573.688 163.447 573.408 164.064 573.239 164.738C572.678 166.758 572.397 166.955 570.264 166.955C569.843 166.955 569.394 166.87 568.973 166.786C568.973 166.73 568.973 166.702 568.973 166.646L568.58 166.478L568.832 166.758C568.832 166.758 568.945 166.758 569.001 166.758C569.057 167.179 569.029 167.684 569.281 167.965C570.741 169.649 571.19 171.613 571.106 173.718C571.05 174.729 571.387 175.571 572.116 176.216C573.351 177.311 574.615 178.433 575.99 179.359C577.281 180.229 578.151 181.183 577.983 182.783C577.702 185.365 578.235 187.835 579.33 190.248C579.611 190.866 579.695 191.595 579.863 192.269C580.172 193.476 579.976 194.683 578.909 195.412C577.674 196.254 576.916 197.349 576.13 198.555C574.951 200.296 574.699 201.923 575.793 203.747C576.074 204.225 575.85 204.786 575.316 204.898C574.951 204.954 574.362 204.646 574.137 204.337C573.351 203.158 572.678 201.923 572.004 200.688C571.302 199.397 570.404 198.275 569.001 197.742C567.12 197.012 565.604 195.889 564.369 194.43C562.826 192.606 560.776 191.511 558.531 190.697C558.531 190.613 558.531 190.529 558.531 190.473C558.447 190.417 558.334 190.361 558.25 190.304C558.25 190.248 558.25 190.164 558.194 190.108C558.138 190.024 557.941 190.052 557.801 190.024C557.941 190.108 558.11 190.22 558.25 190.304C558.278 190.417 558.334 190.529 558.362 190.641C558.419 190.641 558.475 190.697 558.531 190.697C558.503 192.045 558.671 193.364 559.822 194.29C563.078 196.9 564.903 200.436 566.811 203.916C567.541 205.291 567.345 206.61 566.615 207.845C566.418 208.182 565.801 208.547 565.492 208.462C564.089 208.097 562.713 207.677 561.394 207.087C560.103 206.498 558.98 205.319 557.633 205.038C554.545 204.365 552.468 202.513 550.503 200.464C549.352 199.257 548.173 198.106 546.517 197.517L546.658 197.657C546.658 197.657 546.573 197.657 546.517 197.657C546.517 197.657 546.517 197.629 546.517 197.601C544.3 196.591 542.616 194.991 541.24 193.083C540.651 192.269 540.398 191.287 540.847 190.445C541.689 188.929 541.044 188.031 540.089 186.768C538.686 184.916 537.788 182.699 536.609 180.65C535.991 179.612 535.121 179.022 533.746 178.77C531.163 178.321 528.385 179.191 525.914 177.816C525.55 177.619 524.96 177.647 524.511 177.76C523.557 177.956 522.574 178.181 521.704 178.573C518.195 180.201 515.557 178.91 513.199 176.469C512.301 175.514 511.964 173.662 512.638 172.54C513.115 171.726 513.564 170.8 514.294 170.266C515.866 169.116 517.297 167.909 518.476 166.393C518.701 166.141 519.431 165.972 519.767 166.113C521.115 166.674 522.406 167.32 523.697 167.993C525.971 169.172 528.244 169.452 530.77 168.582C533.044 167.797 535.346 167.039 537.844 167.123C538.012 167.123 538.433 166.253 538.321 165.972C535.767 160.444 537.142 160.135 541.156 157.469C543.149 156.122 545.254 154.943 546.658 152.922C547.5 151.744 548.847 151.07 550.307 150.705C551.401 150.425 551.85 149.527 551.935 148.6C552.187 146.271 552.159 143.942 552.496 141.64C552.805 139.62 552.777 137.936 550.419 137.038C550.054 136.897 549.745 136.336 549.633 135.915C549.072 133.838 547.64 133.445 545.675 133.951C545.198 134.063 544.721 134.315 544.272 134.259C543.823 134.203 543.345 133.951 543.009 133.67C542.56 133.277 542.672 132.154 543.233 131.79C543.823 131.397 544.524 131.2 545.142 130.892C545.619 130.639 545.731 130.246 545.423 129.769C545.31 129.601 545.086 129.432 544.889 129.32C542.953 128.394 541.044 129.797 539.135 129.348C538.798 129.264 538.377 128.59 538.433 128.282C538.602 127.664 538.939 126.963 539.444 126.57C539.977 126.149 540.819 126.093 541.465 125.812C542.223 125.503 542.475 124.689 541.942 124.128C540.286 122.36 539.219 120.339 538.602 118.038C538.321 117 537.086 116.102 536.974 115.091C536.89 114.025 537.647 112.902 538.012 111.808C538.097 111.583 538.237 111.331 538.181 111.134C538.04 110.713 537.872 110.152 537.563 109.983C536.132 109.282 534.616 108.721 533.128 108.103C533.128 108.019 533.1 107.935 533.1 107.879C533.016 107.822 533.016 107.766 532.932 107.71C532.988 106.896 533.072 106.054 533.156 105.24C533.297 105.128 533.521 104.96 533.493 104.932C533.184 104.539 533.072 104.595 533.156 105.1C533.156 105.156 533.156 105.212 533.156 105.269C531.781 106.475 531.753 106.588 532.932 107.738C532.932 107.85 532.932 107.935 532.932 108.047C533.016 108.047 533.072 108.103 533.156 108.131C533.269 108.917 533.465 109.731 533.465 110.517C533.493 112.65 532.539 113.969 530.546 114.474C529.423 114.754 528.272 114.895 527.121 115.119C527.178 115.063 527.234 115.007 527.29 114.951C526.785 114.39 526.307 113.828 525.83 113.267C525.746 113.267 525.662 113.267 525.578 113.267C525.072 112.285 524.146 112.088 523.108 112.088C523.108 112.032 523.023 111.976 523.023 111.92L522.546 111.78L522.827 112.088C522.827 112.088 522.995 112.088 523.08 112.088C523.501 113.239 524.483 113.323 525.55 113.267C525.578 113.323 525.634 113.351 525.634 113.407C526.139 113.969 526.616 114.53 527.121 115.119C526.7 115.568 526.279 116.102 525.774 116.27C525.157 116.438 524.258 116.326 523.697 116.017C522.49 115.26 521.423 114.305 520.273 113.435C519.88 113.155 519.487 112.902 519.094 112.65C518.897 112.537 518.617 112.341 518.42 112.397C515.276 112.986 513.003 110.545 510.112 110.236C509.41 110.152 508.68 110.404 507.95 110.517C506.715 109.422 505.059 109.478 503.543 109.17C503.543 109.226 503.543 109.254 503.543 109.282C504.806 110.292 506.266 110.769 507.922 110.685C508.062 111.808 508.427 112.846 509.887 112.79C511.74 112.734 512.497 113.604 512.469 115.175C512.441 117.224 513.48 118.487 515.36 119.217C516.062 120.367 516.904 121.49 515.697 122.809C515.052 123.539 514.939 124.353 514.883 125.307C514.715 128.029 513.732 128.955 510.982 129.152C510.112 129.208 509.213 128.955 508.315 128.815V128.759L507.782 128.646L508.119 128.787C508.119 128.787 508.231 128.787 508.287 128.815C508.006 130.162 507.782 131.509 507.389 132.828C506.968 134.231 506.912 135.522 507.641 136.869C508.091 137.683 508.287 138.609 508.568 139.507C508.933 140.686 508.652 141.809 508.006 142.847C507.136 144.222 506.35 145.654 504.385 146.047C503.515 146.215 502.673 146.917 501.971 147.534C499.95 149.274 497.649 150.593 495.207 151.688C491.642 153.287 488.077 152.866 484.569 151.463C484.344 151.379 484.091 151.21 484.035 151.014C483.109 148.376 480.948 148.488 478.702 148.797C478.113 148.881 477.916 149.358 478.141 149.891C478.225 150.116 478.337 150.312 478.449 150.509C479.741 152.838 479.741 152.838 477.86 154.578C477.551 154.859 477.243 155.168 476.906 155.448C476.878 155.476 476.822 155.504 476.793 155.56C476.344 155.981 475.895 156.402 475.446 156.851C473.762 158.142 472.078 159.461 470.394 160.752C469.58 161.37 469.243 162.1 469.327 163.11C469.327 163.531 469.215 164.12 468.906 164.401C465.201 167.769 461.496 171.108 457.762 174.392C456.78 175.262 455.517 175.234 454.31 174.841C453.159 174.448 452.064 173.915 450.914 173.55C450.184 173.297 449.342 173.494 449.061 174.167C447.714 177.507 444.963 178.265 441.623 178.04C441.623 177.984 441.623 177.928 441.623 177.844C441.454 177.816 441.258 177.788 441.061 177.732C441.174 177.816 441.314 177.928 441.426 178.012C441.51 178.012 441.567 178.012 441.623 178.012C441.707 179.107 441.875 180.201 441.819 181.296C441.819 181.548 401.68 206.021 405.582 223.533C405.806 224.487 406.564 224.992 407.659 225.077C408.613 225.133 409.596 225.161 410.55 225.357C410.943 225.441 411.476 225.862 411.589 226.227C411.841 227.097 411.982 228.051 412.01 228.95C412.122 231.503 412.01 234.057 412.262 236.583C412.487 238.8 411.617 240.54 410.466 242.252C410.382 242.252 410.298 242.252 410.213 242.252L410.129 242.617L410.382 242.421C410.382 242.421 410.438 242.308 410.494 242.28C412.683 242.561 414.676 241.719 416.725 241.214C417.96 240.905 419.195 241.073 420.29 241.691C422.648 242.954 425.034 244.189 427.335 245.508C429.918 246.967 432.135 248.875 433.511 251.401C434.83 253.787 436.683 255.527 439.209 256.677C441.931 257.912 444.177 259.68 445.945 262.01C446.563 262.824 447.517 263.216 448.528 263.188C452.514 263.104 456.247 264.592 460.148 264.928C460.597 264.985 461.271 266.191 461.131 266.668C460.794 267.791 460.429 268.886 460.064 270.008C459.699 271.131 458.998 272.253 459.054 273.348C459.222 277.024 457.622 280.168 455.994 283.311C455.545 284.181 455.377 285.051 455.938 285.949C457.566 288.531 458.296 291.562 460.85 293.667C461.692 294.34 461.889 295.715 462.394 296.782C462.703 297.427 462.927 298.073 463.236 298.69C463.601 299.392 465.117 299.701 465.818 299.195C466.997 298.41 467.839 297.091 469.636 297.455C469.973 297.512 470.562 297.175 470.787 296.866C471.573 295.687 472.302 294.452 472.92 293.19C473.201 292.6 473.285 291.842 473.257 291.169C473.201 289.345 472.92 287.492 472.976 285.668C473.032 283.816 473.285 281.964 473.622 280.139C474.127 277.333 473.846 274.555 473.734 271.748C473.678 270.513 474.267 269.531 475.586 269.026C477.411 268.324 479.264 267.651 481.088 266.949C484.99 265.434 488.667 263.581 491.642 260.663C492.484 259.849 493.663 259.372 494.645 258.67C494.982 258.417 495.459 257.856 495.375 257.604C494.309 254.769 496.414 252.131 495.824 249.324C495.291 246.799 495.095 244.245 494.617 241.719C494.449 240.849 493.944 239.979 493.41 239.221C492.737 238.239 491.867 237.397 491.137 236.471C490.07 235.124 490.126 233.749 491.137 232.626C493.242 230.353 495.937 228.613 497.312 225.75C497.565 225.217 498.491 224.936 499.108 224.571C500.484 223.786 501.382 222.888 500.821 221.176C500.54 220.306 500.287 219.267 500.484 218.425C500.961 216.264 499.108 214.272 499.951 212.307C500.68 210.623 502.196 209.276 503.375 207.789C504.217 206.694 504.049 205.628 503.375 204.533C502.421 202.99 502.561 201.446 503.207 199.818C504.273 197.124 507.417 195.412 510.308 196.198C511.487 196.507 512.75 196.815 513.704 197.489C516.203 199.285 519.234 199.229 522.069 199.846C522.967 200.043 524.09 199.931 524.932 199.594C527.234 198.696 528.721 199.594 529.985 201.25C530.714 202.176 531.584 203.102 531.949 204.14C532.567 205.965 533.634 207.48 534.897 208.911C535.43 209.529 535.233 210.202 535.205 210.904C535.177 211.634 535.402 212.279 536.132 212.644C537.002 213.065 537.9 213.823 538.77 213.823C541.156 213.823 542.531 215.871 544.721 216.152C545.423 216.236 545.872 217.359 545.507 217.864C544.131 219.829 543.345 222.018 542.475 224.179C542.223 224.824 541.605 225.638 541.802 226.115C542.812 228.557 541.24 230.661 541.1 232.935C541.016 234.338 541.212 235.769 542.784 236.527C543.907 237.088 544.833 237.846 545.254 239.025C545.591 239.923 546.124 240.652 546.938 241.242C547.977 241.972 549.072 242.505 550.363 242C551.514 241.579 552.608 241.073 553.647 240.484C554.461 240.007 555.078 239.109 555.949 238.772C559.457 237.453 561.282 234.731 562.741 231.756C564.201 228.781 566.559 226.396 568.355 223.645C568.439 223.505 568.86 223.393 569.029 223.449C569.422 223.617 570.011 223.814 570.123 224.122C570.404 224.992 570.544 225.947 570.657 226.873C571.05 230.1 571.639 233.3 572.874 236.387C573.408 237.678 573.716 239.081 573.969 240.428C574.165 241.551 573.969 242.757 574.334 243.824C574.643 244.722 573.801 245.844 574.755 246.434C575.99 247.163 575.316 248.623 576.271 249.437C576.776 249.858 577.393 250.672 577.281 251.177C576.804 253.169 577.534 254.797 578.656 256.369C579.246 257.211 579.19 258.137 578.432 258.923C577.59 259.793 576.692 260.578 575.85 261.42C575.12 262.178 575.148 263.076 575.906 263.946C576.692 264.844 577.393 265.827 578.264 266.584C580.088 268.184 582.025 269.615 582.558 272.085C582.642 272.478 583.12 272.871 583.541 273.067C585.926 274.218 588.593 274.863 590.333 276.996C590.53 277.249 591.288 277.137 591.765 277.08C593.253 276.94 593.954 277.894 594.656 278.849C595.302 279.747 595.133 280.841 594.235 281.262C593.589 281.571 592.859 281.711 592.186 281.992C591.849 282.132 591.596 282.441 591.316 282.665C591.54 282.721 591.765 282.834 592.017 282.862C592.747 282.918 593.505 282.89 594.235 283.03C595.582 283.255 596.368 284.153 596.733 285.331C596.93 285.977 596.986 286.679 597.07 287.352C597.014 287.352 596.986 287.352 596.93 287.352L596.593 287.633L597.07 287.38C597.07 287.38 597.07 287.352 597.07 287.324C599.596 286.959 601.112 288.362 602.263 290.215C602.6 290.748 602.712 291.59 602.6 292.235C602.431 293.133 602.066 294.031 601.645 294.845C601.056 295.996 601.252 297.006 601.757 298.129C602.543 299.925 588.481 309.327 587.049 310.309C583.007 313.059 571.836 315.754 565.099 314.827C558.306 313.901 551.486 313.059 544.609 312.919C542.924 312.891 541.128 311.909 539.584 312.835C537.928 313.817 536.553 315.164 535.065 316.371C534.7 316.68 534.391 317.073 534.223 317.494C533.409 319.458 531.669 320.188 529.732 320.749C526.644 321.675 523.894 323.163 521.48 325.183C520.609 325.913 520.02 326.811 520.132 327.962C520.076 327.99 520.02 328.018 519.964 328.074C519.88 328.158 519.823 328.214 519.739 328.298C517.802 328.607 517.634 328.776 517.353 330.684C517.269 330.768 517.185 330.852 517.101 330.937C516.034 331.301 514.968 331.666 513.929 332.031C513.396 332.452 512.862 332.873 512.329 333.294L512.189 333.827L512.329 333.49C512.918 333.069 513.48 332.648 514.069 332.228C515.136 331.863 516.203 331.47 517.297 331.105C517.297 330.965 517.325 330.852 517.353 330.712C518.139 329.926 518.953 329.14 519.739 328.327C519.88 328.327 519.992 328.298 520.132 328.27C520.132 328.186 520.132 328.102 520.132 328.018C525.83 324.229 532.511 323.022 539.051 321.423C541.549 320.805 543.907 321.647 545.956 323.022C546.714 323.527 547.191 324.426 547.668 325.211C548.229 326.166 547.837 327.737 547.023 328.411C545.563 329.674 543.823 330.516 541.998 331.161C541.577 331.329 541.128 331.442 540.707 331.582C540.932 331.694 541.128 331.863 541.353 331.891C541.83 331.975 542.335 331.891 542.812 332.031C544.047 332.34 544.637 333.069 544.188 333.968C543.065 336.129 543.121 338.318 543.458 340.647C543.851 343.285 545.17 344.716 547.893 344.913C548.033 346.344 548.679 347.326 550.391 347.467C551.205 347.523 553.338 351.059 546.826 357.149C544.917 356.728 543.626 357.43 542.503 358.917C540.567 361.415 537.816 362.986 534.869 364.221C534.504 364.362 533.858 364.221 533.493 363.997C532.174 363.239 531.248 362.116 530.967 360.713C530.799 359.871 530.967 358.833 531.304 358.019C532.174 355.998 533.774 354.539 535.823 353.585C536.693 353.164 537.675 352.939 538.518 352.518C538.798 352.378 538.854 351.789 538.967 351.424C538.967 351.396 538.546 351.143 538.377 351.171C535.963 351.62 533.577 352.069 531.191 352.659C530.574 352.827 529.844 353.416 529.62 353.978C529.283 354.876 529.114 355.83 527.964 356.026C524.848 356.56 521.929 358.047 518.588 357.766C517.381 357.682 516.146 358.047 515.192 358.917C513.901 360.096 512.301 360.657 510.701 361.274C507.782 362.369 505.845 364.446 504.582 367.084C503.88 368.543 503.403 370.143 502.898 371.686C502.533 372.781 503.375 374.24 504.722 375.11C506.547 376.261 506.631 376.794 505.087 377.917C504.498 378.338 503.852 379.011 503.235 379.011C499.024 378.927 495.095 380.948 490.828 380.358C490.603 380.33 490.323 380.358 490.098 380.358C489.846 380.387 489.453 380.386 489.396 380.499C489.2 381.004 489.509 381.2 490.182 381.256C490.66 381.285 491.137 381.425 491.586 381.621C491.782 381.706 491.951 381.986 491.951 382.211C491.951 382.407 491.782 382.66 491.614 382.772C490.996 383.137 490.351 383.558 489.677 383.726C488.246 384.063 486.786 384.344 485.326 384.428C483.137 384.568 481.649 385.073 481.256 387.543C480.779 390.349 479.207 392.763 477.102 394.812C476.232 395.654 475.306 396.411 473.958 396.355C473.341 396.355 472.976 396.58 472.948 397.113C472.92 397.815 473.004 398.516 472.892 399.19C472.723 400.088 472.639 401.098 472.162 401.856C471.039 403.652 469.72 405.336 468.429 407.02C468.316 407.188 467.867 407.357 467.783 407.3C467.446 407.048 466.969 406.683 466.941 406.346C466.885 405.196 467.222 403.989 466.071 403.147C465.903 403.035 465.65 402.922 465.425 402.922C465.229 402.922 464.864 403.063 464.864 403.175C464.668 405.252 464.443 407.301 464.359 409.377C464.359 410.051 464.555 410.809 464.92 411.37C466.155 413.166 465.818 415.018 464.92 416.702C464.246 418.021 464.752 418.835 465.425 419.845C465.846 420.491 465.425 421.249 464.92 421.726C464.218 422.371 463.404 422.904 462.59 423.41C461.973 423.774 461.271 423.999 461.243 424.869C461.215 426.188 460.429 427.114 459.11 427.367C456.331 427.872 454.085 429.219 452.064 431.015C450.801 432.138 449.51 433.148 447.77 433.625C446.9 433.85 446.142 434.635 445.496 435.309C444.654 436.151 444.037 437.189 443.223 438.059C442.24 439.126 441.146 440.052 439.686 440.473C439.209 440.613 438.76 440.838 438.283 440.95C434.184 441.932 431.798 444.991 429.188 447.77C428.599 448.415 428.29 449.454 428.206 450.352C427.644 455.965 427.364 461.549 429.609 466.938C429.693 467.162 429.806 467.387 429.834 467.611C430.058 469.464 430.086 471.316 430.507 473.112C430.928 474.936 431.714 476.676 432.304 478.444C432.444 478.865 432.416 479.371 432.388 479.82C432.079 483.131 430.984 486.218 429.132 489.053C428.234 490.428 425.82 490.737 424.641 489.474C423.378 488.071 421.89 486.667 421.188 484.984C419.673 481.307 417.371 477.967 416.332 474.094C415.21 472.888 415.238 471.597 415.883 470.193C416.192 469.548 416.36 468.874 416.613 468.201C417.09 467.022 416.95 465.9 416.136 464.917C414.62 463.065 413.133 461.213 411.533 459.445C410.859 458.715 409.848 458.462 408.838 458.799C407.912 459.108 407.041 459.529 406.115 459.866C404.908 460.315 403.589 460.427 402.663 459.473C399.94 456.61 396.516 455.796 392.642 455.993C389.189 456.161 385.765 455.291 382.313 455.88C381.358 456.049 380.32 456.049 379.421 456.358C378.299 456.75 377.26 457.199 377.148 458.687C377.064 460.006 376.502 461.325 376.137 462.616C374.818 463.149 373.555 463.879 372.18 464.103C369.457 464.552 366.818 464.609 365.05 461.83C364.236 460.567 362.804 460.23 361.148 460.932C359.745 461.549 358.257 461.269 356.854 460.736C354.973 460.034 352.896 459.641 351.072 460.343C348.854 461.213 346.384 461.465 344.475 463.121C341.921 465.366 338.889 466.629 335.325 467.219C332.321 467.724 330.356 470.137 329.346 472.916C328.223 476.003 327.437 479.202 327.802 482.514C328.055 484.955 327.69 487.088 325.922 489.025C325.332 489.698 325.079 490.681 324.855 491.579C323.732 496.35 323.199 501.233 322.918 506.116C322.834 507.491 323.002 508.923 323.199 510.298C323.508 512.375 323.957 514.423 324.35 516.472C324.574 517.651 324.967 518.745 325.809 519.643C327.606 521.608 328.925 523.797 329.992 526.182C330.777 527.922 332.041 529.326 334.062 529.971C335.718 530.504 337.261 531.206 338.412 532.497C339.956 534.209 341.977 534.041 343.858 533.676C346.244 533.171 348.517 532.188 350.875 531.599C352.026 531.318 353.429 531.094 354.468 531.459C356.91 532.357 358.734 532.413 359.633 529.662C362.608 527.333 363.927 524.134 364.882 520.71C365.19 519.615 365.639 518.521 366.145 517.454C367.015 515.63 368.446 514.451 370.664 514.395C373.134 514.339 375.548 514.171 377.85 513.189C380.656 512.01 383.632 512.459 386.579 512.543C387.898 512.571 389.218 514.451 388.825 515.602C388.6 516.276 388.404 516.977 387.982 517.539C387.168 518.689 386.27 519.812 385.288 520.85C383.744 522.506 383.014 524.302 383.155 526.547C383.239 528.147 382.818 529.775 382.509 531.374C382.228 532.862 381.386 533.9 379.562 533.956C378.692 533.956 378.299 534.602 378.214 535.303C377.99 536.679 377.625 538.11 377.765 539.457C378.046 542.488 377.007 544.93 374.762 547.006C374.397 547.343 374.622 547.848 375.239 547.989C376.418 548.241 377.653 548.522 378.86 548.522C380.825 548.522 382.79 548.129 384.726 548.213C387.197 548.354 389.442 547.063 391.996 547.652C394.13 548.129 396.375 548.354 398.565 548.438C400.894 548.494 402.635 549.532 404.235 550.907L403.982 551.216L404.431 551.076C404.431 551.076 404.319 550.964 404.263 550.935C405.161 551.244 406.115 551.497 406.985 551.946C407.35 552.114 407.771 552.675 407.743 553.04C407.659 555.342 407.827 557.783 407.126 559.916C406.396 562.161 405.722 564.294 405.666 566.652C405.666 567.55 405.357 568.588 404.824 569.262C403.224 571.282 403.196 573.584 403.252 575.913C403.252 576.587 403.477 577.316 403.814 577.878C404.908 579.702 405.975 581.526 407.294 583.182C409.54 585.988 412.066 588.542 416.108 588.907C418.297 590.226 420.29 589.524 422.283 588.402C423.125 587.925 424.079 587.616 424.922 587.167C427.644 585.68 430.507 585.651 433.455 586.269C435.644 586.746 437.637 587.532 439.265 589.075C440.472 590.226 441.735 591.32 443.054 592.359C443.363 592.612 443.84 592.668 444.261 592.78C444.261 592.836 444.233 592.892 444.205 592.976L444.374 593.229V592.808C444.374 592.808 444.317 592.808 444.261 592.808C444.514 591.966 444.626 591.04 445.159 590.451C446.282 589.244 447.601 588.121 449.033 587.223C450.633 586.241 451.335 585.006 451.587 583.238C451.84 581.33 453.159 579.842 454.478 578.439C455.489 577.372 456.724 576.643 458.352 576.811C458.829 576.867 459.531 577.064 459.812 576.811C461.776 575.127 464.303 575.127 466.689 574.566C468.85 574.033 470.702 572.854 472.302 571.338C473.537 570.132 475.109 569.43 476.85 569.149C477.495 569.037 478.281 569.29 478.927 569.57C479.769 569.935 480.19 571.451 479.656 571.984C478.646 572.994 477.551 573.92 476.541 574.903C475.895 575.548 476.288 576.194 476.653 576.783C477.158 577.625 477.692 577.849 478.393 577.597C479.544 577.148 480.639 576.587 481.818 576.278C483.418 575.829 484.344 574.959 484.428 573.331C484.428 572.882 484.681 572.433 484.877 572.012C485.214 571.254 486.505 570.581 487.263 570.665C488.077 570.749 488.611 571.226 488.835 571.928C489.368 573.724 490.575 574.622 492.512 574.875C493.495 574.987 494.449 575.183 495.403 575.38C497.003 575.717 497.986 576.671 498.323 578.186C498.379 578.411 498.379 578.663 498.463 578.888C498.884 579.898 499.586 580.403 500.652 580.347C502.87 580.235 505.087 580.151 507.277 579.926C509.298 579.73 511.122 579.814 512.862 581.021C515.781 583.013 519.402 581.526 521.62 579.674C522.097 579.281 522.097 578.383 522.406 577.765C522.659 577.26 523.304 577.064 523.669 577.457C524.567 578.383 525.55 578.832 526.897 578.748C529.086 578.635 531.332 578.327 533.493 579.028C533.718 579.084 533.998 579.225 534.111 579.393C534.335 579.842 534.139 580.207 533.634 580.431C533.409 580.544 533.184 580.6 532.96 580.684C532.314 580.909 531.332 580.965 531.556 581.835C531.697 582.368 532.455 582.873 533.044 583.182C534.784 584.052 536.581 584.838 538.377 585.567C540.398 586.381 541.577 587.644 541.493 589.833C541.465 590.647 542.082 591.012 542.868 591.096C544.075 591.236 545.366 591.152 546.517 591.517C547.893 591.966 549.268 592.612 550.391 593.482C552.103 594.801 553.563 596.372 555.135 597.86C556.033 598.702 556.566 599.74 556.931 600.862C557.071 601.255 557.436 601.845 557.773 601.901C560.833 602.434 562.854 604.679 565.352 606.055C565.969 606.391 566.727 606.644 567.401 606.672C570.095 606.784 572.818 606.84 575.513 606.756C578.264 606.672 580.93 606.868 583.4 608.103C584.046 608.44 584.747 608.749 585.449 608.861C591.428 609.899 595.33 613.856 599.344 617.645C600.41 618.656 601.084 619.89 601.336 621.322C601.842 624.184 603.301 626.626 605.322 628.703C606.361 629.769 606.922 631.06 607.82 632.127C608.691 633.137 608.747 634.316 608.494 635.438C608.101 637.206 607.512 638.946 607.006 640.714C604.901 641.219 602.936 642.005 601.336 643.493C602.459 643.577 603.554 643.689 604.115 644.784C605.771 643.324 607.764 643.212 609.841 643.493C609.841 643.521 609.841 643.577 609.813 643.633L610.206 643.745L609.982 643.521C609.982 643.521 609.898 643.521 609.869 643.521C609.954 643.128 610.038 642.707 610.15 642.342C612.003 642.875 613.883 643.352 615.652 644.026C616.802 644.447 618.038 645.541 617.56 647.394C617.448 647.843 617.336 648.32 617.224 648.741C617.083 649.302 617.224 649.667 617.701 649.667C617.897 649.667 618.178 649.499 618.262 649.302C619.329 647.394 621.041 646.973 623.23 647.085C625.757 647.225 628.058 647.899 630.36 648.825C633.279 649.976 635.862 651.856 639.23 652.081C639.988 652.137 640.886 653.119 641.363 653.849C641.981 654.831 642.233 656.038 642.654 657.104C642.963 657.89 643.665 658.255 644.338 657.946C645.237 657.553 646.079 657.02 646.977 656.711C647.651 656.487 648.465 656.346 649.11 656.515C654.836 657.918 660.619 658.956 666.597 658.76C668.338 658.704 669.994 659.097 671.537 659.939C674.934 661.791 678.639 663.194 680.885 666.562C682.26 668.583 684.955 669.116 686.835 670.631C688.379 671.866 690.091 672.54 692.253 672.371C693.403 672.287 694.666 672.792 695.789 673.241C696.407 673.494 697.108 674.055 697.333 674.645C698.596 677.676 699.775 680.735 700.842 683.85C701.487 685.73 700.729 691.118 699.803 693.476C698.821 695.918 697.333 698.05 695.48 699.959C693.628 701.839 691.747 703.72 689.698 705.375C687.958 706.807 686.723 708.462 685.797 710.399C685.488 711.044 685.039 711.606 684.814 712.279C683.691 715.535 681.755 718.089 678.33 719.52C677.095 720.053 676.702 721.288 676.702 722.467C676.702 725.021 676.899 727.574 676.899 730.128C676.899 733.861 676.899 737.622 676.73 741.354C676.59 744.385 676.281 747.388 674.288 750.026C673.278 751.401 673.306 753.141 673.53 754.769C673.839 756.958 673.194 758.839 671.902 760.691C670.274 763.02 669.011 765.546 667.552 767.988C666.906 769.054 666.738 770.177 667.046 771.355C667.327 772.394 666.85 773.236 666.036 773.797C664.857 774.639 663.201 775.032 662.359 776.07C660.478 778.4 657.98 778.905 655.229 778.961C653.77 778.961 652.282 778.652 650.85 778.821C649.391 779.017 647.987 779.354 646.472 779.017C646.135 778.933 645.349 779.27 645.293 779.55C644.928 781.066 643.581 781.767 642.542 782.75C641.307 783.928 639.875 784.518 638.191 785.051C635.188 786.033 632.409 787.577 630.107 789.794C628.732 791.141 627.272 792.404 625.785 793.611C622.192 796.473 621.406 800.178 622.108 804.359C622.192 804.808 622.22 805.314 622.444 805.706C624.325 809.074 623.146 812.246 621.153 814.94C618.15 819.009 615.989 823.415 613.939 827.906C613.49 828.916 612.817 829.954 611.441 830.095C611.273 829.477 611.161 828.832 610.936 828.214C610.796 827.85 610.431 827.316 610.15 827.316C609.757 827.316 609.224 827.625 608.971 827.962C607.905 829.477 607.315 831.161 606.894 832.929C606.277 833.098 605.631 833.182 605.126 833.462C603.61 834.304 603.385 835.174 603.975 837.111C604.003 837.111 604.059 837.111 604.087 837.111C604.087 837.167 604.059 837.251 604.003 837.335L603.863 837.167C603.245 839.44 602.656 841.685 602.038 843.931C601.477 846.007 600.579 847.888 598.754 849.263C597.126 850.47 596.677 852.406 595.694 854.006C593.702 857.149 590.782 858.384 587.077 858.356C585.59 858.356 584.13 858.328 582.67 858.216C581.941 858.188 581.127 858.131 580.537 857.823C577.337 855.998 573.744 856.026 570.236 855.634C570.18 855.549 570.095 855.521 570.011 855.437C569.927 855.353 569.871 855.297 569.787 855.213C569.787 855.185 569.787 855.128 569.787 855.1C569.73 855.016 569.562 854.96 569.45 854.904C569.562 855.016 569.674 855.128 569.787 855.213C569.787 855.353 569.787 855.465 569.843 855.605C569.983 855.605 570.095 855.605 570.236 855.634C571.611 857.177 573.688 857.851 575.232 859.226C576.607 860.433 577.478 861.695 576.72 863.52C576.439 864.165 576.327 864.867 576.299 865.568C576.271 866.27 576.495 866.972 577.197 867.365C577.814 867.701 578.544 867.954 579.162 868.291C580.172 868.852 580.846 870.199 580.593 871.266C580.369 872.164 580.144 873.09 579.779 873.932C579.134 875.447 578.039 876.851 577.73 878.394C577.169 881.116 575.204 882.295 572.93 883.249C571.583 883.81 570.152 884.203 568.776 884.709C563.611 886.673 558.306 887.122 552.833 886.028C551.429 885.747 550.672 886.645 550.98 888.133C551.065 888.582 551.233 889.031 551.373 889.48C551.457 889.704 551.626 889.957 551.598 890.153C551.373 891.753 550.952 893.352 550.924 894.952C550.924 896.327 551.429 897.703 551.457 899.078C551.514 900.846 549.156 903.007 547.107 903.287C545.114 903.54 543.205 903.4 541.381 902.417C540.117 901.744 538.714 901.295 537.339 900.818C536.412 900.509 535.093 901.491 535.318 902.249C535.458 902.698 535.654 903.119 535.767 903.54C536.104 904.915 536.412 906.262 536.749 907.637C537.311 909.883 539.528 910.865 541.858 909.911C542.307 909.714 542.7 909.434 543.149 909.237C543.823 908.984 544.861 909.349 545.03 909.939C545.395 911.061 545.759 912.156 545.984 913.307C546.265 914.71 545.114 915.86 543.374 915.973C542.896 915.973 542.419 915.832 541.97 915.776C542.026 915.692 542.082 915.608 542.167 915.552C542.026 915.552 541.914 915.552 541.774 915.552C541.465 915.075 541.156 914.597 540.763 914.177C540.707 914.092 540.286 914.176 540.117 914.289C539.64 914.597 539.584 915.131 540.061 915.299C540.595 915.496 541.184 915.524 541.774 915.552C541.83 915.636 541.886 915.72 541.97 915.804C541.97 915.804 541.97 915.804 541.998 915.804C541.184 916.843 540.426 917.937 539.444 918.835C537.872 920.266 537.423 921.95 537.619 923.915C537.704 924.589 537.76 925.346 538.04 925.964C539.079 928.181 537.311 929.949 537.058 931.997C537.03 932.334 536.469 932.699 536.047 932.896C534.504 933.597 532.82 934.074 531.36 934.916C530.349 935.478 529.479 936.376 528.75 937.274C526.841 939.715 527.093 942.101 529.423 944.093C530.518 945.019 531.725 945.833 532.848 946.731C533.83 947.517 534.925 947.994 536.188 948.05C538.686 948.107 539.472 949.734 539.921 951.671C540.089 952.344 540.146 953.046 540.23 953.748C540.398 954.954 540.117 956.077 539.332 957.031C537.984 958.687 536.637 960.343 535.093 961.858C533.605 963.29 532.904 964.917 533.072 966.882C533.269 969.155 532.398 970.923 530.49 972.298C529.732 972.86 529.058 973.561 528.441 974.235C527.065 975.75 526.644 977.49 527.29 979.455C527.879 981.223 528.216 983.103 529.058 984.731C529.9 986.359 531.304 987.734 532.37 989.278C532.567 989.558 532.539 990.204 532.342 990.484C532.118 990.793 531.556 990.933 531.135 991.046C530.939 991.102 530.658 991.018 530.434 990.961C528.581 990.428 527.964 991.579 527.374 992.786C527.262 992.786 527.15 992.786 527.037 992.786C527.037 992.898 526.981 993.01 526.953 993.122C524.483 993.768 523.08 995.34 522.743 997.753C522.602 998.651 522.687 999.577 522.743 1000.48C522.743 1000.64 523.023 1000.87 523.22 1000.95C523.304 1000.98 523.585 1000.76 523.669 1000.62C523.781 1000.42 523.809 1000.19 523.809 999.97C524.034 997.921 523.978 995.817 526.448 994.694C526.813 994.526 526.869 993.74 526.981 993.094C527.093 993.066 527.178 993.01 527.29 992.982C527.318 992.898 527.374 992.842 527.402 992.758C528.272 992.729 529.114 992.645 529.985 992.701C533.213 992.842 534.869 994.105 535.486 997.136C535.739 998.314 536.104 999.184 536.89 1000.14C538.237 1001.82 540.202 1002.83 541.605 1004.43C541.886 1004.77 542.363 1005.05 542.784 1005.22C545.872 1006.57 548.987 1007.91 552.103 1009.15C552.945 1009.48 554.096 1009.01 554.798 1009.88C554.91 1010.05 554.994 1010.44 554.91 1010.49C553.394 1011.59 551.935 1012.8 550.279 1013.64C549.577 1013.97 548.426 1013.53 547.472 1013.36C546.882 1013.27 546.377 1013.36 546.293 1013.89C546.124 1014.9 545.647 1015.55 544.552 1015.85C543.205 1016.19 541.886 1016.58 540.567 1016.95C540.567 1016.89 540.567 1016.89 540.567 1016.84C540.482 1016.78 540.398 1016.72 540.314 1016.7C540.258 1016.42 540.174 1016.28 540.005 1016.5C540.117 1016.56 540.202 1016.61 540.314 1016.7C540.314 1016.81 540.37 1016.87 540.37 1017.03C540.454 1017.03 540.51 1017.01 540.595 1016.98C541.072 1019.05 541.044 1019.08 539.5 1019C538.546 1018.94 537.591 1018.8 536.637 1018.83C535.935 1018.83 535.177 1019.17 534.532 1019.05C533.605 1018.91 532.651 1018.58 531.865 1018.1C530.967 1017.54 531.135 1016.53 531.22 1015.63C531.248 1015.18 531.248 1014.7 531.107 1014.28C530.911 1013.81 530.406 1013.69 529.872 1013.95C528.525 1014.51 527.964 1015.74 527.093 1016.78C526.111 1016.72 525.044 1016.58 524.651 1015.69C523.95 1014.09 522.911 1013.02 521.115 1012.63C520.525 1012.52 520.301 1012.12 520.413 1011.56C520.862 1009.76 519.711 1009.12 518.167 1008.78C517.746 1008.7 517.325 1008.53 516.904 1008.39C516.904 1008.02 516.848 1007.6 516.988 1007.3C517.213 1006.76 517.157 1006.45 516.596 1006.45C516.427 1006.45 516.174 1006.65 516.09 1006.82C515.81 1007.32 515.557 1007.86 515.304 1008.39C514.378 1008.39 513.339 1008.64 512.497 1008.39C511.15 1007.97 509.578 1007.46 508.68 1006.51C506.21 1003.9 503.178 1002.08 500.203 1000.11C499.894 999.914 499.866 999.325 499.81 998.876C499.81 998.735 500.147 998.427 500.315 998.455C500.793 998.455 501.326 998.539 501.691 998.763C503.515 999.886 505.508 1000.17 507.613 999.97C507.67 1000.03 507.754 1000.05 507.81 1000.11C507.95 1000.11 508.006 1000.22 508.119 1000.28C508.259 1000.73 508.568 1001.04 509.045 1001.18C509.101 1001.29 509.185 1001.37 509.213 1001.49L509.55 1001.65L509.382 1001.32C509.241 1001.32 509.157 1001.21 509.045 1001.18C508.876 1000.76 508.568 1000.45 508.119 1000.28C508.091 1000.17 507.978 1000.08 507.978 999.942C507.838 999.97 507.726 999.942 507.613 999.97C506.126 998.932 504.666 997.837 503.122 996.855C501.971 996.125 501.354 995.311 501.859 993.964C500.877 992.449 500.287 990.568 497.873 990.456C497.172 990.456 496.47 990.119 495.796 989.895C495.291 989.727 495.038 989.249 495.291 988.8C495.516 988.436 495.937 988.099 496.358 987.987C496.779 987.874 497.312 988.071 497.789 988.071C498.912 988.071 499.445 987.313 500.063 986.583C500.849 985.629 500.484 984.899 499.754 984.142C499.08 983.44 498.715 982.626 498.715 981.616C498.715 980.69 498.266 979.904 497.593 979.258C497.621 979.174 497.649 979.09 497.705 979.006L497.256 978.781L497.508 979.174C497.508 979.174 497.565 979.23 497.593 979.258C496.835 980.886 496.947 982.626 496.779 984.338C496.666 985.517 496.105 986.078 495.01 986.05C493.888 986.05 493.017 985.32 493.326 984.394C494.056 982.093 493.186 979.876 493.214 977.603L492.989 977.799C492.989 977.799 492.989 977.631 492.989 977.547C493.045 977.547 493.102 977.575 493.158 977.575C494.084 976.564 494.056 976.34 493.158 974.88C493.102 974.88 493.074 974.88 493.045 974.88V974.74C491.979 974.066 490.912 973.365 489.789 972.719C488.021 971.709 488.021 971.737 488.358 969.745C488.47 969.099 488.442 968.454 488.498 967.808C488.554 967.836 488.611 967.892 488.639 967.92L488.807 967.64L488.498 967.78C488.161 967.555 487.825 967.359 487.544 967.05C486.842 966.293 487.151 965.366 487.039 964.496C486.983 963.907 486.169 963.43 485.916 962.813C485.551 961.971 485.354 961.073 485.186 960.203C485.018 959.22 485.495 958.519 486.253 957.845C487.347 956.891 488.639 956.666 489.986 956.442C489.986 956.498 489.986 956.526 489.986 956.582C490.07 956.61 490.154 956.638 490.267 956.666C490.379 956.975 490.491 957.087 490.575 956.807C490.575 956.807 490.435 956.722 490.267 956.666C490.239 956.582 490.21 956.554 490.182 956.414C490.126 956.414 490.042 956.414 489.986 956.442C489.649 954.618 490.098 952.878 490.519 951.11C490.716 950.296 490.014 949.061 489.2 948.864C487.797 948.528 486.393 948.191 484.962 948.135C484.372 948.107 483.783 948.892 483.137 949.117C482.8 949.229 482.183 949.005 481.902 948.752C481.593 948.471 481.313 947.854 481.453 947.545C482.463 945.497 483.811 943.672 484.372 941.343C484.765 939.575 486.505 938.424 488.695 938.48C489.004 939.294 489.284 940.108 489.621 940.922C489.705 941.091 489.958 941.231 490.182 941.315C490.716 941.568 491.053 941.371 491.333 940.81C492.652 938.2 493.242 935.59 491.502 932.896C490.968 932.082 491.081 931.156 491.221 930.229C491.698 927.311 492.147 924.392 491.979 921.389C491.81 918.442 492.428 915.439 492.596 912.493C492.624 911.875 492.175 911.202 492.007 910.528C491.726 909.434 491.558 909.209 490.66 909.63C489.537 910.191 488.47 910.584 487.207 910.247C488.049 911.37 488.835 912.577 488.611 914.008C488.386 915.608 488.302 917.151 488.358 918.751C488.414 919.93 487.628 920.856 486.702 921.642C486.084 922.147 484.372 921.754 484.26 921.024C483.839 918.779 483.39 916.534 483.081 914.317C482.997 913.671 483.305 912.97 483.474 912.324C484.035 910.36 484.484 910.107 487.151 910.191C486.533 909.462 485.916 908.76 485.326 907.974C484.26 906.627 483.67 905.14 483.67 903.428C483.67 902.024 483.783 900.621 483.586 899.246C483.39 897.787 483.586 896.524 484.372 895.233C485.663 893.044 485.776 890.742 484.316 888.581C482.716 886.168 482.576 883.249 480.948 880.836C479.993 879.404 480.021 877.72 481.621 876.43C482.407 875.784 482.688 874.914 482.884 873.988C484.148 868.74 485.439 863.52 486.73 858.3C487.123 856.7 487.516 855.128 488.077 853.585C488.526 852.434 488.582 851.368 488.246 850.189C487.937 849.066 487.74 847.916 487.712 846.737C487.656 845.362 488.218 843.79 487.712 842.612C486.59 839.917 487.347 837.027 486.169 834.361C485.27 832.34 485.354 830.319 486.225 828.242C487.039 826.25 487.151 824.117 486.337 822.068C485.776 820.665 485.916 819.374 486.309 817.971C486.926 815.698 487.404 813.424 487.825 811.123C488.161 809.271 488.526 807.418 488.442 805.566C488.161 798.606 489.116 791.59 487.375 784.686C487.207 784.069 487.376 783.311 487.572 782.637C488.835 778.063 489.256 773.488 487.684 768.858C487.404 767.988 487.151 766.921 487.404 766.107C488.133 763.75 487.74 761.505 487.179 759.203C486.898 758.081 486.926 756.874 486.758 755.723C486.618 754.797 486.281 753.955 485.467 753.282C482.491 750.84 479.432 748.511 476.681 745.845C474.576 743.824 471.797 742.729 469.102 741.551C467.98 741.074 466.604 740.961 465.678 740.288C460.85 736.752 455.208 734.142 451.054 729.763C449.763 728.388 448.472 726.957 448.949 724.796C449.089 724.207 448.696 723.421 448.359 722.832C446.114 719.239 443.924 715.563 441.454 712.111C439.096 708.827 436.907 705.516 435.504 701.727C434.465 698.864 432.472 696.395 431.63 693.42C431.377 692.578 430.676 691.764 429.946 691.175C428.599 690.08 427.644 688.789 426.999 687.246C426.213 685.421 424.669 684.299 422.872 683.401C421.357 682.643 419.813 681.885 418.353 681.015C417.231 680.342 416.641 679.444 417.174 678.068C417.427 677.451 417.511 676.693 417.427 676.048C417.259 674.897 416.978 673.746 416.613 672.652C415.715 670.014 416.978 668.105 418.943 666.506C420.234 665.439 421.778 664.654 423.153 663.671C424.192 662.914 424.585 661.791 424.613 660.584C424.613 660.219 424.388 659.854 424.248 659.49C423.967 659.854 423.715 660.247 423.406 660.584C423.265 660.724 422.957 660.977 422.844 660.921C421.02 660.135 419.139 659.013 418.831 657.216C418.409 654.999 418.831 652.614 418.999 650.284C418.999 649.891 419.504 649.499 419.757 649.106C421.366 646.561 422.62 643.343 423.518 639.451C423.63 639.03 423.883 638.497 424.248 638.273C425.483 637.543 426.802 636.898 428.121 636.252C429.497 635.578 430.423 634.596 430.816 633.109C431.518 630.471 433.146 628.562 435.84 627.44C438.451 626.345 439.882 624.1 441.342 621.939C441.735 621.35 441.988 620.62 441.454 619.975C440.303 618.599 440.191 617.196 440.388 615.428C440.753 612.453 440.584 609.394 440.556 606.391C440.556 605.746 440.5 604.848 440.051 604.455C438.367 602.939 438.114 600.694 436.711 599.038C435.588 597.747 435.055 596.288 434.914 594.576C434.718 592.331 433.146 590.759 431.041 589.805C430.479 589.552 429.328 589.496 429.02 589.805C427.588 591.405 426.465 593.201 424.585 594.408C423.939 594.829 424.332 595.699 424.585 596.344C425.006 597.354 424.753 598.168 423.883 598.786C421.89 600.245 420.992 600.413 419.364 599.066C417.904 597.832 416.08 597.186 414.732 595.699C413.273 594.099 411.14 593.313 408.726 594.127C408.052 594.352 407.238 594.464 406.536 594.352C404.291 593.987 402.157 593.397 401.568 590.872C401.063 588.598 399.126 587.448 397.386 586.185C396.796 585.736 396.066 585.764 395.309 585.764C394.354 585.764 393.428 585.399 392.502 585.118C390.312 584.529 389.021 583.266 389.807 580.993C390.34 579.449 389.695 578.158 388.853 577.092C387.393 575.211 385.653 573.528 384.053 571.731C382.649 570.132 380.937 568.728 380.123 566.68C379.842 565.978 379.253 565.557 378.439 565.613C374.622 565.866 371.197 564.435 367.688 563.396C364.629 562.498 361.654 561.46 358.398 561.207C356.096 561.039 354.075 559.972 352.671 558.316C349.387 554.444 344.84 551.946 341.107 548.522C339.451 547.034 337.261 546.782 334.876 547.596C326.736 550.458 326.707 550.458 318.567 548.101C316.238 547.427 313.88 546.754 311.719 545.547C309.838 544.481 307.789 543.498 305.656 542.993C301.473 541.955 297.993 539.906 294.821 537.24C294.119 536.651 293.137 536.342 292.21 536.061C291.284 535.753 290.274 535.696 289.319 535.472C287.102 534.967 285.193 534.097 283.79 532.244C282.498 530.504 280.758 529.213 278.541 528.54C276.267 527.866 274.92 526.295 273.797 524.386C272.534 522.225 271.832 520.149 273.572 517.875C274.134 517.118 274.499 516.219 274.779 515.321C274.976 514.676 275.032 513.918 274.864 513.273C272.59 504.881 270.513 501.036 262.934 493.571C262.289 492.926 261.418 492.112 261.334 491.354C261.194 489.446 260.183 488.464 258.499 487.65C256.984 486.92 255.608 485.882 254.205 484.927C253.138 484.198 253.026 482.851 253.699 481.784C253.952 481.391 254.205 480.998 254.485 480.605C254.991 479.904 254.794 479.174 254.289 478.697C253.25 477.687 252.1 476.817 250.977 475.947C249.293 474.572 247.665 473.196 247.131 470.979C246.935 470.165 246.009 469.492 245.419 468.762C242.303 465.114 239.889 461.072 238.093 456.694C236.914 453.832 236.521 450.801 235.988 447.826C235.679 446.198 234.781 445.356 233.405 444.711C232.086 444.093 230.767 443.532 229.42 442.971C228.83 442.718 228.493 442.971 228.325 443.56C227.286 447.04 227.932 450.52 228.381 453.972C228.465 454.618 228.802 455.347 229.279 455.88C231.665 458.603 232.984 461.914 234.977 464.861C236.802 467.555 238.261 470.614 239.328 473.673C240.086 475.806 242.36 476.845 242.809 478.978C243.202 480.802 243.37 482.682 243.763 484.478C244.016 485.601 244.577 486.695 244.942 487.79C245.391 489.137 248.31 493.992 249.293 495.059C250.443 496.294 251.37 497.641 251.847 499.268C252.128 500.251 251.65 501.514 250.584 502.327C249.714 502.973 248.338 502.945 247.945 502.187C245.587 497.669 241.237 494.806 237.672 491.326C236.521 490.204 236.016 489.137 236.381 487.594C236.661 486.471 236.718 485.292 236.746 484.114C236.746 482.935 236.381 481.812 235.398 480.97C233.041 478.95 230.907 476.732 227.904 475.413C225.63 474.431 223.946 472.663 222.767 470.53C222.487 469.997 222.908 469.043 223.553 468.846C223.778 468.79 224.03 468.706 224.283 468.734C225.322 468.79 226.248 468.622 226.781 467.668C227.539 466.377 227.82 465.058 227.006 463.682C225.546 461.241 224.143 458.771 221.785 456.947C220.578 456.021 219.68 454.842 219.511 453.439C218.95 448.977 216.76 444.991 215.525 440.754C214.796 438.284 213.954 435.842 213.841 433.232C213.729 429.893 211.989 427.591 209.013 425.879C205.449 423.831 202.277 421.164 197.926 420.547C196.635 420.351 196.073 419.537 196.242 417.909C196.382 416.422 196.045 415.159 195.4 413.868C194.137 411.342 192.93 408.788 191.751 406.234C191.47 405.617 191.133 404.775 191.33 404.213C192.256 401.968 191.049 400.172 190.347 398.208C190.123 397.59 190.263 396.832 190.403 396.159C190.572 395.485 190.965 394.868 191.217 394.222C191.639 393.156 191.61 393.184 190.263 392.37C189.674 392.005 188.944 391.612 188.635 391.051C187.653 389.171 186.783 387.262 185.969 385.326C185.716 384.708 185.632 383.979 185.604 383.277C185.547 382.126 185.379 380.892 185.688 379.797C186.418 377.159 186.053 374.745 184.79 372.332C184.2 371.209 184.369 369.974 185.098 368.992C187.484 365.765 188.074 362.144 187.849 358.328C187.821 357.626 187.737 356.924 187.737 356.223C187.681 352.911 188.242 349.74 190.319 346.905C192.593 343.818 193.968 340.282 194.866 336.634C195.849 332.733 197.673 329.168 199.161 325.464C200.565 321.9 201.435 318.364 201.182 314.519C200.986 311.488 201.098 308.457 201.126 305.426C201.154 303.349 202.361 302.002 204.354 301.244C204.298 301.188 204.242 301.16 204.214 301.104L204.438 301.216C203.877 300.767 203.175 300.374 202.782 299.813C200.003 295.715 196.186 292.348 193.351 288.25C192.424 286.903 191.133 285.752 190.095 284.461C189.674 283.928 189.281 283.199 189.337 282.581C189.449 281.122 188.972 279.803 188.719 278.456C188.635 277.95 189.618 277.137 190.207 277.221C190.909 277.333 191.723 277.389 192.312 277.726C193.351 278.343 194.249 279.157 195.203 279.887C196.747 281.066 198.319 282.132 200.312 282.609C202.922 283.227 204.55 284.854 205.168 287.38C205.449 288.503 205.926 289.597 206.234 290.72C206.571 291.955 207.61 292.46 208.677 292.909C209.743 295.407 210.333 297.989 210.08 300.739C209.968 302.002 209.182 302.844 207.778 302.816C207.077 302.816 206.403 302.647 205.701 302.563C205.757 302.619 205.813 302.675 205.87 302.732L205.617 302.563C207.189 304.247 209.491 304.415 211.54 305.033C212.045 305.173 212.831 304.612 213.42 304.247C213.813 303.994 214.15 303.602 214.346 303.181C214.936 301.918 215.638 300.739 214.768 299.223C213.954 297.82 213.392 296.249 212.887 294.705C212.522 293.639 211.708 293.302 210.754 293.077C210.108 292.937 209.434 292.853 208.761 292.741C208.648 292.263 208.564 291.814 208.452 291.337H208.48C208.48 291.337 208.564 291.45 208.62 291.506L208.845 291.281L208.48 291.337C208.087 290.86 207.638 290.411 207.441 289.85C206.936 288.475 207.245 287.1 207.778 285.752C208.059 285.051 207.582 284.377 206.936 284.012C205.87 283.423 204.775 282.862 203.652 282.441C202.221 281.936 201.07 281.178 200.172 279.999C199.301 278.849 198.038 278.091 196.663 277.501C193.996 272.281 196.494 263.357 196.017 262.852C194.81 261.617 193.603 260.41 192.396 259.175C192.452 259.091 192.509 259.035 192.537 258.951C192.902 258.923 193.042 258.81 192.761 258.614C192.677 258.726 192.621 258.838 192.537 258.951C192.424 258.951 192.396 259.007 192.2 259.007C192.256 259.063 192.312 259.119 192.368 259.175C192.088 258.838 191.526 258.502 191.526 258.137C191.47 256.453 191.975 254.937 193.379 253.787C194.109 253.197 194.866 252.608 195.512 251.935C195.737 251.682 195.652 251.149 195.624 250.756C195.624 250.644 195.231 250.503 195.007 250.503C193.238 250.447 191.667 251.205 190.067 251.71C188.804 252.103 187.372 251.008 186.979 249.381C186.839 248.819 187.316 248.679 187.821 248.454C189.926 247.556 190.01 246.827 188.354 245.087C187.737 244.441 187.821 243.992 188.747 243.571C189.365 243.263 190.432 243.347 190.46 242.477C190.488 240.456 191.526 238.969 192.845 237.565C193.435 236.948 193.098 236.331 192.2 236.134C191.498 235.966 190.712 235.994 190.095 235.713C188.495 235.011 191.891 218.874 184.481 234.703C184.312 235.04 183.751 235.348 183.33 235.376C182.937 235.376 182.348 235.124 182.179 234.815C181.225 233.215 181.477 231.223 180.299 229.623C179.962 229.202 180.242 228.304 180.383 227.659C180.551 226.76 180.748 225.834 181.084 224.992C181.562 223.758 181.028 222.859 180.327 221.849C180.046 221.428 180.383 220.642 180.495 219.997C180.579 219.997 180.635 219.997 180.72 220.025C180.804 219.829 180.888 219.66 180.944 219.464C181.113 219.295 181.309 219.155 181.449 218.987C181.506 218.902 181.365 218.65 181.337 218.509C181.197 218.818 181.084 219.155 180.944 219.464C180.804 219.604 180.663 219.744 180.523 219.857C180.523 219.913 180.523 219.941 180.495 219.997C180.102 219.969 179.681 219.941 179.316 219.829C178.278 219.52 177.52 218.566 177.885 217.864C177.744 215.366 176.986 214.244 176.341 216.377C176.172 216.629 175.555 216.685 175.134 216.741C175.022 216.741 174.769 216.405 174.741 216.208C174.432 213.879 174.6 211.606 175.443 209.36C175.976 207.985 175.443 206.778 174.544 205.684C174.488 205.74 174.46 205.824 174.404 205.88C174.404 205.74 174.404 205.628 174.404 205.487L174.572 205.656C174.32 204.281 174.039 202.906 173.786 201.53C173.506 200.071 174.011 198.78 174.6 197.489C175.19 196.226 176.734 195.553 178.278 195.945C178.727 196.058 179.148 196.338 179.569 196.591C180.102 196.9 180.551 196.872 180.832 196.366C180.916 196.226 180.804 195.917 180.692 195.777C179.793 194.683 178.727 193.756 178.642 192.185C178.586 191.315 177.997 190.473 177.632 189.603C177.351 188.957 177.043 188.817 176.734 189.294C176.621 189.463 176.621 189.743 176.678 189.968C176.846 190.641 177.127 191.287 177.295 191.96C177.52 192.886 176.706 193.756 175.695 193.869C174.348 194.037 173.253 193.532 172.383 192.69C170.839 191.146 169.857 189.266 169.492 187.161C169.323 186.235 169.071 185.309 169.127 184.411C169.183 182.98 168.229 182.531 167.134 181.913C166.348 181.464 165.871 180.538 165.197 179.864C163.71 178.461 163.597 177.114 165.169 175.655C165.534 175.318 165.225 174.785 164.692 174.588C164.496 174.504 164.215 174.42 164.018 174.476C161.548 175.122 159.724 174.055 158.124 172.427C157.647 171.95 157.282 171.417 156.861 170.884C156.861 170.884 156.889 170.884 156.917 170.912L157.085 170.631L156.777 170.8C156.777 170.8 156.833 170.856 156.861 170.912C156.243 170.575 155.542 170.294 155.008 169.845C153.268 168.358 151.303 167.628 148.945 167.684C147.963 167.684 146.98 167.544 146.026 167.376C144.987 167.235 144.23 166.618 143.724 165.776C143.359 165.159 143.275 164.429 142.91 163.811C142.096 162.352 141.086 160.977 139.346 160.444C136.342 159.546 135.247 157.3 134.658 154.69C134.518 154.045 134.602 153.371 134.602 152.726C134.63 152.726 134.658 152.726 134.714 152.726L134.939 152.361L134.63 152.614V152.726C133.479 152.782 132.272 152.754 131.149 152.978C129.269 153.343 128.623 152.361 128.062 150.93C127.781 150.172 127.023 150.228 126.321 150.818C125.086 151.828 124.637 153.035 125.227 154.466C125.564 155.28 126.041 156.178 126.771 156.683C128.034 157.553 127.641 158.479 127.304 159.489C126.799 159.489 126.321 159.489 125.816 159.489C125.058 158.844 124.216 158.535 123.486 159.433C122.729 160.359 121.971 161.258 120.82 161.763C120.146 162.043 119.388 162.605 118.799 162.492C116.132 161.959 114.027 163.11 111.838 164.204C110.996 164.625 110.041 164.934 109.087 165.187C106.729 165.832 104.456 166.646 102.294 167.797C101.284 168.33 99.9645 168.526 98.7575 168.582C98.2242 168.582 97.5506 167.909 97.1576 167.376C96.7365 166.842 97.0453 165.776 97.5786 165.495C98.8698 164.822 100.161 164.204 101.48 163.559C102.126 163.25 102.098 162.97 101.536 162.492C100.414 161.51 100.554 160.331 101.452 159.405C103.922 156.823 106.617 154.41 107.964 151.042C108.189 150.481 108.891 150.004 109.48 149.639C112.147 148.011 114.897 147.674 117.788 149.19C117.985 149.302 118.743 148.853 118.799 148.572C118.967 147.899 118.939 147.197 118.883 146.496C118.771 144.98 117.115 143.829 115.796 144.447C111.669 146.355 107.122 147.758 104.652 151.912C104.147 152.754 103.192 153.063 102.154 153.175C100.835 153.287 99.6277 153.989 99.347 155.111C98.8417 157.188 97.1576 158.086 95.6699 159.265C94.6314 160.079 93.6209 160.331 92.3016 160.079C90.1964 159.658 88.4561 160.388 86.9966 161.847C86.2668 162.577 86.0703 163.362 86.6036 164.345C86.9404 164.962 87.4176 165.523 87.7263 166.141C88.4281 167.516 87.9509 168.919 86.5755 169.733C85.7334 170.21 84.8352 170.575 83.9931 171.08C82.9546 171.698 81.7195 172.231 81.0459 173.129C79.3898 175.318 77.3969 176.525 74.5338 177.198C70.7445 178.068 67.3481 180.117 64.0359 182.11C63.4465 182.446 62.8009 182.98 62.5483 183.597C61.8466 185.225 60.6115 186.151 58.8993 186.796C57.3274 187.386 55.924 188.396 54.2117 188.789C53.7346 188.901 53.4539 189.715 53.117 190.304C52.4153 190.22 51.5732 189.884 51.0399 190.136C49.2996 190.922 47.6716 191.96 45.9875 192.886C45.005 195.44 42.3665 195.777 40.1771 196.703C38.8579 197.265 37.3983 197.629 36.3036 198.64C35.5177 199.369 34.6194 198.948 33.6651 198.864C31.5038 198.64 29.4547 199.678 27.2934 199.987C26.9846 200.043 26.7881 200.716 26.5355 201.137C25.7496 202.456 25.7496 202.456 25.3005 201.755C24.6829 200.829 24.0935 199.903 23.476 198.976L23.504 198.92L23.7847 198.668L23.3637 198.808C23.3637 198.808 23.4479 198.92 23.476 198.976C22.0444 201.699 19.6866 203.158 16.5148 203.27C14.1851 203.355 12.2202 203.86 10.5922 205.6C10.0308 206.217 8.85192 206.414 7.89757 206.61C6.46604 206.891 4.9503 206.442 3.51877 207.031C2.87318 207.312 2.08724 207.396 1.38551 207.368C0.992546 207.368 0.431162 207.031 0.234678 206.694C0.010124 206.357 -0.102153 205.684 0.122401 205.431C1.46972 203.776 2.78897 202.064 5.3152 201.923C6.55025 201.839 7.75722 201.586 8.99227 201.53C12.3606 201.39 15.1394 200.099 17.6376 198.022C19.1252 196.815 20.7533 195.721 22.4093 194.739C24.3461 193.588 26.4794 193.027 28.753 193.785C29.7915 194.121 30.6897 194.037 31.3353 193.139C32.4581 191.539 33.9177 190.417 35.7703 189.547C38.6333 188.2 41.2999 186.46 44.2472 185.309C46.1278 184.579 47.5593 183.316 49.2716 182.503C54.6047 179.949 57.8888 175.627 60.5273 170.856C61.7062 168.723 62.9413 166.87 65.0184 165.467C65.5517 165.102 65.5517 164.653 65.1306 164.401C64.9342 164.289 64.6815 164.232 64.457 164.26C63.7272 164.373 63.0255 164.597 62.2957 164.625C61.5939 164.653 60.8361 164.625 60.1905 164.373C57.9449 163.559 57.9449 163.475 56.766 164.878C56.6257 165.046 56.5134 165.271 56.345 165.467C55.7836 166.057 54.8854 165.972 54.717 165.215C54.0995 162.38 51.4329 161.286 49.5803 159.546C49.5242 159.489 49.047 159.658 48.9347 159.826C47.5593 162.352 45.4261 161.791 43.2367 161.117C42.4788 160.893 42.3385 160.331 42.8437 159.546C43.2367 158.956 43.7139 158.423 44.0226 157.834C44.4437 156.992 44.7243 156.15 44.191 155.196C43.5735 154.045 43.6016 152.894 44.6682 152.024C46.0155 150.902 46.9418 149.667 46.9699 147.843C46.9699 146.748 47.2786 145.654 47.4751 144.587C47.5313 144.587 47.5874 144.587 47.6716 144.587C47.6716 144.391 47.6716 144.166 47.6997 143.97C47.9242 143.493 48.1488 143.016 48.3172 142.51C48.5418 141.865 48.3172 141.584 47.8681 141.865C47.7278 141.949 47.7839 142.286 47.7839 142.51C47.7558 142.987 47.7278 143.465 47.6997 143.942C47.6435 144.082 47.5874 144.222 47.5032 144.363C47.5032 144.419 47.5032 144.475 47.4751 144.531C45.5384 144.307 43.7139 144.784 41.8332 145.176C40.935 145.345 39.8964 145.008 38.9982 144.756C38.0439 144.475 37.2299 143.857 36.9492 142.903C36.472 141.332 36.1632 139.732 35.658 138.16C34.8159 135.522 34.9563 133.137 37.2018 131.06C38.1281 130.19 38.2684 129.011 37.9035 127.804C37.5667 126.682 37.3141 125.559 37.0053 124.437C36.1913 121.406 37.0053 118.964 39.7561 117.056C43.6858 114.305 46.633 110.432 51.0118 108.159C51.4048 107.963 51.7416 107.486 51.8539 107.065C52.7802 103.781 55.6713 102.35 58.4221 100.806C59.9659 99.9363 61.3694 100.441 62.6886 102.181C62.9693 102.546 63.1658 103.051 63.5026 103.332C63.8395 103.613 64.4008 103.865 64.8219 103.809C67.6569 103.388 69.9024 102.125 70.969 99.4311C71.1936 98.8417 71.0532 97.8314 71.8392 97.8595C72.3444 97.8595 72.7935 98.8137 73.3269 99.2627C74.0567 99.8521 74.8707 100.413 75.6847 100.89C76.0776 101.115 76.6109 101.311 77.0601 101.311C79.5863 101.34 83.2914 98.8979 83.6844 96.6246C84.0493 94.4917 84.9475 92.6395 85.9861 90.7591C86.2948 90.1978 86.2387 89.3839 86.0983 88.7385C85.7054 87.1388 86.7439 86.7459 88.0351 86.4091C88.4842 86.2968 88.9053 85.9881 89.2702 85.7075C89.4105 85.5952 89.4105 85.2584 89.3263 85.062C89.2702 84.8655 89.0737 84.613 88.9053 84.613C88.2035 84.5007 87.3895 84.22 86.772 84.4446C84.2458 85.3426 81.7195 86.3249 79.3056 87.4475C77.7618 88.1772 76.4425 88.0088 75.2075 87.0546C72.9339 85.3146 70.3796 85.0059 67.5727 85.4549C64.1763 86.0162 62.043 84.0236 60.3308 81.6381C59.8536 80.9645 59.6852 79.7858 59.9378 78.972C60.5834 76.7548 61.9588 74.7623 62.4079 72.461C62.4641 72.2084 63.1658 72.04 63.5868 71.8435C64.7658 71.3664 65.0464 71.0016 64.6254 70.4964C63.4746 69.009 62.2676 67.5216 61.1448 66.0061C60.415 65.0238 60.808 63.4803 61.9869 63.0593C65.2149 61.9648 67.8814 59.6635 71.3901 59.1583C72.5971 58.9899 73.804 58.5689 74.9829 58.6812C76.5267 58.8215 77.7056 58.9057 78.8565 57.5305C79.5301 56.7167 80.9617 56.2396 82.1125 56.0712C84.0212 55.7625 86.0141 55.7344 87.979 55.7625C89.635 55.7905 91.2069 57.727 90.1684 59.2986C89.6631 60.0844 89.0456 60.8141 88.5123 61.5999C87.9228 62.4419 88.1755 63.368 89.1859 63.9293C90.6736 64.7432 92.1613 65.5851 93.7051 66.2867C95.0805 66.9322 96.5681 67.0725 97.9155 66.1464C99.1505 65.2764 100.47 64.8554 101.985 64.687C103.164 64.5748 103.024 63.5083 103.305 62.7506C103.417 62.7506 103.529 62.7506 103.614 62.7506C103.614 62.6944 103.614 62.6383 103.614 62.6103C105.494 63.3961 107.347 64.2099 109.396 64.3503C109.733 64.3503 110.238 64.0135 110.434 63.7048C110.827 63.1715 110.434 62.1332 109.901 61.9367C107.908 61.179 105.887 60.8983 103.782 61.3754C103.782 61.3754 103.782 61.3193 103.782 61.2912L103.361 61.0948L103.642 61.4035C103.642 61.4035 103.726 61.4035 103.754 61.4035C103.698 61.8244 103.642 62.2174 103.557 62.6383C103.473 62.6103 103.389 62.5822 103.305 62.5261C103.277 62.6103 103.249 62.6944 103.221 62.7786C102.603 62.7786 101.957 62.7786 101.368 62.6383C100.947 62.5261 100.329 62.077 100.357 61.7964C100.414 59.9441 100.554 58.0918 100.807 56.2396C100.919 55.4538 101.705 55.2292 102.463 55.117C102.687 55.117 103.108 54.9486 103.08 54.8925C102.996 54.4715 102.996 53.8821 102.715 53.7138C101.508 52.956 100.161 52.3947 98.954 51.637C97.9155 50.9634 97.2979 49.3918 97.8032 48.5499C100.357 44.3121 99.8803 40.0743 98.2242 35.7243C97.6348 34.1807 97.3821 32.553 96.7365 31.0375C95.7822 28.7643 96.2874 27.1084 98.3084 25.5368C99.5996 24.5265 100.498 23.011 101.621 21.7762C103.333 19.8958 104.54 19.6152 106.813 20.4291C107.038 20.5132 107.291 20.5694 107.487 20.6816C113.101 23.6846 117.929 21.2991 122.729 18.7171C123.346 18.3803 123.908 17.8752 124.441 17.37C128.146 13.8619 132.834 11.6729 137.156 8.97867C139.374 7.57544 142.012 6.76156 144.875 7.51931C146.868 8.05254 148.777 7.23866 150.686 6.92995C151.303 6.81769 151.893 6.20027 152.342 5.66704C152.791 5.13381 152.931 4.348 153.436 3.8709C155.064 2.29928 156.973 1.31702 159.415 2.01863C160.819 2.4396 162.25 2.83251 163.654 3.22541C166.152 3.89897 168.538 3.8709 170.671 2.24315C172.046 1.20476 173.702 0.671529 175.33 0.166365C176.341 -0.170411 177.183 -0.00202315 177.997 0.727658C179.456 2.01863 180.383 3.59025 180.944 5.38639C180.888 5.38639 180.888 5.33026 180.832 5.33026C180.72 5.35833 180.579 5.41446 180.439 5.44252C179.625 5.44252 178.951 5.72317 178.306 6.11607C177.997 6.22833 177.66 6.31253 177.323 6.42479C177.323 6.48092 177.323 6.53704 177.295 6.62124C176.397 6.70543 175.527 6.76156 174.629 6.87382C174.432 6.87382 174.067 7.18253 174.095 7.26673C174.236 7.65963 174.376 8.22092 174.713 8.41738C175.695 9.0348 176.537 8.78222 177.043 7.77189C177.211 7.43511 177.239 7.01414 177.323 6.62124C177.407 6.62124 177.464 6.62124 177.548 6.62124C177.8 6.45285 178.081 6.31253 178.334 6.14414C179.035 5.91962 179.737 5.6951 180.467 5.47059C180.635 5.47059 180.832 5.47059 181 5.47059C181 5.44252 181 5.41446 180.972 5.38639C182.348 5.91962 182.235 6.98608 182.067 8.16479C181.842 9.70835 182.123 10.0171 183.246 10.2135C183.976 10.3538 184.733 10.3538 185.435 10.5503C186.586 10.8871 187.793 11.2238 188.86 11.7571C189.449 12.0658 189.982 12.6832 190.263 13.2726C190.572 13.9181 190.263 14.5916 189.758 15.181C189.477 15.5177 189.112 16.1632 189.253 16.3877C190.432 18.1839 190.319 20.3729 191.47 22.141C191.891 22.7865 192.537 23.0952 193.323 22.9549C194.53 22.7304 195.709 22.3655 196.916 22.1691C198.852 21.8323 200.48 22.562 201.238 24.1617C201.94 25.7052 202.894 27.0243 204.157 28.1468C205.224 29.101 206.347 30.2236 207.666 30.6446C210.585 31.5988 212.718 33.4791 215.02 35.2472C216.592 36.482 218.304 37.2679 220.409 37.2117C221.392 37.1837 222.374 37.2117 223.357 37.324C224.395 37.4082 225.181 37.9414 225.799 38.7272C226.079 39.0921 226.444 39.485 226.585 39.9059C227.848 43.4701 230.851 45.5189 233.939 47.4553C235.96 48.7182 238.149 49.7286 239.805 51.4686C239.805 51.4686 239.805 51.4405 239.805 51.4125C239.861 51.4125 239.946 51.4125 240.002 51.4125C240.198 51.0757 240.395 50.6828 240.703 50.5424C240.984 50.4021 241.489 50.6547 241.854 50.7389C241.854 50.7389 241.854 51.0757 241.77 51.1599L241.798 51.3002Z" fill="#02c7ca"/>
</svg>
