<svg xmlns="http://www.w3.org/2000/svg" xml:space="preserve" version="1.1" width="50" height="70" viewBox="7612.25 9397.27 7110.24 7190.33">
 <g>
  <path d="M12591.81 12713.96c13.15,19.07 -0.57,-46.24 -1.69,-69.15 -38.15,-778.74 -717.46,-1399.02 -1549.88,-1399.02 -856.9,0 -1551.57,657.32 -1551.57,1468.17 0,236.3 -44.74,576.09 163.81,657.3 688.48,268.1 2778.45,-890.59 2939.33,-657.3z" fill="#FFE600"/>
  <path d="M13849.27 12270.73c-116.46,44.07 -232.86,88.14 -349.25,132.21 -280.27,107.25 -560.47,213.71 -840.73,320.97 -761.68,289.37 -1525.05,574.6 -2339.15,674.39 -784.16,95.63 -1658.95,26.6 -2181.17,-637.81 -608.69,-774.99 -789.12,-2089.66 -2.48,-2799 32.44,-30.79 67.35,-59.03 103.11,-86.45 326.8,-247.83 648.61,-385.86 956.31,-442.45 521.35,-99.69 1000.33,24.98 1387.84,210.42 102.28,49.03 197.9,102.25 286.86,157.21 -646.1,15.8 -1116.75,281.87 -1452.7,609.53 -0.83,0.81 -0.83,0.81 -1.66,1.62 -306.02,297.68 -500.6,646.95 -614.53,905.58 -98.95,222 -138.02,377.51 -138.02,377.51 -39.09,-81.5 -68.19,-162.17 -88.99,-239.49 -102.28,-369.21 -27.43,-668.54 -21.62,-691.07 -31.59,44.96 -536.35,801.67 219.55,1828.63 278.54,377.52 641.11,548 993.69,612.03 498.93,89.8 975.4,-34.93 1157.53,-93.14 49.91,-15.82 77.34,-26.62 77.34,-26.62l-202.1 -113.92 -315.96 -177.95c0,0 191.23,-59.87 349.24,-92.3 23.3,-5 49.92,-4.17 81.5,0 182.12,24.12 480.66,178.78 662.72,136.37 213.71,-49.05 672.72,-387.5 672.72,-387.5l-118.91 -5.81 -116.4 -5.82 -977.9 -607.05c0,0 70.7,-57.36 421.58,-84.82 39.94,-3.32 83.19,-5.81 130.6,-8.31 463.94,-23.28 967.91,333.46 967.91,333.46 0,0 487.25,0 694.3,-15.8 108.93,-9.98 314.37,-128.91 538.07,-209.55 206.23,-74.84 426.53,-117.25 599.45,-9.97 28.35,17.46 45.78,35.74 54.15,54.87 78.89,162.97 -522.28,353.41 -592.9,380.03z" fill="#173374"/>
  <path d="M9766.33 13204.56c-545.5,-34.93 -1068.54,-210.39 -1426.11,-666.08 -549.65,-699.34 -750.05,-1839.42 -203.73,-2576.99 32.44,-30.79 67.35,-59.03 103.11,-86.45 326.8,-247.83 648.61,-385.86 956.31,-442.45 127.14,-24.28 251.81,-35.32 373.23,-35.32 376.36,0 721.61,105.5 1014.61,245.74 -524.71,130.6 -901.4,439.08 -1165.84,766.74l0 0c-0.83,0.81 -0.83,0.81 -1.66,1.62 -306.02,297.68 -500.6,646.95 -614.53,905.58l0 0c-138.87,-407.48 -53.2,-750.93 -47.38,-774.98 -20.79,29.86 -253.63,378.32 -179.63,913 -40.85,-147.47 -53.44,-283.8 -53.47,-395.78 -0.03,-168.39 28.36,-281.82 31.85,-295.29l0 0c-18.24,25.91 -194.08,288.98 -194.21,704.22 -0.09,304.22 94.13,690.16 413.76,1124.41 278.54,377.52 641.11,548 993.69,612.03z" fill="#132B61"/>
  <path d="M13083.22 12063.59l0 0c62.75,-2.08 120.29,-4.71 165.1,-8.08 -44.81,3.37 -102.35,6 -165.1,8.08zm165.26 -8.09c0.16,-0.02 0.24,-0.02 0.41,-0.03 -0.17,0.01 -0.25,0.01 -0.41,0.03zm0.57 -0.04c0.08,-0.01 0.24,-0.02 0.41,-0.04 -0.17,0.02 -0.33,0.03 -0.41,0.04zm0.57 -0.04c0.16,-0.02 0.23,-0.03 0.31,-0.04 -0.08,0.01 -0.15,0.02 -0.31,0.04z" fill="#D5D5D5"/>
  <path d="M12556.2 12071.15c0,0 -6.81,-4.8 -19.48,-13.24 13.16,8.72 27.92,13.2 43.75,13.2 0.09,0 0.16,0 0.24,0 75.82,-0.18 312.9,-1.26 502.51,-7.52l0 0c-228.97,7.56 -527.02,7.56 -527.02,7.56z" fill="#BDAE2E"/>
  <path d="M11743 11742.92l0 0 0 0zm-1.14 -0.13l-0.08 0 0.08 0zm-5.77 -0.61c0,0 -0.08,-0.01 -0.16,-0.01 0.08,0 0.16,0.01 0.16,0.01zm-1.14 -0.12c-0.08,-0.01 -0.08,-0.01 -0.16,-0.02 0,0 0.08,0.01 0.16,0.02zm-1.12 -0.12c-0.09,0 -0.26,-0.02 -0.34,-0.03 0.08,0.01 0.25,0.03 0.34,0.03zm-1.23 -0.12c-0.08,-0.01 -0.24,-0.01 -0.32,-0.02 0.17,0.01 0.24,0.01 0.32,0.02zm-1.21 -0.13c-0.08,0 -0.16,0 -0.25,-0.02 0.09,0.01 0.17,0.02 0.25,0.02zm-3.42 -0.34c-0.08,0 -0.08,0 -0.16,0 0.08,0 0.08,0 0.16,0zm-0.97 -0.08c-0.16,-0.02 -0.24,-0.03 -0.4,-0.04 0.16,0.01 0.24,0.02 0.4,0.04zm-1.21 -0.13c-0.16,-0.01 -0.25,-0.02 -0.41,-0.03 0.16,0.01 0.25,0.02 0.41,0.03zm-1.22 -0.1c-0.16,-0.02 -0.24,-0.03 -0.41,-0.05 0.08,0.02 0.33,0.03 0.41,0.05zm-1.22 -0.12c-0.16,-0.01 -0.33,-0.03 -0.41,-0.03 0.08,0 0.25,0.02 0.41,0.03zm-1.22 -0.1c-0.17,-0.02 -0.32,-0.05 -0.49,-0.05 0.17,0.02 0.32,0.03 0.49,0.05zm-1.21 -0.12c-0.08,-0.01 -0.24,-0.02 -0.32,-0.03 0.08,0.01 0.16,0.02 0.32,0.03zm-2.28 -0.21c-0.08,0 -0.08,-0.01 -0.08,-0.01 0,0 0,0.01 0.08,0.01zm-0.73 -0.07c-0.24,-0.01 -0.41,-0.03 -0.65,-0.04 0.16,0.01 0.41,0.03 0.65,0.04zm-1.3 -0.1c-0.15,-0.01 -0.4,-0.04 -0.57,-0.05 0.17,0.01 0.42,0.04 0.57,0.05zm-1.21 -0.1c-0.26,-0.03 -0.41,-0.04 -0.65,-0.06 0.24,0.02 0.39,0.03 0.65,0.06zm-1.22 -0.11c-0.24,-0.02 -0.49,-0.03 -0.65,-0.06 0.16,0.03 0.41,0.04 0.65,0.06zm-1.3 -0.1c-0.25,-0.03 -0.41,-0.04 -0.65,-0.06 0.24,0.02 0.4,0.03 0.65,0.06zm-1.22 -0.11c-0.24,-0.01 -0.41,-0.03 -0.65,-0.04 0.24,0.01 0.41,0.03 0.65,0.04zm-1.3 -0.1c-0.32,-0.03 -0.82,-0.06 -1.13,-0.1 0.4,0.04 0.73,0.06 1.13,0.1zm-1.78 -0.14c-0.16,-0.01 -0.41,-0.04 -0.57,-0.05 0.16,0.01 0.41,0.04 0.57,0.05zm-1.3 -0.11c-0.16,0 -0.33,-0.02 -0.57,-0.04 0.24,0.02 0.41,0.04 0.57,0.04zm-1.22 -0.08c-0.16,-0.02 -0.41,-0.03 -0.57,-0.06 0.16,0.03 0.41,0.04 0.57,0.06zm-1.22 -0.09c-0.16,-0.03 -0.48,-0.05 -0.64,-0.06 0.16,0.01 0.48,0.03 0.64,0.06zm-1.21 -0.11c-0.24,-0.01 -0.49,-0.03 -0.73,-0.04 0.24,0.01 0.49,0.03 0.73,0.04zm-1.3 -0.08c-0.16,-0.02 -0.49,-0.03 -0.65,-0.06 0.16,0.03 0.49,0.04 0.65,0.06zm-1.22 -0.09c-0.33,-0.02 -0.65,-0.05 -0.98,-0.07 0.33,0.02 0.65,0.05 0.98,0.07zm-1.63 -0.12c-0.24,-0.01 -0.56,-0.03 -0.89,-0.05 0.33,0.02 0.65,0.03 0.89,0.05zm-1.29 -0.08c-0.32,-0.03 -0.49,-0.04 -0.81,-0.06 0.24,0.02 0.57,0.04 0.81,0.06zm-1.3 -0.09c-0.24,-0.02 -0.57,-0.05 -0.81,-0.06 0.24,0.01 0.57,0.04 0.81,0.06zm-1.22 -0.08c-0.24,-0.02 -0.57,-0.05 -0.89,-0.06 0.32,0.01 0.57,0.04 0.89,0.06zm-1.3 -0.08c-0.23,-0.03 -0.57,-0.05 -0.81,-0.06 0.24,0.01 0.58,0.03 0.81,0.06zm-1.3 -0.1c-0.25,-0.01 -0.64,-0.04 -0.97,-0.05 0.33,0.01 0.66,0.04 0.97,0.05zm-1.21 -0.07c-0.81,-0.05 -1.71,-0.1 -2.52,-0.16 0.81,0.06 1.71,0.11 2.52,0.16zm-2.76 -0.17c-0.33,-0.01 -0.74,-0.03 -1.06,-0.06 0.32,0.03 0.73,0.05 1.06,0.06zm-1.38 -0.08c-0.33,-0.01 -0.65,-0.03 -0.97,-0.05 0.32,0.02 0.64,0.04 0.97,0.05zm-1.3 -0.07c-0.32,-0.02 -0.65,-0.04 -0.97,-0.06 0.32,0.02 0.65,0.04 0.97,0.06zm-1.3 -0.07c-0.24,-0.02 -0.65,-0.04 -0.89,-0.06 0.32,0.02 0.57,0.04 0.89,0.06zm-1.3 -0.07c-0.32,-0.02 -0.65,-0.05 -0.98,-0.06 0.33,0.01 0.66,0.04 0.98,0.06zm-1.22 -0.07c-1.29,-0.07 -2.59,-0.13 -3.89,-0.2 1.3,0.07 2.6,0.13 3.89,0.2zm-4.05 -0.21c-0.33,-0.01 -0.74,-0.04 -1.14,-0.06 0.4,0.02 0.81,0.05 1.14,0.06zm-90.26 -0.05c14.62,-0.74 29.3,-1.09 44.07,-1.09 0.81,0 1.71,0 2.6,0 -0.89,0 -1.79,0 -2.6,0 -14.69,0 -29.45,0.36 -44.07,1.09zm88.95 -0.01c-0.32,-0.02 -0.73,-0.03 -1.05,-0.04 0.32,0.01 0.65,0.02 1.05,0.04zm-1.37 -0.07c-0.42,-0.01 -0.65,-0.02 -1.05,-0.04 0.4,0.01 0.73,0.03 1.05,0.04zm-1.22 -0.05c-0.4,-0.02 -0.81,-0.04 -1.22,-0.05 0.41,0.01 0.82,0.03 1.22,0.05zm-1.3 -0.06c-1.3,-0.06 -2.6,-0.11 -3.89,-0.17 1.29,0.06 2.59,0.11 3.89,0.17zm-4.05 -0.17c-0.41,-0.01 -0.73,-0.02 -1.14,-0.04 0.41,0.02 0.73,0.03 1.14,0.04zm-1.39 -0.04c-0.4,-0.03 -0.73,-0.04 -1.05,-0.05 0.32,0.01 0.73,0.03 1.05,0.05zm-1.3 -0.06c-0.32,0 -0.73,-0.02 -1.04,-0.02 0.39,0 0.72,0.02 1.04,0.02zm-1.3 -0.05c-0.39,-0.01 -0.72,-0.02 -1.06,-0.03 0.34,0.01 0.75,0.02 1.06,0.03zm-1.29 -0.03c-0.32,-0.01 -0.81,-0.02 -1.22,-0.05 0.41,0.03 0.81,0.03 1.22,0.05zm-1.22 -0.05c-0.89,-0.02 -1.79,-0.06 -2.68,-0.08 0.89,0.02 1.79,0.05 2.68,0.08zm-2.68 -0.08c-0.49,-0.01 -0.8,-0.02 -1.3,-0.05 0.5,0.03 0.81,0.04 1.3,0.05zm-1.39 -0.05c-0.39,0 -0.81,-0.02 -1.12,-0.02 0.31,0 0.73,0.01 1.12,0.02zm-1.37 -0.03c-0.32,0 -0.73,-0.01 -1.05,-0.02 0.32,0.01 0.73,0.02 1.05,0.02zm-1.3 -0.04c-0.4,0 -0.73,-0.01 -1.06,-0.02 0.33,0.01 0.66,0.02 1.06,0.02zm-1.3 -0.03c-0.4,0 -0.81,-0.01 -1.21,-0.02 0.4,0.01 0.81,0.02 1.21,0.02zm-1.21 -0.02c-1.38,-0.03 -2.68,-0.06 -3.98,-0.09 1.38,0.03 2.6,0.06 3.98,0.09zm-4.06 -0.09c-0.41,-0.01 -0.82,-0.01 -1.22,-0.02 0.4,0.01 0.81,0.01 1.22,0.02zm-1.37 -0.02c-0.34,-0.01 -0.74,-0.01 -1.06,-0.02 0.32,0.01 0.72,0.01 1.06,0.02zm-1.32 -0.03c-0.39,0 -0.72,0 -1.13,-0.02 0.41,0.02 0.74,0.02 1.13,0.02zm-1.29 -0.02c-0.4,-0.01 -0.81,-0.01 -1.14,-0.01 0.33,0 0.74,0 1.14,0.01zm-1.3 -0.01c-1.69,-0.02 -3.48,-0.04 -5.19,-0.04 1.71,0 3.5,0.02 5.19,0.04zm-5.36 -0.05c-0.4,0 -0.73,0 -1.13,-0.02 0.4,0.02 0.73,0.02 1.13,0.02zm-1.3 -0.02c-0.4,0 -0.73,0 -1.12,0 0.39,0 0.72,0 1.12,0zm-1.37 0c-0.33,-0.01 -0.73,-0.01 -1.05,-0.01 0.32,0 0.72,0 1.05,0.01z" fill="#C1BF25"/>
  <path d="M10923.86 13111.42c49.91,-15.82 77.34,-26.62 77.34,-26.62l0 0 -202.1 -113.92c86.29,-15.96 162.25,-34.12 224.18,-50.92 69.24,-18.74 80.28,-112.18 17.78,-147.48l-127.18 -71.85c160.29,21.23 410.94,143.69 592.91,143.69 24.68,0 48.06,-2.25 69.81,-7.32 213.71,-49.05 672.72,-387.5 672.72,-387.5l0 0 -118.91 -5.81c168.82,-104.78 320.19,-216.21 320.19,-216.21l-164.2 -8.12c-46.67,-2.31 -91.96,-16.44 -131.73,-41.08l-696.98 -432.28c39.94,-3.32 83.19,-5.81 130.6,-8.31l0 0c14.62,-0.73 29.38,-1.09 44.07,-1.09 0.81,0 1.71,0 2.6,0 0.08,0 0.08,0 0.17,0 0.32,0 0.72,0 1.05,0.01 0.16,0 0.16,0 0.25,0 0.39,0 0.72,0 1.12,0 0,0 0.09,0 0.17,0 0.4,0.02 0.73,0.02 1.13,0.02 0.09,0 0.09,0 0.17,0.01 1.71,0 3.5,0.02 5.19,0.04 0.08,0 0.08,0 0.16,0 0.33,0 0.74,0 1.14,0.01 0.08,0 0.08,0 0.16,0 0.41,0.02 0.74,0.02 1.13,0.02 0,0.01 0.18,0.01 0.26,0.01 0.32,0.01 0.72,0.01 1.06,0.02 0.08,0 0.08,0 0.15,0 0.4,0.01 0.81,0.01 1.22,0.02l0.08 0c1.3,0.03 2.6,0.06 3.98,0.09l0 0c0.4,0.01 0.81,0.02 1.21,0.02 0.08,0 0.16,0 0.24,0.01 0.33,0.01 0.66,0.02 1.06,0.02 0.08,0 0.17,0 0.25,0.02 0.32,0.01 0.73,0.02 1.05,0.02 0.09,0 0.17,0.01 0.25,0.01 0.31,0 0.73,0.02 1.12,0.02l0.09 0c0.5,0.03 0.81,0.04 1.3,0.05l0 0c0.89,0.02 1.79,0.06 2.68,0.08l0 0c0.41,0.03 0.9,0.04 1.22,0.05 0.08,0 0.16,0 0.23,0 0.34,0.01 0.67,0.02 1.06,0.03 0.08,0.01 0.16,0.01 0.26,0.03 0.31,0 0.72,0.02 1.04,0.02 0.08,0.01 0.17,0.01 0.25,0.01 0.32,0.01 0.65,0.02 1.05,0.05 0.08,0 0.17,0 0.25,0 0.41,0.02 0.73,0.03 1.14,0.04 0,0 0.08,0 0.16,0 1.29,0.06 2.59,0.11 3.89,0.17 0.08,0.01 0,0.01 0.08,0.01 0.41,0.01 0.82,0.03 1.22,0.05 0.08,0.01 0.08,0.01 0.17,0.01 0.4,0.02 0.63,0.03 1.05,0.04 0.09,0.01 0.25,0.01 0.32,0.03 0.32,0.01 0.73,0.02 1.05,0.04l0.17 0c0.4,0.02 0.81,0.05 1.14,0.06 0.08,0 0.08,0.01 0.16,0.01 1.3,0.07 2.6,0.13 3.89,0.2 0.08,0 0.16,0 0.24,0.01 0.33,0.01 0.66,0.04 0.98,0.06 0.16,0 0.24,0.01 0.41,0.01 0.24,0.02 0.65,0.04 0.89,0.06 0.17,0 0.25,0.01 0.33,0.01 0.32,0.02 0.65,0.04 0.97,0.06 0.07,0.01 0.25,0.01 0.33,0.02 0.32,0.02 0.64,0.04 0.97,0.05 0.09,0.01 0.24,0.01 0.32,0.02 0.32,0.03 0.73,0.05 1.06,0.06 0.08,0.01 0.16,0.01 0.24,0.01 0.81,0.06 1.71,0.11 2.52,0.16 0.08,0.02 0.24,0.02 0.24,0.02 0.33,0.01 0.72,0.04 0.97,0.05 0.17,0.03 0.34,0.03 0.49,0.04 0.24,0.01 0.58,0.03 0.81,0.06 0.16,0.01 0.33,0.01 0.41,0.02 0.32,0.01 0.65,0.04 0.89,0.06 0.16,0.01 0.24,0.01 0.41,0.02 0.24,0.01 0.57,0.04 0.81,0.06 0.25,0.01 0.33,0.02 0.49,0.03 0.32,0.02 0.49,0.03 0.81,0.06 0.17,0 0.32,0.02 0.4,0.03 0.33,0.02 0.65,0.04 0.89,0.05 0.25,0.03 0.49,0.04 0.65,0.05 0.33,0.02 0.65,0.05 0.98,0.07 0.16,0.01 0.32,0.02 0.57,0.03 0.16,0.03 0.49,0.04 0.65,0.06 0.24,0.02 0.41,0.03 0.57,0.04 0.24,0.01 0.49,0.03 0.73,0.04 0.16,0.03 0.31,0.04 0.57,0.05 0.16,0.01 0.48,0.03 0.64,0.06 0.24,0.01 0.42,0.02 0.65,0.03 0.16,0.03 0.41,0.04 0.57,0.06 0.24,0.01 0.49,0.02 0.65,0.04 0.24,0.02 0.41,0.04 0.57,0.04 0.24,0.03 0.49,0.04 0.73,0.06 0.16,0.01 0.41,0.04 0.57,0.05 0.24,0.01 0.41,0.03 0.65,0.04 0.31,0.04 0.81,0.07 1.13,0.1 0.24,0.02 0.49,0.04 0.65,0.06 0.24,0.01 0.41,0.03 0.65,0.04 0.16,0.03 0.33,0.04 0.57,0.05 0.24,0.02 0.4,0.03 0.65,0.06 0.24,0.02 0.41,0.03 0.65,0.04 0.16,0.03 0.41,0.04 0.65,0.06 0.16,0.02 0.33,0.02 0.57,0.05 0.24,0.02 0.39,0.03 0.65,0.06 0.16,0.02 0.4,0.03 0.64,0.05 0.17,0.01 0.42,0.04 0.57,0.05 0.24,0.02 0.49,0.04 0.65,0.06 0.24,0.01 0.41,0.03 0.65,0.04 0.24,0.03 0.41,0.04 0.65,0.06 0,0 0,0.01 0.08,0.01 0.65,0.06 1.3,0.12 1.96,0.18 0.08,0.01 0.24,0.02 0.32,0.03 0.24,0.03 0.48,0.05 0.72,0.07 0.17,0 0.32,0.03 0.49,0.05 0.24,0.01 0.49,0.03 0.81,0.07 0.08,0 0.25,0.02 0.41,0.03 0.24,0.03 0.49,0.05 0.81,0.07 0.17,0.02 0.25,0.03 0.41,0.05 0.32,0.02 0.57,0.05 0.81,0.07 0.16,0.01 0.25,0.02 0.41,0.03 0.24,0.04 0.49,0.06 0.81,0.09 0.16,0.01 0.24,0.02 0.4,0.04 0.25,0.03 0.58,0.05 0.81,0.08 0.08,0 0.08,0 0.16,0 1.06,0.11 2.12,0.21 3.17,0.32 0.09,0.02 0.17,0.02 0.25,0.02 0.32,0.04 0.65,0.07 0.89,0.11 0.08,0.01 0.24,0.01 0.32,0.02 0.33,0.03 0.57,0.07 0.89,0.09 0.08,0.01 0.25,0.03 0.34,0.03 0.31,0.04 0.64,0.07 0.96,0.1 0.08,0.01 0.08,0.01 0.16,0.02 0.33,0.04 0.66,0.06 0.98,0.11 0.08,0 0.16,0.01 0.16,0.01 1.96,0.2 3.82,0.39 5.69,0.61l0.08 0c0.32,0.04 0.73,0.1 1.14,0.13l0 0c360.29,40.03 708.42,258.3 793.48,314.84 0.08,0.06 0.16,0.09 0.24,0.15 12.67,8.44 19.48,13.24 19.48,13.24 0,0 298.05,0 527.02,-7.56 62.75,-2.08 120.29,-4.71 165.1,-8.08 0.08,0 0.16,0 0.16,-0.01 0.16,-0.02 0.24,-0.02 0.41,-0.03 0.08,-0.01 0.08,-0.01 0.16,-0.01 0.08,-0.01 0.24,-0.02 0.41,-0.04 0,0 0.08,0 0.16,0 0.16,-0.02 0.23,-0.03 0.31,-0.04 0.26,0 0.42,-0.02 0.57,-0.03 108.93,-9.98 314.37,-128.91 538.07,-209.55 117.28,-42.58 239.2,-74.66 354.28,-74.66 87.26,0 170.7,18.43 245.17,64.69 28.35,17.46 45.78,35.74 54.15,54.87 -158.02,80.66 -353.45,143.86 -391.69,158 -116.39,44.06 -232.86,88.97 -349.26,133.05 -280.26,106.44 -560.45,213.71 -840.72,320.15 -634.4,241.97 -1270.59,479.79 -1936.64,609.52z" fill="#132B61"/>
  <path d="M13090.13 13100.21c229.53,-256.96 177.99,-498.1 177.99,-498.1l-549.66 246.13 371.67 251.97z" fill="#132B61"/>
  <path d="M14662.46 11854.95c16.62,-113.93 -45.66,-188.76 -142.21,-237.84 -236.1,-120.57 -680.14,-84.82 -680.14,-84.82 382.53,-634.45 -221.99,-1482.61 -858.18,-1642.26 -600.4,-152.21 -1254.77,118.05 -1757.03,434.09 -192.93,120.49 -378.39,255.27 -556.34,396.55 -124.72,99 -241.98,211.25 -374.18,301.9 -42.41,29.09 -86.48,55.7 -132.23,79.82 14.13,-14.96 32.41,-28.28 49.07,-42.41 589.59,-533 1066.04,-1301.36 1856.84,-1553.38 75.65,-24.05 153.82,-45.66 234.49,-62.27 582.06,-123.98 1273.92,46.47 1766.19,433.15 257.82,202.99 460.69,464.07 565.49,773.36 137.22,404.15 88.19,793.31 28.23,1204.11z" fill="#04A8DC"/>
  <path d="M14520.25 11617.11l0 0c-148.14,-75.67 -378.37,-89.77 -529.18,-89.77 -89.44,0 -150.96,4.95 -150.96,4.95 82.7,-137.23 119.31,-284.48 119.31,-432.58 0.16,-536.59 -478.97,-1084.66 -977.49,-1209.68 -118.52,-30.09 -239.28,-43.69 -360.47,-43.69 -492.52,0 -993.48,224.13 -1396.56,477.78 -192.93,120.49 -378.39,255.27 -556.34,396.55 -124.72,99 -241.98,211.25 -374.18,301.9 472.34,-493.15 914.7,-1066.08 1576.61,-1277.31 75.65,-24.05 153.81,-45.67 234.49,-62.28 125.81,-26.84 256.74,-39.85 389.68,-39.85 481.9,0 989.84,170.8 1375.7,473.82 257.79,202.17 461.51,464.06 566.31,772.56 83.08,245.31 98.18,485.63 83.08,727.6z" fill="#038CB7"/>
  <path d="M8697 14418.72l0 -244 -1075.71 0 0 244 396.46 0 0 726.37 282.79 0 0 -726.37 396.46 0zm141.4 726.37l281.42 0 0 -970.37 -281.42 0 0 970.37zm547.58 0l275.85 0 0 -544.8 281.42 544.8 205.16 0 281.42 -544.8 0 544.8 275.85 0 0 -970.37 -331.32 0 -328.55 639.05 -328.51 -639.05 -331.32 0 0 970.37zm1585.86 0l881.66 0 0 -225.95 -600.24 0 0 -189.92 535.08 0 0 -217.64 -535.08 0 0 -110.91 593.3 0 0 -225.95 -874.72 0 0 970.37zm2477.18 -726.37l0 -244 -1075.71 0 0 244 396.46 0 0 726.37 282.8 0 0 -726.37 396.45 0zm54.07 242.58c0,324.38 238.42,508.74 594.7,508.74 354.87,0 593.3,-184.36 593.3,-508.74 0,-324.38 -238.43,-508.74 -593.3,-508.74 -356.28,0 -594.7,184.36 -594.7,508.74zm594.7 -266.16c178.83,0 304.97,91.49 304.97,266.16 0,173.26 -126.14,266.16 -304.97,266.16 -178.82,0 -304.96,-92.9 -304.96,-266.16 0,-174.67 126.14,-266.16 304.96,-266.16z" fill="#132B61"/>
  <path d="M8697 15861.22l0 -243.99 -1075.71 0 0 243.99 396.46 0 0 726.38 282.79 0 0 -726.38 396.46 0zm141.4 726.38l281.42 0 0 -399.25 158.03 0 325.76 399.25 334.08 0 -347.96 -420.04c137.23,-29.11 223.19,-123.39 223.19,-264.79 0,-221.78 -176.04,-285.54 -436.67,-285.54l-537.85 0 0 970.37zm604.39 -752.74c48.53,0 83.18,23.58 83.18,70.7 0,44.37 -37.43,69.32 -83.18,69.32l-322.97 0 0 -140.02 322.97 0zm1262.86 -217.63l-331.29 0 -444.99 970.37 307.75 0 117.82 -264.79 368.72 0 117.85 264.79 310.5 0 -446.36 -970.37zm-61.01 489.32l-210.69 0 105.35 -237.01 105.34 237.01zm852.58 481.05l329.92 0 443.58 -970.37 -310.5 0 -298.06 690.35 -296.64 -690.35 -311.91 0 443.61 970.37zm914.9 0l881.66 0 0 -225.95 -600.24 0 0 -189.93 535.07 0 0 -217.63 -535.07 0 0 -110.91 593.29 0 0 -225.95 -874.71 0 0 970.37zm1125.61 0l866.4 0 0 -242.59 -584.98 0 0 -727.78 -281.42 0 0 970.37z" fill="#04A8DC"/>
  <path d="M13155.66 13143.15c229.53,-256.96 177.99,-498.1 177.99,-498.1l-549.66 246.13 371.67 251.97z" fill="#173374"/>
 </g>
</svg>